<svg width="1200" height="1234" xmlns="http://www.w3.org/2000/svg" font-family="serif">
<rect width="1200" height="1200" fill="#0d1117"/>
<rect y="1200" width="1200" height="34" fill="#f8f9fa"/>
<polyline points="1029.1,600.0 1029.1,595.2 1029.1,590.5 1029.0,585.7 1028.9,581.0 1028.7,576.2 1028.5,571.5 1028.2,566.7 1027.9,562.0 1027.6,557.3 1027.2,552.5 1026.7,547.8 1026.2,543.1 1025.6,538.4 1025.0,533.7 1024.4,529.0 1023.7,524.3 1023.0,519.6 1022.2,514.9 1021.3,510.2 1020.5,505.6 1019.5,500.9 1018.6,496.3 1017.5,491.7 1016.5,487.1 1015.4,482.5 1014.2,477.9 1013.0,473.3 1011.7,468.8 1010.4,464.2 1009.1,459.7 1007.7,455.2 1006.3,450.7 1004.8,446.2 1003.3,441.7 1001.7,437.3 1000.1,432.9 998.5,428.5 996.8,424.1 995.1,419.7 993.3,415.3 991.5,411.0 989.6,406.7 987.7,402.4 985.7,398.1 983.7,393.9 981.7,389.6 979.6,385.4 977.5,381.3 975.4,377.1 973.2,373.0 971.0,368.9 968.7,364.8 966.4,360.7 964.0,356.7 961.6,352.7 959.2,348.7 956.7,344.7 954.2,340.8 951.7,336.9 949.1,333.0 946.5,329.2 943.9,325.4 941.2,321.6 938.5,317.8 935.7,314.1 932.9,310.4 930.1,306.7 927.2,303.1 924.4,299.4 921.4,295.9 918.5,292.3 915.5,288.8 912.5,285.3 909.4,281.8 906.3,278.4 903.2,275.0 900.1,271.7 896.9,268.4 893.7,265.1 890.4,261.8 887.2,258.6 883.9,255.4 880.6,252.2 877.2,249.1 873.8,246.0 870.4,243.0 867.0,240.0 863.5,237.0 860.0,234.0 856.5,231.1 853.0,228.3 849.4,225.4 845.9,222.6 842.2,219.9 838.6,217.1 835.0,214.5 831.3,211.8 827.6,209.2 823.9,206.6 820.1,204.1 816.4,201.6 812.6,199.1 808.8,196.7 804.9,194.3 801.1,191.9 797.2,189.6 793.4,187.4 789.5,185.1 785.5,182.9 781.6,180.8 777.7,178.7 773.7,176.6 769.7,174.6 765.7,172.6 761.7,170.6 757.7,168.7 753.6,166.8 749.6,165.0 745.5,163.2 741.4,161.4 737.3,159.7 733.2,158.0 729.1,156.3 724.9,154.7 720.8,153.2 716.6,151.7 712.5,150.2 708.3,148.7 704.1,147.3 699.9,146.0 695.7,144.7 691.5,143.4 687.3,142.1 683.1,140.9 678.8,139.8 674.6,138.6 670.3,137.6 666.1,136.5 661.8,135.5 657.6,134.6 653.3,133.6 649.0,132.8 644.7,131.9 640.4,131.1 636.2,130.4 631.9,129.6 627.6,129.0 623.3,128.3 619.0,127.7 614.7,127.2 610.4,126.6 606.1,126.2 601.8,125.7 597.5,125.3 593.2,124.9 588.9,124.6 584.6,124.3 580.3,124.1 576.0,123.9 571.7,123.7 567.4,123.6 563.1,123.5 558.8,123.4 554.5,123.4 550.3,123.5 546.0,123.5 541.7,123.6 537.5,123.8 533.2,123.9 528.9,124.2 524.7,124.4 520.4,124.7 516.2,125.0 512.0,125.4 507.8,125.8 503.5,126.2 499.3,126.7 495.1,127.2 490.9,127.8 486.7,128.4 482.6,129.0 478.4,129.7 474.2,130.4 470.1,131.1 466.0,131.9 461.8,132.7 457.7,133.5 453.6,134.4 449.5,135.3 445.4,136.3 441.4,137.3 437.3,138.3 433.2,139.3 429.2,140.4 425.2,141.6 421.2,142.7 417.2,143.9 413.2,145.1 409.2,146.4 405.3,147.7 401.3,149.0 397.4,150.4 393.5,151.8 389.6,153.2 385.7,154.7 381.9,156.2 378.0,157.7 374.2,159.3 370.4,160.9 366.6,162.5 362.8,164.1 359.0,165.8 355.3,167.5 351.6,169.3 347.9,171.1 344.2,172.9 340.5,174.7 336.8,176.6 333.2,178.5 329.6,180.5 326.0,182.4 322.4,184.4 318.9,186.4 315.3,188.5 311.8,190.6 308.3,192.7 304.8,194.8 301.4,197.0 297.9,199.2 294.5,201.4 291.1,203.7 287.7,205.9 284.4,208.2 281.1,210.6 277.8,212.9 274.5,215.3 271.2,217.8 268.0,220.2 264.8,222.7 261.6,225.2 258.4,227.7 255.3,230.2 252.1,232.8 249.0,235.4 246.0,238.0 242.9,240.7 239.9,243.3 236.9,246.0 233.9,248.7 231.0,251.5 228.1,254.3 225.2,257.0 222.3,259.9 219.4,262.7 216.6,265.6 213.8,268.4 211.0,271.3 208.3,274.3 205.6,277.2 202.9,280.2 200.2,283.2 197.6,286.2 195.0,289.2 192.4,292.3 189.8,295.4 187.3,298.4 184.8,301.6 182.3,304.7 179.9,307.9 177.4,311.0 175.0,314.2 172.7,317.4 170.3,320.7 168.0,323.9 165.8,327.2 163.5,330.5 161.3,333.8 159.1,337.1 156.9,340.4 154.8,343.8 152.7,347.1 150.6,350.5 148.6,353.9 146.5,357.4 144.5,360.8 142.6,364.2 140.7,367.7 138.8,371.2 136.9,374.7 135.0,378.2 133.2,381.7 131.5,385.3 129.7,388.8 128.0,392.4 126.3,396.0 124.6,399.6 123.0,403.2 121.4,406.8 119.9,410.4 118.3,414.1 116.8,417.7 115.4,421.4 113.9,425.1 112.5,428.8 111.1,432.5 109.8,436.2 108.5,439.9 107.2,443.6 105.9,447.4 104.7,451.1 103.5,454.9 102.4,458.7 101.2,462.4 100.2,466.2 99.1,470.0 98.1,473.8 97.1,477.7 96.1,481.5 95.2,485.3 94.3,489.2 93.4,493.0 92.6,496.8 91.8,500.7 91.0,504.6 90.3,508.4 89.6,512.3 88.9,516.2 88.3,520.1 87.6,524.0 87.1,527.9 86.5,531.8 86.0,535.7 85.5,539.6 85.1,543.5 84.7,547.4 84.3,551.4 84.0,555.3 83.7,559.2 83.4,563.1 83.1,567.1 82.9,571.0 82.8,574.9 82.6,578.9 82.5,582.8 82.4,586.8 82.4,590.7 82.4,594.6 82.4,598.6 82.4,602.5 82.5,606.5 82.6,610.4 82.8,614.3 83.0,618.3 83.2,622.2 83.4,626.2 83.7,630.1 84.0,634.0 84.4,638.0 84.8,641.9 85.2,645.8 85.6,649.7 86.1,653.7 86.6,657.6 87.2,661.5 87.8,665.4 88.4,669.3 89.0,673.2 89.7,677.1 90.4,681.0 91.2,684.9 92.0,688.8 92.8,692.6 93.6,696.5 94.5,700.4 95.4,704.2 96.4,708.1 97.3,711.9 98.3,715.8 99.4,719.6 100.5,723.4 101.6,727.2 102.7,731.0 103.9,734.8 105.1,738.6 106.3,742.4 107.6,746.1 108.9,749.9 110.2,753.6 111.6,757.4 113.0,761.1 114.4,764.8 115.9,768.5 117.4,772.2 118.9,775.9 120.5,779.6 122.1,783.2 123.7,786.9 125.3,790.5 127.0,794.2 128.7,797.8 130.5,801.4 132.3,804.9 134.1,808.5 135.9,812.1 137.8,815.6 139.7,819.1 141.6,822.6 143.6,826.1 145.6,829.6 147.6,833.1 149.6,836.5 151.7,840.0 153.8,843.4 156.0,846.8 158.2,850.2 160.4,853.6 162.6,856.9 164.9,860.2 167.2,863.6 169.5,866.9 171.9,870.1 174.2,873.4 176.6,876.6 179.1,879.9 181.6,883.1 184.1,886.3 186.6,889.4 189.1,892.6 191.7,895.7 194.3,898.8 197.0,901.9 199.7,905.0 202.4,908.0 205.1,911.0 207.8,914.0 210.6,917.0 213.4,920.0 216.3,922.9 219.1,925.8 222.0,928.7 224.9,931.5 227.9,934.4 230.8,937.2 233.8,940.0 236.8,942.8 239.9,945.5 243.0,948.2 246.1,950.9 249.2,953.6 252.3,956.2 255.5,958.8 258.7,961.4 261.9,964.0 265.2,966.5 268.4,969.1 271.7,971.5 275.1,974.0 278.4,976.4 281.8,978.8 285.2,981.2 288.6,983.6 292.0,985.9 295.5,988.2 298.9,990.4 302.5,992.7 306.0,994.9 309.5,997.1 313.1,999.2 316.7,1001.3 320.3,1003.4 323.9,1005.5 327.6,1007.5 331.3,1009.5 335.0,1011.4 338.7,1013.4 342.4,1015.3 346.2,1017.2 349.9,1019.0 353.7,1020.8 357.5,1022.6 361.4,1024.3 365.2,1026.0 369.1,1027.7 373.0,1029.3 376.9,1030.9 380.8,1032.5 384.7,1034.1 388.7,1035.6 392.6,1037.1 396.6,1038.5 400.6,1039.9 404.6,1041.3 408.7,1042.6 412.7,1043.9 416.8,1045.2 420.9,1046.4 425.0,1047.6 429.1,1048.8 433.2,1049.9 437.3,1051.0 441.5,1052.0 445.6,1053.0 449.8,1054.0 454.0,1055.0 458.2,1055.9 462.4,1056.7 466.6,1057.6 470.8,1058.3 475.1,1059.1 479.3,1059.8 483.6,1060.5 487.8,1061.1 492.1,1061.7 496.4,1062.3 500.7,1062.8 505.0,1063.3 509.3,1063.8 513.6,1064.2 518.0,1064.5 522.3,1064.9 526.6,1065.2 531.0,1065.4 535.3,1065.6 539.7,1065.8 544.1,1065.9 548.4,1066.0 552.8,1066.1 557.2,1066.1 561.6,1066.0 565.9,1066.0 570.3,1065.9 574.7,1065.7 579.1,1065.5 583.5,1065.3 587.9,1065.0 592.3,1064.7 596.7,1064.3 601.1,1064.0 605.5,1063.5 609.9,1063.0 614.3,1062.5 618.7,1062.0 623.1,1061.4 627.5,1060.7 631.9,1060.0 636.2,1059.3 640.6,1058.5 645.0,1057.7 649.4,1056.9 653.7,1056.0 658.1,1055.0 662.5,1054.0 666.8,1053.0 671.2,1052.0 675.5,1050.9 679.8,1049.7 684.2,1048.5 688.5,1047.3 692.8,1046.0 697.1,1044.7 701.4,1043.4 705.7,1042.0 710.0,1040.5 714.2,1039.0 718.5,1037.5 722.7,1036.0 726.9,1034.3 731.2,1032.7 735.4,1031.0 739.5,1029.3 743.7,1027.5 747.9,1025.7 752.0,1023.8 756.2,1021.9 760.3,1020.0 764.4,1018.0 768.5,1016.0 772.6,1013.9 776.6,1011.8 780.6,1009.7 784.7,1007.5 788.7,1005.3 792.6,1003.0 796.6,1000.7 800.6,998.4 804.5,996.0 808.4,993.6 812.3,991.1 816.1,988.6 820.0,986.1 823.8,983.5 827.6,980.9 831.3,978.2 835.1,975.5 838.8,972.8 842.5,970.0 846.2,967.2 849.8,964.4 853.4,961.5 857.0,958.6 860.6,955.6 864.2,952.6 867.7,949.6 871.2,946.5 874.6,943.4 878.0,940.3 881.4,937.1 884.8,933.9 888.2,930.6 891.5,927.4 894.8,924.0 898.0,920.7 901.2,917.3 904.4,913.9 907.6,910.4 910.7,907.0 913.8,903.4 916.8,899.9 919.8,896.3 922.8,892.7 925.8,889.0 928.7,885.4 931.6,881.7 934.4,877.9 937.2,874.2 940.0,870.4 942.8,866.5 945.5,862.7 948.1,858.8 950.7,854.9 953.3,851.0 955.9,847.0 958.4,843.0 960.8,839.0 963.3,834.9 965.7,830.9 968.0,826.8 970.3,822.6 972.6,818.5 974.8,814.3 977.0,810.1 979.2,805.9 981.3,801.7 983.3,797.4 985.3,793.1 987.3,788.8 989.2,784.5 991.1,780.1 993.0,775.8 994.8,771.4 996.5,767.0 998.3,762.6 999.9,758.1 1001.5,753.7 1003.1,749.2 1004.7,744.7 1006.2,740.2 1007.6,735.7 1009.0,731.1 1010.3,726.6 1011.7,722.0 1012.9,717.4 1014.1,712.8 1015.3,708.2 1016.4,703.6 1017.5,698.9 1018.5,694.3 1019.5,689.6 1020.4,685.0 1021.3,680.3 1022.2,675.6 1023.0,670.9 1023.7,666.2 1024.4,661.5 1025.0,656.8 1025.6,652.1 1026.2,647.4 1026.7,642.6 1027.2,637.9 1027.6,633.2 1027.9,628.4 1028.2,623.7 1028.5,618.9 1028.7,614.2 1028.9,609.4 1029.0,604.6 1029.1,599.9" fill="none" stroke="#58a6ff" stroke-width="2.5" opacity="0.9"/>
<polygon points="600.0,600.0 1029.1,600.0 1021.3,510.2" fill="#3fb950" opacity="0.18"/>
<line x1="600.0" y1="600.0" x2="1029.1" y2="600.0" stroke="#3fb950" stroke-width="1" opacity="0.4"/>
<line x1="600.0" y1="600.0" x2="1021.3" y2="510.2" stroke="#3fb950" stroke-width="1" opacity="0.4"/>
<polygon points="600.0,600.0 1021.3,510.2 996.8,424.1" fill="#3fb950" opacity="0.18"/>
<line x1="600.0" y1="600.0" x2="1021.3" y2="510.2" stroke="#3fb950" stroke-width="1" opacity="0.4"/>
<line x1="600.0" y1="600.0" x2="996.8" y2="424.1" stroke="#3fb950" stroke-width="1" opacity="0.4"/>
<polygon points="600.0,600.0 996.8,424.1 956.7,344.7" fill="#3fb950" opacity="0.18"/>
<line x1="600.0" y1="600.0" x2="996.8" y2="424.1" stroke="#3fb950" stroke-width="1" opacity="0.4"/>
<line x1="600.0" y1="600.0" x2="956.7" y2="344.7" stroke="#3fb950" stroke-width="1" opacity="0.4"/>
<polygon points="600.0,600.0 956.7,344.7 903.2,275.0" fill="#3fb950" opacity="0.18"/>
<line x1="600.0" y1="600.0" x2="956.7" y2="344.7" stroke="#3fb950" stroke-width="1" opacity="0.4"/>
<line x1="600.0" y1="600.0" x2="903.2" y2="275.0" stroke="#3fb950" stroke-width="1" opacity="0.4"/>
<polygon points="600.0,600.0 903.2,275.0 838.6,217.1" fill="#3fb950" opacity="0.18"/>
<line x1="600.0" y1="600.0" x2="903.2" y2="275.0" stroke="#3fb950" stroke-width="1" opacity="0.4"/>
<line x1="600.0" y1="600.0" x2="838.6" y2="217.1" stroke="#3fb950" stroke-width="1" opacity="0.4"/>
<polygon points="600.0,600.0 838.6,217.1 765.7,172.6" fill="#3fb950" opacity="0.18"/>
<line x1="600.0" y1="600.0" x2="838.6" y2="217.1" stroke="#3fb950" stroke-width="1" opacity="0.4"/>
<line x1="600.0" y1="600.0" x2="765.7" y2="172.6" stroke="#3fb950" stroke-width="1" opacity="0.4"/>
<polygon points="600.0,600.0 765.7,172.6 687.3,142.1" fill="#3fb950" opacity="0.18"/>
<line x1="600.0" y1="600.0" x2="765.7" y2="172.6" stroke="#3fb950" stroke-width="1" opacity="0.4"/>
<line x1="600.0" y1="600.0" x2="687.3" y2="142.1" stroke="#3fb950" stroke-width="1" opacity="0.4"/>
<polygon points="600.0,600.0 687.3,142.1 606.1,126.2" fill="#3fb950" opacity="0.18"/>
<line x1="600.0" y1="600.0" x2="687.3" y2="142.1" stroke="#3fb950" stroke-width="1" opacity="0.4"/>
<line x1="600.0" y1="600.0" x2="606.1" y2="126.2" stroke="#3fb950" stroke-width="1" opacity="0.4"/>
<polygon points="600.0,600.0 606.1,126.2 524.7,124.4" fill="#3fb950" opacity="0.18"/>
<line x1="600.0" y1="600.0" x2="606.1" y2="126.2" stroke="#3fb950" stroke-width="1" opacity="0.4"/>
<line x1="600.0" y1="600.0" x2="524.7" y2="124.4" stroke="#3fb950" stroke-width="1" opacity="0.4"/>
<polygon points="600.0,600.0 524.7,124.4 445.4,136.3" fill="#3fb950" opacity="0.18"/>
<line x1="600.0" y1="600.0" x2="524.7" y2="124.4" stroke="#3fb950" stroke-width="1" opacity="0.4"/>
<line x1="600.0" y1="600.0" x2="445.4" y2="136.3" stroke="#3fb950" stroke-width="1" opacity="0.4"/>
<polygon points="600.0,600.0 445.4,136.3 370.4,160.9" fill="#3fb950" opacity="0.18"/>
<line x1="600.0" y1="600.0" x2="445.4" y2="136.3" stroke="#3fb950" stroke-width="1" opacity="0.4"/>
<line x1="600.0" y1="600.0" x2="370.4" y2="160.9" stroke="#3fb950" stroke-width="1" opacity="0.4"/>
<polygon points="600.0,600.0 370.4,160.9 301.4,197.0" fill="#3fb950" opacity="0.18"/>
<line x1="600.0" y1="600.0" x2="370.4" y2="160.9" stroke="#3fb950" stroke-width="1" opacity="0.4"/>
<line x1="600.0" y1="600.0" x2="301.4" y2="197.0" stroke="#3fb950" stroke-width="1" opacity="0.4"/>
<polygon points="600.0,600.0 301.4,197.0 239.9,243.3" fill="#3fb950" opacity="0.18"/>
<line x1="600.0" y1="600.0" x2="301.4" y2="197.0" stroke="#3fb950" stroke-width="1" opacity="0.4"/>
<line x1="600.0" y1="600.0" x2="239.9" y2="243.3" stroke="#3fb950" stroke-width="1" opacity="0.4"/>
<polygon points="600.0,600.0 239.9,243.3 187.3,298.4" fill="#3fb950" opacity="0.18"/>
<line x1="600.0" y1="600.0" x2="239.9" y2="243.3" stroke="#3fb950" stroke-width="1" opacity="0.4"/>
<line x1="600.0" y1="600.0" x2="187.3" y2="298.4" stroke="#3fb950" stroke-width="1" opacity="0.4"/>
<polygon points="600.0,600.0 187.3,298.4 144.5,360.8" fill="#3fb950" opacity="0.18"/>
<line x1="600.0" y1="600.0" x2="187.3" y2="298.4" stroke="#3fb950" stroke-width="1" opacity="0.4"/>
<line x1="600.0" y1="600.0" x2="144.5" y2="360.8" stroke="#3fb950" stroke-width="1" opacity="0.4"/>
<polygon points="600.0,600.0 144.5,360.8 112.5,428.8" fill="#3fb950" opacity="0.18"/>
<line x1="600.0" y1="600.0" x2="144.5" y2="360.8" stroke="#3fb950" stroke-width="1" opacity="0.4"/>
<line x1="600.0" y1="600.0" x2="112.5" y2="428.8" stroke="#3fb950" stroke-width="1" opacity="0.4"/>
<polygon points="600.0,600.0 112.5,428.8 91.8,500.7" fill="#3fb950" opacity="0.18"/>
<line x1="600.0" y1="600.0" x2="112.5" y2="428.8" stroke="#3fb950" stroke-width="1" opacity="0.4"/>
<line x1="600.0" y1="600.0" x2="91.8" y2="500.7" stroke="#3fb950" stroke-width="1" opacity="0.4"/>
<polygon points="600.0,600.0 91.8,500.7 82.8,574.9" fill="#3fb950" opacity="0.18"/>
<line x1="600.0" y1="600.0" x2="91.8" y2="500.7" stroke="#3fb950" stroke-width="1" opacity="0.4"/>
<line x1="600.0" y1="600.0" x2="82.8" y2="574.9" stroke="#3fb950" stroke-width="1" opacity="0.4"/>
<polygon points="600.0,600.0 82.8,574.9 85.6,649.7" fill="#3fb950" opacity="0.18"/>
<line x1="600.0" y1="600.0" x2="82.8" y2="574.9" stroke="#3fb950" stroke-width="1" opacity="0.4"/>
<line x1="600.0" y1="600.0" x2="85.6" y2="649.7" stroke="#3fb950" stroke-width="1" opacity="0.4"/>
<polygon points="600.0,600.0 85.6,649.7 100.5,723.4" fill="#3fb950" opacity="0.18"/>
<line x1="600.0" y1="600.0" x2="85.6" y2="649.7" stroke="#3fb950" stroke-width="1" opacity="0.4"/>
<line x1="600.0" y1="600.0" x2="100.5" y2="723.4" stroke="#3fb950" stroke-width="1" opacity="0.4"/>
<polygon points="600.0,600.0 100.5,723.4 127.0,794.2" fill="#3fb950" opacity="0.18"/>
<line x1="600.0" y1="600.0" x2="100.5" y2="723.4" stroke="#3fb950" stroke-width="1" opacity="0.4"/>
<line x1="600.0" y1="600.0" x2="127.0" y2="794.2" stroke="#3fb950" stroke-width="1" opacity="0.4"/>
<polygon points="600.0,600.0 127.0,794.2 164.9,860.2" fill="#3fb950" opacity="0.18"/>
<line x1="600.0" y1="600.0" x2="127.0" y2="794.2" stroke="#3fb950" stroke-width="1" opacity="0.4"/>
<line x1="600.0" y1="600.0" x2="164.9" y2="860.2" stroke="#3fb950" stroke-width="1" opacity="0.4"/>
<polygon points="600.0,600.0 164.9,860.2 213.4,920.0" fill="#3fb950" opacity="0.18"/>
<line x1="600.0" y1="600.0" x2="164.9" y2="860.2" stroke="#3fb950" stroke-width="1" opacity="0.4"/>
<line x1="600.0" y1="600.0" x2="213.4" y2="920.0" stroke="#3fb950" stroke-width="1" opacity="0.4"/>
<polygon points="600.0,600.0 213.4,920.0 271.7,971.5" fill="#3fb950" opacity="0.18"/>
<line x1="600.0" y1="600.0" x2="213.4" y2="920.0" stroke="#3fb950" stroke-width="1" opacity="0.4"/>
<line x1="600.0" y1="600.0" x2="271.7" y2="971.5" stroke="#3fb950" stroke-width="1" opacity="0.4"/>
<polygon points="600.0,600.0 271.7,971.5 338.7,1013.4" fill="#3fb950" opacity="0.18"/>
<line x1="600.0" y1="600.0" x2="271.7" y2="971.5" stroke="#3fb950" stroke-width="1" opacity="0.4"/>
<line x1="600.0" y1="600.0" x2="338.7" y2="1013.4" stroke="#3fb950" stroke-width="1" opacity="0.4"/>
<polygon points="600.0,600.0 338.7,1013.4 412.7,1043.9" fill="#3fb950" opacity="0.18"/>
<line x1="600.0" y1="600.0" x2="338.7" y2="1013.4" stroke="#3fb950" stroke-width="1" opacity="0.4"/>
<line x1="600.0" y1="600.0" x2="412.7" y2="1043.9" stroke="#3fb950" stroke-width="1" opacity="0.4"/>
<polygon points="600.0,600.0 412.7,1043.9 492.1,1061.7" fill="#3fb950" opacity="0.18"/>
<line x1="600.0" y1="600.0" x2="412.7" y2="1043.9" stroke="#3fb950" stroke-width="1" opacity="0.4"/>
<line x1="600.0" y1="600.0" x2="492.1" y2="1061.7" stroke="#3fb950" stroke-width="1" opacity="0.4"/>
<polygon points="600.0,600.0 492.1,1061.7 574.7,1065.7" fill="#3fb950" opacity="0.18"/>
<line x1="600.0" y1="600.0" x2="492.1" y2="1061.7" stroke="#3fb950" stroke-width="1" opacity="0.4"/>
<line x1="600.0" y1="600.0" x2="574.7" y2="1065.7" stroke="#3fb950" stroke-width="1" opacity="0.4"/>
<polygon points="600.0,600.0 574.7,1065.7 658.1,1055.0" fill="#3fb950" opacity="0.18"/>
<line x1="600.0" y1="600.0" x2="574.7" y2="1065.7" stroke="#3fb950" stroke-width="1" opacity="0.4"/>
<line x1="600.0" y1="600.0" x2="658.1" y2="1055.0" stroke="#3fb950" stroke-width="1" opacity="0.4"/>
<polygon points="600.0,600.0 658.1,1055.0 739.5,1029.3" fill="#3fb950" opacity="0.18"/>
<line x1="600.0" y1="600.0" x2="658.1" y2="1055.0" stroke="#3fb950" stroke-width="1" opacity="0.4"/>
<line x1="600.0" y1="600.0" x2="739.5" y2="1029.3" stroke="#3fb950" stroke-width="1" opacity="0.4"/>
<polygon points="600.0,600.0 739.5,1029.3 816.1,988.6" fill="#3fb950" opacity="0.18"/>
<line x1="600.0" y1="600.0" x2="739.5" y2="1029.3" stroke="#3fb950" stroke-width="1" opacity="0.4"/>
<line x1="600.0" y1="600.0" x2="816.1" y2="988.6" stroke="#3fb950" stroke-width="1" opacity="0.4"/>
<polygon points="600.0,600.0 816.1,988.6 884.8,933.9" fill="#3fb950" opacity="0.18"/>
<line x1="600.0" y1="600.0" x2="816.1" y2="988.6" stroke="#3fb950" stroke-width="1" opacity="0.4"/>
<line x1="600.0" y1="600.0" x2="884.8" y2="933.9" stroke="#3fb950" stroke-width="1" opacity="0.4"/>
<polygon points="600.0,600.0 884.8,933.9 942.8,866.5" fill="#3fb950" opacity="0.18"/>
<line x1="600.0" y1="600.0" x2="884.8" y2="933.9" stroke="#3fb950" stroke-width="1" opacity="0.4"/>
<line x1="600.0" y1="600.0" x2="942.8" y2="866.5" stroke="#3fb950" stroke-width="1" opacity="0.4"/>
<polygon points="600.0,600.0 942.8,866.5 987.3,788.8" fill="#3fb950" opacity="0.18"/>
<line x1="600.0" y1="600.0" x2="942.8" y2="866.5" stroke="#3fb950" stroke-width="1" opacity="0.4"/>
<line x1="600.0" y1="600.0" x2="987.3" y2="788.8" stroke="#3fb950" stroke-width="1" opacity="0.4"/>
<polygon points="600.0,600.0 987.3,788.8 1016.4,703.6" fill="#3fb950" opacity="0.18"/>
<line x1="600.0" y1="600.0" x2="987.3" y2="788.8" stroke="#3fb950" stroke-width="1" opacity="0.4"/>
<line x1="600.0" y1="600.0" x2="1016.4" y2="703.6" stroke="#3fb950" stroke-width="1" opacity="0.4"/>
<polygon points="600.0,600.0 1016.4,703.6 1028.7,614.2" fill="#3fb950" opacity="0.18"/>
<line x1="600.0" y1="600.0" x2="1016.4" y2="703.6" stroke="#3fb950" stroke-width="1" opacity="0.4"/>
<line x1="600.0" y1="600.0" x2="1028.7" y2="614.2" stroke="#3fb950" stroke-width="1" opacity="0.4"/>
<circle cx="600.0" cy="600.0" r="18" fill="#ffd700"/>
<circle cx="600.0" cy="600.0" r="24" fill="none" stroke="#ffd700" stroke-width="1.5" opacity="0.4"/>
<text x="628.0" y="606.0" font-size="18" fill="#ffd700" font-weight="bold">Sol</text>
<circle cx="1029.1" cy="600.0" r="12" fill="#f0883e"/>
<text x="1047.1" y="590.0" font-size="16" fill="#f0883e" font-weight="bold">Marte</text>
<text x="600" y="45" text-anchor="middle" font-size="22" font-weight="bold" fill="white">Figura 3. Segunda ley de Kepler en formulación SV: 𝔇_Γ A(j) = constante</text>
<text x="600" y="74" text-anchor="middle" font-size="15" fill="#8b949e">Órbita de Marte: 687 sucesos activadores (1 suceso = 1 día orbital). Sin parámetro temporal soberano.</text>
<text x="600" y="100" text-anchor="middle" font-size="14" fill="#3fb950">Las áreas verdes (𝔇_Γ A por suceso) son iguales: desviación = 0.0000% ≪ 1%</text>
<rect x="60" y="1000" width="1080" height="180" fill="#161b22" stroke="#30363d" stroke-width="1.5" rx="8"/>
<text x="76" y="1032" font-size="15" fill="#3fb950">𝔇_Γ A media = 2.3653e+20 m²/suceso  |  variación = 0.0000%  ✓</text>
<text x="76" y="1068" font-size="14" fill="#c9d1d9">Fundamento: ΔL_SV/Δε = r × F_central = 0  ⟹  L_SV = constante  ⟹  𝔇_Γ A = |L_SV|/(2m) = constante</text>
<text x="76" y="1104" font-size="14" fill="#8b949e">El tiempo (Δt = 86,400 s) es el coeficiente c_j elegido (CMODCF-SV §III). El SCC proporciona otro c_j.</text>
<text x="76" y="1140" font-size="14" fill="#8b949e">La ley es verdadera para cualquier c_j constante. El tiempo no es primitivo de la demostración.</text>
<line x1="0" y1="1200" x2="1200" y2="1200" stroke="#ccc" stroke-width="1"/>
<text x="600" y="1222" text-anchor="middle" font-size="11" fill="#555" font-family="serif">Autor: Juan Antonio Lloret Egea  |  ORCID: 0000-0002-6634-3351  |  ITVIA — IA eñ™ — La Biblia de la IA™  |  ISSN 2695-6411  |  Madrid, 2026</text>
</svg>