<svg width="1440" height="844" xmlns="http://www.w3.org/2000/svg" font-family="serif">
<rect width="100%" height="100%" fill="#fafafa"/>
<text x="720" y="38" text-anchor="middle" font-size="24" font-weight="bold" fill="#1a3a5c">Figura 4. Los doce tipos morfológicos de Trayectoria Poligonal de Activación (Σ₁–Σ₁₂)</text>
<text x="720" y="62" text-anchor="middle" font-size="14" fill="#555">Clasificación exhaustiva por secuencia de signos de la derivada de activación M = (sgn(m₀),…,sgn(mₙ₋₁))</text>
<text x="720" y="80" text-anchor="middle" font-size="13" fill="#777">Observable φ ∈ {0,…,n}; suceso activador ε ∈ ℕ; restricción de no colinealidad: mₖ ≠ mₖ₊₁</text>
<rect x="0" y="90" width="360" height="240" fill="#c8e6c9" opacity="0.5" stroke="#bbb" stroke-width="1"/>
<polygon points="18.0,302.0 18.0,142.8 83.6,195.9 149.2,231.3 214.8,248.9 280.4,266.6 346.0,284.3 346.0,302.0" fill="#2e7d32" opacity="0.2"/>
<polyline points="18.0,142.8 83.6,195.9 149.2,231.3 214.8,248.9 280.4,266.6 346.0,284.3" fill="none" stroke="#2e7d32" stroke-width="3"/>
<circle cx="18.0" cy="142.8" r="4" fill="#2e7d32" opacity="0.8"/>
<circle cx="83.6" cy="195.9" r="4" fill="#2e7d32" opacity="0.8"/>
<circle cx="149.2" cy="231.3" r="4" fill="#2e7d32" opacity="0.8"/>
<circle cx="214.8" cy="248.9" r="4" fill="#2e7d32" opacity="0.8"/>
<circle cx="280.4" cy="266.6" r="4" fill="#2e7d32" opacity="0.8"/>
<circle cx="346.0" cy="284.3" r="4" fill="#2e7d32" opacity="0.8"/>
<line x1="18" y1="302" x2="346" y2="302" stroke="#888" stroke-width="1.5"/>
<line x1="18" y1="134" x2="18" y2="302" stroke="#888" stroke-width="1.5"/>
<text x="6" y="112" font-size="18" font-weight="bold" fill="#1b5e20">Σ₁ CP</text>
<text x="354" y="108" text-anchor="end" font-size="11" fill="#444">Convergente Pura</text>
<text x="354" y="122" text-anchor="end" font-size="11" fill="#1b5e20">Convergente</text>
<text x="6" y="324" font-size="11" fill="#555">𝔄=20  φmax=9  n=5  ‖J‖₁=8</text>
<rect x="360" y="90" width="360" height="240" fill="#bbdefb" opacity="0.5" stroke="#bbb" stroke-width="1"/>
<polygon points="378.0,302.0 378.0,287.4 443.6,272.8 509.2,243.6 574.8,214.3 640.4,170.5 706.0,141.3 706.0,302.0" fill="#1565c0" opacity="0.2"/>
<polyline points="378.0,287.4 443.6,272.8 509.2,243.6 574.8,214.3 640.4,170.5 706.0,141.3" fill="none" stroke="#1565c0" stroke-width="3"/>
<circle cx="378.0" cy="287.4" r="4" fill="#1565c0" opacity="0.8"/>
<circle cx="443.6" cy="272.8" r="4" fill="#1565c0" opacity="0.8"/>
<circle cx="509.2" cy="243.6" r="4" fill="#1565c0" opacity="0.8"/>
<circle cx="574.8" cy="214.3" r="4" fill="#1565c0" opacity="0.8"/>
<circle cx="640.4" cy="170.5" r="4" fill="#1565c0" opacity="0.8"/>
<circle cx="706.0" cy="141.3" r="4" fill="#1565c0" opacity="0.8"/>
<line x1="378" y1="302" x2="706" y2="302" stroke="#888" stroke-width="1.5"/>
<line x1="378" y1="134" x2="378" y2="302" stroke="#888" stroke-width="1.5"/>
<text x="366" y="112" font-size="18" font-weight="bold" fill="#0d47a1">Σ₂ EP</text>
<text x="714" y="108" text-anchor="end" font-size="11" fill="#444">Exploratoria Pura</text>
<text x="714" y="122" text-anchor="end" font-size="11" fill="#0d47a1">No convergente</text>
<text x="366" y="324" font-size="11" fill="#555">𝔄=27  φmax=11  n=5  ‖J‖₁=10</text>
<rect x="720" y="90" width="360" height="240" fill="#bbdefb" opacity="0.5" stroke="#bbb" stroke-width="1"/>
<polygon points="738.0,302.0 738.0,284.3 770.8,248.9 803.6,195.9 836.4,160.5 869.2,142.8 902.0,142.8 934.8,160.5 967.6,195.9 1000.4,248.9 1033.2,266.6 1066.0,266.6 1066.0,302.0" fill="#1565c0" opacity="0.2"/>
<polyline points="738.0,284.3 770.8,248.9 803.6,195.9 836.4,160.5 869.2,142.8 902.0,142.8 934.8,160.5 967.6,195.9 1000.4,248.9 1033.2,266.6 1066.0,266.6" fill="none" stroke="#1565c0" stroke-width="3"/>
<circle cx="738.0" cy="284.3" r="4" fill="#1565c0" opacity="0.8"/>
<circle cx="770.8" cy="248.9" r="4" fill="#1565c0" opacity="0.8"/>
<circle cx="803.6" cy="195.9" r="4" fill="#1565c0" opacity="0.8"/>
<circle cx="836.4" cy="160.5" r="4" fill="#1565c0" opacity="0.8"/>
<circle cx="869.2" cy="142.8" r="4" fill="#1565c0" opacity="0.8"/>
<circle cx="902.0" cy="142.8" r="4" fill="#1565c0" opacity="0.8"/>
<circle cx="934.8" cy="160.5" r="4" fill="#1565c0" opacity="0.8"/>
<circle cx="967.6" cy="195.9" r="4" fill="#1565c0" opacity="0.8"/>
<circle cx="1000.4" cy="248.9" r="4" fill="#1565c0" opacity="0.8"/>
<circle cx="1033.2" cy="266.6" r="4" fill="#1565c0" opacity="0.8"/>
<circle cx="1066.0" cy="266.6" r="4" fill="#1565c0" opacity="0.8"/>
<line x1="738" y1="302" x2="1066" y2="302" stroke="#888" stroke-width="1.5"/>
<line x1="738" y1="134" x2="738" y2="302" stroke="#888" stroke-width="1.5"/>
<text x="726" y="112" font-size="18" font-weight="bold" fill="#0d47a1">Σ₃ BAC</text>
<text x="1074" y="108" text-anchor="end" font-size="11" fill="#444">Bimodal Apertura-Cierre</text>
<text x="1074" y="122" text-anchor="end" font-size="11" fill="#0d47a1">No convergente</text>
<text x="726" y="324" font-size="11" fill="#555">𝔄=56  φmax=9  n=10  ‖J‖₁=15</text>
<rect x="1080" y="90" width="360" height="240" fill="#bbdefb" opacity="0.5" stroke="#bbb" stroke-width="1"/>
<polygon points="1098.0,302.0 1098.0,160.5 1144.9,195.9 1191.7,213.6 1238.6,213.6 1285.4,195.9 1332.3,160.5 1379.1,142.8 1426.0,142.8 1426.0,302.0" fill="#1565c0" opacity="0.2"/>
<polyline points="1098.0,160.5 1144.9,195.9 1191.7,213.6 1238.6,213.6 1285.4,195.9 1332.3,160.5 1379.1,142.8 1426.0,142.8" fill="none" stroke="#1565c0" stroke-width="3"/>
<circle cx="1098.0" cy="160.5" r="4" fill="#1565c0" opacity="0.8"/>
<circle cx="1144.9" cy="195.9" r="4" fill="#1565c0" opacity="0.8"/>
<circle cx="1191.7" cy="213.6" r="4" fill="#1565c0" opacity="0.8"/>
<circle cx="1238.6" cy="213.6" r="4" fill="#1565c0" opacity="0.8"/>
<circle cx="1285.4" cy="195.9" r="4" fill="#1565c0" opacity="0.8"/>
<circle cx="1332.3" cy="160.5" r="4" fill="#1565c0" opacity="0.8"/>
<circle cx="1379.1" cy="142.8" r="4" fill="#1565c0" opacity="0.8"/>
<circle cx="1426.0" cy="142.8" r="4" fill="#1565c0" opacity="0.8"/>
<line x1="1098" y1="302" x2="1426" y2="302" stroke="#888" stroke-width="1.5"/>
<line x1="1098" y1="134" x2="1098" y2="302" stroke="#888" stroke-width="1.5"/>
<text x="1086" y="112" font-size="18" font-weight="bold" fill="#0d47a1">Σ₄ BCA</text>
<text x="1434" y="108" text-anchor="end" font-size="11" fill="#444">Bimodal Cierre-Apertura</text>
<text x="1434" y="122" text-anchor="end" font-size="11" fill="#0d47a1">No convergente</text>
<text x="1086" y="324" font-size="11" fill="#555">𝔄=48  φmax=9  n=7  ‖J‖₁=7</text>
<rect x="0" y="330" width="360" height="240" fill="#fff9c4" opacity="0.5" stroke="#bbb" stroke-width="1"/>
<polygon points="18.0,542.0 18.0,389.3 72.7,389.3 127.3,389.3 182.0,389.3 236.7,389.3 291.3,389.3 346.0,389.3 346.0,542.0" fill="#f57f17" opacity="0.2"/>
<polyline points="18.0,389.3 72.7,389.3 127.3,389.3 182.0,389.3 236.7,389.3 291.3,389.3 346.0,389.3" fill="none" stroke="#f57f17" stroke-width="3"/>
<circle cx="18.0" cy="389.3" r="4" fill="#f57f17" opacity="0.8"/>
<circle cx="72.7" cy="389.3" r="4" fill="#f57f17" opacity="0.8"/>
<circle cx="127.3" cy="389.3" r="4" fill="#f57f17" opacity="0.8"/>
<circle cx="182.0" cy="389.3" r="4" fill="#f57f17" opacity="0.8"/>
<circle cx="236.7" cy="389.3" r="4" fill="#f57f17" opacity="0.8"/>
<circle cx="291.3" cy="389.3" r="4" fill="#f57f17" opacity="0.8"/>
<circle cx="346.0" cy="389.3" r="4" fill="#f57f17" opacity="0.8"/>
<line x1="18" y1="542" x2="346" y2="542" stroke="#888" stroke-width="1.5"/>
<line x1="18" y1="374" x2="18" y2="542" stroke="#888" stroke-width="1.5"/>
<text x="6" y="352" font-size="18" font-weight="bold" fill="#e65100">Σ₅ MI</text>
<text x="354" y="348" text-anchor="end" font-size="11" fill="#444">Meseta Integral</text>
<text x="354" y="362" text-anchor="end" font-size="11" fill="#e65100">Especial</text>
<text x="6" y="564" font-size="11" fill="#555">𝔄=30  φmax=5  n=6  ‖J‖₁=0</text>
<rect x="360" y="330" width="360" height="240" fill="#c8e6c9" opacity="0.5" stroke="#bbb" stroke-width="1"/>
<polygon points="378.0,542.0 378.0,386.9 424.9,386.9 471.7,386.9 518.6,386.9 565.4,438.6 612.3,490.3 659.1,516.2 706.0,542.0 706.0,542.0" fill="#2e7d32" opacity="0.2"/>
<polyline points="378.0,386.9 424.9,386.9 471.7,386.9 518.6,386.9 565.4,438.6 612.3,490.3 659.1,516.2 706.0,542.0" fill="none" stroke="#2e7d32" stroke-width="3"/>
<circle cx="378.0" cy="386.9" r="4" fill="#2e7d32" opacity="0.8"/>
<circle cx="424.9" cy="386.9" r="4" fill="#2e7d32" opacity="0.8"/>
<circle cx="471.7" cy="386.9" r="4" fill="#2e7d32" opacity="0.8"/>
<circle cx="518.6" cy="386.9" r="4" fill="#2e7d32" opacity="0.8"/>
<circle cx="565.4" cy="438.6" r="4" fill="#2e7d32" opacity="0.8"/>
<circle cx="612.3" cy="490.3" r="4" fill="#2e7d32" opacity="0.8"/>
<circle cx="659.1" cy="516.2" r="4" fill="#2e7d32" opacity="0.8"/>
<circle cx="706.0" cy="542.0" r="4" fill="#2e7d32" opacity="0.8"/>
<line x1="378" y1="542" x2="706" y2="542" stroke="#888" stroke-width="1.5"/>
<line x1="378" y1="374" x2="378" y2="542" stroke="#888" stroke-width="1.5"/>
<text x="366" y="352" font-size="18" font-weight="bold" fill="#1b5e20">Σ₆ CMI</text>
<text x="714" y="348" text-anchor="end" font-size="11" fill="#444">Conv. Meseta Inicial</text>
<text x="714" y="362" text-anchor="end" font-size="11" fill="#1b5e20">Convergente</text>
<text x="366" y="564" font-size="11" fill="#555">𝔄=28  φmax=6  n=7  ‖J‖₁=6</text>
<rect x="720" y="330" width="360" height="240" fill="#c8e6c9" opacity="0.5" stroke="#bbb" stroke-width="1"/>
<polygon points="738.0,542.0 738.0,383.9 784.9,423.4 831.7,443.2 878.6,443.2 925.4,443.2 972.3,482.7 1019.1,502.5 1066.0,522.2 1066.0,542.0" fill="#2e7d32" opacity="0.2"/>
<polyline points="738.0,383.9 784.9,423.4 831.7,443.2 878.6,443.2 925.4,443.2 972.3,482.7 1019.1,502.5 1066.0,522.2" fill="none" stroke="#2e7d32" stroke-width="3"/>
<circle cx="738.0" cy="383.9" r="4" fill="#2e7d32" opacity="0.8"/>
<circle cx="784.9" cy="423.4" r="4" fill="#2e7d32" opacity="0.8"/>
<circle cx="831.7" cy="443.2" r="4" fill="#2e7d32" opacity="0.8"/>
<circle cx="878.6" cy="443.2" r="4" fill="#2e7d32" opacity="0.8"/>
<circle cx="925.4" cy="443.2" r="4" fill="#2e7d32" opacity="0.8"/>
<circle cx="972.3" cy="482.7" r="4" fill="#2e7d32" opacity="0.8"/>
<circle cx="1019.1" cy="502.5" r="4" fill="#2e7d32" opacity="0.8"/>
<circle cx="1066.0" cy="522.2" r="4" fill="#2e7d32" opacity="0.8"/>
<line x1="738" y1="542" x2="1066" y2="542" stroke="#888" stroke-width="1.5"/>
<line x1="738" y1="374" x2="738" y2="542" stroke="#888" stroke-width="1.5"/>
<text x="726" y="352" font-size="18" font-weight="bold" fill="#1b5e20">Σ₇ CMInt</text>
<text x="1074" y="348" text-anchor="end" font-size="11" fill="#444">Conv. Meseta Intercalada</text>
<text x="1074" y="362" text-anchor="end" font-size="11" fill="#1b5e20">Convergente</text>
<text x="726" y="564" font-size="11" fill="#555">𝔄=30  φmax=8  n=7  ‖J‖₁=7</text>
<rect x="1080" y="330" width="360" height="240" fill="#bbdefb" opacity="0.5" stroke="#bbb" stroke-width="1"/>
<polygon points="1098.0,542.0 1098.0,542.0 1139.0,506.6 1180.0,453.6 1221.0,418.2 1262.0,382.8 1303.0,382.8 1344.0,382.8 1385.0,382.8 1426.0,382.8 1426.0,542.0" fill="#1565c0" opacity="0.2"/>
<polyline points="1098.0,542.0 1139.0,506.6 1180.0,453.6 1221.0,418.2 1262.0,382.8 1303.0,382.8 1344.0,382.8 1385.0,382.8 1426.0,382.8" fill="none" stroke="#1565c0" stroke-width="3"/>
<circle cx="1098.0" cy="542.0" r="4" fill="#1565c0" opacity="0.8"/>
<circle cx="1139.0" cy="506.6" r="4" fill="#1565c0" opacity="0.8"/>
<circle cx="1180.0" cy="453.6" r="4" fill="#1565c0" opacity="0.8"/>
<circle cx="1221.0" cy="418.2" r="4" fill="#1565c0" opacity="0.8"/>
<circle cx="1262.0" cy="382.8" r="4" fill="#1565c0" opacity="0.8"/>
<circle cx="1303.0" cy="382.8" r="4" fill="#1565c0" opacity="0.8"/>
<circle cx="1344.0" cy="382.8" r="4" fill="#1565c0" opacity="0.8"/>
<circle cx="1385.0" cy="382.8" r="4" fill="#1565c0" opacity="0.8"/>
<circle cx="1426.0" cy="382.8" r="4" fill="#1565c0" opacity="0.8"/>
<line x1="1098" y1="542" x2="1426" y2="542" stroke="#888" stroke-width="1.5"/>
<line x1="1098" y1="374" x2="1098" y2="542" stroke="#888" stroke-width="1.5"/>
<text x="1086" y="352" font-size="18" font-weight="bold" fill="#0d47a1">Σ₈ ES</text>
<text x="1434" y="348" text-anchor="end" font-size="11" fill="#444">Exploratoria Saturación</text>
<text x="1434" y="362" text-anchor="end" font-size="11" fill="#0d47a1">No convergente</text>
<text x="1086" y="564" font-size="11" fill="#555">𝔄=54  φmax=9  n=8  ‖J‖₁=9</text>
<rect x="0" y="570" width="360" height="240" fill="#bbdefb" opacity="0.5" stroke="#bbb" stroke-width="1"/>
<polygon points="18.0,782.0 18.0,720.9 54.4,659.8 90.9,629.3 127.3,659.8 163.8,720.9 200.2,690.4 236.7,629.3 273.1,659.8 309.6,720.9 346.0,751.5 346.0,782.0" fill="#1565c0" opacity="0.2"/>
<polyline points="18.0,720.9 54.4,659.8 90.9,629.3 127.3,659.8 163.8,720.9 200.2,690.4 236.7,629.3 273.1,659.8 309.6,720.9 346.0,751.5" fill="none" stroke="#1565c0" stroke-width="3"/>
<circle cx="18.0" cy="720.9" r="4" fill="#1565c0" opacity="0.8"/>
<circle cx="54.4" cy="659.8" r="4" fill="#1565c0" opacity="0.8"/>
<circle cx="90.9" cy="629.3" r="4" fill="#1565c0" opacity="0.8"/>
<circle cx="127.3" cy="659.8" r="4" fill="#1565c0" opacity="0.8"/>
<circle cx="163.8" cy="720.9" r="4" fill="#1565c0" opacity="0.8"/>
<circle cx="200.2" cy="690.4" r="4" fill="#1565c0" opacity="0.8"/>
<circle cx="236.7" cy="629.3" r="4" fill="#1565c0" opacity="0.8"/>
<circle cx="273.1" cy="659.8" r="4" fill="#1565c0" opacity="0.8"/>
<circle cx="309.6" cy="720.9" r="4" fill="#1565c0" opacity="0.8"/>
<circle cx="346.0" cy="751.5" r="4" fill="#1565c0" opacity="0.8"/>
<line x1="18" y1="782" x2="346" y2="782" stroke="#888" stroke-width="1.5"/>
<line x1="18" y1="614" x2="18" y2="782" stroke="#888" stroke-width="1.5"/>
<text x="6" y="592" font-size="18" font-weight="bold" fill="#0d47a1">Σ₉ MC</text>
<text x="354" y="588" text-anchor="end" font-size="11" fill="#444">Multimodal Compleja</text>
<text x="354" y="602" text-anchor="end" font-size="11" fill="#0d47a1">No convergente</text>
<text x="6" y="804" font-size="11" fill="#555">𝔄=30  φmax=5  n=9  ‖J‖₁=13</text>
<rect x="360" y="570" width="360" height="240" fill="#c8e6c9" opacity="0.5" stroke="#bbb" stroke-width="1"/>
<polygon points="378.0,782.0 378.0,625.2 419.0,625.2 460.0,625.2 501.0,625.2 542.0,625.2 583.0,625.2 624.0,625.2 665.0,692.4 706.0,759.6 706.0,782.0" fill="#2e7d32" opacity="0.2"/>
<polyline points="378.0,625.2 419.0,625.2 460.0,625.2 501.0,625.2 542.0,625.2 583.0,625.2 624.0,625.2 665.0,692.4 706.0,759.6" fill="none" stroke="#2e7d32" stroke-width="3"/>
<circle cx="378.0" cy="625.2" r="4" fill="#2e7d32" opacity="0.8"/>
<circle cx="419.0" cy="625.2" r="4" fill="#2e7d32" opacity="0.8"/>
<circle cx="460.0" cy="625.2" r="4" fill="#2e7d32" opacity="0.8"/>
<circle cx="501.0" cy="625.2" r="4" fill="#2e7d32" opacity="0.8"/>
<circle cx="542.0" cy="625.2" r="4" fill="#2e7d32" opacity="0.8"/>
<circle cx="583.0" cy="625.2" r="4" fill="#2e7d32" opacity="0.8"/>
<circle cx="624.0" cy="625.2" r="4" fill="#2e7d32" opacity="0.8"/>
<circle cx="665.0" cy="692.4" r="4" fill="#2e7d32" opacity="0.8"/>
<circle cx="706.0" cy="759.6" r="4" fill="#2e7d32" opacity="0.8"/>
<line x1="378" y1="782" x2="706" y2="782" stroke="#888" stroke-width="1.5"/>
<line x1="378" y1="614" x2="378" y2="782" stroke="#888" stroke-width="1.5"/>
<text x="366" y="592" font-size="18" font-weight="bold" fill="#1b5e20">Σ₁₀ UT</text>
<text x="714" y="588" text-anchor="end" font-size="11" fill="#444">Umbral Tardío</text>
<text x="714" y="602" text-anchor="end" font-size="11" fill="#1b5e20">Convergente</text>
<text x="366" y="804" font-size="11" fill="#555">𝔄=50  φmax=7  n=8  ‖J‖₁=6</text>
<rect x="720" y="570" width="360" height="240" fill="#c8e6c9" opacity="0.5" stroke="#bbb" stroke-width="1"/>
<polygon points="738.0,782.0 738.0,622.8 779.0,658.2 820.0,658.2 861.0,693.6 902.0,693.6 943.0,728.9 984.0,728.9 1025.0,746.6 1066.0,746.6 1066.0,782.0" fill="#2e7d32" opacity="0.2"/>
<polyline points="738.0,622.8 779.0,658.2 820.0,658.2 861.0,693.6 902.0,693.6 943.0,728.9 984.0,728.9 1025.0,746.6 1066.0,746.6" fill="none" stroke="#2e7d32" stroke-width="3"/>
<circle cx="738.0" cy="622.8" r="4" fill="#2e7d32" opacity="0.8"/>
<circle cx="779.0" cy="658.2" r="4" fill="#2e7d32" opacity="0.8"/>
<circle cx="820.0" cy="658.2" r="4" fill="#2e7d32" opacity="0.8"/>
<circle cx="861.0" cy="693.6" r="4" fill="#2e7d32" opacity="0.8"/>
<circle cx="902.0" cy="693.6" r="4" fill="#2e7d32" opacity="0.8"/>
<circle cx="943.0" cy="728.9" r="4" fill="#2e7d32" opacity="0.8"/>
<circle cx="984.0" cy="728.9" r="4" fill="#2e7d32" opacity="0.8"/>
<circle cx="1025.0" cy="746.6" r="4" fill="#2e7d32" opacity="0.8"/>
<circle cx="1066.0" cy="746.6" r="4" fill="#2e7d32" opacity="0.8"/>
<line x1="738" y1="782" x2="1066" y2="782" stroke="#888" stroke-width="1.5"/>
<line x1="738" y1="614" x2="738" y2="782" stroke="#888" stroke-width="1.5"/>
<text x="726" y="592" font-size="18" font-weight="bold" fill="#1b5e20">Σ₁₁ ED</text>
<text x="1074" y="588" text-anchor="end" font-size="11" fill="#444">Escalonada Descendente</text>
<text x="1074" y="602" text-anchor="end" font-size="11" fill="#1b5e20">Convergente</text>
<text x="726" y="804" font-size="11" fill="#555">𝔄=38  φmax=9  n=8  ‖J‖₁=7</text>
<rect x="1080" y="570" width="360" height="240" fill="#c8e6c9" opacity="0.5" stroke="#bbb" stroke-width="1"/>
<polygon points="1098.0,782.0 1098.0,730.3 1139.0,704.5 1180.0,678.6 1221.0,652.8 1262.0,626.9 1303.0,704.5 1344.0,756.2 1385.0,782.0 1426.0,782.0 1426.0,782.0" fill="#2e7d32" opacity="0.2"/>
<polyline points="1098.0,730.3 1139.0,704.5 1180.0,678.6 1221.0,652.8 1262.0,626.9 1303.0,704.5 1344.0,756.2 1385.0,782.0 1426.0,782.0" fill="none" stroke="#2e7d32" stroke-width="3"/>
<circle cx="1098.0" cy="730.3" r="4" fill="#2e7d32" opacity="0.8"/>
<circle cx="1139.0" cy="704.5" r="4" fill="#2e7d32" opacity="0.8"/>
<circle cx="1180.0" cy="678.6" r="4" fill="#2e7d32" opacity="0.8"/>
<circle cx="1221.0" cy="652.8" r="4" fill="#2e7d32" opacity="0.8"/>
<circle cx="1262.0" cy="626.9" r="4" fill="#2e7d32" opacity="0.8"/>
<circle cx="1303.0" cy="704.5" r="4" fill="#2e7d32" opacity="0.8"/>
<circle cx="1344.0" cy="756.2" r="4" fill="#2e7d32" opacity="0.8"/>
<circle cx="1385.0" cy="782.0" r="4" fill="#2e7d32" opacity="0.8"/>
<circle cx="1426.0" cy="782.0" r="4" fill="#2e7d32" opacity="0.8"/>
<line x1="1098" y1="782" x2="1426" y2="782" stroke="#888" stroke-width="1.5"/>
<line x1="1098" y1="614" x2="1098" y2="782" stroke="#888" stroke-width="1.5"/>
<text x="1086" y="592" font-size="18" font-weight="bold" fill="#1b5e20">Σ₁₂ AB</text>
<text x="1434" y="588" text-anchor="end" font-size="11" fill="#444">Asimétrica Bimodal</text>
<text x="1434" y="602" text-anchor="end" font-size="11" fill="#1b5e20">Convergente</text>
<text x="1086" y="804" font-size="11" fill="#555">𝔄=23  φmax=6  n=8  ‖J‖₁=10</text>
<rect x="20" y="784" width="20" height="14" fill="#c8e6c9" stroke="#2e7d32" stroke-width="1.5"/>
<text x="44" y="796" font-size="13" fill="#333">Convergente</text>
<rect x="220" y="784" width="20" height="14" fill="#bbdefb" stroke="#1565c0" stroke-width="1.5"/>
<text x="244" y="796" font-size="13" fill="#333">No convergente</text>
<rect x="420" y="784" width="20" height="14" fill="#fff9c4" stroke="#f57f17" stroke-width="1.5"/>
<text x="444" y="796" font-size="13" fill="#333">Especial (meseta)</text>
<rect x="0" y="810" width="1440" height="34" fill="#f8f9fa"/>
<line x1="0" y1="810" x2="1440" y2="810" stroke="#ccc" stroke-width="1"/>
<text x="720" y="832" text-anchor="middle" font-size="11" fill="#555" font-family="serif">Autor: Juan Antonio Lloret Egea  |  ORCID: 0000-0002-6634-3351  |  ITVIA — IA eñ™ — La Biblia de la IA™  |  ISSN 2695-6411  |  Madrid, 2026</text>
</svg>