<svg width="1400" height="794" xmlns="http://www.w3.org/2000/svg" font-family="serif">
<rect width="100%" height="100%" fill="white"/>
<text x="700" y="36" text-anchor="middle" font-size="22" font-weight="bold" fill="#1a3a5c">Figura 2. Curva poligonal Σ₃ (TPA-BAC) — Partición factual del área 𝔄 = 55.5</text>
<text x="700" y="58" text-anchor="middle" font-size="14" fill="#555">Ejemplo director SV(3,9): φ = (1,3,6,8,9,9,8,6,3,2,2), Cuádruplo = (𝔄=55.5, Σmₖ=1, φmax=9, ‖J‖₁=15)</text>
<polygon points="120.0,660.0 120.0,600.0 242.0,480.0 364.0,300.0 486.0,180.0 608.0,120.0 608.0,660.0" fill="#4a90d9" opacity="0.25"/>
<polygon points="608.0,660.0 608.0,120.0 730.0,120.0 730.0,660.0" fill="#e67e22" opacity="0.3"/>
<polygon points="730.0,660.0 730.0,120.0 852.0,180.0 974.0,300.0 1096.0,480.0 1218.0,540.0 1340.0,540.0 1340.0,660.0" fill="#27ae60" opacity="0.25"/>
<line x1="116" y1="660.0" x2="1340" y2="660.0" stroke="#ddd" stroke-width="1"/>
<text x="110" y="665.0" text-anchor="end" font-size="13" fill="#666">φ=0</text>
<line x1="116" y1="600.0" x2="1340" y2="600.0" stroke="#ddd" stroke-width="1"/>
<text x="110" y="605.0" text-anchor="end" font-size="13" fill="#666">φ=1</text>
<line x1="116" y1="540.0" x2="1340" y2="540.0" stroke="#ddd" stroke-width="1"/>
<text x="110" y="545.0" text-anchor="end" font-size="13" fill="#666">φ=2</text>
<line x1="116" y1="480.0" x2="1340" y2="480.0" stroke="#ddd" stroke-width="1"/>
<text x="110" y="485.0" text-anchor="end" font-size="13" fill="#666">φ=3</text>
<line x1="116" y1="420.0" x2="1340" y2="420.0" stroke="#ddd" stroke-width="1"/>
<text x="110" y="425.0" text-anchor="end" font-size="13" fill="#666">φ=4</text>
<line x1="116" y1="360.0" x2="1340" y2="360.0" stroke="#ddd" stroke-width="1"/>
<text x="110" y="365.0" text-anchor="end" font-size="13" fill="#666">φ=5</text>
<line x1="116" y1="300.0" x2="1340" y2="300.0" stroke="#ddd" stroke-width="1"/>
<text x="110" y="305.0" text-anchor="end" font-size="13" fill="#666">φ=6</text>
<line x1="116" y1="240.0" x2="1340" y2="240.0" stroke="#ddd" stroke-width="1"/>
<text x="110" y="245.0" text-anchor="end" font-size="13" fill="#666">φ=7</text>
<line x1="116" y1="180.0" x2="1340" y2="180.0" stroke="#ddd" stroke-width="1"/>
<text x="110" y="185.0" text-anchor="end" font-size="13" fill="#666">φ=8</text>
<line x1="116" y1="120.0" x2="1340" y2="120.0" stroke="#ddd" stroke-width="1"/>
<text x="110" y="125.0" text-anchor="end" font-size="13" fill="#666">φ=9</text>
<line x1="120" y1="660" x2="1340" y2="660" stroke="#333" stroke-width="2"/>
<line x1="120" y1="60" x2="120" y2="660" stroke="#333" stroke-width="2"/>
<text x="700" y="746" text-anchor="middle" font-size="14" fill="#333">ε (suceso activador)</text>
<text x="22" y="380" text-anchor="middle" font-size="14" fill="#333" transform="rotate(-90,22,380)">φ(Sₖ) — observable de apertura</text>
<polyline points="120.0,600.0 242.0,480.0 364.0,300.0 486.0,180.0 608.0,120.0 730.0,120.0 852.0,180.0 974.0,300.0 1096.0,480.0 1218.0,540.0 1340.0,540.0" fill="none" stroke="#1a5276" stroke-width="4"/>
<circle cx="120.0" cy="600.0" r="8" fill="white" stroke="#1a5276" stroke-width="3"/>
<text x="132.0" y="622.0" text-anchor="middle" font-size="11" fill="#1a5276">(ε0, φ=1)</text>
<circle cx="242.0" cy="480.0" r="8" fill="white" stroke="#1a5276" stroke-width="3"/>
<text x="242.0" y="462.0" text-anchor="middle" font-size="11" fill="#1a5276">(ε1, φ=3)</text>
<circle cx="364.0" cy="300.0" r="8" fill="white" stroke="#1a5276" stroke-width="3"/>
<text x="364.0" y="282.0" text-anchor="middle" font-size="11" fill="#1a5276">(ε2, φ=6)</text>
<circle cx="486.0" cy="180.0" r="8" fill="white" stroke="#1a5276" stroke-width="3"/>
<text x="486.0" y="162.0" text-anchor="middle" font-size="11" fill="#1a5276">(ε3, φ=8)</text>
<circle cx="608.0" cy="120.0" r="8" fill="white" stroke="#1a5276" stroke-width="3"/>
<text x="608.0" y="102.0" text-anchor="middle" font-size="11" fill="#1a5276">(ε4, φ=9)</text>
<circle cx="730.0" cy="120.0" r="8" fill="white" stroke="#1a5276" stroke-width="3"/>
<text x="730.0" y="102.0" text-anchor="middle" font-size="11" fill="#1a5276">(ε5, φ=9)</text>
<circle cx="852.0" cy="180.0" r="8" fill="white" stroke="#1a5276" stroke-width="3"/>
<text x="852.0" y="162.0" text-anchor="middle" font-size="11" fill="#1a5276">(ε6, φ=8)</text>
<circle cx="974.0" cy="300.0" r="8" fill="white" stroke="#1a5276" stroke-width="3"/>
<text x="974.0" y="282.0" text-anchor="middle" font-size="11" fill="#1a5276">(ε7, φ=6)</text>
<circle cx="1096.0" cy="480.0" r="8" fill="white" stroke="#1a5276" stroke-width="3"/>
<text x="1096.0" y="462.0" text-anchor="middle" font-size="11" fill="#1a5276">(ε8, φ=3)</text>
<circle cx="1218.0" cy="540.0" r="8" fill="white" stroke="#1a5276" stroke-width="3"/>
<text x="1138.0" y="562.0" text-anchor="middle" font-size="11" fill="#1a5276">(ε9, φ=2)</text>
<circle cx="1340.0" cy="540.0" r="8" fill="white" stroke="#1a5276" stroke-width="3"/>
<text x="1260.0" y="562.0" text-anchor="middle" font-size="11" fill="#1a5276">(ε10, φ=2)</text>
<text x="120.0" y="682" text-anchor="middle" font-size="12" fill="#666">ε0</text>
<text x="242.0" y="682" text-anchor="middle" font-size="12" fill="#666">ε1</text>
<text x="364.0" y="682" text-anchor="middle" font-size="12" fill="#666">ε2</text>
<text x="486.0" y="682" text-anchor="middle" font-size="12" fill="#666">ε3</text>
<text x="608.0" y="682" text-anchor="middle" font-size="12" fill="#666">ε4</text>
<text x="730.0" y="682" text-anchor="middle" font-size="12" fill="#666">ε5</text>
<text x="852.0" y="682" text-anchor="middle" font-size="12" fill="#666">ε6</text>
<text x="974.0" y="682" text-anchor="middle" font-size="12" fill="#666">ε7</text>
<text x="1096.0" y="682" text-anchor="middle" font-size="12" fill="#666">ε8</text>
<text x="1218.0" y="682" text-anchor="middle" font-size="12" fill="#666">ε9</text>
<text x="1340.0" y="682" text-anchor="middle" font-size="12" fill="#666">ε10</text>
<text x="364.0" y="350.0" text-anchor="middle" font-size="15" font-weight="bold" fill="#2471a3">Ascendente</text>
<text x="364.0" y="370.0" text-anchor="middle" font-size="15" font-weight="bold" fill="#2471a3">𝔄=22.0</text>
<text x="669.0" y="98.0" text-anchor="middle" font-size="15" font-weight="bold" fill="#e67e22">Meseta</text>
<text x="669.0" y="118.0" text-anchor="middle" font-size="15" font-weight="bold" fill="#e67e22">𝔄=9.0</text>
<text x="1035.0" y="350.0" text-anchor="middle" font-size="15" font-weight="bold" fill="#1e8449">Descendente</text>
<text x="1035.0" y="370.0" text-anchor="middle" font-size="15" font-weight="bold" fill="#1e8449">𝔄=24.5</text>
<text x="700" y="724" text-anchor="middle" font-size="13" fill="#1a3a5c">𝔄 = 𝔄_asc + 𝔄_mes + 𝔄_desc = 22.0 + 9.0 + 24.5 = 55.5 (aditividad por partición, Def. 5)</text>
<rect x="0" y="760" width="1400" height="34" fill="#f8f9fa"/>
<line x1="0" y1="760" x2="1400" y2="760" stroke="#ccc" stroke-width="1"/>
<text x="700" y="782" text-anchor="middle" font-size="11" fill="#555" font-family="serif">Autor: Juan Antonio Lloret Egea  |  ORCID: 0000-0002-6634-3351  |  ITVIA — IA eñ™ — La Biblia de la IA™  |  ISSN 2695-6411  |  Madrid, 2026</text>
</svg>