<svg width="1280" height="794" xmlns="http://www.w3.org/2000/svg" font-family="serif">
<rect width="100%" height="100%" fill="white"/>
<text x="640" y="40" text-anchor="middle" font-size="22" font-weight="bold" fill="#1a3a5c">Figura 7. Invariante cuádruplo: dispersión (𝔄, ‖J‖₁) de los doce tipos morfológicos</text>
<text x="640" y="64" text-anchor="middle" font-size="14" fill="#555">Cada punto ocupa una posición única en el plano. Ningún par de tipos comparte los cuatro componentes del cuádruplo.</text>
<text x="640" y="88" text-anchor="middle" font-size="13" fill="#777">𝔄 = acumulación factual de apertura; ‖J‖₁ = Σ|mₖ| (variación total de pendientes)</text>
<line x1="130.0" y1="110" x2="130.0" y2="650" stroke="#f0f0f0" stroke-width="1"/>
<text x="130.0" y="672" text-anchor="middle" font-size="12" fill="#888">0</text>
<line x1="297.7" y1="110" x2="297.7" y2="650" stroke="#f0f0f0" stroke-width="1"/>
<text x="297.7" y="672" text-anchor="middle" font-size="12" fill="#888">10</text>
<line x1="465.4" y1="110" x2="465.4" y2="650" stroke="#f0f0f0" stroke-width="1"/>
<text x="465.4" y="672" text-anchor="middle" font-size="12" fill="#888">20</text>
<line x1="633.1" y1="110" x2="633.1" y2="650" stroke="#f0f0f0" stroke-width="1"/>
<text x="633.1" y="672" text-anchor="middle" font-size="12" fill="#888">30</text>
<line x1="800.8" y1="110" x2="800.8" y2="650" stroke="#f0f0f0" stroke-width="1"/>
<text x="800.8" y="672" text-anchor="middle" font-size="12" fill="#888">40</text>
<line x1="968.5" y1="110" x2="968.5" y2="650" stroke="#f0f0f0" stroke-width="1"/>
<text x="968.5" y="672" text-anchor="middle" font-size="12" fill="#888">50</text>
<line x1="1136.2" y1="110" x2="1136.2" y2="650" stroke="#f0f0f0" stroke-width="1"/>
<text x="1136.2" y="672" text-anchor="middle" font-size="12" fill="#888">60</text>
<line x1="130" y1="650.0" x2="1220" y2="650.0" stroke="#f0f0f0" stroke-width="1"/>
<text x="118" y="655.0" text-anchor="end" font-size="12" fill="#888">0</text>
<line x1="130" y1="500.0" x2="1220" y2="500.0" stroke="#f0f0f0" stroke-width="1"/>
<text x="118" y="505.0" text-anchor="end" font-size="12" fill="#888">5</text>
<line x1="130" y1="350.0" x2="1220" y2="350.0" stroke="#f0f0f0" stroke-width="1"/>
<text x="118" y="355.0" text-anchor="end" font-size="12" fill="#888">10</text>
<line x1="130" y1="200.0" x2="1220" y2="200.0" stroke="#f0f0f0" stroke-width="1"/>
<text x="118" y="205.0" text-anchor="end" font-size="12" fill="#888">15</text>
<line x1="130" y1="650" x2="1220" y2="650" stroke="#333" stroke-width="2"/>
<line x1="130" y1="110" x2="130" y2="650" stroke="#333" stroke-width="2"/>
<text x="640" y="744" text-anchor="middle" font-size="15" fill="#1a3a5c">𝔄 (acumulación factual de apertura)</text>
<text x="22" y="380" text-anchor="middle" font-size="15" fill="#1a3a5c" transform="rotate(-90,22,380)">‖J‖₁ = Σ|mₖ| (variación total)</text>
<circle cx="406.7" cy="410.0" r="18" fill="#27ae60" opacity="0.75" stroke="#27ae60" stroke-width="2"/>
<text x="430.7" y="396.0" font-size="15" font-weight="bold" fill="#27ae60">Σ₁</text>
<circle cx="557.6" cy="350.0" r="18" fill="#e74c3c" opacity="0.75" stroke="#e74c3c" stroke-width="2"/>
<text x="581.6" y="336.0" font-size="15" font-weight="bold" fill="#e74c3c">Σ₂</text>
<circle cx="1060.7" cy="200.0" r="18" fill="#e74c3c" opacity="0.75" stroke="#e74c3c" stroke-width="2"/>
<text x="1084.7" y="186.0" font-size="15" font-weight="bold" fill="#e74c3c">Σ₃</text>
<circle cx="1002.0" cy="440.0" r="18" fill="#e74c3c" opacity="0.75" stroke="#e74c3c" stroke-width="2"/>
<text x="1026.0" y="426.0" font-size="15" font-weight="bold" fill="#e74c3c">Σ₄</text>
<circle cx="633.1" cy="650.0" r="18" fill="#f39c12" opacity="0.75" stroke="#f39c12" stroke-width="2"/>
<text x="657.1" y="636.0" font-size="15" font-weight="bold" fill="#f39c12">Σ₅</text>
<circle cx="557.6" cy="470.0" r="18" fill="#27ae60" opacity="0.75" stroke="#27ae60" stroke-width="2"/>
<text x="581.6" y="456.0" font-size="15" font-weight="bold" fill="#27ae60">Σ₆</text>
<circle cx="591.2" cy="440.0" r="18" fill="#27ae60" opacity="0.75" stroke="#27ae60" stroke-width="2"/>
<text x="615.2" y="426.0" font-size="15" font-weight="bold" fill="#27ae60">Σ₇</text>
<circle cx="1119.4" cy="380.0" r="18" fill="#e74c3c" opacity="0.75" stroke="#e74c3c" stroke-width="2"/>
<text x="1143.4" y="366.0" font-size="15" font-weight="bold" fill="#e74c3c">Σ₈</text>
<circle cx="666.6" cy="260.0" r="18" fill="#e74c3c" opacity="0.75" stroke="#e74c3c" stroke-width="2"/>
<text x="690.6" y="246.0" font-size="15" font-weight="bold" fill="#e74c3c">Σ₉</text>
<circle cx="1010.4" cy="470.0" r="18" fill="#27ae60" opacity="0.75" stroke="#27ae60" stroke-width="2"/>
<text x="1034.4" y="456.0" font-size="15" font-weight="bold" fill="#27ae60">Σ₁₀</text>
<circle cx="851.1" cy="440.0" r="18" fill="#27ae60" opacity="0.75" stroke="#27ae60" stroke-width="2"/>
<text x="875.1" y="426.0" font-size="15" font-weight="bold" fill="#27ae60">Σ₁₁</text>
<circle cx="473.8" cy="380.0" r="18" fill="#27ae60" opacity="0.75" stroke="#27ae60" stroke-width="2"/>
<text x="497.8" y="366.0" font-size="15" font-weight="bold" fill="#27ae60">Σ₁₂</text>
<circle cx="215" cy="160" r="11" fill="#27ae60" opacity="0.75"/>
<text x="232" y="165" font-size="14" fill="#333">Convergente</text>
<circle cx="455" cy="160" r="11" fill="#e74c3c" opacity="0.75"/>
<text x="472" y="165" font-size="14" fill="#333">No convergente</text>
<circle cx="715" cy="160" r="11" fill="#f39c12" opacity="0.75"/>
<text x="732" y="165" font-size="14" fill="#333">Especial</text>
<rect x="0" y="760" width="1280" height="34" fill="#f8f9fa"/>
<line x1="0" y1="760" x2="1280" y2="760" stroke="#ccc" stroke-width="1"/>
<text x="640" y="782" text-anchor="middle" font-size="11" fill="#555" font-family="serif">Autor: Juan Antonio Lloret Egea  |  ORCID: 0000-0002-6634-3351  |  ITVIA — IA eñ™ — La Biblia de la IA™  |  ISSN 2695-6411  |  Madrid, 2026</text>
</svg>