<svg xmlns="http://www.w3.org/2000/svg" width="1200" height="800" viewBox="0 0 1200 800">
<rect width="1200" height="800" fill="#fff"/>
<text x="600" y="50" text-anchor="middle" font-size="32" font-family="Arial" font-weight="700">Figura 5. Serie de ejemplos</text>
<rect x="60" y="90" width="1080" height="650" fill="#fff" stroke="#333" stroke-width="2"/>
<line x1="60" y1="150" x2="1140" y2="150" stroke="#333" stroke-width="2"/>
<line x1="320" y1="90" x2="320" y2="740" stroke="#333" stroke-width="2"/>
<line x1="760" y1="90" x2="760" y2="740" stroke="#333" stroke-width="2"/>
<text x="190" y="128" text-anchor="middle" font-size="22" font-family="Arial" font-weight="700">Caso</text>
<text x="540" y="128" text-anchor="middle" font-size="22" font-family="Arial" font-weight="700">Estabilidad local</text>
<text x="950" y="128" text-anchor="middle" font-size="22" font-family="Arial" font-weight="700">Situación efectiva</text>
<line x1="60" y1="230" x2="1140" y2="230" stroke="#999" stroke-width="1"/><text x="190" y="202" text-anchor="middle" font-size="20" font-family="Arial">Avión</text><text x="540" y="202" text-anchor="middle" font-size="18" font-family="Arial">sentado, postura estable</text><text x="950" y="202" text-anchor="middle" font-size="18" font-family="Arial">desplazamiento Madrid→Barcelona</text><line x1="60" y1="310" x2="1140" y2="310" stroke="#999" stroke-width="1"/><text x="190" y="282" text-anchor="middle" font-size="20" font-family="Arial">Tren</text><text x="540" y="282" text-anchor="middle" font-size="18" font-family="Arial">espera sin cambio local</text><text x="950" y="282" text-anchor="middle" font-size="18" font-family="Arial">reordenación de convoy</text><line x1="60" y1="390" x2="1140" y2="390" stroke="#999" stroke-width="1"/><text x="190" y="362" text-anchor="middle" font-size="20" font-family="Arial">Ascensor</text><text x="540" y="362" text-anchor="middle" font-size="18" font-family="Arial">misma posición relativa</text><text x="950" y="362" text-anchor="middle" font-size="18" font-family="Arial">cambio vertical del sistema</text><line x1="60" y1="470" x2="1140" y2="470" stroke="#999" stroke-width="1"/><text x="190" y="442" text-anchor="middle" font-size="20" font-family="Arial">Muestra</text><text x="540" y="442" text-anchor="middle" font-size="18" font-family="Arial">mismo tubo</text><text x="950" y="442" text-anchor="middle" font-size="18" font-family="Arial">nuevo estatuto logístico</text><line x1="60" y1="550" x2="1140" y2="550" stroke="#999" stroke-width="1"/><text x="190" y="522" text-anchor="middle" font-size="20" font-family="Arial">Expediente</text><text x="540" y="522" text-anchor="middle" font-size="18" font-family="Arial">mismo contenido</text><text x="950" y="522" text-anchor="middle" font-size="18" font-family="Arial">cambio de fase/jurisdicción</text><line x1="60" y1="630" x2="1140" y2="630" stroke="#999" stroke-width="1"/><text x="190" y="602" text-anchor="middle" font-size="20" font-family="Arial">Paciente</text><text x="540" y="602" text-anchor="middle" font-size="18" font-family="Arial">sin captación local</text><text x="950" y="602" text-anchor="middle" font-size="18" font-family="Arial">traslado clínico efectivo</text><line x1="60" y1="710" x2="1140" y2="710" stroke="#999" stroke-width="1"/><text x="190" y="682" text-anchor="middle" font-size="20" font-family="Arial">Nodo lógico</text><text x="540" y="682" text-anchor="middle" font-size="18" font-family="Arial">mismo estado local</text><text x="950" y="682" text-anchor="middle" font-size="18" font-family="Arial">reconfiguración de red</text></svg>