<svg xmlns="http://www.w3.org/2000/svg" width="1200" height="980" viewBox="0 0 1200 980">
<rect width="1200" height="980" fill="#ffffff"/>
<rect x="8" y="8" width="1184" height="964" rx="24" fill="none" stroke="#1d4ed8" stroke-width="2" opacity="0.30"/>

<text x="600" y="46" text-anchor="middle" font-family="Arial, Helvetica, sans-serif" font-size="26" font-weight="700" fill="#111827">Dictamen poligonal del agente de seguridad estructural</text>
<text x="600" y="68" text-anchor="middle" font-family="Arial, Helvetica, sans-serif" font-size="14" fill="#374151">Documento 1 — imagen guía del estado de las células auditadas</text>

<!-- C_obj, titulo y poligono grande R=90 -->
<text x="148" y="96" text-anchor="middle" font-family="Arial, Helvetica, sans-serif" font-size="17" font-weight="700" fill="#15803d">C_obj&#x2079; &#x2014; APTO</text>
<g transform="translate(26,106)">
  <polygon points="122,22 186,48 212,112 186,176 122,202 58,176 32,112 58,48" fill="none" stroke="#2f4f4f" stroke-width="2.4"/>
  <circle cx="122" cy="22"  r="13" fill="#6dbb75" stroke="#333" stroke-width="1.2"/><text x="122" y="27"  text-anchor="middle" font-family="Arial" font-size="11" font-weight="700" fill="#111">0</text>
  <circle cx="186" cy="48"  r="13" fill="#6dbb75" stroke="#333" stroke-width="1.2"/><text x="186" y="53"  text-anchor="middle" font-family="Arial" font-size="11" font-weight="700" fill="#111">0</text>
  <circle cx="212" cy="112" r="13" fill="#6dbb75" stroke="#333" stroke-width="1.2"/><text x="212" y="117" text-anchor="middle" font-family="Arial" font-size="11" font-weight="700" fill="#111">0</text>
  <circle cx="186" cy="176" r="13" fill="#6dbb75" stroke="#333" stroke-width="1.2"/><text x="186" y="181" text-anchor="middle" font-family="Arial" font-size="11" font-weight="700" fill="#111">0</text>
  <circle cx="122" cy="202" r="13" fill="#6dbb75" stroke="#333" stroke-width="1.2"/><text x="122" y="207" text-anchor="middle" font-family="Arial" font-size="11" font-weight="700" fill="#111">0</text>
  <circle cx="58"  cy="176" r="13" fill="#6dbb75" stroke="#333" stroke-width="1.2"/><text x="58"  y="181" text-anchor="middle" font-family="Arial" font-size="11" font-weight="700" fill="#111">0</text>
  <circle cx="32"  cy="112" r="13" fill="#6dbb75" stroke="#333" stroke-width="1.2"/><text x="32"  y="117" text-anchor="middle" font-family="Arial" font-size="11" font-weight="700" fill="#111">0</text>
  <circle cx="58"  cy="48"  r="13" fill="#6dbb75" stroke="#333" stroke-width="1.2"/><text x="58"  y="53"  text-anchor="middle" font-family="Arial" font-size="11" font-weight="700" fill="#111">0</text>
  <circle cx="122" cy="112" r="13" fill="#6dbb75" stroke="#333" stroke-width="1.2"/><text x="122" y="117" text-anchor="middle" font-family="Arial" font-size="11" font-weight="700" fill="#111">0</text>
</g>
<text x="148" y="328" text-anchor="middle" font-family="Arial, Helvetica, sans-serif" font-size="14" fill="#374151">n0 = 9 &#xB7; n1 = 0 &#xB7; nU = 0</text>
<text x="148" y="348" text-anchor="middle" font-family="Arial, Helvetica, sans-serif" font-size="13" fill="#15803d">T(9) = 7 &#x2264; 9 &#x2713;</text>

<!-- C_base, titulo y poligono grande R=90 -->
<text x="484" y="96" text-anchor="middle" font-family="Arial, Helvetica, sans-serif" font-size="17" font-weight="700" fill="#15803d">C_base&#x2079; &#x2014; APTO</text>
<g transform="translate(362,106)">
  <polygon points="122,22 186,48 212,112 186,176 122,202 58,176 32,112 58,48" fill="none" stroke="#2f4f4f" stroke-width="2.4"/>
  <circle cx="122" cy="22"  r="13" fill="#6dbb75" stroke="#333" stroke-width="1.2"/><text x="122" y="27"  text-anchor="middle" font-family="Arial" font-size="11" font-weight="700" fill="#111">0</text>
  <circle cx="186" cy="48"  r="13" fill="#6dbb75" stroke="#333" stroke-width="1.2"/><text x="186" y="53"  text-anchor="middle" font-family="Arial" font-size="11" font-weight="700" fill="#111">0</text>
  <circle cx="212" cy="112" r="13" fill="#6dbb75" stroke="#333" stroke-width="1.2"/><text x="212" y="117" text-anchor="middle" font-family="Arial" font-size="11" font-weight="700" fill="#111">0</text>
  <circle cx="186" cy="176" r="13" fill="#6dbb75" stroke="#333" stroke-width="1.2"/><text x="186" y="181" text-anchor="middle" font-family="Arial" font-size="11" font-weight="700" fill="#111">0</text>
  <circle cx="122" cy="202" r="13" fill="#6dbb75" stroke="#333" stroke-width="1.2"/><text x="122" y="207" text-anchor="middle" font-family="Arial" font-size="11" font-weight="700" fill="#111">0</text>
  <circle cx="58"  cy="176" r="13" fill="#6dbb75" stroke="#333" stroke-width="1.2"/><text x="58"  y="181" text-anchor="middle" font-family="Arial" font-size="11" font-weight="700" fill="#111">0</text>
  <circle cx="32"  cy="112" r="13" fill="#6dbb75" stroke="#333" stroke-width="1.2"/><text x="32"  y="117" text-anchor="middle" font-family="Arial" font-size="11" font-weight="700" fill="#111">0</text>
  <circle cx="58"  cy="48"  r="13" fill="#6dbb75" stroke="#333" stroke-width="1.2"/><text x="58"  y="53"  text-anchor="middle" font-family="Arial" font-size="11" font-weight="700" fill="#111">0</text>
  <circle cx="122" cy="112" r="13" fill="#6dbb75" stroke="#333" stroke-width="1.2"/><text x="122" y="117" text-anchor="middle" font-family="Arial" font-size="11" font-weight="700" fill="#111">0</text>
</g>
<text x="484" y="328" text-anchor="middle" font-family="Arial, Helvetica, sans-serif" font-size="14" fill="#374151">n0 = 9 &#xB7; n1 = 0 &#xB7; nU = 0</text>
<text x="484" y="348" text-anchor="middle" font-family="Arial, Helvetica, sans-serif" font-size="13" fill="#15803d">T(9) = 7 &#x2264; 9 &#x2713;</text>

<!-- S_suelo -->
<rect x="614" y="172" width="186" height="88" rx="14" fill="#dcfce7" stroke="#16a34a" stroke-width="2.5"/>
<text x="707" y="210" text-anchor="middle" font-family="Arial, Helvetica, sans-serif" font-size="17" font-weight="700" fill="#15803d">S_suelo</text>
<text x="707" y="234" text-anchor="middle" font-family="Arial, Helvetica, sans-serif" font-size="15" font-weight="700" fill="#15803d">APTO &#x2713;</text>
<text x="707" y="278" text-anchor="middle" font-family="Arial, Helvetica, sans-serif" font-size="12" fill="#374151">T_suelo(APTO x APTO)</text>

<!-- Flechas a S_suelo -->
<line x1="238" y1="218" x2="612" y2="218" stroke="#16a34a" stroke-width="1.5" stroke-dasharray="5,3"/>
<line x1="574" y1="218" x2="612" y2="218" stroke="#16a34a" stroke-width="1.5" stroke-dasharray="5,3"/>

<!-- Flecha S_suelo a A_custodia -->
<line x1="707" y1="260" x2="707" y2="307" stroke="#16a34a" stroke-width="2"/>
<polygon points="707,307 700,295 714,295" fill="#16a34a"/>

<!-- A_custodia -->
<rect x="614" y="309" width="186" height="88" rx="14" fill="#dcfce7" stroke="#16a34a" stroke-width="2.5"/>
<text x="707" y="347" text-anchor="middle" font-family="Arial, Helvetica, sans-serif" font-size="16" font-weight="700" fill="#15803d">A_custodia</text>
<text x="707" y="371" text-anchor="middle" font-family="Arial, Helvetica, sans-serif" font-size="15" font-weight="700" fill="#15803d">APTO &#x2713;</text>
<text x="707" y="414" text-anchor="middle" font-family="Arial, Helvetica, sans-serif" font-size="12" fill="#374151">T_cust(APTO x APTO)</text>

<!-- C_diseno titulo -->
<text x="1018" y="96" text-anchor="middle" font-family="Arial, Helvetica, sans-serif" font-size="17" font-weight="700" fill="#15803d">C_dise&#xF1;o&#xB3;&#x2076; &#x2014; APTO</text>

<!-- Hexagonos fila 1 (desplazados +38px) -->
<polygon points="908,130 944,152 944,196 908,218 872,196 872,152" fill="#eaf4ff" stroke="#5f87a8" stroke-width="2"/>
<text x="908" y="180" text-anchor="middle" font-family="Arial, Helvetica, sans-serif" font-size="16" font-weight="700" fill="#1d4ed8">A</text>
<text x="908" y="236" text-anchor="middle" font-family="Arial, Helvetica, sans-serif" font-size="13" fill="#374151">5A / 1U</text>

<polygon points="1008,130 1044,152 1044,196 1008,218 972,196 972,152" fill="#e9f5ea" stroke="#6dbb75" stroke-width="2"/>
<text x="1008" y="180" text-anchor="middle" font-family="Arial, Helvetica, sans-serif" font-size="16" font-weight="700" fill="#15803d">B</text>
<text x="1008" y="236" text-anchor="middle" font-family="Arial, Helvetica, sans-serif" font-size="13" fill="#374151">6A / 0U</text>

<polygon points="1108,130 1144,152 1144,196 1108,218 1072,196 1072,152" fill="#eaf4ff" stroke="#5f87a8" stroke-width="2"/>
<text x="1108" y="180" text-anchor="middle" font-family="Arial, Helvetica, sans-serif" font-size="16" font-weight="700" fill="#1d4ed8">C</text>
<text x="1108" y="236" text-anchor="middle" font-family="Arial, Helvetica, sans-serif" font-size="13" fill="#374151">4A / 2U</text>

<!-- Hexagonos fila 2 -->
<polygon points="908,258 944,280 944,324 908,346 872,324 872,280" fill="#eaf4ff" stroke="#5f87a8" stroke-width="2"/>
<text x="908" y="308" text-anchor="middle" font-family="Arial, Helvetica, sans-serif" font-size="16" font-weight="700" fill="#1d4ed8">D</text>
<text x="908" y="364" text-anchor="middle" font-family="Arial, Helvetica, sans-serif" font-size="13" fill="#374151">5A / 1U</text>

<polygon points="1008,258 1044,280 1044,324 1008,346 972,324 972,280" fill="#e9f5ea" stroke="#6dbb75" stroke-width="2"/>
<text x="1008" y="308" text-anchor="middle" font-family="Arial, Helvetica, sans-serif" font-size="16" font-weight="700" fill="#15803d">E</text>
<text x="1008" y="364" text-anchor="middle" font-family="Arial, Helvetica, sans-serif" font-size="13" fill="#374151">6A / 0U</text>

<polygon points="1108,258 1144,280 1144,324 1108,346 1072,324 1072,280" fill="#e9f5ea" stroke="#6dbb75" stroke-width="2"/>
<text x="1108" y="308" text-anchor="middle" font-family="Arial, Helvetica, sans-serif" font-size="16" font-weight="700" fill="#15803d">F</text>
<text x="1108" y="364" text-anchor="middle" font-family="Arial, Helvetica, sans-serif" font-size="13" fill="#374151">6A / 0U</text>

<text x="1018" y="392" text-anchor="middle" font-family="Arial, Helvetica, sans-serif" font-size="14" fill="#374151">n0 = 32 &#xB7; n1 = 0 &#xB7; nU = 4 &#xB7; T(36) = 28 &#x2264; 32 &#x2713;</text>

<!-- Flecha C_diseno a A_custodia -->
<line x1="870" y1="302" x2="802" y2="360" stroke="#16a34a" stroke-width="1.5" stroke-dasharray="5,3"/>

<!-- Panel resumen -->
<rect x="36" y="478" width="580" height="308" rx="14" fill="#f8fafc" stroke="#0284c7" stroke-width="2"/>
<text x="326" y="508" text-anchor="middle" font-family="Arial, Helvetica, sans-serif" font-size="16" font-weight="700" fill="#0284c7">Resumen del dictamen</text>
<text x="60" y="538" font-family="Arial, Helvetica, sans-serif" font-size="14" fill="#374151">&#x2022; S_suelo = APTO &#160;&#160; A_custodia = APTO</text>
<text x="60" y="562" font-family="Arial, Helvetica, sans-serif" font-size="14" fill="#374151">&#x2022; M-REF, M-LTX, M-LAB, M-ASEO = APTO</text>
<text x="60" y="586" font-family="Arial, Helvetica, sans-serif" font-size="14" fill="#374151">&#x2022; Temporalismo soberano detectado: 0</text>
<text x="60" y="610" font-family="Arial, Helvetica, sans-serif" font-size="14" fill="#374151">&#x2022; Estadistica / mineria / inferencia opaca: 0</text>
<text x="60" y="634" font-family="Arial, Helvetica, sans-serif" font-size="14" fill="#374151">&#x2022; Correción isomorfismo &#x2192; correspondencia: &#x2713; aplicada</text>
<rect x="56" y="652" width="544" height="116" rx="10" fill="#fef9c3" stroke="#d97706" stroke-width="1.5"/>
<text x="328" y="674" text-anchor="middle" font-family="Arial, Helvetica, sans-serif" font-size="13" font-weight="700" fill="#92400e">4 posiciones en U — límites de alcance, no infracciones</text>
<text x="70" y="696" font-family="Arial, Helvetica, sans-serif" font-size="12" fill="#374151">&#x2022; Explicitacion del limite superior humano en Doc 1</text>
<text x="70" y="714" font-family="Arial, Helvetica, sans-serif" font-size="12" fill="#374151">&#x2022; Ausencia de esqueleto SVP en esta pieza</text>
<text x="70" y="732" font-family="Arial, Helvetica, sans-serif" font-size="12" fill="#374151">&#x2022; Validabilidad linguistica plena reservada a piezas posteriores</text>
<text x="70" y="750" font-family="Arial, Helvetica, sans-serif" font-size="12" fill="#374151">&#x2022; Coherencia con sede publica pendiente del acto de publicacion</text>

<!-- Panel dictamen -->
<rect x="636" y="478" width="528" height="308" rx="14" fill="#dcfce7" stroke="#16a34a" stroke-width="2.5"/>
<text x="900" y="518" text-anchor="middle" font-family="Arial, Helvetica, sans-serif" font-size="20" font-weight="700" fill="#15803d">APTO PARA PUBLICACIÓN</text>
<text x="900" y="544" text-anchor="middle" font-family="Arial, Helvetica, sans-serif" font-size="14" fill="#374151">Release 2 — Documento 1 — Colección I</text>
<rect x="656" y="562" width="488" height="60" rx="8" fill="#f0fdf4" stroke="#16a34a" stroke-width="1"/>
<text x="900" y="586" text-anchor="middle" font-family="Arial, Helvetica, sans-serif" font-size="13" fill="#374151">Correccion isomorfismo aplicada correctamente.</text>
<text x="900" y="606" text-anchor="middle" font-family="Arial, Helvetica, sans-serif" font-size="13" fill="#374151">Fix de gamma() en laboratorio: entregado y verificado.</text>
<text x="900" y="646" text-anchor="middle" font-family="Arial, Helvetica, sans-serif" font-size="13" fill="#374151">La vecindad relativa manuscrito-figuras-laboratorio</text>
<text x="900" y="666" text-anchor="middle" font-family="Arial, Helvetica, sans-serif" font-size="13" fill="#374151">debe conservarse en la publicacion definitiva.</text>
<text x="900" y="722" text-anchor="middle" font-family="Arial, Helvetica, sans-serif" font-size="44" font-weight="700" fill="#15803d">&#x2713;</text>
<text x="900" y="756" text-anchor="middle" font-family="Arial, Helvetica, sans-serif" font-size="14" fill="#15803d" font-weight="700">Doc 1 Release 2 — Verificado</text>
<text x="900" y="776" text-anchor="middle" font-family="Arial, Helvetica, sans-serif" font-size="12" fill="#374151">Madrid, 30 de marzo de 2026</text>

<!-- Footer -->
<line x1="50" y1="948" x2="1150" y2="948" stroke="#cccccc" stroke-width="0.8"/>
<text x="600" y="964" text-anchor="middle" font-family="Arial, Helvetica, sans-serif" font-size="9" fill="#555555">Autor: Juan Antonio Lloret Egea | ORCID: 0000-0002-6634-3351 | ITVIA — IA eñ™ — La Biblia de la IA™ | ISSN 2695-6411 | Madrid, 2026</text>
</svg>