<?xml version="1.0" encoding="UTF-8"?>
<svg xmlns="http://www.w3.org/2000/svg" viewBox="0 0 1200 800">
  <defs>
    <linearGradient id="silverMain" x1="0%" y1="0%" x2="0%" y2="100%">
      <stop offset="0%" stop-color="#e8e8e8"/>
      <stop offset="15%" stop-color="#f5f5f5"/>
      <stop offset="50%" stop-color="#c8c8c8"/>
      <stop offset="85%" stop-color="#a8a8a8"/>
      <stop offset="100%" stop-color="#888888"/>
    </linearGradient>
    <linearGradient id="silverSign" x1="0%" y1="0%" x2="0%" y2="100%">
      <stop offset="0%" stop-color="#d8d8d8"/>
      <stop offset="50%" stop-color="#b8b8b8"/>
      <stop offset="100%" stop-color="#989898"/>
    </linearGradient>
    <linearGradient id="bgGrad" x1="0%" y1="0%" x2="0%" y2="100%">
      <stop offset="0%" stop-color="#f0ebe0"/>
      <stop offset="60%" stop-color="#e8e0d0"/>
      <stop offset="100%" stop-color="#d8cfbb"/>
    </linearGradient>
    <linearGradient id="columnGrad" x1="0%" y1="0%" x2="100%" y2="0%">
      <stop offset="0%" stop-color="#ebe4d3"/>
      <stop offset="50%" stop-color="#faf5e8"/>
      <stop offset="100%" stop-color="#c9c0ae"/>
    </linearGradient>
    <linearGradient id="pedestalGrad" x1="0%" y1="0%" x2="0%" y2="100%">
      <stop offset="0%" stop-color="#9a9a9a"/>
      <stop offset="50%" stop-color="#707070"/>
      <stop offset="100%" stop-color="#4a4a4a"/>
    </linearGradient>
    <radialGradient id="solidSphere" cx="35%" cy="30%" r="65%">
      <stop offset="0%" stop-color="#e8e8e8"/>
      <stop offset="60%" stop-color="#a0a0a0"/>
      <stop offset="100%" stop-color="#606060"/>
    </radialGradient>
    <linearGradient id="solidFlat" x1="0%" y1="0%" x2="0%" y2="100%">
      <stop offset="0%" stop-color="#c8c8c8"/>
      <stop offset="100%" stop-color="#707070"/>
    </linearGradient>
    <linearGradient id="solidFlatRight" x1="0%" y1="0%" x2="100%" y2="0%">
      <stop offset="0%" stop-color="#888888"/>
      <stop offset="100%" stop-color="#555555"/>
    </linearGradient>
    <filter id="softShadow" x="-20%" y="-20%" width="140%" height="140%">
      <feGaussianBlur in="SourceAlpha" stdDeviation="3"/>
      <feOffset dx="2" dy="3"/>
      <feComponentTransfer><feFuncA type="linear" slope="0.35"/></feComponentTransfer>
      <feMerge><feMergeNode/><feMergeNode in="SourceGraphic"/></feMerge>
    </filter>
  </defs>

  <rect width="1200" height="800" fill="url(#bgGrad)"/>

  <!-- Título -->
  <text x="600" y="52" text-anchor="middle" font-family="Georgia, serif" font-size="28" font-weight="bold" fill="#1a1a1a">
    Entropía factual e irreversibilidad estructural en el
  </text>
  <text x="600" y="90" text-anchor="middle" font-family="Georgia, serif" font-size="28" font-weight="bold" fill="#1a1a1a">
    Sistema Vectorial SV
  </text>

  <!-- ═══ COLUMNA 1: Sadi Carnot ═══ -->
  <g transform="translate(30, 140)">
    <rect x="0" y="0" width="75" height="430" fill="url(#columnGrad)" stroke="#a09580" stroke-width="0.5"/>
    <rect x="-3" y="0" width="81" height="10" fill="#e0d8c2" stroke="#9a8f78" stroke-width="0.5"/>
    <rect x="-3" y="420" width="81" height="10" fill="#c9c0ae" stroke="#9a8f78" stroke-width="0.5"/>
    <text x="38" y="32" text-anchor="middle" font-family="Georgia,serif" font-size="10" font-weight="bold" fill="#2a2a2a">SADI</text>
    <text x="38" y="44" text-anchor="middle" font-family="Georgia,serif" font-size="10" font-weight="bold" fill="#2a2a2a">CARNOT</text>
    <g transform="translate(16, 85)" stroke="#4a4a4a" stroke-width="1" fill="none">
      <path d="M 5,35 Q 20,10 40,20 Q 30,35 5,35 Z" stroke-linejoin="round"/>
      <line x1="2" y1="40" x2="44" y2="40"/>
      <line x1="2" y1="40" x2="2" y2="5"/>
      <text x="44" y="42" font-size="6" fill="#4a4a4a" stroke="none" font-family="Georgia,serif" font-style="italic">V</text>
      <text x="-2" y="5" font-size="6" fill="#4a4a4a" stroke="none" font-family="Georgia,serif" font-style="italic">p</text>
    </g>
    <text x="38" y="170" text-anchor="middle" font-family="Georgia,serif" font-size="7" fill="#3a3a3a">RÉFLEXIONS</text>
    <text x="38" y="180" text-anchor="middle" font-family="Georgia,serif" font-size="7" fill="#3a3a3a">SUR LA PUISSANCE</text>
    <text x="38" y="190" text-anchor="middle" font-family="Georgia,serif" font-size="7" fill="#3a3a3a">MOTRICE DU FEU</text>
    <text x="38" y="200" text-anchor="middle" font-family="Georgia,serif" font-size="7" fill="#3a3a3a">1824</text>
    <g transform="translate(20, 240)" stroke="#3a3a3a" stroke-width="0.8" fill="none">
      <rect x="0" y="0" width="36" height="28" rx="4"/>
      <line x1="0" y1="14" x2="36" y2="14"/>
      <line x1="18" y1="0" x2="18" y2="28"/>
    </g>
  </g>

  <!-- ═══ COLUMNA 2: Rudolf Clausius ═══ -->
  <g transform="translate(130, 140)">
    <rect x="0" y="0" width="75" height="430" fill="url(#columnGrad)" stroke="#a09580" stroke-width="0.5"/>
    <rect x="-3" y="0" width="81" height="10" fill="#e0d8c2" stroke="#9a8f78" stroke-width="0.5"/>
    <rect x="-3" y="420" width="81" height="10" fill="#c9c0ae" stroke="#9a8f78" stroke-width="0.5"/>
    <text x="38" y="32" text-anchor="middle" font-family="Georgia,serif" font-size="10" font-weight="bold" fill="#2a2a2a">RUDOLF</text>
    <text x="38" y="44" text-anchor="middle" font-family="Georgia,serif" font-size="10" font-weight="bold" fill="#2a2a2a">CLAUSIUS</text>
    <text x="38" y="120" text-anchor="middle" font-family="Georgia,serif" font-size="14" font-style="italic" fill="#2a2a2a">dS ≥</text>
    <text x="38" y="140" text-anchor="middle" font-family="Georgia,serif" font-size="14" font-style="italic" fill="#2a2a2a">δQ/T</text>
    <text x="38" y="200" text-anchor="middle" font-family="Georgia,serif" font-size="7" fill="#3a3a3a">SEGUNDA LEY</text>
    <text x="38" y="210" text-anchor="middle" font-family="Georgia,serif" font-size="7" fill="#3a3a3a">DE LA</text>
    <text x="38" y="220" text-anchor="middle" font-family="Georgia,serif" font-size="7" fill="#3a3a3a">TERMODINÁMICA</text>
    <g transform="translate(15, 270)" stroke="#3a3a3a" stroke-width="1" fill="none">
      <line x1="0" y1="20" x2="40" y2="20"/>
      <polygon points="40,15 46,20 40,25" fill="#3a3a3a" stroke="none"/>
      <text x="23" y="12" text-anchor="middle" font-size="8" fill="#3a3a3a" stroke="none" font-family="Georgia,serif" font-style="italic">t</text>
    </g>
  </g>

  <!-- ═══ COLUMNA 3: Ludwig Boltzmann ═══ -->
  <g transform="translate(995, 140)">
    <rect x="0" y="0" width="75" height="430" fill="url(#columnGrad)" stroke="#a09580" stroke-width="0.5"/>
    <rect x="-3" y="0" width="81" height="10" fill="#e0d8c2" stroke="#9a8f78" stroke-width="0.5"/>
    <rect x="-3" y="420" width="81" height="10" fill="#c9c0ae" stroke="#9a8f78" stroke-width="0.5"/>
    <text x="38" y="32" text-anchor="middle" font-family="Georgia,serif" font-size="10" font-weight="bold" fill="#2a2a2a">LUDWIG</text>
    <text x="38" y="44" text-anchor="middle" font-family="Georgia,serif" font-size="10" font-weight="bold" fill="#2a2a2a">BOLTZMANN</text>
    <text x="38" y="125" text-anchor="middle" font-family="Georgia,serif" font-size="14" font-style="italic" fill="#2a2a2a">S =</text>
    <text x="38" y="145" text-anchor="middle" font-family="Georgia,serif" font-size="14" font-style="italic" fill="#2a2a2a">k log W</text>
    <text x="38" y="200" text-anchor="middle" font-family="Georgia,serif" font-size="7" fill="#3a3a3a">ENTROPÍA</text>
    <text x="38" y="210" text-anchor="middle" font-family="Georgia,serif" font-size="7" fill="#3a3a3a">ESTADÍSTICA</text>
    <text x="38" y="220" text-anchor="middle" font-family="Georgia,serif" font-size="7" fill="#3a3a3a">DE ESTADOS</text>
    <g transform="translate(20, 265)" fill="#3a3a3a">
      <circle cx="5" cy="5" r="2"/>
      <circle cx="16" cy="12" r="2"/>
      <circle cx="28" cy="4" r="2"/>
      <circle cx="10" cy="20" r="2"/>
      <circle cx="30" cy="22" r="2"/>
      <circle cx="20" cy="28" r="2"/>
    </g>
  </g>

  <!-- ═══ COLUMNA 4: Claude Shannon ═══ -->
  <g transform="translate(1095, 140)">
    <rect x="0" y="0" width="75" height="430" fill="url(#columnGrad)" stroke="#a09580" stroke-width="0.5"/>
    <rect x="-3" y="0" width="81" height="10" fill="#e0d8c2" stroke="#9a8f78" stroke-width="0.5"/>
    <rect x="-3" y="420" width="81" height="10" fill="#c9c0ae" stroke="#9a8f78" stroke-width="0.5"/>
    <text x="38" y="32" text-anchor="middle" font-family="Georgia,serif" font-size="10" font-weight="bold" fill="#2a2a2a">CLAUDE</text>
    <text x="38" y="44" text-anchor="middle" font-family="Georgia,serif" font-size="10" font-weight="bold" fill="#2a2a2a">SHANNON</text>
    <text x="38" y="120" text-anchor="middle" font-family="Georgia,serif" font-size="13" font-style="italic" fill="#2a2a2a">H =</text>
    <text x="38" y="140" text-anchor="middle" font-family="Georgia,serif" font-size="13" font-style="italic" fill="#2a2a2a">−∑ p log p</text>
    <text x="38" y="200" text-anchor="middle" font-family="Georgia,serif" font-size="7" fill="#3a3a3a">TEORÍA</text>
    <text x="38" y="210" text-anchor="middle" font-family="Georgia,serif" font-size="7" fill="#3a3a3a">MATEMÁTICA DE</text>
    <text x="38" y="220" text-anchor="middle" font-family="Georgia,serif" font-size="7" fill="#3a3a3a">LA COMUNICACIÓN</text>
    <g transform="translate(15, 265)" font-family="monospace" font-size="8" fill="#3a3a3a">
      <text x="0" y="10">10110100</text>
      <text x="0" y="22">01101011</text>
      <text x="0" y="34">11010010</text>
    </g>
  </g>

  <!-- ═══════════════════════════════════════════════════════════════ -->
  <!-- CHAPA CENTRAL: la ESENCIA del documento (Teorema 8.2)            -->
  <!-- H_SV(Γ, n+1) ≥ H_SV(Γ, n)                                        -->
  <!-- Usando <text> individuales posicionados absolutamente             -->
  <!-- ═══════════════════════════════════════════════════════════════ -->
  <g transform="translate(600, 210)" filter="url(#softShadow)">
    <path d="M -275,-70 L -240,-105 L 240,-105 L 275,-70 L 275,70 L 240,105 L -240,105 L -275,70 Z"
          fill="url(#silverMain)" stroke="#707070" stroke-width="2"/>
    <circle cx="-255" cy="-88" r="3" fill="#555" stroke="#333" stroke-width="0.5"/>
    <circle cx="255" cy="-88" r="3" fill="#555" stroke="#333" stroke-width="0.5"/>
    <circle cx="-255" cy="88" r="3" fill="#555" stroke="#333" stroke-width="0.5"/>
    <circle cx="255" cy="88" r="3" fill="#555" stroke="#333" stroke-width="0.5"/>
    
    <!-- Ecuación maestra H_SV(Γ, n+1) ≥ H_SV(Γ, n) 
         Posiciones calibradas para evitar colisiones -->
    <!-- H1 -->
    <text x="-220" y="10" font-family="'Times New Roman',Georgia,serif" font-size="46" font-style="italic" fill="#1a1a1a">H</text>
    <!-- SV subscript -->
    <text x="-189" y="24" font-family="'Times New Roman',Georgia,serif" font-size="24" font-style="italic" fill="#1a1a1a">SV</text>
    <!-- (Γ, n+1) -->
    <text x="-147" y="10" font-family="'Times New Roman',Georgia,serif" font-size="40" font-style="italic" fill="#1a1a1a">(Γ, n+1)</text>
    <!-- ≥  (desplazado a la derecha para dar aire) -->
    <text x="20" y="10" text-anchor="middle" font-family="'Times New Roman',Georgia,serif" font-size="44" fill="#1a1a1a">≥</text>
    <!-- H2 -->
    <text x="60" y="10" font-family="'Times New Roman',Georgia,serif" font-size="46" font-style="italic" fill="#1a1a1a">H</text>
    <!-- SV subscript 2 -->
    <text x="92" y="24" font-family="'Times New Roman',Georgia,serif" font-size="24" font-style="italic" fill="#1a1a1a">SV</text>
    <!-- (Γ, n) -->
    <text x="135" y="10" font-family="'Times New Roman',Georgia,serif" font-size="40" font-style="italic" fill="#1a1a1a">(Γ, n)</text>

    <!-- Pequeña etiqueta "Teorema 8.2" -->
    <text x="245" y="-88" text-anchor="end" font-family="Georgia,serif" font-size="11" fill="#4a4a4a" font-style="italic">Teorema 8.2</text>
  </g>

  <!-- Pedestal -->
  <g transform="translate(600, 325)">
    <polygon points="-8,0 8,0 10,20 -10,20" fill="url(#pedestalGrad)"/>
    <polygon points="-10,20 10,20 20,50 -20,50" fill="url(#silverSign)" stroke="#555" stroke-width="0.8"/>
    <polygon points="-20,50 20,50 15,85 -15,85" fill="url(#pedestalGrad)"/>
  </g>

  <!-- ═══ 6 LETREROS ═══ -->

  <!-- Letrero 1 (izq-arriba): V_Γ(B, n) -->
  <g transform="translate(230, 370)" filter="url(#softShadow)">
    <path d="M 0,0 L 240,0 L 255,20 L 240,40 L 0,40 Z" fill="url(#silverSign)" stroke="#6a6a6a" stroke-width="1.2"/>
    <text x="14" y="27" font-family="Georgia,serif" font-size="16" font-weight="bold" fill="#1a1a1a">1.</text>
    <!-- V_Γ(B, n) con texto posicionado -->
    <text x="90" y="28" font-family="'Times New Roman',serif" font-size="18" font-style="italic" fill="#1a1a1a">V</text>
    <text x="104" y="33" font-family="'Times New Roman',serif" font-size="11" font-style="italic" fill="#1a1a1a">Γ</text>
    <text x="112" y="28" font-family="'Times New Roman',serif" font-size="18" font-style="italic" fill="#1a1a1a">(B, n) · preternario</text>
  </g>

  <!-- Letrero 2 (izq-medio): A_Γ(n) = Σ A_i -->
  <g transform="translate(210, 425)" filter="url(#softShadow)">
    <path d="M 0,0 L 260,0 L 275,20 L 260,40 L 0,40 Z" fill="url(#silverSign)" stroke="#6a6a6a" stroke-width="1.2"/>
    <text x="14" y="27" font-family="Georgia,serif" font-size="16" font-weight="bold" fill="#1a1a1a">2.</text>
    <text x="80" y="28" font-family="'Times New Roman',serif" font-size="18" font-style="italic" fill="#1a1a1a">A</text>
    <text x="94" y="33" font-family="'Times New Roman',serif" font-size="11" font-style="italic" fill="#1a1a1a">Γ</text>
    <text x="102" y="28" font-family="'Times New Roman',serif" font-size="18" font-style="italic" fill="#1a1a1a">(n) = </text>
    <text x="147" y="28" font-family="'Times New Roman',serif" font-size="20" fill="#1a1a1a">∑</text>
    <text x="167" y="33" font-family="'Times New Roman',serif" font-size="11" font-style="italic" fill="#1a1a1a">i</text>
    <text x="178" y="28" font-family="'Times New Roman',serif" font-size="18" font-style="italic" fill="#1a1a1a">A</text>
    <text x="192" y="33" font-family="'Times New Roman',serif" font-size="11" font-style="italic" fill="#1a1a1a">i</text>
    <text x="198" y="28" font-family="'Times New Roman',serif" font-size="18" font-style="italic" fill="#1a1a1a">(n)</text>
  </g>

  <!-- Letrero 3 (izq-abajo): H_pre = A_Γ + V_Γ -->
  <g transform="translate(228, 480)" filter="url(#softShadow)">
    <path d="M 0,0 L 280,0 L 295,20 L 280,40 L 0,40 Z" fill="url(#silverSign)" stroke="#6a6a6a" stroke-width="1.2"/>
    <text x="14" y="27" font-family="Georgia,serif" font-size="16" font-weight="bold" fill="#1a1a1a">3.</text>
    <text x="80" y="28" font-family="'Times New Roman',serif" font-size="18" font-style="italic" fill="#1a1a1a">H</text>
    <text x="94" y="33" font-family="'Times New Roman',serif" font-size="11" font-style="italic" fill="#1a1a1a">pre</text>
    <text x="115" y="28" font-family="'Times New Roman',serif" font-size="18" font-style="italic" fill="#1a1a1a"> = A</text>
    <text x="155" y="33" font-family="'Times New Roman',serif" font-size="11" font-style="italic" fill="#1a1a1a">Γ</text>
    <text x="163" y="28" font-family="'Times New Roman',serif" font-size="18" font-style="italic" fill="#1a1a1a"> + V</text>
    <text x="204" y="33" font-family="'Times New Roman',serif" font-size="11" font-style="italic" fill="#1a1a1a">Γ</text>
  </g>

  <!-- Letrero 4 (der-arriba): H_K3 -->
  <g transform="translate(700, 370)" filter="url(#softShadow)">
    <path d="M 15,0 L 270,0 L 270,40 L 15,40 L 0,20 Z" fill="url(#silverSign)" stroke="#6a6a6a" stroke-width="1.2"/>
    <text x="255" y="27" text-anchor="end" font-family="Georgia,serif" font-size="16" font-weight="bold" fill="#1a1a1a">4.</text>
    <text x="70" y="28" font-family="'Times New Roman',serif" font-size="18" font-style="italic" fill="#1a1a1a">H</text>
    <text x="84" y="33" font-family="'Times New Roman',serif" font-size="11" font-style="italic" fill="#1a1a1a">K₃</text>
    <text x="100" y="28" font-family="'Times New Roman',serif" font-size="18" font-style="italic" fill="#1a1a1a">(Γ, n) · ternario</text>
  </g>

  <!-- Letrero 5 (der-medio): H_Ξ = H_pre + ‖J‖ + R_Γ -->
  <g transform="translate(690, 425)" filter="url(#softShadow)">
    <path d="M 15,0 L 280,0 L 280,40 L 15,40 L 0,20 Z" fill="url(#silverSign)" stroke="#6a6a6a" stroke-width="1.2"/>
    <text x="265" y="27" text-anchor="end" font-family="Georgia,serif" font-size="16" font-weight="bold" fill="#1a1a1a">5.</text>
    <text x="45" y="28" font-family="'Times New Roman',serif" font-size="18" font-style="italic" fill="#1a1a1a">H</text>
    <text x="59" y="33" font-family="'Times New Roman',serif" font-size="11" font-style="italic" fill="#1a1a1a">Ξ</text>
    <text x="68" y="28" font-family="'Times New Roman',serif" font-size="18" font-style="italic" fill="#1a1a1a"> = H</text>
    <text x="108" y="33" font-family="'Times New Roman',serif" font-size="11" font-style="italic" fill="#1a1a1a">pre</text>
    <text x="128" y="28" font-family="'Times New Roman',serif" font-size="18" font-style="italic" fill="#1a1a1a"> + ‖J‖ + R</text>
    <text x="230" y="33" font-family="'Times New Roman',serif" font-size="11" font-style="italic" fill="#1a1a1a">Γ</text>
  </g>

  <!-- Letrero 6 (der-abajo): cadena fundacional -->
  <g transform="translate(670, 480)" filter="url(#softShadow)">
    <path d="M 15,0 L 300,0 L 300,40 L 15,40 L 0,20 Z" fill="url(#silverSign)" stroke="#6a6a6a" stroke-width="1.2"/>
    <text x="285" y="27" text-anchor="end" font-family="Georgia,serif" font-size="16" font-weight="bold" fill="#1a1a1a">6.</text>
    <text x="30" y="28" font-family="'Times New Roman',serif" font-size="15" font-style="italic" fill="#1a1a1a">Ω</text>
    <text x="45" y="33" font-family="'Times New Roman',serif" font-size="10" font-style="italic" fill="#1a1a1a">pre</text>
    <text x="66" y="28" font-family="'Times New Roman',serif" font-size="15" fill="#1a1a1a"> → K₃ → Ξ → Σc → Σk</text>
  </g>

  <!-- Tubos conectores -->
  <g stroke="#909090" stroke-width="3" fill="none" opacity="0.5">
    <path d="M 585,360 Q 495,360 490,390"/>
    <path d="M 580,375 Q 415,420 475,445"/>
    <path d="M 580,390 Q 390,475 475,500"/>
    <path d="M 615,360 Q 705,360 710,390"/>
    <path d="M 620,375 Q 775,420 715,445"/>
    <path d="M 620,390 Q 795,475 690,500"/>
  </g>

  <!-- ═══ CINCO SÓLIDOS ═══ -->

  <!-- Cubo → H_pre -->
  <g transform="translate(145, 615)" filter="url(#softShadow)">
    <ellipse cx="50" cy="130" rx="55" ry="10" fill="url(#pedestalGrad)" stroke="#444" stroke-width="0.8"/>
    <rect x="10" y="115" width="80" height="16" fill="url(#silverSign)" stroke="#666" stroke-width="0.8"/>
    <polygon points="20,95 50,80 80,95 50,110" fill="#d0d0d0" stroke="#555" stroke-width="0.8"/>
    <polygon points="20,95 20,55 50,40 50,80" fill="url(#solidFlat)" stroke="#555" stroke-width="0.8"/>
    <polygon points="80,95 80,55 50,40 50,80" fill="url(#solidFlatRight)" stroke="#555" stroke-width="0.8"/>
    <circle cx="33" cy="72" r="1.5" fill="#3a3a3a"/>
    <circle cx="40" cy="67" r="1.5" fill="#3a3a3a"/>
    <circle cx="47" cy="62" r="1.5" fill="#3a3a3a"/>
    <!-- etiqueta con H + subíndice pre separados -->
    <text x="42" y="155" font-family="'Times New Roman',Georgia,serif" font-size="14" font-style="italic" fill="#1a1a1a">H</text>
    <text x="54" y="159" font-family="'Times New Roman',Georgia,serif" font-size="10" font-style="italic" fill="#1a1a1a">pre</text>
  </g>

  <!-- Esfera → H_K3 -->
  <g transform="translate(335, 615)" filter="url(#softShadow)">
    <ellipse cx="50" cy="130" rx="55" ry="10" fill="url(#pedestalGrad)" stroke="#444" stroke-width="0.8"/>
    <rect x="10" y="115" width="80" height="16" fill="url(#silverSign)" stroke="#666" stroke-width="0.8"/>
    <circle cx="50" cy="75" r="35" fill="url(#solidSphere)" stroke="#555" stroke-width="0.8"/>
    <path d="M 35,75 Q 50,55 65,75 M 35,75 Q 50,95 65,75 M 50,55 L 50,95" stroke="#555" stroke-width="0.6" fill="none" opacity="0.5"/>
    <text x="42" y="65" font-family="Georgia,serif" font-size="8" fill="#1a1a1a">0</text>
    <text x="55" y="68" font-family="Georgia,serif" font-size="8" fill="#1a1a1a">1</text>
    <text x="48" y="85" font-family="Georgia,serif" font-size="8" fill="#1a1a1a">U</text>
    <text x="44" y="155" font-family="'Times New Roman',Georgia,serif" font-size="14" font-style="italic" fill="#1a1a1a">H</text>
    <text x="56" y="159" font-family="'Times New Roman',Georgia,serif" font-size="10" font-style="italic" fill="#1a1a1a">K₃</text>
  </g>

  <!-- Cono → H_Ξ -->
  <g transform="translate(525, 615)" filter="url(#softShadow)">
    <ellipse cx="50" cy="130" rx="55" ry="10" fill="url(#pedestalGrad)" stroke="#444" stroke-width="0.8"/>
    <rect x="10" y="115" width="80" height="16" fill="url(#silverSign)" stroke="#666" stroke-width="0.8"/>
    <path d="M 50,40 L 80,108 L 20,108 Z" fill="url(#solidFlat)" stroke="#555" stroke-width="0.8"/>
    <ellipse cx="50" cy="108" rx="30" ry="6" fill="#888" stroke="#555" stroke-width="0.8"/>
    <ellipse cx="50" cy="108" rx="20" ry="4" fill="none" stroke="#2a2a2a" stroke-width="0.5" opacity="0.65"/>
    <ellipse cx="50" cy="108" rx="12" ry="2.5" fill="none" stroke="#2a2a2a" stroke-width="0.5" opacity="0.65"/>
    <text x="46" y="155" font-family="'Times New Roman',Georgia,serif" font-size="14" font-style="italic" fill="#1a1a1a">H</text>
    <text x="58" y="159" font-family="'Times New Roman',Georgia,serif" font-size="10" font-style="italic" fill="#1a1a1a">Ξ</text>
  </g>

  <!-- Cilindro → H_Σc -->
  <g transform="translate(715, 615)" filter="url(#softShadow)">
    <ellipse cx="50" cy="130" rx="55" ry="10" fill="url(#pedestalGrad)" stroke="#444" stroke-width="0.8"/>
    <rect x="10" y="115" width="80" height="16" fill="url(#silverSign)" stroke="#666" stroke-width="0.8"/>
    <rect x="25" y="55" width="50" height="55" fill="url(#solidFlat)" stroke="#555" stroke-width="0.8"/>
    <ellipse cx="50" cy="55" rx="25" ry="7" fill="#d0d0d0" stroke="#555" stroke-width="0.8"/>
    <ellipse cx="50" cy="110" rx="25" ry="7" fill="#888" stroke="#555" stroke-width="0.8"/>
    <path d="M 38,100 L 38,70 M 35,73 L 38,70 L 41,73" stroke="#2a2a2a" stroke-width="0.9" fill="none"/>
    <path d="M 50,100 L 50,67 M 47,70 L 50,67 L 53,70" stroke="#2a2a2a" stroke-width="0.9" fill="none"/>
    <path d="M 62,100 L 62,73 M 59,76 L 62,73 L 65,76" stroke="#2a2a2a" stroke-width="0.9" fill="none"/>
    <text x="42" y="155" font-family="'Times New Roman',Georgia,serif" font-size="14" font-style="italic" fill="#1a1a1a">H</text>
    <text x="54" y="159" font-family="'Times New Roman',Georgia,serif" font-size="10" font-style="italic" fill="#1a1a1a">Σc</text>
  </g>

  <!-- Icosaedro → H_Σk -->
  <g transform="translate(905, 615)" filter="url(#softShadow)">
    <ellipse cx="50" cy="130" rx="55" ry="10" fill="url(#pedestalGrad)" stroke="#444" stroke-width="0.8"/>
    <rect x="10" y="115" width="80" height="16" fill="url(#silverSign)" stroke="#666" stroke-width="0.8"/>
    <polygon points="50,40 80,65 65,105 35,105 20,65" fill="url(#solidFlat)" stroke="#555" stroke-width="0.8"/>
    <polygon points="50,40 20,65 35,70" fill="#b8b8b8" stroke="#555" stroke-width="0.4"/>
    <polygon points="50,40 80,65 65,70" fill="#a0a0a0" stroke="#555" stroke-width="0.4"/>
    <polygon points="35,70 65,70 50,105" fill="#a8a8a8" stroke="#555" stroke-width="0.4"/>
    <polygon points="20,65 35,70 35,105" fill="#909090" stroke="#555" stroke-width="0.4"/>
    <polygon points="80,65 65,70 65,105" fill="#808080" stroke="#555" stroke-width="0.4"/>
    <path d="M 35,90 Q 50,75 65,90" stroke="#2a2a2a" stroke-width="0.6" fill="none" opacity="0.65"/>
    <circle cx="35" cy="90" r="1.3" fill="#2a2a2a"/>
    <circle cx="65" cy="90" r="1.3" fill="#2a2a2a"/>
    <text x="42" y="155" font-family="'Times New Roman',Georgia,serif" font-size="14" font-style="italic" fill="#1a1a1a">H</text>
    <text x="54" y="159" font-family="'Times New Roman',Georgia,serif" font-size="10" font-style="italic" fill="#1a1a1a">Σk</text>
  </g>

  <!-- Banda inferior CEDRO -->
  <text x="600" y="790" text-anchor="middle" font-family="Georgia, serif" font-size="11" fill="#2a2a2a">
    © 2026. Todos los derechos reservados. Juan Antonio Lloret Egea | ORCID: 0000-0002-6634-3351 | IA eñ™ — La Biblia de la IA™ | ISSN 2695-6411 | Licencia CC BY-NC-ND 4.0
  </text>

</svg>
