<svg width="100%" viewBox="0 0 680 230" xmlns="http://www.w3.org/2000/svg">
  <style>
    text { font-family: sans-serif; }
    .th { font-size: 14px; font-weight: 500; fill: #2C2C2A; }
    .ts { font-size: 12px; fill: #5F5E5A; }
    .gray-box { fill: #F1EFE8; stroke: #888780; stroke-width: 0.5; }
    .teal-box { fill: #E1F5EE; stroke: #0F6E56; stroke-width: 1.5; }
    .teal-th { font-size: 14px; font-weight: 500; fill: #085041; }
    .teal-ts { font-size: 12px; fill: #0F6E56; }
    .purple-box { fill: #EEEDFE; stroke: #534AB7; stroke-width: 1.5; }
    .purple-th { font-size: 14px; font-weight: 500; fill: #3C3489; }
    .purple-ts { font-size: 12px; fill: #534AB7; }
  </style>
  <defs>
    <marker id="arr" viewBox="0 0 10 10" refX="8" refY="5" markerWidth="6" markerHeight="6" orient="auto-start-reverse">
      <path d="M2 1L8 5L2 9" fill="none" stroke="#888780" stroke-width="1.5" stroke-linecap="round" stroke-linejoin="round"/>
    </marker>
  </defs>

  <rect x="10" y="30" width="48" height="38" rx="6" class="gray-box"/>
  <text class="th" x="34" y="45" text-anchor="middle" dominant-baseline="central">x</text>
  <text class="ts" x="34" y="60" text-anchor="middle" dominant-baseline="central">dom.</text>
  <line x1="58" y1="49" x2="68" y2="49" stroke="#888780" stroke-width="1" fill="none" marker-end="url(#arr)"/>

  <rect x="68" y="30" width="48" height="38" rx="6" class="gray-box"/>
  <text class="th" x="92" y="45" text-anchor="middle" dominant-baseline="central">ϕⱼ</text>
  <text class="ts" x="92" y="60" text-anchor="middle" dominant-baseline="central">capt.</text>
  <line x1="116" y1="49" x2="126" y2="49" stroke="#888780" stroke-width="1" fill="none" marker-end="url(#arr)"/>

  <rect x="126" y="30" width="48" height="38" rx="6" class="gray-box"/>
  <text class="th" x="150" y="45" text-anchor="middle" dominant-baseline="central">oⱼ</text>
  <text class="ts" x="150" y="60" text-anchor="middle" dominant-baseline="central">obs.</text>
  <line x1="174" y1="49" x2="184" y2="49" stroke="#888780" stroke-width="1" fill="none" marker-end="url(#arr)"/>

  <rect x="184" y="30" width="48" height="38" rx="6" class="gray-box"/>
  <text class="th" x="208" y="45" text-anchor="middle" dominant-baseline="central">rⱼ</text>
  <text class="ts" x="208" y="60" text-anchor="middle" dominant-baseline="central">adm.</text>
  <line x1="232" y1="49" x2="242" y2="49" stroke="#888780" stroke-width="1" fill="none" marker-end="url(#arr)"/>

  <rect x="242" y="30" width="48" height="38" rx="6" class="gray-box"/>
  <text class="th" x="266" y="45" text-anchor="middle" dominant-baseline="central">τⱼ</text>
  <text class="ts" x="266" y="60" text-anchor="middle" dominant-baseline="central">trns.</text>
  <line x1="290" y1="49" x2="300" y2="49" stroke="#888780" stroke-width="1" fill="none" marker-end="url(#arr)"/>

  <rect x="300" y="30" width="48" height="38" rx="6" class="gray-box"/>
  <text class="th" x="324" y="45" text-anchor="middle" dominant-baseline="central">σ</text>
  <text class="ts" x="324" y="60" text-anchor="middle" dominant-baseline="central">cfg.</text>
  <line x1="348" y1="49" x2="358" y2="49" stroke="#888780" stroke-width="1" fill="none" marker-end="url(#arr)"/>

  <rect x="358" y="30" width="48" height="38" rx="6" class="gray-box"/>
  <text class="th" x="382" y="45" text-anchor="middle" dominant-baseline="central">Pⱼ</text>
  <text class="ts" x="382" y="60" text-anchor="middle" dominant-baseline="central">iface</text>
  <line x1="406" y1="49" x2="416" y2="49" stroke="#888780" stroke-width="1" fill="none" marker-end="url(#arr)"/>

  <rect x="416" y="30" width="58" height="38" rx="6" class="gray-box"/>
  <text class="th" x="445" y="49" text-anchor="middle" dominant-baseline="central">célula</text>
  <line x1="474" y1="49" x2="484" y2="49" stroke="#888780" stroke-width="1" fill="none" marker-end="url(#arr)"/>

  <rect x="484" y="30" width="52" height="38" rx="6" class="gray-box"/>
  <text class="th" x="510" y="49" text-anchor="middle" dominant-baseline="central">comp.</text>
  <line x1="536" y1="49" x2="546" y2="49" stroke="#888780" stroke-width="1" fill="none" marker-end="url(#arr)"/>

  <rect x="546" y="30" width="52" height="38" rx="6" class="gray-box"/>
  <text class="th" x="572" y="49" text-anchor="middle" dominant-baseline="central">frame</text>

  <line x1="572" y1="68" x2="572" y2="110" stroke="#888780" stroke-width="1.5" fill="none" marker-end="url(#arr)"/>

  <rect x="460" y="110" width="160" height="48" rx="8" class="teal-box"/>
  <text class="teal-th" x="540" y="128" text-anchor="middle" dominant-baseline="central">trayectoria</text>
  <text class="teal-ts" x="540" y="146" text-anchor="middle" dominant-baseline="central">punto de arranque</text>

  <line x1="460" y1="134" x2="380" y2="134" stroke="#888780" stroke-width="1.5" fill="none" marker-end="url(#arr)"/>

  <rect x="240" y="110" width="140" height="48" rx="8" class="purple-box"/>
  <text class="purple-th" x="310" y="128" text-anchor="middle" dominant-baseline="central">CSE · H(T)</text>
  <text class="purple-ts" x="310" y="146" text-anchor="middle" dominant-baseline="central">este trabajo</text>

  <text class="ts" x="340" y="192" text-anchor="middle">alfabeto {0,1,U} · régimen eventivo · clausura auditada</text>
</svg>
