<svg xmlns="http://www.w3.org/2000/svg" width="1200" height="800" viewBox="0 0 1200 800">
<defs>
  <style>
    @import url('https://fonts.googleapis.com/css2?family=Oswald:wght@400;600;700&amp;family=Barlow:ital,wght@0,400;0,600;1,400&amp;display=swap');
  </style>

  <!-- Background -->
  <radialGradient id="bg" cx="50%" cy="42%" r="72%">
    <stop offset="0%"   stop-color="#0e2358"/>
    <stop offset="55%"  stop-color="#07142e"/>
    <stop offset="100%" stop-color="#020810"/>
  </radialGradient>

  <!-- Footer -->
  <linearGradient id="footerGrad" x1="0%" y1="0%" x2="0%" y2="100%">
    <stop offset="0%"   stop-color="#040c22"/>
    <stop offset="100%" stop-color="#01050f"/>
  </linearGradient>

  <!-- Grid J zone: blue-cyan (preserved subdominio — same in A and B) -->
  <radialGradient id="hlJ" cx="50%" cy="50%" r="55%">
    <stop offset="0%"   stop-color="#1166ff" stop-opacity="0.62"/>
    <stop offset="100%" stop-color="#0033bb" stop-opacity="0.07"/>
  </radialGradient>

  <!-- Grid loss zone: dark grey -->
  <radialGradient id="hlLoss" cx="50%" cy="50%" r="55%">
    <stop offset="0%"   stop-color="#334466" stop-opacity="0.35"/>
    <stop offset="100%" stop-color="#112233" stop-opacity="0.05"/>
  </radialGradient>

  <!-- Centre circle: green tint (equiv. parcial) -->
  <radialGradient id="centreFill" cx="50%" cy="50%" r="50%">
    <stop offset="0%"   stop-color="#003322" stop-opacity="0.65"/>
    <stop offset="60%"  stop-color="#001a11" stop-opacity="0.30"/>
    <stop offset="100%" stop-color="#000a06" stop-opacity="0.05"/>
  </radialGradient>

  <!-- Arrow gradient: blue → cyan → white-cyan -->
  <linearGradient id="arrowG" x1="0%" y1="0%" x2="100%" y2="0%">
    <stop offset="0%"   stop-color="#2266ff"/>
    <stop offset="50%"  stop-color="#00aaee"/>
    <stop offset="100%" stop-color="#55ffee"/>
  </linearGradient>

  <!-- Tríada active cell: green -->
  <linearGradient id="typeActive" x1="0%" y1="0%" x2="0%" y2="100%">
    <stop offset="0%"   stop-color="#003318"/>
    <stop offset="100%" stop-color="#001a0c"/>
  </linearGradient>

  <!-- Glow filters -->
  <filter id="g3"  x="-60%" y="-60%" width="220%" height="220%">
    <feGaussianBlur stdDeviation="3" result="b"/>
    <feMerge><feMergeNode in="b"/><feMergeNode in="SourceGraphic"/></feMerge>
  </filter>
  <filter id="g6"  x="-80%" y="-80%" width="260%" height="260%">
    <feGaussianBlur stdDeviation="6" result="b"/>
    <feMerge><feMergeNode in="b"/><feMergeNode in="SourceGraphic"/></feMerge>
  </filter>
  <filter id="g10" x="-100%" y="-100%" width="300%" height="300%">
    <feGaussianBlur stdDeviation="10" result="b"/>
    <feMerge><feMergeNode in="b"/><feMergeNode in="SourceGraphic"/></feMerge>
  </filter>
  <filter id="blurOnly" x="-150%" y="-150%" width="400%" height="400%">
    <feGaussianBlur stdDeviation="22"/>
  </filter>

  <!-- Arrowhead -->
  <marker id="tip" markerWidth="10" markerHeight="7" refX="9" refY="3.5" orient="auto">
    <polygon points="0 0, 10 3.5, 0 7" fill="#55eeff"/>
  </marker>
</defs>

<!-- ═══ BACKGROUND ═══ -->
<rect width="1200" height="800" fill="url(#bg)"/>

<!-- Ambient pools -->
<ellipse cx="200"  cy="360" rx="200" ry="220" fill="#1144cc" fill-opacity="0.05" filter="url(#blurOnly)"/>
<ellipse cx="1000" cy="360" rx="200" ry="220" fill="#1144cc" fill-opacity="0.05" filter="url(#blurOnly)"/>
<ellipse cx="600"  cy="285" rx="130" ry="100" fill="#006633" fill-opacity="0.07" filter="url(#blurOnly)"/>

<!-- ═══ STAR FIELD ═══ -->
<!-- Feature stars -->
<circle cx="310" cy="22"  r="2.8" fill="white" filter="url(#g3)"/>
<circle cx="760" cy="20"  r="3.2" fill="white" filter="url(#g3)"/>
<circle cx="195" cy="44"  r="2.5" fill="white" filter="url(#g3)"/>
<circle cx="1062" cy="40" r="2.6" fill="white" filter="url(#g3)"/>
<circle cx="33"   cy="318" r="2.4" fill="white" opacity="0.85" filter="url(#g3)"/>
<circle cx="1167" cy="328" r="2.4" fill="white" opacity="0.85" filter="url(#g3)"/>
<circle cx="490" cy="672" r="2.2" fill="white" opacity="0.7"  filter="url(#g3)"/>
<circle cx="710" cy="660" r="2.2" fill="white" opacity="0.7"  filter="url(#g3)"/>
<!-- Regular stars -->
<circle cx="44"   cy="28"  r="1.4" fill="white" opacity="0.75"/>
<circle cx="112"  cy="16"  r="0.9" fill="white" opacity="0.6"/>
<circle cx="442"  cy="33"  r="1.0" fill="white" opacity="0.55"/>
<circle cx="562"  cy="14"  r="1.4" fill="white" opacity="0.8"/>
<circle cx="652"  cy="38"  r="0.9" fill="white" opacity="0.6"/>
<circle cx="876"  cy="32"  r="1.3" fill="white" opacity="0.75"/>
<circle cx="972"  cy="16"  r="0.9" fill="white" opacity="0.6"/>
<circle cx="1157" cy="24"  r="1.4" fill="white" opacity="0.9"/>
<circle cx="28"   cy="82"  r="0.9" fill="white" opacity="0.5"/>
<circle cx="78"   cy="98"  r="1.8" fill="white" opacity="0.7"/>
<circle cx="1122" cy="86"  r="1.0" fill="white" opacity="0.6"/>
<circle cx="1178" cy="104" r="1.4" fill="white" opacity="0.8"/>
<circle cx="375"  cy="148" r="0.9" fill="white" opacity="0.4"/>
<circle cx="482"  cy="168" r="1.3" fill="white" opacity="0.45"/>
<circle cx="722"  cy="145" r="0.9" fill="white" opacity="0.4"/>
<circle cx="834"  cy="162" r="1.8" fill="white" opacity="0.5"/>
<circle cx="22"   cy="178" r="1.3" fill="white" opacity="0.6"/>
<circle cx="58"   cy="238" r="0.9" fill="white" opacity="0.5"/>
<circle cx="20"   cy="398" r="1.3" fill="white" opacity="0.6"/>
<circle cx="50"   cy="468" r="0.9" fill="white" opacity="0.5"/>
<circle cx="30"   cy="552" r="1.8" fill="white" opacity="0.65"/>
<circle cx="56"   cy="622" r="1.3" fill="white" opacity="0.55"/>
<circle cx="1178" cy="178" r="1.3" fill="white" opacity="0.6"/>
<circle cx="1142" cy="252" r="0.9" fill="white" opacity="0.5"/>
<circle cx="1180" cy="412" r="1.3" fill="white" opacity="0.6"/>
<circle cx="1148" cy="478" r="0.9" fill="white" opacity="0.5"/>
<circle cx="1170" cy="558" r="1.8" fill="white" opacity="0.65"/>
<circle cx="1154" cy="628" r="1.3" fill="white" opacity="0.55"/>
<circle cx="148"  cy="663" r="1.3" fill="white" opacity="0.5"/>
<circle cx="298"  cy="678" r="0.9" fill="white" opacity="0.4"/>
<circle cx="888"  cy="672" r="0.9" fill="white" opacity="0.4"/>
<circle cx="1048" cy="660" r="1.8" fill="white" opacity="0.6"/>
<!-- Constellation lines -->
<line x1="44"   y1="28"  x2="112"  y2="16"  stroke="white" stroke-width="0.5" opacity="0.22"/>
<line x1="112"  y1="16"  x2="195"  y2="44"  stroke="white" stroke-width="0.5" opacity="0.22"/>
<line x1="310"  y1="22"  x2="442"  y2="33"  stroke="white" stroke-width="0.5" opacity="0.18"/>
<line x1="760"  y1="20"  x2="876"  y2="32"  stroke="white" stroke-width="0.5" opacity="0.18"/>
<line x1="876"  y1="32"  x2="972"  y2="16"  stroke="white" stroke-width="0.5" opacity="0.22"/>
<line x1="1062" y1="40"  x2="1157" y2="24"  stroke="white" stroke-width="0.5" opacity="0.22"/>
<line x1="22"   y1="178" x2="58"   y2="238" stroke="white" stroke-width="0.5" opacity="0.18"/>
<line x1="58"   y1="238" x2="33"   y2="318" stroke="white" stroke-width="0.5" opacity="0.18"/>
<line x1="1178" y1="178" x2="1142" y2="252" stroke="white" stroke-width="0.5" opacity="0.18"/>
<line x1="1142" y1="252" x2="1167" y2="328" stroke="white" stroke-width="0.5" opacity="0.18"/>

<!-- ═══ HEADER ═══ -->
<!-- Series identifier -->
<text x="600" y="32"
  text-anchor="middle"
  font-family="Oswald, 'Arial Narrow', Arial, sans-serif"
  font-size="13" font-weight="400" letter-spacing="3.5"
  fill="#c8a030" fill-opacity="0.88">
  SUCESOS, HORIZONTES Y CAMBIO ESTRUCTURAL · VII.6
</text>

<!-- Title line 1 -->
<text x="600" y="72"
  text-anchor="middle"
  font-family="Oswald, 'Arial Narrow', Arial, sans-serif"
  font-size="38" font-weight="700"
  fill="white">
  Equivalencia parcial, preservación e invariancia local
</text>
<!-- Title line 2 -->
<text x="600" y="108"
  text-anchor="middle"
  font-family="Oswald, 'Arial Narrow', Arial, sans-serif"
  font-size="38" font-weight="700"
  fill="white">
  entre regímenes
</text>

<!-- Gold rules -->
<line x1="78"  y1="122" x2="330" y2="122" stroke="#c8a030" stroke-width="2"/>
<line x1="870" y1="122" x2="1122" y2="122" stroke="#c8a030" stroke-width="2"/>

<!-- Subtitle -->
<text x="600" y="140"
  text-anchor="middle"
  font-family="Oswald, 'Arial Narrow', Arial, sans-serif"
  font-size="26" font-weight="600"
  fill="#f0c040">
  en el Sistema Vectorial SV
</text>

<!-- ═══ GRID R_A ═══ -->
<text x="192" y="168"
  text-anchor="middle"
  font-family="Oswald, Arial, sans-serif"
  font-size="18" font-weight="600"
  fill="#88aaee">R_A  en régimen A</text>

<rect x="80" y="180" width="225" height="225" rx="5"
  fill="#091428" stroke="#2244aa" stroke-width="2" fill-opacity="0.75"/>

<!-- Inner grid lines -->
<line x1="155" y1="180" x2="155" y2="405" stroke="#1a3068" stroke-width="1.5"/>
<line x1="230" y1="180" x2="230" y2="405" stroke="#1a3068" stroke-width="1.5"/>
<line x1="80"  y1="255" x2="305" y2="255" stroke="#1a3068" stroke-width="1.5"/>
<line x1="80"  y1="330" x2="305" y2="330" stroke="#1a3068" stroke-width="1.5"/>

<!-- J = {P1,P2,P3}: top row highlighted blue-cyan -->
<rect x="81"  y="181" width="73" height="73" fill="url(#hlJ)" filter="url(#g3)"/>
<rect x="156" y="181" width="73" height="73" fill="url(#hlJ)" filter="url(#g3)"/>
<rect x="231" y="181" width="73" height="73" fill="url(#hlJ)" filter="url(#g3)"/>
<!-- J borders -->
<rect x="81"  y="181" width="73" height="73" fill="none" stroke="#4488ff" stroke-width="1.2" opacity="0.6"/>
<rect x="156" y="181" width="73" height="73" fill="none" stroke="#4488ff" stroke-width="1.2" opacity="0.6"/>
<rect x="231" y="181" width="73" height="73" fill="none" stroke="#4488ff" stroke-width="1.2" opacity="0.6"/>

<!-- Loss zone (rows 2+3): subtle dark overlay -->
<rect x="81"  y="256" width="73" height="73" fill="url(#hlLoss)"/>
<rect x="156" y="256" width="73" height="73" fill="url(#hlLoss)"/>
<rect x="231" y="256" width="73" height="73" fill="url(#hlLoss)"/>
<rect x="81"  y="331" width="73" height="73" fill="url(#hlLoss)"/>
<rect x="156" y="331" width="73" height="73" fill="url(#hlLoss)"/>
<rect x="231" y="331" width="73" height="73" fill="url(#hlLoss)"/>

<!-- Values A = (1,1,1, 0,0,0, U,U,U) -->
<!-- Row 0 (J): bright white-blue -->
<text x="117" y="225" text-anchor="middle" font-family="Oswald,Arial,sans-serif" font-size="28" font-weight="700" fill="#aaccff" filter="url(#g3)">1</text>
<text x="192" y="225" text-anchor="middle" font-family="Oswald,Arial,sans-serif" font-size="28" font-weight="700" fill="#aaccff" filter="url(#g3)">1</text>
<text x="267" y="225" text-anchor="middle" font-family="Oswald,Arial,sans-serif" font-size="28" font-weight="700" fill="#aaccff" filter="url(#g3)">1</text>
<!-- Row 1 (loss): dim -->
<text x="117" y="300" text-anchor="middle" font-family="Oswald,Arial,sans-serif" font-size="26" fill="#3a4f6e">0</text>
<text x="192" y="300" text-anchor="middle" font-family="Oswald,Arial,sans-serif" font-size="26" fill="#3a4f6e">0</text>
<text x="267" y="300" text-anchor="middle" font-family="Oswald,Arial,sans-serif" font-size="26" fill="#3a4f6e">0</text>
<!-- Row 2 (loss): dim -->
<text x="117" y="375" text-anchor="middle" font-family="Oswald,Arial,sans-serif" font-size="26" fill="#2e3d55">U</text>
<text x="192" y="375" text-anchor="middle" font-family="Oswald,Arial,sans-serif" font-size="26" fill="#2e3d55">U</text>
<text x="267" y="375" text-anchor="middle" font-family="Oswald,Arial,sans-serif" font-size="26" fill="#2e3d55">U</text>

<!-- J label below A -->
<text x="192" y="424"
  text-anchor="middle"
  font-family="Oswald, Arial, sans-serif"
  font-size="14" fill="#5588cc">J = {P1, P2, P3}  ·  pérdida: {P4…P9}</text>

<!-- ═══ CENTRAL PRESERVATION CIRCLE ═══ -->
<!-- Outer glow -->
<circle cx="600" cy="285" r="88" fill="none" stroke="#008844" stroke-width="18" opacity="0.07" filter="url(#g10)"/>
<!-- Main circle -->
<circle cx="600" cy="285" r="80" fill="url(#centreFill)"/>
<!-- Stroke rings -->
<circle cx="600" cy="285" r="80" fill="none" stroke="#00cc66" stroke-width="1.8" opacity="0.55"/>
<circle cx="600" cy="285" r="68" fill="none" stroke="#00aa44" stroke-width="1"   opacity="0.30"/>
<!-- Green glow ring -->
<circle cx="600" cy="285" r="80" fill="none" stroke="#00ff88" stroke-width="3"   opacity="0.15" filter="url(#g6)"/>

<!-- Preservation equation -->
<text x="600" y="266"
  text-anchor="middle"
  font-family="Barlow, Arial, sans-serif"
  font-size="15" font-weight="600" font-style="italic"
  fill="#55ffaa" filter="url(#g3)">P_B(Θ(x)) = P_A(x)</text>
<!-- Divider -->
<line x1="532" y1="278" x2="668" y2="278" stroke="#00aa44" stroke-width="1" opacity="0.5"/>
<!-- Θ symbol -->
<text x="600" y="308"
  text-anchor="middle"
  font-family="Oswald, Arial, sans-serif"
  font-size="38" font-weight="700"
  fill="#00ee77" filter="url(#g6)">Θ</text>
<!-- annotation -->
<text x="600" y="348"
  text-anchor="middle"
  font-family="Barlow, Arial, sans-serif"
  font-size="12" font-style="italic"
  fill="#55aa77" fill-opacity="0.85">transporte · preservación</text>

<!-- ═══ GRID R_B ═══ -->
<text x="1008" y="168"
  text-anchor="middle"
  font-family="Oswald, Arial, sans-serif"
  font-size="18" font-weight="600"
  fill="#88aaee">R_B  en régimen B</text>

<rect x="895" y="180" width="225" height="225" rx="5"
  fill="#091428" stroke="#2244aa" stroke-width="2" fill-opacity="0.75"/>

<!-- Inner grid lines -->
<line x1="970"  y1="180" x2="970"  y2="405" stroke="#1a3068" stroke-width="1.5"/>
<line x1="1045" y1="180" x2="1045" y2="405" stroke="#1a3068" stroke-width="1.5"/>
<line x1="895"  y1="255" x2="1120" y2="255" stroke="#1a3068" stroke-width="1.5"/>
<line x1="895"  y1="330" x2="1120" y2="330" stroke="#1a3068" stroke-width="1.5"/>

<!-- Θ(J) = {P1,P2,P3}: top row highlighted same blue -->
<rect x="896"  y="181" width="73" height="73" fill="url(#hlJ)" filter="url(#g3)"/>
<rect x="971"  y="181" width="73" height="73" fill="url(#hlJ)" filter="url(#g3)"/>
<rect x="1046" y="181" width="73" height="73" fill="url(#hlJ)" filter="url(#g3)"/>
<!-- J borders -->
<rect x="896"  y="181" width="73" height="73" fill="none" stroke="#4488ff" stroke-width="1.2" opacity="0.6"/>
<rect x="971"  y="181" width="73" height="73" fill="none" stroke="#4488ff" stroke-width="1.2" opacity="0.6"/>
<rect x="1046" y="181" width="73" height="73" fill="none" stroke="#4488ff" stroke-width="1.2" opacity="0.6"/>

<!-- Loss zone R_B -->
<rect x="896"  y="256" width="73" height="73" fill="url(#hlLoss)"/>
<rect x="971"  y="256" width="73" height="73" fill="url(#hlLoss)"/>
<rect x="1046" y="256" width="73" height="73" fill="url(#hlLoss)"/>
<rect x="896"  y="331" width="73" height="73" fill="url(#hlLoss)"/>
<rect x="971"  y="331" width="73" height="73" fill="url(#hlLoss)"/>
<rect x="1046" y="331" width="73" height="73" fill="url(#hlLoss)"/>

<!-- Values B = (1,1,1, U,U,U, 0,0,0) -->
<!-- Row 0 (Θ(J)): same bright blue — preserved -->
<text x="932"  y="225" text-anchor="middle" font-family="Oswald,Arial,sans-serif" font-size="28" font-weight="700" fill="#aaccff" filter="url(#g3)">1</text>
<text x="1007" y="225" text-anchor="middle" font-family="Oswald,Arial,sans-serif" font-size="28" font-weight="700" fill="#aaccff" filter="url(#g3)">1</text>
<text x="1082" y="225" text-anchor="middle" font-family="Oswald,Arial,sans-serif" font-size="28" font-weight="700" fill="#aaccff" filter="url(#g3)">1</text>
<!-- Row 1: dim (differs from A) -->
<text x="932"  y="300" text-anchor="middle" font-family="Oswald,Arial,sans-serif" font-size="26" fill="#2e3d55">U</text>
<text x="1007" y="300" text-anchor="middle" font-family="Oswald,Arial,sans-serif" font-size="26" fill="#2e3d55">U</text>
<text x="1082" y="300" text-anchor="middle" font-family="Oswald,Arial,sans-serif" font-size="26" fill="#2e3d55">U</text>
<!-- Row 2: dim (differs from A) -->
<text x="932"  y="375" text-anchor="middle" font-family="Oswald,Arial,sans-serif" font-size="26" fill="#3a4f6e">0</text>
<text x="1007" y="375" text-anchor="middle" font-family="Oswald,Arial,sans-serif" font-size="26" fill="#3a4f6e">0</text>
<text x="1082" y="375" text-anchor="middle" font-family="Oswald,Arial,sans-serif" font-size="26" fill="#3a4f6e">0</text>

<!-- Θ(J) label below B -->
<text x="1007" y="424"
  text-anchor="middle"
  font-family="Oswald, Arial, sans-serif"
  font-size="14" fill="#5588cc">Θ(J) = {P1, P2, P3}  ·  ℱ preservada</text>

<!-- ═══ TRANSPORT ARROWS (only top row: P1→P1, P2→P2, P3→P3) ═══ -->
<!-- Glow layer -->
<path d="M 305 217 C 400 200, 500 195, 600 215 C 700 195, 800 200, 895 217"
  fill="none" stroke="#0088ff" stroke-width="6" stroke-opacity="0.22" filter="url(#g6)"/>

<!-- Sharp arrows for top row (single arc to represent all three) -->
<path d="M 305 205 C 420 172, 570 168, 600 205 C 630 168, 780 172, 895 205"
  fill="none" stroke="url(#arrowG)" stroke-width="2.6"
  marker-end="url(#tip)"/>

<!-- Individual fine arrows for clarity -->
<path d="M 305 220 C 400 215, 490 212, 680 220"
  fill="none" stroke="url(#arrowG)" stroke-width="1.8" opacity="0.7"
  marker-end="url(#tip)"/>

<!-- Preservation label on arrow -->
<text x="492" y="190"
  text-anchor="middle"
  font-family="Barlow, Arial, sans-serif"
  font-size="12" font-weight="600" font-style="italic"
  fill="#66ddff" fill-opacity="0.9">Θ(Pi)=Pi  ·  P_B(Θ(x))=P_A(x)  ✓</text>

<!-- ═══ TRÍADA RIBBON ═══ -->
<rect x="58" y="448" width="1084" height="60" rx="10"
  fill="#050f25" fill-opacity="0.82" stroke="#0e1f45" stroke-width="1.2"/>

<!-- Dividers -->
<line x1="418" y1="458" x2="418" y2="498" stroke="#0e2050" stroke-width="1.2"/>
<line x1="778" y1="458" x2="778" y2="498" stroke="#0e2050" stroke-width="1.2"/>

<!-- Type 1: No equivalencia -->
<text x="238" y="472" text-anchor="middle" font-family="Oswald,Arial,sans-serif" font-size="12" font-weight="600" letter-spacing="0.5" fill="#4455aa">NO EQUIVALENCIA</text>
<text x="238" y="490" text-anchor="middle" font-family="Barlow,Arial,sans-serif"  font-size="12" fill="#334488">R_A ≁ R_B  ·  sin preservación</text>

<!-- Type 2: Comparabilidad -->
<text x="598" y="472" text-anchor="middle" font-family="Oswald,Arial,sans-serif" font-size="12" font-weight="600" letter-spacing="0.5" fill="#4466bb">COMPARABILIDAD</text>
<text x="598" y="490" text-anchor="middle" font-family="Barlow,Arial,sans-serif"  font-size="12" fill="#3355aa">R_A ⋈ R_B  ·  alguna preservación</text>

<!-- Type 3: Equivalencia parcial — ACTIVE (green) -->
<rect x="779" y="449" width="362" height="59" rx="0" fill="url(#typeActive)" fill-opacity="0.92"/>
<rect x="779" y="449" width="362" height="59" rx="0" fill="none" stroke="#005522" stroke-width="1" opacity="0.7"/>
<text x="960" y="472" text-anchor="middle" font-family="Oswald,Arial,sans-serif" font-size="12" font-weight="700" letter-spacing="0.5" fill="#44ff99">EQUIVALENCIA PARCIAL  ◀ ejemplo E3</text>
<text x="960" y="490" text-anchor="middle" font-family="Oswald,Arial,sans-serif" font-size="12" font-weight="700" letter-spacing="0.5" fill="#44ff99">R_A ~_par R_B  ·  inv. local + pérdida declarada</text>

<!-- ═══ DICTAMEN BOX ═══ -->
<rect x="310" y="526" width="580" height="52" rx="10"
  fill="#03100a" fill-opacity="0.88" stroke="#004422" stroke-width="1.5"/>
<text x="600" y="547"
  text-anchor="middle"
  font-family="Oswald, Arial, sans-serif"
  font-size="14" font-weight="600" letter-spacing="0.5"
  fill="#44ee88">Dictamen del ejemplo canónico E3</text>
<text x="600" y="566"
  text-anchor="middle"
  font-family="Barlow, Arial, sans-serif"
  font-size="13" font-weight="400"
  fill="#779988">equivalencia parcial · J={P1,P2,P3} · SV(9,3)</text>

<!-- ═══ FOOTER ═══ -->
<rect x="0" y="702" width="1200" height="98" fill="url(#footerGrad)"/>
<line x1="0" y1="702" x2="1200" y2="702" stroke="#c8a030" stroke-width="1.5" opacity="0.55"/>

<text x="600" y="736"
  text-anchor="middle"
  font-family="Oswald, Arial, sans-serif"
  font-size="15.5" font-weight="600"
  fill="white">
  Autor: Juan Antonio Lloret Egea | ORCID: 0000-0002-6634-3351 | Institución: Instituto Tecnológico Virtual
</text>
<text x="600" y="764"
  text-anchor="middle"
  font-family="Oswald, Arial, sans-serif"
  font-size="15.5" font-weight="600"
  fill="white">
  de la Inteligencia Artificial para el Español™ (ITVIA) | Publicación: IA eñ™ – La Biblia de la IA™ | ISSN 2695-6411 | Madrid, 25/03/2026
</text>

</svg>
