<?xml version="1.0" encoding="utf-8" standalone="no"?>
<!DOCTYPE svg PUBLIC "-//W3C//DTD SVG 1.1//EN"
  "http://www.w3.org/Graphics/SVG/1.1/DTD/svg11.dtd">
<svg xmlns:xlink="http://www.w3.org/1999/xlink" width="864pt" height="576pt" viewBox="0 0 864 576" xmlns="http://www.w3.org/2000/svg" version="1.1">
 <metadata>
  <rdf:RDF xmlns:dc="http://purl.org/dc/elements/1.1/" xmlns:cc="http://creativecommons.org/ns#" xmlns:rdf="http://www.w3.org/1999/02/22-rdf-syntax-ns#">
   <cc:Work>
    <dc:type rdf:resource="http://purl.org/dc/dcmitype/StillImage"/>
    <dc:date>2026-03-20T21:26:53.273976</dc:date>
    <dc:format>image/svg+xml</dc:format>
    <dc:creator>
     <cc:Agent>
      <dc:title>Matplotlib v3.10.8, https://matplotlib.org/</dc:title>
     </cc:Agent>
    </dc:creator>
   </cc:Work>
  </rdf:RDF>
 </metadata>
 <defs>
  <style type="text/css">*{stroke-linejoin: round; stroke-linecap: butt}</style>
 </defs>
 <g id="figure_1">
  <g id="patch_1">
   <path d="M 0 576 
L 864 576 
L 864 0 
L 0 0 
z
" style="fill: #ffffff"/>
  </g>
  <g id="axes_1">
   <g id="patch_2">
    <path d="M 324.9504 333.45792 
L 560.6496 333.45792 
Q 574.0416 333.45792 574.0416 324.58752 
L 574.0416 257.17248 
Q 574.0416 248.30208 560.6496 248.30208 
L 324.9504 248.30208 
Q 311.5584 248.30208 311.5584 257.17248 
L 311.5584 324.58752 
Q 311.5584 333.45792 324.9504 333.45792 
z
" clip-path="url(#p86a6fbe42b)" style="fill: #f7f7f7; stroke: #000000; stroke-width: 2.4; stroke-linejoin: miter"/>
   </g>
   <g id="patch_3">
    <path d="M 170.9424 195.96672 
L 299.5056 195.96672 
Q 312.8976 195.96672 312.8976 187.09632 
L 312.8976 146.29248 
Q 312.8976 137.42208 299.5056 137.42208 
L 170.9424 137.42208 
Q 157.5504 137.42208 157.5504 146.29248 
L 157.5504 187.09632 
Q 157.5504 195.96672 170.9424 195.96672 
z
" clip-path="url(#p86a6fbe42b)" style="fill: #f3ebeb; stroke: #000000; stroke-width: 2.4; stroke-linejoin: miter"/>
   </g>
   <g id="patch_4">
    <path d="M 237.152921 193.841389 
Q 339.011549 222.134275 438.715678 249.828713 
" clip-path="url(#p86a6fbe42b)" style="fill: none; stroke-dasharray: 7.4,3.2; stroke-dashoffset: 0; stroke: #000000; stroke-width: 2; stroke-linecap: round"/>
    <path d="M 432.741809 244.433077 
L 438.715678 249.828713 
L 430.814848 251.370427 
z
" clip-path="url(#p86a6fbe42b)" style="fill: #1f77b4; stroke-dasharray: 7.4,3.2; stroke-dashoffset: 0; stroke: #000000; stroke-width: 2; stroke-linecap: round"/>
   </g>
   <g id="patch_5">
    <path d="M 378.5184 195.96672 
L 507.0816 195.96672 
Q 520.4736 195.96672 520.4736 187.09632 
L 520.4736 146.29248 
Q 520.4736 137.42208 507.0816 137.42208 
L 378.5184 137.42208 
Q 365.1264 137.42208 365.1264 146.29248 
L 365.1264 187.09632 
Q 365.1264 195.96672 378.5184 195.96672 
z
" clip-path="url(#p86a6fbe42b)" style="fill: #f3ebeb; stroke: #000000; stroke-width: 2.4; stroke-linejoin: miter"/>
   </g>
   <g id="patch_6">
    <path d="M 442.8 195.307991 
Q 442.8 222.135201 442.8 246.726344 
" clip-path="url(#p86a6fbe42b)" style="fill: none; stroke-dasharray: 7.4,3.2; stroke-dashoffset: 0; stroke: #000000; stroke-width: 2; stroke-linecap: round"/>
    <path d="M 446.4 239.526344 
L 442.8 246.726344 
L 439.2 239.526344 
z
" clip-path="url(#p86a6fbe42b)" style="fill: #1f77b4; stroke-dasharray: 7.4,3.2; stroke-dashoffset: 0; stroke: #000000; stroke-width: 2; stroke-linecap: round"/>
   </g>
   <g id="patch_7">
    <path d="M 586.0944 195.96672 
L 714.6576 195.96672 
Q 728.0496 195.96672 728.0496 187.09632 
L 728.0496 146.29248 
Q 728.0496 137.42208 714.6576 137.42208 
L 586.0944 137.42208 
Q 572.7024 137.42208 572.7024 146.29248 
L 572.7024 187.09632 
Q 572.7024 195.96672 586.0944 195.96672 
z
" clip-path="url(#p86a6fbe42b)" style="fill: #f3ebeb; stroke: #000000; stroke-width: 2.4; stroke-linejoin: miter"/>
   </g>
   <g id="patch_8">
    <path d="M 648.447079 193.841389 
Q 546.588451 222.134275 446.884322 249.828713 
" clip-path="url(#p86a6fbe42b)" style="fill: none; stroke-dasharray: 7.4,3.2; stroke-dashoffset: 0; stroke: #000000; stroke-width: 2; stroke-linecap: round"/>
    <path d="M 454.785152 251.370427 
L 446.884322 249.828713 
L 452.858191 244.433077 
z
" clip-path="url(#p86a6fbe42b)" style="fill: #1f77b4; stroke-dasharray: 7.4,3.2; stroke-dashoffset: 0; stroke: #000000; stroke-width: 2; stroke-linecap: round"/>
   </g>
   <g id="patch_9">
    <path d="M 170.9424 453.20832 
L 299.5056 453.20832 
Q 312.8976 453.20832 312.8976 444.33792 
L 312.8976 403.53408 
Q 312.8976 394.66368 299.5056 394.66368 
L 170.9424 394.66368 
Q 157.5504 394.66368 157.5504 403.53408 
L 157.5504 444.33792 
Q 157.5504 453.20832 170.9424 453.20832 
z
" clip-path="url(#p86a6fbe42b)" style="fill: #f3ebeb; stroke: #000000; stroke-width: 2.4; stroke-linejoin: miter"/>
   </g>
   <g id="patch_10">
    <path d="M 237.127582 396.714703 
Q 339.011313 364.06102 438.765668 332.089801 
" clip-path="url(#p86a6fbe42b)" style="fill: none; stroke-dasharray: 7.4,3.2; stroke-dashoffset: 0; stroke: #000000; stroke-width: 2; stroke-linecap: round"/>
    <path d="M 430.810464 330.859063 
L 438.765668 332.089801 
L 433.007955 337.715522 
z
" clip-path="url(#p86a6fbe42b)" style="fill: #1f77b4; stroke-dasharray: 7.4,3.2; stroke-dashoffset: 0; stroke: #000000; stroke-width: 2; stroke-linecap: round"/>
   </g>
   <g id="patch_11">
    <path d="M 378.5184 453.20832 
L 507.0816 453.20832 
Q 520.4736 453.20832 520.4736 444.33792 
L 520.4736 403.53408 
Q 520.4736 394.66368 507.0816 394.66368 
L 378.5184 394.66368 
Q 365.1264 394.66368 365.1264 403.53408 
L 365.1264 444.33792 
Q 365.1264 453.20832 378.5184 453.20832 
z
" clip-path="url(#p86a6fbe42b)" style="fill: #f3ebeb; stroke: #000000; stroke-width: 2.4; stroke-linejoin: miter"/>
   </g>
   <g id="patch_12">
    <path d="M 442.8 395.32295 
Q 442.8 364.05825 442.8 335.029618 
" clip-path="url(#p86a6fbe42b)" style="fill: none; stroke-dasharray: 7.4,3.2; stroke-dashoffset: 0; stroke: #000000; stroke-width: 2; stroke-linecap: round"/>
    <path d="M 439.2 342.229618 
L 442.8 335.029618 
L 446.4 342.229618 
z
" clip-path="url(#p86a6fbe42b)" style="fill: #1f77b4; stroke-dasharray: 7.4,3.2; stroke-dashoffset: 0; stroke: #000000; stroke-width: 2; stroke-linecap: round"/>
   </g>
   <g id="patch_13">
    <path d="M 586.0944 453.20832 
L 714.6576 453.20832 
Q 728.0496 453.20832 728.0496 444.33792 
L 728.0496 403.53408 
Q 728.0496 394.66368 714.6576 394.66368 
L 586.0944 394.66368 
Q 572.7024 394.66368 572.7024 403.53408 
L 572.7024 444.33792 
Q 572.7024 453.20832 586.0944 453.20832 
z
" clip-path="url(#p86a6fbe42b)" style="fill: #f3ebeb; stroke: #000000; stroke-width: 2.4; stroke-linejoin: miter"/>
   </g>
   <g id="patch_14">
    <path d="M 648.472418 396.714703 
Q 546.588687 364.06102 446.834332 332.089801 
" clip-path="url(#p86a6fbe42b)" style="fill: none; stroke-dasharray: 7.4,3.2; stroke-dashoffset: 0; stroke: #000000; stroke-width: 2; stroke-linecap: round"/>
    <path d="M 452.592045 337.715522 
L 446.834332 332.089801 
L 454.789536 330.859063 
z
" clip-path="url(#p86a6fbe42b)" style="fill: #1f77b4; stroke-dasharray: 7.4,3.2; stroke-dashoffset: 0; stroke: #000000; stroke-width: 2; stroke-linecap: round"/>
   </g>
   <g id="text_1">
    <!-- Condiciones de fracaso -->
    <g transform="translate(299.3325 284.633031) scale(0.22 -0.22)">
     <defs>
      <path id="DejaVuSans-Bold-43" d="M 4288 256 
Q 3956 84 3597 -3 
Q 3238 -91 2847 -91 
Q 1681 -91 1000 561 
Q 319 1213 319 2328 
Q 319 3447 1000 4098 
Q 1681 4750 2847 4750 
Q 3238 4750 3597 4662 
Q 3956 4575 4288 4403 
L 4288 3438 
Q 3953 3666 3628 3772 
Q 3303 3878 2944 3878 
Q 2300 3878 1931 3465 
Q 1563 3053 1563 2328 
Q 1563 1606 1931 1193 
Q 2300 781 2944 781 
Q 3303 781 3628 887 
Q 3953 994 4288 1222 
L 4288 256 
z
" transform="scale(0.015625)"/>
      <path id="DejaVuSans-Bold-6f" d="M 2203 2784 
Q 1831 2784 1636 2517 
Q 1441 2250 1441 1747 
Q 1441 1244 1636 976 
Q 1831 709 2203 709 
Q 2569 709 2762 976 
Q 2956 1244 2956 1747 
Q 2956 2250 2762 2517 
Q 2569 2784 2203 2784 
z
M 2203 3584 
Q 3106 3584 3614 3096 
Q 4122 2609 4122 1747 
Q 4122 884 3614 396 
Q 3106 -91 2203 -91 
Q 1297 -91 786 396 
Q 275 884 275 1747 
Q 275 2609 786 3096 
Q 1297 3584 2203 3584 
z
" transform="scale(0.015625)"/>
      <path id="DejaVuSans-Bold-6e" d="M 4056 2131 
L 4056 0 
L 2931 0 
L 2931 347 
L 2931 1631 
Q 2931 2084 2911 2256 
Q 2891 2428 2841 2509 
Q 2775 2619 2662 2680 
Q 2550 2741 2406 2741 
Q 2056 2741 1856 2470 
Q 1656 2200 1656 1722 
L 1656 0 
L 538 0 
L 538 3500 
L 1656 3500 
L 1656 2988 
Q 1909 3294 2193 3439 
Q 2478 3584 2822 3584 
Q 3428 3584 3742 3212 
Q 4056 2841 4056 2131 
z
" transform="scale(0.015625)"/>
      <path id="DejaVuSans-Bold-64" d="M 2919 2988 
L 2919 4863 
L 4044 4863 
L 4044 0 
L 2919 0 
L 2919 506 
Q 2688 197 2409 53 
Q 2131 -91 1766 -91 
Q 1119 -91 703 423 
Q 288 938 288 1747 
Q 288 2556 703 3070 
Q 1119 3584 1766 3584 
Q 2128 3584 2408 3439 
Q 2688 3294 2919 2988 
z
M 2181 722 
Q 2541 722 2730 984 
Q 2919 1247 2919 1747 
Q 2919 2247 2730 2509 
Q 2541 2772 2181 2772 
Q 1825 2772 1636 2509 
Q 1447 2247 1447 1747 
Q 1447 1247 1636 984 
Q 1825 722 2181 722 
z
" transform="scale(0.015625)"/>
      <path id="DejaVuSans-Bold-69" d="M 538 3500 
L 1656 3500 
L 1656 0 
L 538 0 
L 538 3500 
z
M 538 4863 
L 1656 4863 
L 1656 3950 
L 538 3950 
L 538 4863 
z
" transform="scale(0.015625)"/>
      <path id="DejaVuSans-Bold-63" d="M 3366 3391 
L 3366 2478 
Q 3138 2634 2908 2709 
Q 2678 2784 2431 2784 
Q 1963 2784 1702 2511 
Q 1441 2238 1441 1747 
Q 1441 1256 1702 982 
Q 1963 709 2431 709 
Q 2694 709 2930 787 
Q 3166 866 3366 1019 
L 3366 103 
Q 3103 6 2833 -42 
Q 2563 -91 2291 -91 
Q 1344 -91 809 395 
Q 275 881 275 1747 
Q 275 2613 809 3098 
Q 1344 3584 2291 3584 
Q 2566 3584 2833 3536 
Q 3100 3488 3366 3391 
z
" transform="scale(0.015625)"/>
      <path id="DejaVuSans-Bold-65" d="M 4031 1759 
L 4031 1441 
L 1416 1441 
Q 1456 1047 1700 850 
Q 1944 653 2381 653 
Q 2734 653 3104 758 
Q 3475 863 3866 1075 
L 3866 213 
Q 3469 63 3072 -14 
Q 2675 -91 2278 -91 
Q 1328 -91 801 392 
Q 275 875 275 1747 
Q 275 2603 792 3093 
Q 1309 3584 2216 3584 
Q 3041 3584 3536 3087 
Q 4031 2591 4031 1759 
z
M 2881 2131 
Q 2881 2450 2695 2645 
Q 2509 2841 2209 2841 
Q 1884 2841 1681 2658 
Q 1478 2475 1428 2131 
L 2881 2131 
z
" transform="scale(0.015625)"/>
      <path id="DejaVuSans-Bold-73" d="M 3272 3391 
L 3272 2541 
Q 2913 2691 2578 2766 
Q 2244 2841 1947 2841 
Q 1628 2841 1473 2761 
Q 1319 2681 1319 2516 
Q 1319 2381 1436 2309 
Q 1553 2238 1856 2203 
L 2053 2175 
Q 2913 2066 3209 1816 
Q 3506 1566 3506 1031 
Q 3506 472 3093 190 
Q 2681 -91 1863 -91 
Q 1516 -91 1145 -36 
Q 775 19 384 128 
L 384 978 
Q 719 816 1070 734 
Q 1422 653 1784 653 
Q 2113 653 2278 743 
Q 2444 834 2444 1013 
Q 2444 1163 2330 1236 
Q 2216 1309 1875 1350 
L 1678 1375 
Q 931 1469 631 1722 
Q 331 1975 331 2491 
Q 331 3047 712 3315 
Q 1094 3584 1881 3584 
Q 2191 3584 2531 3537 
Q 2872 3491 3272 3391 
z
" transform="scale(0.015625)"/>
      <path id="DejaVuSans-Bold-20" transform="scale(0.015625)"/>
      <path id="DejaVuSans-Bold-66" d="M 2841 4863 
L 2841 4128 
L 2222 4128 
Q 1984 4128 1890 4042 
Q 1797 3956 1797 3744 
L 1797 3500 
L 2753 3500 
L 2753 2700 
L 1797 2700 
L 1797 0 
L 678 0 
L 678 2700 
L 122 2700 
L 122 3500 
L 678 3500 
L 678 3744 
Q 678 4316 997 4589 
Q 1316 4863 1984 4863 
L 2841 4863 
z
" transform="scale(0.015625)"/>
      <path id="DejaVuSans-Bold-72" d="M 3138 2547 
Q 2991 2616 2845 2648 
Q 2700 2681 2553 2681 
Q 2122 2681 1889 2404 
Q 1656 2128 1656 1613 
L 1656 0 
L 538 0 
L 538 3500 
L 1656 3500 
L 1656 2925 
Q 1872 3269 2151 3426 
Q 2431 3584 2822 3584 
Q 2878 3584 2943 3579 
Q 3009 3575 3134 3559 
L 3138 2547 
z
" transform="scale(0.015625)"/>
      <path id="DejaVuSans-Bold-61" d="M 2106 1575 
Q 1756 1575 1579 1456 
Q 1403 1338 1403 1106 
Q 1403 894 1545 773 
Q 1688 653 1941 653 
Q 2256 653 2472 879 
Q 2688 1106 2688 1447 
L 2688 1575 
L 2106 1575 
z
M 3816 1997 
L 3816 0 
L 2688 0 
L 2688 519 
Q 2463 200 2181 54 
Q 1900 -91 1497 -91 
Q 953 -91 614 226 
Q 275 544 275 1050 
Q 275 1666 698 1953 
Q 1122 2241 2028 2241 
L 2688 2241 
L 2688 2328 
Q 2688 2594 2478 2717 
Q 2269 2841 1825 2841 
Q 1466 2841 1156 2769 
Q 847 2697 581 2553 
L 581 3406 
Q 941 3494 1303 3539 
Q 1666 3584 2028 3584 
Q 2975 3584 3395 3211 
Q 3816 2838 3816 1997 
z
" transform="scale(0.015625)"/>
     </defs>
     <use xlink:href="#DejaVuSans-Bold-43"/>
     <use xlink:href="#DejaVuSans-Bold-6f" transform="translate(73.388672 0)"/>
     <use xlink:href="#DejaVuSans-Bold-6e" transform="translate(142.089844 0)"/>
     <use xlink:href="#DejaVuSans-Bold-64" transform="translate(213.28125 0)"/>
     <use xlink:href="#DejaVuSans-Bold-69" transform="translate(284.863281 0)"/>
     <use xlink:href="#DejaVuSans-Bold-63" transform="translate(319.140625 0)"/>
     <use xlink:href="#DejaVuSans-Bold-69" transform="translate(378.417969 0)"/>
     <use xlink:href="#DejaVuSans-Bold-6f" transform="translate(412.695312 0)"/>
     <use xlink:href="#DejaVuSans-Bold-6e" transform="translate(481.396484 0)"/>
     <use xlink:href="#DejaVuSans-Bold-65" transform="translate(552.587891 0)"/>
     <use xlink:href="#DejaVuSans-Bold-73" transform="translate(620.410156 0)"/>
     <use xlink:href="#DejaVuSans-Bold-20" transform="translate(679.931641 0)"/>
     <use xlink:href="#DejaVuSans-Bold-64" transform="translate(714.746094 0)"/>
     <use xlink:href="#DejaVuSans-Bold-65" transform="translate(786.328125 0)"/>
     <use xlink:href="#DejaVuSans-Bold-20" transform="translate(854.150391 0)"/>
     <use xlink:href="#DejaVuSans-Bold-66" transform="translate(888.964844 0)"/>
     <use xlink:href="#DejaVuSans-Bold-72" transform="translate(932.470703 0)"/>
     <use xlink:href="#DejaVuSans-Bold-61" transform="translate(981.787109 0)"/>
     <use xlink:href="#DejaVuSans-Bold-63" transform="translate(1049.267578 0)"/>
     <use xlink:href="#DejaVuSans-Bold-61" transform="translate(1108.544922 0)"/>
     <use xlink:href="#DejaVuSans-Bold-73" transform="translate(1176.025391 0)"/>
     <use xlink:href="#DejaVuSans-Bold-6f" transform="translate(1235.546875 0)"/>
    </g>
    <!-- del frente -->
    <g transform="translate(381.645156 309.268219) scale(0.22 -0.22)">
     <defs>
      <path id="DejaVuSans-Bold-6c" d="M 538 4863 
L 1656 4863 
L 1656 0 
L 538 0 
L 538 4863 
z
" transform="scale(0.015625)"/>
      <path id="DejaVuSans-Bold-74" d="M 1759 4494 
L 1759 3500 
L 2913 3500 
L 2913 2700 
L 1759 2700 
L 1759 1216 
Q 1759 972 1856 886 
Q 1953 800 2241 800 
L 2816 800 
L 2816 0 
L 1856 0 
Q 1194 0 917 276 
Q 641 553 641 1216 
L 641 2700 
L 84 2700 
L 84 3500 
L 641 3500 
L 641 4494 
L 1759 4494 
z
" transform="scale(0.015625)"/>
     </defs>
     <use xlink:href="#DejaVuSans-Bold-64"/>
     <use xlink:href="#DejaVuSans-Bold-65" transform="translate(71.582031 0)"/>
     <use xlink:href="#DejaVuSans-Bold-6c" transform="translate(139.404297 0)"/>
     <use xlink:href="#DejaVuSans-Bold-20" transform="translate(173.681641 0)"/>
     <use xlink:href="#DejaVuSans-Bold-66" transform="translate(208.496094 0)"/>
     <use xlink:href="#DejaVuSans-Bold-72" transform="translate(252.001953 0)"/>
     <use xlink:href="#DejaVuSans-Bold-65" transform="translate(301.318359 0)"/>
     <use xlink:href="#DejaVuSans-Bold-6e" transform="translate(369.140625 0)"/>
     <use xlink:href="#DejaVuSans-Bold-74" transform="translate(440.332031 0)"/>
     <use xlink:href="#DejaVuSans-Bold-65" transform="translate(488.134766 0)"/>
    </g>
   </g>
   <g id="text_2">
    <!-- Pseudoestados -->
    <g transform="translate(171.265406 162.435103) scale(0.15 -0.15)">
     <defs>
      <path id="DejaVuSans-Bold-50" d="M 588 4666 
L 2584 4666 
Q 3475 4666 3951 4270 
Q 4428 3875 4428 3144 
Q 4428 2409 3951 2014 
Q 3475 1619 2584 1619 
L 1791 1619 
L 1791 0 
L 588 0 
L 588 4666 
z
M 1791 3794 
L 1791 2491 
L 2456 2491 
Q 2806 2491 2997 2661 
Q 3188 2831 3188 3144 
Q 3188 3456 2997 3625 
Q 2806 3794 2456 3794 
L 1791 3794 
z
" transform="scale(0.015625)"/>
      <path id="DejaVuSans-Bold-75" d="M 500 1363 
L 500 3500 
L 1625 3500 
L 1625 3150 
Q 1625 2866 1622 2436 
Q 1619 2006 1619 1863 
Q 1619 1441 1641 1255 
Q 1663 1069 1716 984 
Q 1784 875 1895 815 
Q 2006 756 2150 756 
Q 2500 756 2700 1025 
Q 2900 1294 2900 1772 
L 2900 3500 
L 4019 3500 
L 4019 0 
L 2900 0 
L 2900 506 
Q 2647 200 2364 54 
Q 2081 -91 1741 -91 
Q 1134 -91 817 281 
Q 500 653 500 1363 
z
" transform="scale(0.015625)"/>
     </defs>
     <use xlink:href="#DejaVuSans-Bold-50"/>
     <use xlink:href="#DejaVuSans-Bold-73" transform="translate(71.541016 0)"/>
     <use xlink:href="#DejaVuSans-Bold-65" transform="translate(131.0625 0)"/>
     <use xlink:href="#DejaVuSans-Bold-75" transform="translate(198.884766 0)"/>
     <use xlink:href="#DejaVuSans-Bold-64" transform="translate(270.076172 0)"/>
     <use xlink:href="#DejaVuSans-Bold-6f" transform="translate(341.658203 0)"/>
     <use xlink:href="#DejaVuSans-Bold-65" transform="translate(410.359375 0)"/>
     <use xlink:href="#DejaVuSans-Bold-73" transform="translate(478.181641 0)"/>
     <use xlink:href="#DejaVuSans-Bold-74" transform="translate(537.703125 0)"/>
     <use xlink:href="#DejaVuSans-Bold-61" transform="translate(585.505859 0)"/>
     <use xlink:href="#DejaVuSans-Bold-64" transform="translate(652.986328 0)"/>
     <use xlink:href="#DejaVuSans-Bold-6f" transform="translate(724.568359 0)"/>
     <use xlink:href="#DejaVuSans-Bold-73" transform="translate(793.269531 0)"/>
    </g>
    <!-- fuera de {0,1,U} -->
    <g transform="translate(164.195484 179.231822) scale(0.15 -0.15)">
     <defs>
      <path id="DejaVuSans-Bold-7b" d="M 3756 -341 
L 3756 -1044 
L 3078 -1044 
Q 2397 -1044 2084 -769 
Q 1772 -494 1772 109 
L 1772 709 
Q 1772 1178 1603 1361 
Q 1434 1544 991 1544 
L 800 1544 
L 800 2241 
L 991 2241 
Q 1434 2241 1603 2422 
Q 1772 2603 1772 3072 
L 1772 3713 
Q 1772 4316 2084 4589 
Q 2397 4863 3078 4863 
L 3756 4863 
L 3756 4159 
L 3541 4159 
Q 3100 4159 2967 4023 
Q 2834 3888 2834 3444 
L 2834 2925 
Q 2834 2434 2693 2212 
Q 2553 1991 2209 1913 
Q 2556 1828 2695 1606 
Q 2834 1384 2834 897 
L 2834 378 
Q 2834 -69 2967 -205 
Q 3100 -341 3541 -341 
L 3756 -341 
z
" transform="scale(0.015625)"/>
      <path id="DejaVuSans-Bold-30" d="M 2944 2338 
Q 2944 3213 2780 3570 
Q 2616 3928 2228 3928 
Q 1841 3928 1675 3570 
Q 1509 3213 1509 2338 
Q 1509 1453 1675 1090 
Q 1841 728 2228 728 
Q 2613 728 2778 1090 
Q 2944 1453 2944 2338 
z
M 4147 2328 
Q 4147 1169 3647 539 
Q 3147 -91 2228 -91 
Q 1306 -91 806 539 
Q 306 1169 306 2328 
Q 306 3491 806 4120 
Q 1306 4750 2228 4750 
Q 3147 4750 3647 4120 
Q 4147 3491 4147 2328 
z
" transform="scale(0.015625)"/>
      <path id="DejaVuSans-Bold-2c" d="M 653 1209 
L 1778 1209 
L 1778 256 
L 1006 -909 
L 341 -909 
L 653 256 
L 653 1209 
z
" transform="scale(0.015625)"/>
      <path id="DejaVuSans-Bold-31" d="M 750 831 
L 1813 831 
L 1813 3847 
L 722 3622 
L 722 4441 
L 1806 4666 
L 2950 4666 
L 2950 831 
L 4013 831 
L 4013 0 
L 750 0 
L 750 831 
z
" transform="scale(0.015625)"/>
      <path id="DejaVuSans-Bold-55" d="M 588 4666 
L 1791 4666 
L 1791 1869 
Q 1791 1291 1980 1042 
Q 2169 794 2597 794 
Q 3028 794 3217 1042 
Q 3406 1291 3406 1869 
L 3406 4666 
L 4609 4666 
L 4609 1869 
Q 4609 878 4112 393 
Q 3616 -91 2597 -91 
Q 1581 -91 1084 393 
Q 588 878 588 1869 
L 588 4666 
z
" transform="scale(0.015625)"/>
      <path id="DejaVuSans-Bold-7d" d="M 800 -341 
L 1019 -341 
Q 1456 -341 1589 -205 
Q 1722 -69 1722 378 
L 1722 897 
Q 1722 1384 1862 1606 
Q 2003 1828 2350 1913 
Q 2003 1991 1862 2212 
Q 1722 2434 1722 2925 
L 1722 3444 
Q 1722 3888 1589 4023 
Q 1456 4159 1019 4159 
L 800 4159 
L 800 4863 
L 1478 4863 
Q 2159 4863 2471 4589 
Q 2784 4316 2784 3713 
L 2784 3072 
Q 2784 2603 2953 2422 
Q 3122 2241 3566 2241 
L 3756 2241 
L 3756 1544 
L 3566 1544 
Q 3122 1544 2953 1361 
Q 2784 1178 2784 709 
L 2784 109 
Q 2784 -494 2471 -769 
Q 2159 -1044 1478 -1044 
L 800 -1044 
L 800 -341 
z
" transform="scale(0.015625)"/>
     </defs>
     <use xlink:href="#DejaVuSans-Bold-66"/>
     <use xlink:href="#DejaVuSans-Bold-75" transform="translate(43.505859 0)"/>
     <use xlink:href="#DejaVuSans-Bold-65" transform="translate(114.697266 0)"/>
     <use xlink:href="#DejaVuSans-Bold-72" transform="translate(182.519531 0)"/>
     <use xlink:href="#DejaVuSans-Bold-61" transform="translate(231.835938 0)"/>
     <use xlink:href="#DejaVuSans-Bold-20" transform="translate(299.316406 0)"/>
     <use xlink:href="#DejaVuSans-Bold-64" transform="translate(334.130859 0)"/>
     <use xlink:href="#DejaVuSans-Bold-65" transform="translate(405.712891 0)"/>
     <use xlink:href="#DejaVuSans-Bold-20" transform="translate(473.535156 0)"/>
     <use xlink:href="#DejaVuSans-Bold-7b" transform="translate(508.349609 0)"/>
     <use xlink:href="#DejaVuSans-Bold-30" transform="translate(579.541016 0)"/>
     <use xlink:href="#DejaVuSans-Bold-2c" transform="translate(649.121094 0)"/>
     <use xlink:href="#DejaVuSans-Bold-31" transform="translate(687.109375 0)"/>
     <use xlink:href="#DejaVuSans-Bold-2c" transform="translate(756.689453 0)"/>
     <use xlink:href="#DejaVuSans-Bold-55" transform="translate(794.677734 0)"/>
     <use xlink:href="#DejaVuSans-Bold-7d" transform="translate(875.878906 0)"/>
    </g>
   </g>
   <g id="text_3">
    <!-- Tiempo fuerte -->
    <g transform="translate(383.019141 162.435103) scale(0.15 -0.15)">
     <defs>
      <path id="DejaVuSans-Bold-54" d="M 31 4666 
L 4331 4666 
L 4331 3756 
L 2784 3756 
L 2784 0 
L 1581 0 
L 1581 3756 
L 31 3756 
L 31 4666 
z
" transform="scale(0.015625)"/>
      <path id="DejaVuSans-Bold-6d" d="M 3781 2919 
Q 3994 3244 4286 3414 
Q 4578 3584 4928 3584 
Q 5531 3584 5847 3212 
Q 6163 2841 6163 2131 
L 6163 0 
L 5038 0 
L 5038 1825 
Q 5041 1866 5042 1909 
Q 5044 1953 5044 2034 
Q 5044 2406 4934 2573 
Q 4825 2741 4581 2741 
Q 4263 2741 4089 2478 
Q 3916 2216 3909 1719 
L 3909 0 
L 2784 0 
L 2784 1825 
Q 2784 2406 2684 2573 
Q 2584 2741 2328 2741 
Q 2006 2741 1831 2477 
Q 1656 2213 1656 1722 
L 1656 0 
L 531 0 
L 531 3500 
L 1656 3500 
L 1656 2988 
Q 1863 3284 2130 3434 
Q 2397 3584 2719 3584 
Q 3081 3584 3359 3409 
Q 3638 3234 3781 2919 
z
" transform="scale(0.015625)"/>
      <path id="DejaVuSans-Bold-70" d="M 1656 506 
L 1656 -1331 
L 538 -1331 
L 538 3500 
L 1656 3500 
L 1656 2988 
Q 1888 3294 2169 3439 
Q 2450 3584 2816 3584 
Q 3463 3584 3878 3070 
Q 4294 2556 4294 1747 
Q 4294 938 3878 423 
Q 3463 -91 2816 -91 
Q 2450 -91 2169 54 
Q 1888 200 1656 506 
z
M 2400 2772 
Q 2041 2772 1848 2508 
Q 1656 2244 1656 1747 
Q 1656 1250 1848 986 
Q 2041 722 2400 722 
Q 2759 722 2948 984 
Q 3138 1247 3138 1747 
Q 3138 2247 2948 2509 
Q 2759 2772 2400 2772 
z
" transform="scale(0.015625)"/>
     </defs>
     <use xlink:href="#DejaVuSans-Bold-54"/>
     <use xlink:href="#DejaVuSans-Bold-69" transform="translate(68.212891 0)"/>
     <use xlink:href="#DejaVuSans-Bold-65" transform="translate(102.490234 0)"/>
     <use xlink:href="#DejaVuSans-Bold-6d" transform="translate(170.3125 0)"/>
     <use xlink:href="#DejaVuSans-Bold-70" transform="translate(274.511719 0)"/>
     <use xlink:href="#DejaVuSans-Bold-6f" transform="translate(346.09375 0)"/>
     <use xlink:href="#DejaVuSans-Bold-20" transform="translate(414.794922 0)"/>
     <use xlink:href="#DejaVuSans-Bold-66" transform="translate(449.609375 0)"/>
     <use xlink:href="#DejaVuSans-Bold-75" transform="translate(493.115234 0)"/>
     <use xlink:href="#DejaVuSans-Bold-65" transform="translate(564.306641 0)"/>
     <use xlink:href="#DejaVuSans-Bold-72" transform="translate(632.128906 0)"/>
     <use xlink:href="#DejaVuSans-Bold-74" transform="translate(681.445312 0)"/>
     <use xlink:href="#DejaVuSans-Bold-65" transform="translate(729.248047 0)"/>
    </g>
    <!-- como fundamento -->
    <g transform="translate(366.273047 179.231822) scale(0.15 -0.15)">
     <use xlink:href="#DejaVuSans-Bold-63"/>
     <use xlink:href="#DejaVuSans-Bold-6f" transform="translate(59.277344 0)"/>
     <use xlink:href="#DejaVuSans-Bold-6d" transform="translate(127.978516 0)"/>
     <use xlink:href="#DejaVuSans-Bold-6f" transform="translate(232.177734 0)"/>
     <use xlink:href="#DejaVuSans-Bold-20" transform="translate(300.878906 0)"/>
     <use xlink:href="#DejaVuSans-Bold-66" transform="translate(335.693359 0)"/>
     <use xlink:href="#DejaVuSans-Bold-75" transform="translate(379.199219 0)"/>
     <use xlink:href="#DejaVuSans-Bold-6e" transform="translate(450.390625 0)"/>
     <use xlink:href="#DejaVuSans-Bold-64" transform="translate(521.582031 0)"/>
     <use xlink:href="#DejaVuSans-Bold-61" transform="translate(593.164062 0)"/>
     <use xlink:href="#DejaVuSans-Bold-6d" transform="translate(660.644531 0)"/>
     <use xlink:href="#DejaVuSans-Bold-65" transform="translate(764.84375 0)"/>
     <use xlink:href="#DejaVuSans-Bold-6e" transform="translate(832.666016 0)"/>
     <use xlink:href="#DejaVuSans-Bold-74" transform="translate(903.857422 0)"/>
     <use xlink:href="#DejaVuSans-Bold-6f" transform="translate(951.660156 0)"/>
    </g>
   </g>
   <g id="text_4">
    <!-- Garantía redundante -->
    <g transform="translate(561.959203 162.435103) scale(0.15 -0.15)">
     <defs>
      <path id="DejaVuSans-Bold-47" d="M 4781 347 
Q 4331 128 3847 18 
Q 3363 -91 2847 -91 
Q 1681 -91 1000 561 
Q 319 1213 319 2328 
Q 319 3456 1012 4103 
Q 1706 4750 2913 4750 
Q 3378 4750 3804 4662 
Q 4231 4575 4609 4403 
L 4609 3438 
Q 4219 3659 3833 3768 
Q 3447 3878 3059 3878 
Q 2341 3878 1952 3476 
Q 1563 3075 1563 2328 
Q 1563 1588 1938 1184 
Q 2313 781 3003 781 
Q 3191 781 3352 804 
Q 3513 828 3641 878 
L 3641 1784 
L 2906 1784 
L 2906 2591 
L 4781 2591 
L 4781 347 
z
" transform="scale(0.015625)"/>
      <path id="DejaVuSans-Bold-ed" d="M 538 3500 
L 1656 3500 
L 1656 0 
L 538 0 
L 538 3500 
z
M 1590 5119 
L 2474 5119 
L 1321 3944 
L 709 3944 
L 1590 5119 
z
" transform="scale(0.015625)"/>
     </defs>
     <use xlink:href="#DejaVuSans-Bold-47"/>
     <use xlink:href="#DejaVuSans-Bold-61" transform="translate(82.080078 0)"/>
     <use xlink:href="#DejaVuSans-Bold-72" transform="translate(149.560547 0)"/>
     <use xlink:href="#DejaVuSans-Bold-61" transform="translate(198.876953 0)"/>
     <use xlink:href="#DejaVuSans-Bold-6e" transform="translate(266.357422 0)"/>
     <use xlink:href="#DejaVuSans-Bold-74" transform="translate(337.548828 0)"/>
     <use xlink:href="#DejaVuSans-Bold-ed" transform="translate(385.351562 0)"/>
     <use xlink:href="#DejaVuSans-Bold-61" transform="translate(419.628906 0)"/>
     <use xlink:href="#DejaVuSans-Bold-20" transform="translate(487.109375 0)"/>
     <use xlink:href="#DejaVuSans-Bold-72" transform="translate(521.923828 0)"/>
     <use xlink:href="#DejaVuSans-Bold-65" transform="translate(571.240234 0)"/>
     <use xlink:href="#DejaVuSans-Bold-64" transform="translate(639.0625 0)"/>
     <use xlink:href="#DejaVuSans-Bold-75" transform="translate(710.644531 0)"/>
     <use xlink:href="#DejaVuSans-Bold-6e" transform="translate(781.835938 0)"/>
     <use xlink:href="#DejaVuSans-Bold-64" transform="translate(853.027344 0)"/>
     <use xlink:href="#DejaVuSans-Bold-61" transform="translate(924.609375 0)"/>
     <use xlink:href="#DejaVuSans-Bold-6e" transform="translate(992.089844 0)"/>
     <use xlink:href="#DejaVuSans-Bold-74" transform="translate(1063.28125 0)"/>
     <use xlink:href="#DejaVuSans-Bold-65" transform="translate(1111.083984 0)"/>
    </g>
    <!-- o observación soberana -->
    <g transform="translate(549.539672 179.231822) scale(0.15 -0.15)">
     <defs>
      <path id="DejaVuSans-Bold-62" d="M 2400 722 
Q 2759 722 2948 984 
Q 3138 1247 3138 1747 
Q 3138 2247 2948 2509 
Q 2759 2772 2400 2772 
Q 2041 2772 1848 2508 
Q 1656 2244 1656 1747 
Q 1656 1250 1848 986 
Q 2041 722 2400 722 
z
M 1656 2988 
Q 1888 3294 2169 3439 
Q 2450 3584 2816 3584 
Q 3463 3584 3878 3070 
Q 4294 2556 4294 1747 
Q 4294 938 3878 423 
Q 3463 -91 2816 -91 
Q 2450 -91 2169 54 
Q 1888 200 1656 506 
L 1656 0 
L 538 0 
L 538 4863 
L 1656 4863 
L 1656 2988 
z
" transform="scale(0.015625)"/>
      <path id="DejaVuSans-Bold-76" d="M 97 3500 
L 1216 3500 
L 2088 1081 
L 2956 3500 
L 4078 3500 
L 2700 0 
L 1472 0 
L 97 3500 
z
" transform="scale(0.015625)"/>
      <path id="DejaVuSans-Bold-f3" d="M 2203 2784 
Q 1831 2784 1636 2517 
Q 1441 2250 1441 1747 
Q 1441 1244 1636 976 
Q 1831 709 2203 709 
Q 2569 709 2762 976 
Q 2956 1244 2956 1747 
Q 2956 2250 2762 2517 
Q 2569 2784 2203 2784 
z
M 2203 3584 
Q 3106 3584 3614 3096 
Q 4122 2609 4122 1747 
Q 4122 884 3614 396 
Q 3106 -91 2203 -91 
Q 1297 -91 786 396 
Q 275 884 275 1747 
Q 275 2609 786 3096 
Q 1297 3584 2203 3584 
z
M 2694 5119 
L 3578 5119 
L 2425 3944 
L 1813 3944 
L 2694 5119 
z
" transform="scale(0.015625)"/>
     </defs>
     <use xlink:href="#DejaVuSans-Bold-6f"/>
     <use xlink:href="#DejaVuSans-Bold-20" transform="translate(68.701172 0)"/>
     <use xlink:href="#DejaVuSans-Bold-6f" transform="translate(103.515625 0)"/>
     <use xlink:href="#DejaVuSans-Bold-62" transform="translate(172.216797 0)"/>
     <use xlink:href="#DejaVuSans-Bold-73" transform="translate(243.798828 0)"/>
     <use xlink:href="#DejaVuSans-Bold-65" transform="translate(303.320312 0)"/>
     <use xlink:href="#DejaVuSans-Bold-72" transform="translate(371.142578 0)"/>
     <use xlink:href="#DejaVuSans-Bold-76" transform="translate(420.458984 0)"/>
     <use xlink:href="#DejaVuSans-Bold-61" transform="translate(485.644531 0)"/>
     <use xlink:href="#DejaVuSans-Bold-63" transform="translate(553.125 0)"/>
     <use xlink:href="#DejaVuSans-Bold-69" transform="translate(612.402344 0)"/>
     <use xlink:href="#DejaVuSans-Bold-f3" transform="translate(646.679688 0)"/>
     <use xlink:href="#DejaVuSans-Bold-6e" transform="translate(715.380859 0)"/>
     <use xlink:href="#DejaVuSans-Bold-20" transform="translate(786.572266 0)"/>
     <use xlink:href="#DejaVuSans-Bold-73" transform="translate(821.386719 0)"/>
     <use xlink:href="#DejaVuSans-Bold-6f" transform="translate(880.908203 0)"/>
     <use xlink:href="#DejaVuSans-Bold-62" transform="translate(949.609375 0)"/>
     <use xlink:href="#DejaVuSans-Bold-65" transform="translate(1021.191406 0)"/>
     <use xlink:href="#DejaVuSans-Bold-72" transform="translate(1089.013672 0)"/>
     <use xlink:href="#DejaVuSans-Bold-61" transform="translate(1138.330078 0)"/>
     <use xlink:href="#DejaVuSans-Bold-6e" transform="translate(1205.810547 0)"/>
     <use xlink:href="#DejaVuSans-Bold-61" transform="translate(1277.001953 0)"/>
    </g>
   </g>
   <g id="text_5">
    <!-- Presión ilegítima -->
    <g transform="translate(163.602516 419.859516) scale(0.15 -0.15)">
     <defs>
      <path id="DejaVuSans-Bold-67" d="M 2919 594 
Q 2688 288 2409 144 
Q 2131 0 1766 0 
Q 1125 0 706 504 
Q 288 1009 288 1791 
Q 288 2575 706 3076 
Q 1125 3578 1766 3578 
Q 2131 3578 2409 3434 
Q 2688 3291 2919 2981 
L 2919 3500 
L 4044 3500 
L 4044 353 
Q 4044 -491 3511 -936 
Q 2978 -1381 1966 -1381 
Q 1638 -1381 1331 -1331 
Q 1025 -1281 716 -1178 
L 716 -306 
Q 1009 -475 1290 -558 
Q 1572 -641 1856 -641 
Q 2406 -641 2662 -400 
Q 2919 -159 2919 353 
L 2919 594 
z
M 2181 2772 
Q 1834 2772 1640 2515 
Q 1447 2259 1447 1791 
Q 1447 1309 1634 1061 
Q 1822 813 2181 813 
Q 2531 813 2725 1069 
Q 2919 1325 2919 1791 
Q 2919 2259 2725 2515 
Q 2531 2772 2181 2772 
z
" transform="scale(0.015625)"/>
     </defs>
     <use xlink:href="#DejaVuSans-Bold-50"/>
     <use xlink:href="#DejaVuSans-Bold-72" transform="translate(73.291016 0)"/>
     <use xlink:href="#DejaVuSans-Bold-65" transform="translate(122.607422 0)"/>
     <use xlink:href="#DejaVuSans-Bold-73" transform="translate(190.429688 0)"/>
     <use xlink:href="#DejaVuSans-Bold-69" transform="translate(249.951172 0)"/>
     <use xlink:href="#DejaVuSans-Bold-f3" transform="translate(284.228516 0)"/>
     <use xlink:href="#DejaVuSans-Bold-6e" transform="translate(352.929688 0)"/>
     <use xlink:href="#DejaVuSans-Bold-20" transform="translate(424.121094 0)"/>
     <use xlink:href="#DejaVuSans-Bold-69" transform="translate(458.935547 0)"/>
     <use xlink:href="#DejaVuSans-Bold-6c" transform="translate(493.212891 0)"/>
     <use xlink:href="#DejaVuSans-Bold-65" transform="translate(527.490234 0)"/>
     <use xlink:href="#DejaVuSans-Bold-67" transform="translate(595.3125 0)"/>
     <use xlink:href="#DejaVuSans-Bold-ed" transform="translate(666.894531 0)"/>
     <use xlink:href="#DejaVuSans-Bold-74" transform="translate(701.171875 0)"/>
     <use xlink:href="#DejaVuSans-Bold-69" transform="translate(748.974609 0)"/>
     <use xlink:href="#DejaVuSans-Bold-6d" transform="translate(783.251953 0)"/>
     <use xlink:href="#DejaVuSans-Bold-61" transform="translate(887.451172 0)"/>
    </g>
    <!-- sobre el lenguaje -->
    <g transform="translate(162.149391 436.773422) scale(0.15 -0.15)">
     <defs>
      <path id="DejaVuSans-Bold-6a" d="M 538 3500 
L 1656 3500 
L 1656 63 
Q 1656 -641 1318 -1011 
Q 981 -1381 341 -1381 
L -213 -1381 
L -213 -647 
L -19 -647 
Q 300 -647 419 -503 
Q 538 -359 538 63 
L 538 3500 
z
M 538 4863 
L 1656 4863 
L 1656 3950 
L 538 3950 
L 538 4863 
z
" transform="scale(0.015625)"/>
     </defs>
     <use xlink:href="#DejaVuSans-Bold-73"/>
     <use xlink:href="#DejaVuSans-Bold-6f" transform="translate(59.521484 0)"/>
     <use xlink:href="#DejaVuSans-Bold-62" transform="translate(128.222656 0)"/>
     <use xlink:href="#DejaVuSans-Bold-72" transform="translate(199.804688 0)"/>
     <use xlink:href="#DejaVuSans-Bold-65" transform="translate(249.121094 0)"/>
     <use xlink:href="#DejaVuSans-Bold-20" transform="translate(316.943359 0)"/>
     <use xlink:href="#DejaVuSans-Bold-65" transform="translate(351.757812 0)"/>
     <use xlink:href="#DejaVuSans-Bold-6c" transform="translate(419.580078 0)"/>
     <use xlink:href="#DejaVuSans-Bold-20" transform="translate(453.857422 0)"/>
     <use xlink:href="#DejaVuSans-Bold-6c" transform="translate(488.671875 0)"/>
     <use xlink:href="#DejaVuSans-Bold-65" transform="translate(522.949219 0)"/>
     <use xlink:href="#DejaVuSans-Bold-6e" transform="translate(590.771484 0)"/>
     <use xlink:href="#DejaVuSans-Bold-67" transform="translate(661.962891 0)"/>
     <use xlink:href="#DejaVuSans-Bold-75" transform="translate(733.544922 0)"/>
     <use xlink:href="#DejaVuSans-Bold-61" transform="translate(804.736328 0)"/>
     <use xlink:href="#DejaVuSans-Bold-6a" transform="translate(872.216797 0)"/>
     <use xlink:href="#DejaVuSans-Bold-65" transform="translate(906.494141 0)"/>
    </g>
   </g>
   <g id="text_6">
    <!-- U como cajón -->
    <g transform="translate(386.350781 419.918109) scale(0.15 -0.15)">
     <use xlink:href="#DejaVuSans-Bold-55"/>
     <use xlink:href="#DejaVuSans-Bold-20" transform="translate(81.201172 0)"/>
     <use xlink:href="#DejaVuSans-Bold-63" transform="translate(116.015625 0)"/>
     <use xlink:href="#DejaVuSans-Bold-6f" transform="translate(175.292969 0)"/>
     <use xlink:href="#DejaVuSans-Bold-6d" transform="translate(243.994141 0)"/>
     <use xlink:href="#DejaVuSans-Bold-6f" transform="translate(348.193359 0)"/>
     <use xlink:href="#DejaVuSans-Bold-20" transform="translate(416.894531 0)"/>
     <use xlink:href="#DejaVuSans-Bold-63" transform="translate(451.708984 0)"/>
     <use xlink:href="#DejaVuSans-Bold-61" transform="translate(510.986328 0)"/>
     <use xlink:href="#DejaVuSans-Bold-6a" transform="translate(578.466797 0)"/>
     <use xlink:href="#DejaVuSans-Bold-f3" transform="translate(612.744141 0)"/>
     <use xlink:href="#DejaVuSans-Bold-6e" transform="translate(681.445312 0)"/>
    </g>
    <!-- de sastre técnico -->
    <g transform="translate(370.136719 436.832016) scale(0.15 -0.15)">
     <defs>
      <path id="DejaVuSans-Bold-e9" d="M 4031 1759 
L 4031 1441 
L 1416 1441 
Q 1456 1047 1700 850 
Q 1944 653 2381 653 
Q 2734 653 3104 758 
Q 3475 863 3866 1075 
L 3866 213 
Q 3469 63 3072 -14 
Q 2675 -91 2278 -91 
Q 1328 -91 801 392 
Q 275 875 275 1747 
Q 275 2603 792 3093 
Q 1309 3584 2216 3584 
Q 3041 3584 3536 3087 
Q 4031 2591 4031 1759 
z
M 2881 2131 
Q 2881 2450 2695 2645 
Q 2509 2841 2209 2841 
Q 1884 2841 1681 2658 
Q 1478 2475 1428 2131 
L 2881 2131 
z
M 2702 5119 
L 3586 5119 
L 2433 3944 
L 1821 3944 
L 2702 5119 
z
" transform="scale(0.015625)"/>
     </defs>
     <use xlink:href="#DejaVuSans-Bold-64"/>
     <use xlink:href="#DejaVuSans-Bold-65" transform="translate(71.582031 0)"/>
     <use xlink:href="#DejaVuSans-Bold-20" transform="translate(139.404297 0)"/>
     <use xlink:href="#DejaVuSans-Bold-73" transform="translate(174.21875 0)"/>
     <use xlink:href="#DejaVuSans-Bold-61" transform="translate(233.740234 0)"/>
     <use xlink:href="#DejaVuSans-Bold-73" transform="translate(301.220703 0)"/>
     <use xlink:href="#DejaVuSans-Bold-74" transform="translate(360.742188 0)"/>
     <use xlink:href="#DejaVuSans-Bold-72" transform="translate(408.544922 0)"/>
     <use xlink:href="#DejaVuSans-Bold-65" transform="translate(457.861328 0)"/>
     <use xlink:href="#DejaVuSans-Bold-20" transform="translate(525.683594 0)"/>
     <use xlink:href="#DejaVuSans-Bold-74" transform="translate(560.498047 0)"/>
     <use xlink:href="#DejaVuSans-Bold-e9" transform="translate(608.300781 0)"/>
     <use xlink:href="#DejaVuSans-Bold-63" transform="translate(676.123047 0)"/>
     <use xlink:href="#DejaVuSans-Bold-6e" transform="translate(735.400391 0)"/>
     <use xlink:href="#DejaVuSans-Bold-69" transform="translate(806.591797 0)"/>
     <use xlink:href="#DejaVuSans-Bold-63" transform="translate(840.869141 0)"/>
     <use xlink:href="#DejaVuSans-Bold-6f" transform="translate(900.146484 0)"/>
    </g>
   </g>
   <g id="text_7">
    <!-- Laboratorio -->
    <g transform="translate(601.095141 419.676703) scale(0.15 -0.15)">
     <defs>
      <path id="DejaVuSans-Bold-4c" d="M 588 4666 
L 1791 4666 
L 1791 909 
L 3903 909 
L 3903 0 
L 588 0 
L 588 4666 
z
" transform="scale(0.015625)"/>
     </defs>
     <use xlink:href="#DejaVuSans-Bold-4c"/>
     <use xlink:href="#DejaVuSans-Bold-61" transform="translate(63.720703 0)"/>
     <use xlink:href="#DejaVuSans-Bold-62" transform="translate(131.201172 0)"/>
     <use xlink:href="#DejaVuSans-Bold-6f" transform="translate(202.783203 0)"/>
     <use xlink:href="#DejaVuSans-Bold-72" transform="translate(271.484375 0)"/>
     <use xlink:href="#DejaVuSans-Bold-61" transform="translate(320.800781 0)"/>
     <use xlink:href="#DejaVuSans-Bold-74" transform="translate(388.28125 0)"/>
     <use xlink:href="#DejaVuSans-Bold-6f" transform="translate(436.083984 0)"/>
     <use xlink:href="#DejaVuSans-Bold-72" transform="translate(504.785156 0)"/>
     <use xlink:href="#DejaVuSans-Bold-69" transform="translate(554.101562 0)"/>
     <use xlink:href="#DejaVuSans-Bold-6f" transform="translate(588.378906 0)"/>
    </g>
    <!-- meramente editorial -->
    <g transform="translate(563.523656 436.473422) scale(0.15 -0.15)">
     <use xlink:href="#DejaVuSans-Bold-6d"/>
     <use xlink:href="#DejaVuSans-Bold-65" transform="translate(104.199219 0)"/>
     <use xlink:href="#DejaVuSans-Bold-72" transform="translate(172.021484 0)"/>
     <use xlink:href="#DejaVuSans-Bold-61" transform="translate(221.337891 0)"/>
     <use xlink:href="#DejaVuSans-Bold-6d" transform="translate(288.818359 0)"/>
     <use xlink:href="#DejaVuSans-Bold-65" transform="translate(393.017578 0)"/>
     <use xlink:href="#DejaVuSans-Bold-6e" transform="translate(460.839844 0)"/>
     <use xlink:href="#DejaVuSans-Bold-74" transform="translate(532.03125 0)"/>
     <use xlink:href="#DejaVuSans-Bold-65" transform="translate(579.833984 0)"/>
     <use xlink:href="#DejaVuSans-Bold-20" transform="translate(647.65625 0)"/>
     <use xlink:href="#DejaVuSans-Bold-65" transform="translate(682.470703 0)"/>
     <use xlink:href="#DejaVuSans-Bold-64" transform="translate(750.292969 0)"/>
     <use xlink:href="#DejaVuSans-Bold-69" transform="translate(821.875 0)"/>
     <use xlink:href="#DejaVuSans-Bold-74" transform="translate(856.152344 0)"/>
     <use xlink:href="#DejaVuSans-Bold-6f" transform="translate(903.955078 0)"/>
     <use xlink:href="#DejaVuSans-Bold-72" transform="translate(972.65625 0)"/>
     <use xlink:href="#DejaVuSans-Bold-69" transform="translate(1021.972656 0)"/>
     <use xlink:href="#DejaVuSans-Bold-61" transform="translate(1056.25 0)"/>
     <use xlink:href="#DejaVuSans-Bold-6c" transform="translate(1123.730469 0)"/>
    </g>
   </g>
   <g id="text_8">
    <!-- Si aparece cualquiera de estas condiciones, el frente debe reexaminarse o congelarse. -->
    <g transform="translate(94.1075 486.0086) scale(0.16 -0.16)">
     <defs>
      <path id="DejaVuSans-Oblique-53" d="M 3859 4513 
L 3738 3897 
Q 3422 4066 3111 4152 
Q 2800 4238 2509 4238 
Q 1944 4238 1609 3991 
Q 1275 3744 1275 3334 
Q 1275 3109 1398 2989 
Q 1522 2869 2034 2731 
L 2413 2638 
Q 3053 2472 3303 2217 
Q 3553 1963 3553 1503 
Q 3553 797 2998 353 
Q 2444 -91 1538 -91 
Q 1166 -91 791 -17 
Q 416 56 38 206 
L 166 856 
Q 513 641 861 531 
Q 1209 422 1556 422 
Q 2147 422 2503 684 
Q 2859 947 2859 1369 
Q 2859 1650 2717 1795 
Q 2575 1941 2106 2059 
L 1728 2156 
Q 1081 2325 845 2545 
Q 609 2766 609 3163 
Q 609 3859 1145 4304 
Q 1681 4750 2541 4750 
Q 2875 4750 3203 4690 
Q 3531 4631 3859 4513 
z
" transform="scale(0.015625)"/>
      <path id="DejaVuSans-Oblique-69" d="M 1172 4863 
L 1747 4863 
L 1606 4134 
L 1031 4134 
L 1172 4863 
z
M 909 3500 
L 1484 3500 
L 800 0 
L 225 0 
L 909 3500 
z
" transform="scale(0.015625)"/>
      <path id="DejaVuSans-Oblique-20" transform="scale(0.015625)"/>
      <path id="DejaVuSans-Oblique-61" d="M 3438 1997 
L 3047 0 
L 2472 0 
L 2578 531 
Q 2325 219 2001 64 
Q 1678 -91 1281 -91 
Q 834 -91 548 182 
Q 263 456 263 884 
Q 263 1497 752 1853 
Q 1241 2209 2100 2209 
L 2900 2209 
L 2931 2363 
Q 2938 2388 2941 2417 
Q 2944 2447 2944 2509 
Q 2944 2788 2717 2942 
Q 2491 3097 2081 3097 
Q 1800 3097 1504 3025 
Q 1209 2953 897 2809 
L 997 3341 
Q 1322 3463 1633 3523 
Q 1944 3584 2234 3584 
Q 2853 3584 3176 3315 
Q 3500 3047 3500 2534 
Q 3500 2431 3484 2292 
Q 3469 2153 3438 1997 
z
M 2816 1759 
L 2241 1759 
Q 1534 1759 1195 1570 
Q 856 1381 856 984 
Q 856 709 1029 553 
Q 1203 397 1509 397 
Q 1978 397 2328 733 
Q 2678 1069 2791 1631 
L 2816 1759 
z
" transform="scale(0.015625)"/>
      <path id="DejaVuSans-Oblique-70" d="M 3175 2156 
Q 3175 2616 2975 2859 
Q 2775 3103 2400 3103 
Q 2144 3103 1911 2972 
Q 1678 2841 1497 2591 
Q 1319 2344 1212 1994 
Q 1106 1644 1106 1300 
Q 1106 863 1306 627 
Q 1506 391 1875 391 
Q 2147 391 2380 519 
Q 2613 647 2778 891 
Q 2956 1147 3065 1494 
Q 3175 1841 3175 2156 
z
M 1394 2969 
Q 1625 3272 1939 3428 
Q 2253 3584 2638 3584 
Q 3175 3584 3472 3232 
Q 3769 2881 3769 2247 
Q 3769 1728 3584 1258 
Q 3400 788 3053 416 
Q 2822 169 2531 39 
Q 2241 -91 1919 -91 
Q 1547 -91 1294 64 
Q 1041 219 916 525 
L 556 -1331 
L -19 -1331 
L 922 3500 
L 1497 3500 
L 1394 2969 
z
" transform="scale(0.015625)"/>
      <path id="DejaVuSans-Oblique-72" d="M 2853 2969 
Q 2766 3016 2653 3041 
Q 2541 3066 2413 3066 
Q 1953 3066 1609 2717 
Q 1266 2369 1153 1784 
L 800 0 
L 225 0 
L 909 3500 
L 1484 3500 
L 1375 2956 
Q 1603 3259 1920 3421 
Q 2238 3584 2597 3584 
Q 2691 3584 2781 3573 
Q 2872 3563 2963 3538 
L 2853 2969 
z
" transform="scale(0.015625)"/>
      <path id="DejaVuSans-Oblique-65" d="M 3078 2063 
Q 3088 2113 3092 2166 
Q 3097 2219 3097 2272 
Q 3097 2653 2873 2875 
Q 2650 3097 2266 3097 
Q 1838 3097 1509 2826 
Q 1181 2556 1013 2059 
L 3078 2063 
z
M 3578 1613 
L 903 1613 
Q 884 1494 878 1425 
Q 872 1356 872 1306 
Q 872 872 1139 634 
Q 1406 397 1894 397 
Q 2269 397 2603 481 
Q 2938 566 3225 728 
L 3116 159 
Q 2806 34 2476 -28 
Q 2147 -91 1806 -91 
Q 1078 -91 686 257 
Q 294 606 294 1247 
Q 294 1794 489 2264 
Q 684 2734 1063 3103 
Q 1306 3334 1642 3459 
Q 1978 3584 2356 3584 
Q 2950 3584 3301 3228 
Q 3653 2872 3653 2272 
Q 3653 2128 3634 1964 
Q 3616 1800 3578 1613 
z
" transform="scale(0.015625)"/>
      <path id="DejaVuSans-Oblique-63" d="M 3431 3366 
L 3316 2797 
Q 3109 2947 2876 3022 
Q 2644 3097 2394 3097 
Q 2119 3097 1870 3000 
Q 1622 2903 1453 2725 
Q 1184 2453 1037 2087 
Q 891 1722 891 1331 
Q 891 859 1127 628 
Q 1363 397 1844 397 
Q 2081 397 2348 469 
Q 2616 541 2906 684 
L 2797 116 
Q 2547 13 2283 -39 
Q 2019 -91 1741 -91 
Q 1044 -91 669 257 
Q 294 606 294 1253 
Q 294 1797 489 2255 
Q 684 2713 1069 3078 
Q 1331 3328 1684 3456 
Q 2038 3584 2456 3584 
Q 2700 3584 2940 3529 
Q 3181 3475 3431 3366 
z
" transform="scale(0.015625)"/>
      <path id="DejaVuSans-Oblique-75" d="M 428 1388 
L 838 3500 
L 1416 3500 
L 1006 1409 
Q 975 1256 961 1147 
Q 947 1038 947 966 
Q 947 700 1109 554 
Q 1272 409 1569 409 
Q 2031 409 2368 721 
Q 2706 1034 2809 1563 
L 3194 3500 
L 3769 3500 
L 3091 0 
L 2516 0 
L 2631 550 
Q 2388 244 2052 76 
Q 1716 -91 1338 -91 
Q 878 -91 622 161 
Q 366 413 366 863 
Q 366 956 381 1097 
Q 397 1238 428 1388 
z
" transform="scale(0.015625)"/>
      <path id="DejaVuSans-Oblique-6c" d="M 1172 4863 
L 1747 4863 
L 800 0 
L 225 0 
L 1172 4863 
z
" transform="scale(0.015625)"/>
      <path id="DejaVuSans-Oblique-71" d="M 2669 525 
Q 2438 222 2123 65 
Q 1809 -91 1428 -91 
Q 897 -91 595 267 
Q 294 625 294 1253 
Q 294 1759 480 2231 
Q 666 2703 1013 3078 
Q 1238 3322 1530 3453 
Q 1822 3584 2144 3584 
Q 2531 3584 2781 3431 
Q 3031 3278 3144 2969 
L 3244 3494 
L 3822 3494 
L 2888 -1319 
L 2309 -1319 
L 2669 525 
z
M 891 1338 
Q 891 875 1084 633 
Q 1278 391 1644 391 
Q 2188 391 2572 911 
Q 2956 1431 2956 2175 
Q 2956 2625 2757 2864 
Q 2559 3103 2188 3103 
Q 1916 3103 1684 2976 
Q 1453 2850 1281 2606 
Q 1100 2350 995 2006 
Q 891 1663 891 1338 
z
" transform="scale(0.015625)"/>
      <path id="DejaVuSans-Oblique-64" d="M 2675 525 
Q 2444 222 2128 65 
Q 1813 -91 1428 -91 
Q 903 -91 598 267 
Q 294 625 294 1247 
Q 294 1766 478 2236 
Q 663 2706 1013 3078 
Q 1244 3325 1534 3454 
Q 1825 3584 2144 3584 
Q 2481 3584 2739 3421 
Q 2997 3259 3138 2956 
L 3513 4863 
L 4091 4863 
L 3144 0 
L 2566 0 
L 2675 525 
z
M 891 1350 
Q 891 897 1095 644 
Q 1300 391 1663 391 
Q 1931 391 2161 520 
Q 2391 650 2566 903 
Q 2750 1166 2856 1509 
Q 2963 1853 2963 2188 
Q 2963 2622 2758 2865 
Q 2553 3109 2194 3109 
Q 1922 3109 1687 2981 
Q 1453 2853 1288 2613 
Q 1106 2353 998 2009 
Q 891 1666 891 1350 
z
" transform="scale(0.015625)"/>
      <path id="DejaVuSans-Oblique-73" d="M 3200 3397 
L 3091 2853 
Q 2863 2978 2609 3040 
Q 2356 3103 2088 3103 
Q 1634 3103 1373 2948 
Q 1113 2794 1113 2528 
Q 1113 2219 1719 2053 
Q 1766 2041 1788 2034 
L 1972 1978 
Q 2547 1819 2739 1644 
Q 2931 1469 2931 1166 
Q 2931 609 2489 259 
Q 2047 -91 1331 -91 
Q 1053 -91 747 -37 
Q 441 16 72 128 
L 184 722 
Q 500 559 806 475 
Q 1113 391 1394 391 
Q 1816 391 2080 572 
Q 2344 753 2344 1031 
Q 2344 1331 1650 1516 
L 1591 1531 
L 1394 1581 
Q 956 1697 753 1886 
Q 550 2075 550 2369 
Q 550 2928 970 3256 
Q 1391 3584 2113 3584 
Q 2397 3584 2667 3537 
Q 2938 3491 3200 3397 
z
" transform="scale(0.015625)"/>
      <path id="DejaVuSans-Oblique-74" d="M 2706 3500 
L 2619 3053 
L 1472 3053 
L 1100 1153 
Q 1081 1047 1072 975 
Q 1063 903 1063 863 
Q 1063 663 1183 572 
Q 1303 481 1569 481 
L 2150 481 
L 2053 0 
L 1503 0 
Q 991 0 739 200 
Q 488 400 488 806 
Q 488 878 497 964 
Q 506 1050 525 1153 
L 897 3053 
L 409 3053 
L 500 3500 
L 978 3500 
L 1172 4494 
L 1747 4494 
L 1556 3500 
L 2706 3500 
z
" transform="scale(0.015625)"/>
      <path id="DejaVuSans-Oblique-6f" d="M 1625 -91 
Q 1009 -91 651 289 
Q 294 669 294 1325 
Q 294 1706 417 2101 
Q 541 2497 738 2766 
Q 1047 3184 1428 3384 
Q 1809 3584 2291 3584 
Q 2888 3584 3255 3212 
Q 3622 2841 3622 2241 
Q 3622 1825 3500 1412 
Q 3378 1000 3181 728 
Q 2875 309 2494 109 
Q 2113 -91 1625 -91 
z
M 891 1344 
Q 891 869 1089 633 
Q 1288 397 1691 397 
Q 2269 397 2648 901 
Q 3028 1406 3028 2181 
Q 3028 2634 2825 2865 
Q 2622 3097 2228 3097 
Q 1903 3097 1650 2945 
Q 1397 2794 1197 2484 
Q 1050 2253 970 1956 
Q 891 1659 891 1344 
z
" transform="scale(0.015625)"/>
      <path id="DejaVuSans-Oblique-6e" d="M 3566 2113 
L 3156 0 
L 2578 0 
L 2988 2091 
Q 3016 2238 3031 2350 
Q 3047 2463 3047 2528 
Q 3047 2791 2881 2937 
Q 2716 3084 2419 3084 
Q 1956 3084 1622 2776 
Q 1288 2469 1184 1941 
L 800 0 
L 225 0 
L 903 3500 
L 1478 3500 
L 1363 2950 
Q 1603 3253 1940 3418 
Q 2278 3584 2650 3584 
Q 3113 3584 3367 3334 
Q 3622 3084 3622 2631 
Q 3622 2519 3608 2391 
Q 3594 2263 3566 2113 
z
" transform="scale(0.015625)"/>
      <path id="DejaVuSans-Oblique-2c" d="M 575 794 
L 1234 794 
L 1131 256 
L 422 -744 
L 19 -744 
L 469 256 
L 575 794 
z
" transform="scale(0.015625)"/>
      <path id="DejaVuSans-Oblique-66" d="M 3059 4863 
L 2969 4384 
L 2419 4384 
Q 2106 4384 1964 4261 
Q 1822 4138 1753 3809 
L 1691 3500 
L 2638 3500 
L 2553 3053 
L 1606 3053 
L 1013 0 
L 434 0 
L 1031 3053 
L 481 3053 
L 563 3500 
L 1113 3500 
L 1159 3744 
Q 1278 4363 1576 4613 
Q 1875 4863 2516 4863 
L 3059 4863 
z
" transform="scale(0.015625)"/>
      <path id="DejaVuSans-Oblique-62" d="M 3169 2138 
Q 3169 2591 2961 2847 
Q 2753 3103 2388 3103 
Q 2122 3103 1889 2973 
Q 1656 2844 1484 2597 
Q 1303 2338 1198 1995 
Q 1094 1653 1094 1313 
Q 1094 881 1298 636 
Q 1503 391 1863 391 
Q 2134 391 2365 517 
Q 2597 644 2772 891 
Q 2950 1147 3059 1487 
Q 3169 1828 3169 2138 
z
M 1381 2969 
Q 1594 3256 1914 3420 
Q 2234 3584 2584 3584 
Q 3122 3584 3439 3221 
Q 3756 2859 3756 2241 
Q 3756 1734 3570 1259 
Q 3384 784 3041 416 
Q 2816 172 2522 40 
Q 2228 -91 1906 -91 
Q 1566 -91 1316 65 
Q 1066 222 909 531 
L 806 0 
L 231 0 
L 1178 4863 
L 1753 4863 
L 1381 2969 
z
" transform="scale(0.015625)"/>
      <path id="DejaVuSans-Oblique-78" d="M 3841 3500 
L 2234 1784 
L 3219 0 
L 2559 0 
L 1819 1388 
L 531 0 
L -166 0 
L 1556 1844 
L 641 3500 
L 1300 3500 
L 1972 2234 
L 3144 3500 
L 3841 3500 
z
" transform="scale(0.015625)"/>
      <path id="DejaVuSans-Oblique-6d" d="M 5747 2113 
L 5338 0 
L 4763 0 
L 5166 2094 
Q 5191 2228 5203 2325 
Q 5216 2422 5216 2491 
Q 5216 2772 5059 2928 
Q 4903 3084 4622 3084 
Q 4203 3084 3875 2770 
Q 3547 2456 3450 1953 
L 3066 0 
L 2491 0 
L 2900 2094 
Q 2925 2209 2937 2307 
Q 2950 2406 2950 2484 
Q 2950 2769 2794 2926 
Q 2638 3084 2363 3084 
Q 1938 3084 1609 2770 
Q 1281 2456 1184 1953 
L 800 0 
L 225 0 
L 909 3500 
L 1484 3500 
L 1375 2956 
Q 1609 3263 1923 3423 
Q 2238 3584 2597 3584 
Q 2978 3584 3223 3384 
Q 3469 3184 3519 2828 
Q 3781 3197 4126 3390 
Q 4472 3584 4856 3584 
Q 5306 3584 5551 3325 
Q 5797 3066 5797 2591 
Q 5797 2488 5784 2364 
Q 5772 2241 5747 2113 
z
" transform="scale(0.015625)"/>
      <path id="DejaVuSans-Oblique-67" d="M 3816 3500 
L 3219 434 
Q 3047 -456 2561 -893 
Q 2075 -1331 1253 -1331 
Q 950 -1331 690 -1286 
Q 431 -1241 206 -1147 
L 313 -588 
Q 525 -725 762 -790 
Q 1000 -856 1269 -856 
Q 1816 -856 2167 -557 
Q 2519 -259 2631 300 
L 2681 563 
Q 2441 288 2122 144 
Q 1803 0 1434 0 
Q 903 0 598 351 
Q 294 703 294 1319 
Q 294 1803 478 2267 
Q 663 2731 997 3091 
Q 1219 3328 1514 3456 
Q 1809 3584 2131 3584 
Q 2484 3584 2746 3420 
Q 3009 3256 3138 2956 
L 3238 3500 
L 3816 3500 
z
M 2950 2216 
Q 2950 2641 2750 2872 
Q 2550 3103 2181 3103 
Q 1953 3103 1747 3012 
Q 1541 2922 1394 2759 
Q 1156 2491 1023 2127 
Q 891 1763 891 1375 
Q 891 944 1092 712 
Q 1294 481 1672 481 
Q 2219 481 2584 976 
Q 2950 1472 2950 2216 
z
" transform="scale(0.015625)"/>
      <path id="DejaVuSans-Oblique-2e" d="M 525 794 
L 1184 794 
L 1031 0 
L 372 0 
L 525 794 
z
" transform="scale(0.015625)"/>
     </defs>
     <use xlink:href="#DejaVuSans-Oblique-53"/>
     <use xlink:href="#DejaVuSans-Oblique-69" transform="translate(63.476562 0)"/>
     <use xlink:href="#DejaVuSans-Oblique-20" transform="translate(91.259766 0)"/>
     <use xlink:href="#DejaVuSans-Oblique-61" transform="translate(123.046875 0)"/>
     <use xlink:href="#DejaVuSans-Oblique-70" transform="translate(184.326172 0)"/>
     <use xlink:href="#DejaVuSans-Oblique-61" transform="translate(247.802734 0)"/>
     <use xlink:href="#DejaVuSans-Oblique-72" transform="translate(309.082031 0)"/>
     <use xlink:href="#DejaVuSans-Oblique-65" transform="translate(350.195312 0)"/>
     <use xlink:href="#DejaVuSans-Oblique-63" transform="translate(411.71875 0)"/>
     <use xlink:href="#DejaVuSans-Oblique-65" transform="translate(466.699219 0)"/>
     <use xlink:href="#DejaVuSans-Oblique-20" transform="translate(528.222656 0)"/>
     <use xlink:href="#DejaVuSans-Oblique-63" transform="translate(560.009766 0)"/>
     <use xlink:href="#DejaVuSans-Oblique-75" transform="translate(614.990234 0)"/>
     <use xlink:href="#DejaVuSans-Oblique-61" transform="translate(678.369141 0)"/>
     <use xlink:href="#DejaVuSans-Oblique-6c" transform="translate(739.648438 0)"/>
     <use xlink:href="#DejaVuSans-Oblique-71" transform="translate(767.431641 0)"/>
     <use xlink:href="#DejaVuSans-Oblique-75" transform="translate(830.908203 0)"/>
     <use xlink:href="#DejaVuSans-Oblique-69" transform="translate(894.287109 0)"/>
     <use xlink:href="#DejaVuSans-Oblique-65" transform="translate(922.070312 0)"/>
     <use xlink:href="#DejaVuSans-Oblique-72" transform="translate(983.59375 0)"/>
     <use xlink:href="#DejaVuSans-Oblique-61" transform="translate(1024.707031 0)"/>
     <use xlink:href="#DejaVuSans-Oblique-20" transform="translate(1085.986328 0)"/>
     <use xlink:href="#DejaVuSans-Oblique-64" transform="translate(1117.773438 0)"/>
     <use xlink:href="#DejaVuSans-Oblique-65" transform="translate(1181.25 0)"/>
     <use xlink:href="#DejaVuSans-Oblique-20" transform="translate(1242.773438 0)"/>
     <use xlink:href="#DejaVuSans-Oblique-65" transform="translate(1274.560547 0)"/>
     <use xlink:href="#DejaVuSans-Oblique-73" transform="translate(1336.083984 0)"/>
     <use xlink:href="#DejaVuSans-Oblique-74" transform="translate(1388.183594 0)"/>
     <use xlink:href="#DejaVuSans-Oblique-61" transform="translate(1427.392578 0)"/>
     <use xlink:href="#DejaVuSans-Oblique-73" transform="translate(1488.671875 0)"/>
     <use xlink:href="#DejaVuSans-Oblique-20" transform="translate(1540.771484 0)"/>
     <use xlink:href="#DejaVuSans-Oblique-63" transform="translate(1572.558594 0)"/>
     <use xlink:href="#DejaVuSans-Oblique-6f" transform="translate(1627.539062 0)"/>
     <use xlink:href="#DejaVuSans-Oblique-6e" transform="translate(1688.720703 0)"/>
     <use xlink:href="#DejaVuSans-Oblique-64" transform="translate(1752.099609 0)"/>
     <use xlink:href="#DejaVuSans-Oblique-69" transform="translate(1815.576172 0)"/>
     <use xlink:href="#DejaVuSans-Oblique-63" transform="translate(1843.359375 0)"/>
     <use xlink:href="#DejaVuSans-Oblique-69" transform="translate(1898.339844 0)"/>
     <use xlink:href="#DejaVuSans-Oblique-6f" transform="translate(1926.123047 0)"/>
     <use xlink:href="#DejaVuSans-Oblique-6e" transform="translate(1987.304688 0)"/>
     <use xlink:href="#DejaVuSans-Oblique-65" transform="translate(2050.683594 0)"/>
     <use xlink:href="#DejaVuSans-Oblique-73" transform="translate(2112.207031 0)"/>
     <use xlink:href="#DejaVuSans-Oblique-2c" transform="translate(2164.306641 0)"/>
     <use xlink:href="#DejaVuSans-Oblique-20" transform="translate(2196.09375 0)"/>
     <use xlink:href="#DejaVuSans-Oblique-65" transform="translate(2227.880859 0)"/>
     <use xlink:href="#DejaVuSans-Oblique-6c" transform="translate(2289.404297 0)"/>
     <use xlink:href="#DejaVuSans-Oblique-20" transform="translate(2317.1875 0)"/>
     <use xlink:href="#DejaVuSans-Oblique-66" transform="translate(2348.974609 0)"/>
     <use xlink:href="#DejaVuSans-Oblique-72" transform="translate(2384.179688 0)"/>
     <use xlink:href="#DejaVuSans-Oblique-65" transform="translate(2425.292969 0)"/>
     <use xlink:href="#DejaVuSans-Oblique-6e" transform="translate(2486.816406 0)"/>
     <use xlink:href="#DejaVuSans-Oblique-74" transform="translate(2550.195312 0)"/>
     <use xlink:href="#DejaVuSans-Oblique-65" transform="translate(2589.404297 0)"/>
     <use xlink:href="#DejaVuSans-Oblique-20" transform="translate(2650.927734 0)"/>
     <use xlink:href="#DejaVuSans-Oblique-64" transform="translate(2682.714844 0)"/>
     <use xlink:href="#DejaVuSans-Oblique-65" transform="translate(2746.191406 0)"/>
     <use xlink:href="#DejaVuSans-Oblique-62" transform="translate(2807.714844 0)"/>
     <use xlink:href="#DejaVuSans-Oblique-65" transform="translate(2871.191406 0)"/>
     <use xlink:href="#DejaVuSans-Oblique-20" transform="translate(2932.714844 0)"/>
     <use xlink:href="#DejaVuSans-Oblique-72" transform="translate(2964.501953 0)"/>
     <use xlink:href="#DejaVuSans-Oblique-65" transform="translate(3005.615234 0)"/>
     <use xlink:href="#DejaVuSans-Oblique-65" transform="translate(3067.138672 0)"/>
     <use xlink:href="#DejaVuSans-Oblique-78" transform="translate(3128.662109 0)"/>
     <use xlink:href="#DejaVuSans-Oblique-61" transform="translate(3187.841797 0)"/>
     <use xlink:href="#DejaVuSans-Oblique-6d" transform="translate(3249.121094 0)"/>
     <use xlink:href="#DejaVuSans-Oblique-69" transform="translate(3346.533203 0)"/>
     <use xlink:href="#DejaVuSans-Oblique-6e" transform="translate(3374.316406 0)"/>
     <use xlink:href="#DejaVuSans-Oblique-61" transform="translate(3437.695312 0)"/>
     <use xlink:href="#DejaVuSans-Oblique-72" transform="translate(3498.974609 0)"/>
     <use xlink:href="#DejaVuSans-Oblique-73" transform="translate(3540.087891 0)"/>
     <use xlink:href="#DejaVuSans-Oblique-65" transform="translate(3592.1875 0)"/>
     <use xlink:href="#DejaVuSans-Oblique-20" transform="translate(3653.710938 0)"/>
     <use xlink:href="#DejaVuSans-Oblique-6f" transform="translate(3685.498047 0)"/>
     <use xlink:href="#DejaVuSans-Oblique-20" transform="translate(3746.679688 0)"/>
     <use xlink:href="#DejaVuSans-Oblique-63" transform="translate(3778.466797 0)"/>
     <use xlink:href="#DejaVuSans-Oblique-6f" transform="translate(3833.447266 0)"/>
     <use xlink:href="#DejaVuSans-Oblique-6e" transform="translate(3894.628906 0)"/>
     <use xlink:href="#DejaVuSans-Oblique-67" transform="translate(3958.007812 0)"/>
     <use xlink:href="#DejaVuSans-Oblique-65" transform="translate(4021.484375 0)"/>
     <use xlink:href="#DejaVuSans-Oblique-6c" transform="translate(4083.007812 0)"/>
     <use xlink:href="#DejaVuSans-Oblique-61" transform="translate(4110.791016 0)"/>
     <use xlink:href="#DejaVuSans-Oblique-72" transform="translate(4172.070312 0)"/>
     <use xlink:href="#DejaVuSans-Oblique-73" transform="translate(4213.183594 0)"/>
     <use xlink:href="#DejaVuSans-Oblique-65" transform="translate(4265.283203 0)"/>
     <use xlink:href="#DejaVuSans-Oblique-2e" transform="translate(4326.806641 0)"/>
    </g>
   </g>
  </g>
 </g>
 <defs>
  <clipPath id="p86a6fbe42b">
   <rect x="108" y="69.12" width="669.6" height="443.52"/>
  </clipPath>
 </defs>
</svg>
