<?xml version="1.0" encoding="utf-8" standalone="no"?>
<!DOCTYPE svg PUBLIC "-//W3C//DTD SVG 1.1//EN"
  "http://www.w3.org/Graphics/SVG/1.1/DTD/svg11.dtd">
<svg xmlns:xlink="http://www.w3.org/1999/xlink" width="864pt" height="576pt" viewBox="0 0 864 576" xmlns="http://www.w3.org/2000/svg" version="1.1">
 <metadata>
  <rdf:RDF xmlns:dc="http://purl.org/dc/elements/1.1/" xmlns:cc="http://creativecommons.org/ns#" xmlns:rdf="http://www.w3.org/1999/02/22-rdf-syntax-ns#">
   <cc:Work>
    <dc:type rdf:resource="http://purl.org/dc/dcmitype/StillImage"/>
    <dc:date>2026-03-20T21:25:25.963547</dc:date>
    <dc:format>image/svg+xml</dc:format>
    <dc:creator>
     <cc:Agent>
      <dc:title>Matplotlib v3.10.8, https://matplotlib.org/</dc:title>
     </cc:Agent>
    </dc:creator>
   </cc:Work>
  </rdf:RDF>
 </metadata>
 <defs>
  <style type="text/css">*{stroke-linejoin: round; stroke-linecap: butt}</style>
 </defs>
 <g id="figure_1">
  <g id="patch_1">
   <path d="M 0 576 
L 864 576 
L 864 0 
L 0 0 
z
" style="fill: #ffffff"/>
  </g>
  <g id="axes_1">
   <g id="patch_2">
    <path d="M 184.3344 240.31872 
L 259.3296 240.31872 
Q 272.7216 240.31872 272.7216 231.44832 
L 272.7216 190.64448 
Q 272.7216 181.77408 259.3296 181.77408 
L 184.3344 181.77408 
Q 170.9424 181.77408 170.9424 190.64448 
L 170.9424 231.44832 
Q 170.9424 240.31872 184.3344 240.31872 
z
" clip-path="url(#pf2788cbcfe)" style="fill: #f7f7f7; stroke: #000000; stroke-width: 2; stroke-linejoin: miter"/>
   </g>
   <g id="patch_3">
    <path d="M 270.701684 211.0464 
Q 282.094857 211.0464 291.028355 211.0464 
" clip-path="url(#pf2788cbcfe)" style="fill: none; stroke: #000000; stroke-width: 2.2; stroke-linecap: round"/>
    <path d="M 281.428355 206.2464 
L 291.028355 211.0464 
L 281.428355 215.8464 
z
" clip-path="url(#pf2788cbcfe)" style="fill: #1f77b4; stroke: #000000; stroke-width: 2.2; stroke-linecap: round"/>
   </g>
   <g id="patch_4">
    <path d="M 304.8624 240.31872 
L 379.8576 240.31872 
Q 393.2496 240.31872 393.2496 231.44832 
L 393.2496 190.64448 
Q 393.2496 181.77408 379.8576 181.77408 
L 304.8624 181.77408 
Q 291.4704 181.77408 291.4704 190.64448 
L 291.4704 231.44832 
Q 291.4704 240.31872 304.8624 240.31872 
z
" clip-path="url(#pf2788cbcfe)" style="fill: #f7f7f7; stroke: #000000; stroke-width: 2; stroke-linejoin: miter"/>
   </g>
   <g id="patch_5">
    <path d="M 391.229684 211.0464 
Q 402.622857 211.0464 411.556355 211.0464 
" clip-path="url(#pf2788cbcfe)" style="fill: none; stroke: #000000; stroke-width: 2.2; stroke-linecap: round"/>
    <path d="M 401.956355 206.2464 
L 411.556355 211.0464 
L 401.956355 215.8464 
z
" clip-path="url(#pf2788cbcfe)" style="fill: #1f77b4; stroke: #000000; stroke-width: 2.2; stroke-linecap: round"/>
   </g>
   <g id="patch_6">
    <path d="M 425.3904 240.31872 
L 500.3856 240.31872 
Q 513.7776 240.31872 513.7776 231.44832 
L 513.7776 190.64448 
Q 513.7776 181.77408 500.3856 181.77408 
L 425.3904 181.77408 
Q 411.9984 181.77408 411.9984 190.64448 
L 411.9984 231.44832 
Q 411.9984 240.31872 425.3904 240.31872 
z
" clip-path="url(#pf2788cbcfe)" style="fill: #f7f7f7; stroke: #000000; stroke-width: 2; stroke-linejoin: miter"/>
   </g>
   <g id="patch_7">
    <path d="M 255.312 371.60064 
C 259.21876 371.60064 262.966035 370.572535 265.728531 368.742752 
C 268.491028 366.912969 270.0432 364.430903 270.0432 361.8432 
C 270.0432 359.255497 268.491028 356.773431 265.728531 354.943648 
C 262.966035 353.113865 259.21876 352.08576 255.312 352.08576 
C 251.40524 352.08576 247.657965 353.113865 244.895469 354.943648 
C 242.132972 356.773431 240.5808 359.255497 240.5808 361.8432 
C 240.5808 364.430903 242.132972 366.912969 244.895469 368.742752 
C 247.657965 370.572535 251.40524 371.60064 255.312 371.60064 
L 255.312 371.60064 
z
" clip-path="url(#pf2788cbcfe)" style="fill: none; stroke: #000000; stroke-width: 2.4; stroke-linejoin: miter"/>
   </g>
   <g id="patch_8">
    <path d="M 416.016 371.60064 
C 419.92276 371.60064 423.670035 370.572535 426.432531 368.742752 
C 429.195028 366.912969 430.7472 364.430903 430.7472 361.8432 
C 430.7472 359.255497 429.195028 356.773431 426.432531 354.943648 
C 423.670035 353.113865 419.92276 352.08576 416.016 352.08576 
C 412.10924 352.08576 408.361965 353.113865 405.599469 354.943648 
C 402.836972 356.773431 401.2848 359.255497 401.2848 361.8432 
C 401.2848 364.430903 402.836972 366.912969 405.599469 368.742752 
C 408.361965 370.572535 412.10924 371.60064 416.016 371.60064 
L 416.016 371.60064 
z
" clip-path="url(#pf2788cbcfe)" style="fill: none; stroke: #000000; stroke-width: 2.4; stroke-linejoin: miter"/>
   </g>
   <g id="patch_9">
    <path d="M 576.72 371.60064 
C 580.62676 371.60064 584.374035 370.572535 587.136531 368.742752 
C 589.899028 366.912969 591.4512 364.430903 591.4512 361.8432 
C 591.4512 359.255497 589.899028 356.773431 587.136531 354.943648 
C 584.374035 353.113865 580.62676 352.08576 576.72 352.08576 
C 572.81324 352.08576 569.065965 353.113865 566.303469 354.943648 
C 563.540972 356.773431 561.9888 359.255497 561.9888 361.8432 
C 561.9888 364.430903 563.540972 366.912969 566.303469 368.742752 
C 569.065965 370.572535 572.81324 371.60064 576.72 371.60064 
L 576.72 371.60064 
z
" clip-path="url(#pf2788cbcfe)" style="fill: none; stroke: #000000; stroke-width: 2.4; stroke-linejoin: miter"/>
   </g>
   <g id="patch_10">
    <path d="M 272.041783 361.8432 
Q 335.663441 361.8432 396.601817 361.8432 
" clip-path="url(#pf2788cbcfe)" style="fill: none; stroke: #000000; stroke-width: 2.4; stroke-linecap: round"/>
    <path d="M 387.001817 357.0432 
L 396.601817 361.8432 
L 387.001817 366.6432 
z
" clip-path="url(#pf2788cbcfe)" style="fill: #1f77b4; stroke: #000000; stroke-width: 2.4; stroke-linecap: round"/>
   </g>
   <g id="patch_11">
    <path d="M 432.745783 361.8432 
Q 496.367441 361.8432 557.305817 361.8432 
" clip-path="url(#pf2788cbcfe)" style="fill: none; stroke: #000000; stroke-width: 2.4; stroke-linecap: round"/>
    <path d="M 547.705817 357.0432 
L 557.305817 361.8432 
L 547.705817 366.6432 
z
" clip-path="url(#pf2788cbcfe)" style="fill: #1f77b4; stroke: #000000; stroke-width: 2.4; stroke-linecap: round"/>
   </g>
   <g id="text_1">
    <!-- Orden / localización / auditoría -->
    <g transform="translate(166.860281 153.3888) scale(0.18 -0.18)">
     <defs>
      <path id="DejaVuSans-Bold-4f" d="M 2719 3878 
Q 2169 3878 1866 3472 
Q 1563 3066 1563 2328 
Q 1563 1594 1866 1187 
Q 2169 781 2719 781 
Q 3272 781 3575 1187 
Q 3878 1594 3878 2328 
Q 3878 3066 3575 3472 
Q 3272 3878 2719 3878 
z
M 2719 4750 
Q 3844 4750 4481 4106 
Q 5119 3463 5119 2328 
Q 5119 1197 4481 553 
Q 3844 -91 2719 -91 
Q 1597 -91 958 553 
Q 319 1197 319 2328 
Q 319 3463 958 4106 
Q 1597 4750 2719 4750 
z
" transform="scale(0.015625)"/>
      <path id="DejaVuSans-Bold-72" d="M 3138 2547 
Q 2991 2616 2845 2648 
Q 2700 2681 2553 2681 
Q 2122 2681 1889 2404 
Q 1656 2128 1656 1613 
L 1656 0 
L 538 0 
L 538 3500 
L 1656 3500 
L 1656 2925 
Q 1872 3269 2151 3426 
Q 2431 3584 2822 3584 
Q 2878 3584 2943 3579 
Q 3009 3575 3134 3559 
L 3138 2547 
z
" transform="scale(0.015625)"/>
      <path id="DejaVuSans-Bold-64" d="M 2919 2988 
L 2919 4863 
L 4044 4863 
L 4044 0 
L 2919 0 
L 2919 506 
Q 2688 197 2409 53 
Q 2131 -91 1766 -91 
Q 1119 -91 703 423 
Q 288 938 288 1747 
Q 288 2556 703 3070 
Q 1119 3584 1766 3584 
Q 2128 3584 2408 3439 
Q 2688 3294 2919 2988 
z
M 2181 722 
Q 2541 722 2730 984 
Q 2919 1247 2919 1747 
Q 2919 2247 2730 2509 
Q 2541 2772 2181 2772 
Q 1825 2772 1636 2509 
Q 1447 2247 1447 1747 
Q 1447 1247 1636 984 
Q 1825 722 2181 722 
z
" transform="scale(0.015625)"/>
      <path id="DejaVuSans-Bold-65" d="M 4031 1759 
L 4031 1441 
L 1416 1441 
Q 1456 1047 1700 850 
Q 1944 653 2381 653 
Q 2734 653 3104 758 
Q 3475 863 3866 1075 
L 3866 213 
Q 3469 63 3072 -14 
Q 2675 -91 2278 -91 
Q 1328 -91 801 392 
Q 275 875 275 1747 
Q 275 2603 792 3093 
Q 1309 3584 2216 3584 
Q 3041 3584 3536 3087 
Q 4031 2591 4031 1759 
z
M 2881 2131 
Q 2881 2450 2695 2645 
Q 2509 2841 2209 2841 
Q 1884 2841 1681 2658 
Q 1478 2475 1428 2131 
L 2881 2131 
z
" transform="scale(0.015625)"/>
      <path id="DejaVuSans-Bold-6e" d="M 4056 2131 
L 4056 0 
L 2931 0 
L 2931 347 
L 2931 1631 
Q 2931 2084 2911 2256 
Q 2891 2428 2841 2509 
Q 2775 2619 2662 2680 
Q 2550 2741 2406 2741 
Q 2056 2741 1856 2470 
Q 1656 2200 1656 1722 
L 1656 0 
L 538 0 
L 538 3500 
L 1656 3500 
L 1656 2988 
Q 1909 3294 2193 3439 
Q 2478 3584 2822 3584 
Q 3428 3584 3742 3212 
Q 4056 2841 4056 2131 
z
" transform="scale(0.015625)"/>
      <path id="DejaVuSans-Bold-20" transform="scale(0.015625)"/>
      <path id="DejaVuSans-Bold-2f" d="M 1644 4666 
L 2338 4666 
L 691 -594 
L 0 -594 
L 1644 4666 
z
" transform="scale(0.015625)"/>
      <path id="DejaVuSans-Bold-6c" d="M 538 4863 
L 1656 4863 
L 1656 0 
L 538 0 
L 538 4863 
z
" transform="scale(0.015625)"/>
      <path id="DejaVuSans-Bold-6f" d="M 2203 2784 
Q 1831 2784 1636 2517 
Q 1441 2250 1441 1747 
Q 1441 1244 1636 976 
Q 1831 709 2203 709 
Q 2569 709 2762 976 
Q 2956 1244 2956 1747 
Q 2956 2250 2762 2517 
Q 2569 2784 2203 2784 
z
M 2203 3584 
Q 3106 3584 3614 3096 
Q 4122 2609 4122 1747 
Q 4122 884 3614 396 
Q 3106 -91 2203 -91 
Q 1297 -91 786 396 
Q 275 884 275 1747 
Q 275 2609 786 3096 
Q 1297 3584 2203 3584 
z
" transform="scale(0.015625)"/>
      <path id="DejaVuSans-Bold-63" d="M 3366 3391 
L 3366 2478 
Q 3138 2634 2908 2709 
Q 2678 2784 2431 2784 
Q 1963 2784 1702 2511 
Q 1441 2238 1441 1747 
Q 1441 1256 1702 982 
Q 1963 709 2431 709 
Q 2694 709 2930 787 
Q 3166 866 3366 1019 
L 3366 103 
Q 3103 6 2833 -42 
Q 2563 -91 2291 -91 
Q 1344 -91 809 395 
Q 275 881 275 1747 
Q 275 2613 809 3098 
Q 1344 3584 2291 3584 
Q 2566 3584 2833 3536 
Q 3100 3488 3366 3391 
z
" transform="scale(0.015625)"/>
      <path id="DejaVuSans-Bold-61" d="M 2106 1575 
Q 1756 1575 1579 1456 
Q 1403 1338 1403 1106 
Q 1403 894 1545 773 
Q 1688 653 1941 653 
Q 2256 653 2472 879 
Q 2688 1106 2688 1447 
L 2688 1575 
L 2106 1575 
z
M 3816 1997 
L 3816 0 
L 2688 0 
L 2688 519 
Q 2463 200 2181 54 
Q 1900 -91 1497 -91 
Q 953 -91 614 226 
Q 275 544 275 1050 
Q 275 1666 698 1953 
Q 1122 2241 2028 2241 
L 2688 2241 
L 2688 2328 
Q 2688 2594 2478 2717 
Q 2269 2841 1825 2841 
Q 1466 2841 1156 2769 
Q 847 2697 581 2553 
L 581 3406 
Q 941 3494 1303 3539 
Q 1666 3584 2028 3584 
Q 2975 3584 3395 3211 
Q 3816 2838 3816 1997 
z
" transform="scale(0.015625)"/>
      <path id="DejaVuSans-Bold-69" d="M 538 3500 
L 1656 3500 
L 1656 0 
L 538 0 
L 538 3500 
z
M 538 4863 
L 1656 4863 
L 1656 3950 
L 538 3950 
L 538 4863 
z
" transform="scale(0.015625)"/>
      <path id="DejaVuSans-Bold-7a" d="M 366 3500 
L 3419 3500 
L 3419 2719 
L 1575 800 
L 3419 800 
L 3419 0 
L 288 0 
L 288 781 
L 2131 2700 
L 366 2700 
L 366 3500 
z
" transform="scale(0.015625)"/>
      <path id="DejaVuSans-Bold-f3" d="M 2203 2784 
Q 1831 2784 1636 2517 
Q 1441 2250 1441 1747 
Q 1441 1244 1636 976 
Q 1831 709 2203 709 
Q 2569 709 2762 976 
Q 2956 1244 2956 1747 
Q 2956 2250 2762 2517 
Q 2569 2784 2203 2784 
z
M 2203 3584 
Q 3106 3584 3614 3096 
Q 4122 2609 4122 1747 
Q 4122 884 3614 396 
Q 3106 -91 2203 -91 
Q 1297 -91 786 396 
Q 275 884 275 1747 
Q 275 2609 786 3096 
Q 1297 3584 2203 3584 
z
M 2694 5119 
L 3578 5119 
L 2425 3944 
L 1813 3944 
L 2694 5119 
z
" transform="scale(0.015625)"/>
      <path id="DejaVuSans-Bold-75" d="M 500 1363 
L 500 3500 
L 1625 3500 
L 1625 3150 
Q 1625 2866 1622 2436 
Q 1619 2006 1619 1863 
Q 1619 1441 1641 1255 
Q 1663 1069 1716 984 
Q 1784 875 1895 815 
Q 2006 756 2150 756 
Q 2500 756 2700 1025 
Q 2900 1294 2900 1772 
L 2900 3500 
L 4019 3500 
L 4019 0 
L 2900 0 
L 2900 506 
Q 2647 200 2364 54 
Q 2081 -91 1741 -91 
Q 1134 -91 817 281 
Q 500 653 500 1363 
z
" transform="scale(0.015625)"/>
      <path id="DejaVuSans-Bold-74" d="M 1759 4494 
L 1759 3500 
L 2913 3500 
L 2913 2700 
L 1759 2700 
L 1759 1216 
Q 1759 972 1856 886 
Q 1953 800 2241 800 
L 2816 800 
L 2816 0 
L 1856 0 
Q 1194 0 917 276 
Q 641 553 641 1216 
L 641 2700 
L 84 2700 
L 84 3500 
L 641 3500 
L 641 4494 
L 1759 4494 
z
" transform="scale(0.015625)"/>
      <path id="DejaVuSans-Bold-ed" d="M 538 3500 
L 1656 3500 
L 1656 0 
L 538 0 
L 538 3500 
z
M 1590 5119 
L 2474 5119 
L 1321 3944 
L 709 3944 
L 1590 5119 
z
" transform="scale(0.015625)"/>
     </defs>
     <use xlink:href="#DejaVuSans-Bold-4f"/>
     <use xlink:href="#DejaVuSans-Bold-72" transform="translate(85.009766 0)"/>
     <use xlink:href="#DejaVuSans-Bold-64" transform="translate(134.326172 0)"/>
     <use xlink:href="#DejaVuSans-Bold-65" transform="translate(205.908203 0)"/>
     <use xlink:href="#DejaVuSans-Bold-6e" transform="translate(273.730469 0)"/>
     <use xlink:href="#DejaVuSans-Bold-20" transform="translate(344.921875 0)"/>
     <use xlink:href="#DejaVuSans-Bold-2f" transform="translate(379.736328 0)"/>
     <use xlink:href="#DejaVuSans-Bold-20" transform="translate(416.259766 0)"/>
     <use xlink:href="#DejaVuSans-Bold-6c" transform="translate(451.074219 0)"/>
     <use xlink:href="#DejaVuSans-Bold-6f" transform="translate(485.351562 0)"/>
     <use xlink:href="#DejaVuSans-Bold-63" transform="translate(554.052734 0)"/>
     <use xlink:href="#DejaVuSans-Bold-61" transform="translate(613.330078 0)"/>
     <use xlink:href="#DejaVuSans-Bold-6c" transform="translate(680.810547 0)"/>
     <use xlink:href="#DejaVuSans-Bold-69" transform="translate(715.087891 0)"/>
     <use xlink:href="#DejaVuSans-Bold-7a" transform="translate(749.365234 0)"/>
     <use xlink:href="#DejaVuSans-Bold-61" transform="translate(807.568359 0)"/>
     <use xlink:href="#DejaVuSans-Bold-63" transform="translate(875.048828 0)"/>
     <use xlink:href="#DejaVuSans-Bold-69" transform="translate(934.326172 0)"/>
     <use xlink:href="#DejaVuSans-Bold-f3" transform="translate(968.603516 0)"/>
     <use xlink:href="#DejaVuSans-Bold-6e" transform="translate(1037.304688 0)"/>
     <use xlink:href="#DejaVuSans-Bold-20" transform="translate(1108.496094 0)"/>
     <use xlink:href="#DejaVuSans-Bold-2f" transform="translate(1143.310547 0)"/>
     <use xlink:href="#DejaVuSans-Bold-20" transform="translate(1179.833984 0)"/>
     <use xlink:href="#DejaVuSans-Bold-61" transform="translate(1214.648438 0)"/>
     <use xlink:href="#DejaVuSans-Bold-75" transform="translate(1282.128906 0)"/>
     <use xlink:href="#DejaVuSans-Bold-64" transform="translate(1353.320312 0)"/>
     <use xlink:href="#DejaVuSans-Bold-69" transform="translate(1424.902344 0)"/>
     <use xlink:href="#DejaVuSans-Bold-74" transform="translate(1459.179688 0)"/>
     <use xlink:href="#DejaVuSans-Bold-6f" transform="translate(1506.982422 0)"/>
     <use xlink:href="#DejaVuSans-Bold-72" transform="translate(1575.683594 0)"/>
     <use xlink:href="#DejaVuSans-Bold-ed" transform="translate(1625 0)"/>
     <use xlink:href="#DejaVuSans-Bold-61" transform="translate(1659.277344 0)"/>
    </g>
   </g>
   <g id="text_2">
    <!-- Página/Frame 1 -->
    <g transform="translate(167.673875 215.189525) scale(0.14 -0.14)">
     <defs>
      <path id="DejaVuSans-50" d="M 1259 4147 
L 1259 2394 
L 2053 2394 
Q 2494 2394 2734 2622 
Q 2975 2850 2975 3272 
Q 2975 3691 2734 3919 
Q 2494 4147 2053 4147 
L 1259 4147 
z
M 628 4666 
L 2053 4666 
Q 2838 4666 3239 4311 
Q 3641 3956 3641 3272 
Q 3641 2581 3239 2228 
Q 2838 1875 2053 1875 
L 1259 1875 
L 1259 0 
L 628 0 
L 628 4666 
z
" transform="scale(0.015625)"/>
      <path id="DejaVuSans-e1" d="M 2194 1759 
Q 1497 1759 1228 1600 
Q 959 1441 959 1056 
Q 959 750 1161 570 
Q 1363 391 1709 391 
Q 2188 391 2477 730 
Q 2766 1069 2766 1631 
L 2766 1759 
L 2194 1759 
z
M 3341 1997 
L 3341 0 
L 2766 0 
L 2766 531 
Q 2569 213 2275 61 
Q 1981 -91 1556 -91 
Q 1019 -91 701 211 
Q 384 513 384 1019 
Q 384 1609 779 1909 
Q 1175 2209 1959 2209 
L 2766 2209 
L 2766 2266 
Q 2766 2663 2505 2880 
Q 2244 3097 1772 3097 
Q 1472 3097 1187 3025 
Q 903 2953 641 2809 
L 641 3341 
Q 956 3463 1253 3523 
Q 1550 3584 1831 3584 
Q 2591 3584 2966 3190 
Q 3341 2797 3341 1997 
z
M 2290 5119 
L 2912 5119 
L 1894 3944 
L 1415 3944 
L 2290 5119 
z
" transform="scale(0.015625)"/>
      <path id="DejaVuSans-67" d="M 2906 1791 
Q 2906 2416 2648 2759 
Q 2391 3103 1925 3103 
Q 1463 3103 1205 2759 
Q 947 2416 947 1791 
Q 947 1169 1205 825 
Q 1463 481 1925 481 
Q 2391 481 2648 825 
Q 2906 1169 2906 1791 
z
M 3481 434 
Q 3481 -459 3084 -895 
Q 2688 -1331 1869 -1331 
Q 1566 -1331 1297 -1286 
Q 1028 -1241 775 -1147 
L 775 -588 
Q 1028 -725 1275 -790 
Q 1522 -856 1778 -856 
Q 2344 -856 2625 -561 
Q 2906 -266 2906 331 
L 2906 616 
Q 2728 306 2450 153 
Q 2172 0 1784 0 
Q 1141 0 747 490 
Q 353 981 353 1791 
Q 353 2603 747 3093 
Q 1141 3584 1784 3584 
Q 2172 3584 2450 3431 
Q 2728 3278 2906 2969 
L 2906 3500 
L 3481 3500 
L 3481 434 
z
" transform="scale(0.015625)"/>
      <path id="DejaVuSans-69" d="M 603 3500 
L 1178 3500 
L 1178 0 
L 603 0 
L 603 3500 
z
M 603 4863 
L 1178 4863 
L 1178 4134 
L 603 4134 
L 603 4863 
z
" transform="scale(0.015625)"/>
      <path id="DejaVuSans-6e" d="M 3513 2113 
L 3513 0 
L 2938 0 
L 2938 2094 
Q 2938 2591 2744 2837 
Q 2550 3084 2163 3084 
Q 1697 3084 1428 2787 
Q 1159 2491 1159 1978 
L 1159 0 
L 581 0 
L 581 3500 
L 1159 3500 
L 1159 2956 
Q 1366 3272 1645 3428 
Q 1925 3584 2291 3584 
Q 2894 3584 3203 3211 
Q 3513 2838 3513 2113 
z
" transform="scale(0.015625)"/>
      <path id="DejaVuSans-61" d="M 2194 1759 
Q 1497 1759 1228 1600 
Q 959 1441 959 1056 
Q 959 750 1161 570 
Q 1363 391 1709 391 
Q 2188 391 2477 730 
Q 2766 1069 2766 1631 
L 2766 1759 
L 2194 1759 
z
M 3341 1997 
L 3341 0 
L 2766 0 
L 2766 531 
Q 2569 213 2275 61 
Q 1981 -91 1556 -91 
Q 1019 -91 701 211 
Q 384 513 384 1019 
Q 384 1609 779 1909 
Q 1175 2209 1959 2209 
L 2766 2209 
L 2766 2266 
Q 2766 2663 2505 2880 
Q 2244 3097 1772 3097 
Q 1472 3097 1187 3025 
Q 903 2953 641 2809 
L 641 3341 
Q 956 3463 1253 3523 
Q 1550 3584 1831 3584 
Q 2591 3584 2966 3190 
Q 3341 2797 3341 1997 
z
" transform="scale(0.015625)"/>
      <path id="DejaVuSans-2f" d="M 1625 4666 
L 2156 4666 
L 531 -594 
L 0 -594 
L 1625 4666 
z
" transform="scale(0.015625)"/>
      <path id="DejaVuSans-46" d="M 628 4666 
L 3309 4666 
L 3309 4134 
L 1259 4134 
L 1259 2759 
L 3109 2759 
L 3109 2228 
L 1259 2228 
L 1259 0 
L 628 0 
L 628 4666 
z
" transform="scale(0.015625)"/>
      <path id="DejaVuSans-72" d="M 2631 2963 
Q 2534 3019 2420 3045 
Q 2306 3072 2169 3072 
Q 1681 3072 1420 2755 
Q 1159 2438 1159 1844 
L 1159 0 
L 581 0 
L 581 3500 
L 1159 3500 
L 1159 2956 
Q 1341 3275 1631 3429 
Q 1922 3584 2338 3584 
Q 2397 3584 2469 3576 
Q 2541 3569 2628 3553 
L 2631 2963 
z
" transform="scale(0.015625)"/>
      <path id="DejaVuSans-6d" d="M 3328 2828 
Q 3544 3216 3844 3400 
Q 4144 3584 4550 3584 
Q 5097 3584 5394 3201 
Q 5691 2819 5691 2113 
L 5691 0 
L 5113 0 
L 5113 2094 
Q 5113 2597 4934 2840 
Q 4756 3084 4391 3084 
Q 3944 3084 3684 2787 
Q 3425 2491 3425 1978 
L 3425 0 
L 2847 0 
L 2847 2094 
Q 2847 2600 2669 2842 
Q 2491 3084 2119 3084 
Q 1678 3084 1418 2786 
Q 1159 2488 1159 1978 
L 1159 0 
L 581 0 
L 581 3500 
L 1159 3500 
L 1159 2956 
Q 1356 3278 1631 3431 
Q 1906 3584 2284 3584 
Q 2666 3584 2933 3390 
Q 3200 3197 3328 2828 
z
" transform="scale(0.015625)"/>
      <path id="DejaVuSans-65" d="M 3597 1894 
L 3597 1613 
L 953 1613 
Q 991 1019 1311 708 
Q 1631 397 2203 397 
Q 2534 397 2845 478 
Q 3156 559 3463 722 
L 3463 178 
Q 3153 47 2828 -22 
Q 2503 -91 2169 -91 
Q 1331 -91 842 396 
Q 353 884 353 1716 
Q 353 2575 817 3079 
Q 1281 3584 2069 3584 
Q 2775 3584 3186 3129 
Q 3597 2675 3597 1894 
z
M 3022 2063 
Q 3016 2534 2758 2815 
Q 2500 3097 2075 3097 
Q 1594 3097 1305 2825 
Q 1016 2553 972 2059 
L 3022 2063 
z
" transform="scale(0.015625)"/>
      <path id="DejaVuSans-20" transform="scale(0.015625)"/>
      <path id="DejaVuSans-31" d="M 794 531 
L 1825 531 
L 1825 4091 
L 703 3866 
L 703 4441 
L 1819 4666 
L 2450 4666 
L 2450 531 
L 3481 531 
L 3481 0 
L 794 0 
L 794 531 
z
" transform="scale(0.015625)"/>
     </defs>
     <use xlink:href="#DejaVuSans-50"/>
     <use xlink:href="#DejaVuSans-e1" transform="translate(55.802734 0)"/>
     <use xlink:href="#DejaVuSans-67" transform="translate(117.082031 0)"/>
     <use xlink:href="#DejaVuSans-69" transform="translate(180.558594 0)"/>
     <use xlink:href="#DejaVuSans-6e" transform="translate(208.341797 0)"/>
     <use xlink:href="#DejaVuSans-61" transform="translate(271.720703 0)"/>
     <use xlink:href="#DejaVuSans-2f" transform="translate(333 0)"/>
     <use xlink:href="#DejaVuSans-46" transform="translate(366.691406 0)"/>
     <use xlink:href="#DejaVuSans-72" transform="translate(416.960938 0)"/>
     <use xlink:href="#DejaVuSans-61" transform="translate(458.074219 0)"/>
     <use xlink:href="#DejaVuSans-6d" transform="translate(519.353516 0)"/>
     <use xlink:href="#DejaVuSans-65" transform="translate(616.765625 0)"/>
     <use xlink:href="#DejaVuSans-20" transform="translate(678.289062 0)"/>
     <use xlink:href="#DejaVuSans-31" transform="translate(710.076172 0)"/>
    </g>
   </g>
   <g id="text_3">
    <!-- Página/Frame 2 -->
    <g transform="translate(288.201875 215.189525) scale(0.14 -0.14)">
     <defs>
      <path id="DejaVuSans-32" d="M 1228 531 
L 3431 531 
L 3431 0 
L 469 0 
L 469 531 
Q 828 903 1448 1529 
Q 2069 2156 2228 2338 
Q 2531 2678 2651 2914 
Q 2772 3150 2772 3378 
Q 2772 3750 2511 3984 
Q 2250 4219 1831 4219 
Q 1534 4219 1204 4116 
Q 875 4013 500 3803 
L 500 4441 
Q 881 4594 1212 4672 
Q 1544 4750 1819 4750 
Q 2544 4750 2975 4387 
Q 3406 4025 3406 3419 
Q 3406 3131 3298 2873 
Q 3191 2616 2906 2266 
Q 2828 2175 2409 1742 
Q 1991 1309 1228 531 
z
" transform="scale(0.015625)"/>
     </defs>
     <use xlink:href="#DejaVuSans-50"/>
     <use xlink:href="#DejaVuSans-e1" transform="translate(55.802734 0)"/>
     <use xlink:href="#DejaVuSans-67" transform="translate(117.082031 0)"/>
     <use xlink:href="#DejaVuSans-69" transform="translate(180.558594 0)"/>
     <use xlink:href="#DejaVuSans-6e" transform="translate(208.341797 0)"/>
     <use xlink:href="#DejaVuSans-61" transform="translate(271.720703 0)"/>
     <use xlink:href="#DejaVuSans-2f" transform="translate(333 0)"/>
     <use xlink:href="#DejaVuSans-46" transform="translate(366.691406 0)"/>
     <use xlink:href="#DejaVuSans-72" transform="translate(416.960938 0)"/>
     <use xlink:href="#DejaVuSans-61" transform="translate(458.074219 0)"/>
     <use xlink:href="#DejaVuSans-6d" transform="translate(519.353516 0)"/>
     <use xlink:href="#DejaVuSans-65" transform="translate(616.765625 0)"/>
     <use xlink:href="#DejaVuSans-20" transform="translate(678.289062 0)"/>
     <use xlink:href="#DejaVuSans-32" transform="translate(710.076172 0)"/>
    </g>
   </g>
   <g id="text_4">
    <!-- Página/Frame 3 -->
    <g transform="translate(408.729875 215.189525) scale(0.14 -0.14)">
     <defs>
      <path id="DejaVuSans-33" d="M 2597 2516 
Q 3050 2419 3304 2112 
Q 3559 1806 3559 1356 
Q 3559 666 3084 287 
Q 2609 -91 1734 -91 
Q 1441 -91 1130 -33 
Q 819 25 488 141 
L 488 750 
Q 750 597 1062 519 
Q 1375 441 1716 441 
Q 2309 441 2620 675 
Q 2931 909 2931 1356 
Q 2931 1769 2642 2001 
Q 2353 2234 1838 2234 
L 1294 2234 
L 1294 2753 
L 1863 2753 
Q 2328 2753 2575 2939 
Q 2822 3125 2822 3475 
Q 2822 3834 2567 4026 
Q 2313 4219 1838 4219 
Q 1578 4219 1281 4162 
Q 984 4106 628 3988 
L 628 4550 
Q 988 4650 1302 4700 
Q 1616 4750 1894 4750 
Q 2613 4750 3031 4423 
Q 3450 4097 3450 3541 
Q 3450 3153 3228 2886 
Q 3006 2619 2597 2516 
z
" transform="scale(0.015625)"/>
     </defs>
     <use xlink:href="#DejaVuSans-50"/>
     <use xlink:href="#DejaVuSans-e1" transform="translate(55.802734 0)"/>
     <use xlink:href="#DejaVuSans-67" transform="translate(117.082031 0)"/>
     <use xlink:href="#DejaVuSans-69" transform="translate(180.558594 0)"/>
     <use xlink:href="#DejaVuSans-6e" transform="translate(208.341797 0)"/>
     <use xlink:href="#DejaVuSans-61" transform="translate(271.720703 0)"/>
     <use xlink:href="#DejaVuSans-2f" transform="translate(333 0)"/>
     <use xlink:href="#DejaVuSans-46" transform="translate(366.691406 0)"/>
     <use xlink:href="#DejaVuSans-72" transform="translate(416.960938 0)"/>
     <use xlink:href="#DejaVuSans-61" transform="translate(458.074219 0)"/>
     <use xlink:href="#DejaVuSans-6d" transform="translate(519.353516 0)"/>
     <use xlink:href="#DejaVuSans-65" transform="translate(616.765625 0)"/>
     <use xlink:href="#DejaVuSans-20" transform="translate(678.289062 0)"/>
     <use xlink:href="#DejaVuSans-33" transform="translate(710.076172 0)"/>
    </g>
   </g>
   <g id="text_5">
    <!-- Sucesos declarados: gobiernan la reevaluación -->
    <g transform="translate(204.004688 423.936) scale(0.18 -0.18)">
     <defs>
      <path id="DejaVuSans-Bold-53" d="M 3834 4519 
L 3834 3531 
Q 3450 3703 3084 3790 
Q 2719 3878 2394 3878 
Q 1963 3878 1756 3759 
Q 1550 3641 1550 3391 
Q 1550 3203 1689 3098 
Q 1828 2994 2194 2919 
L 2706 2816 
Q 3484 2659 3812 2340 
Q 4141 2022 4141 1434 
Q 4141 663 3683 286 
Q 3225 -91 2284 -91 
Q 1841 -91 1394 -6 
Q 947 78 500 244 
L 500 1259 
Q 947 1022 1364 901 
Q 1781 781 2169 781 
Q 2563 781 2772 912 
Q 2981 1044 2981 1288 
Q 2981 1506 2839 1625 
Q 2697 1744 2272 1838 
L 1806 1941 
Q 1106 2091 782 2419 
Q 459 2747 459 3303 
Q 459 4000 909 4375 
Q 1359 4750 2203 4750 
Q 2588 4750 2994 4692 
Q 3400 4634 3834 4519 
z
" transform="scale(0.015625)"/>
      <path id="DejaVuSans-Bold-73" d="M 3272 3391 
L 3272 2541 
Q 2913 2691 2578 2766 
Q 2244 2841 1947 2841 
Q 1628 2841 1473 2761 
Q 1319 2681 1319 2516 
Q 1319 2381 1436 2309 
Q 1553 2238 1856 2203 
L 2053 2175 
Q 2913 2066 3209 1816 
Q 3506 1566 3506 1031 
Q 3506 472 3093 190 
Q 2681 -91 1863 -91 
Q 1516 -91 1145 -36 
Q 775 19 384 128 
L 384 978 
Q 719 816 1070 734 
Q 1422 653 1784 653 
Q 2113 653 2278 743 
Q 2444 834 2444 1013 
Q 2444 1163 2330 1236 
Q 2216 1309 1875 1350 
L 1678 1375 
Q 931 1469 631 1722 
Q 331 1975 331 2491 
Q 331 3047 712 3315 
Q 1094 3584 1881 3584 
Q 2191 3584 2531 3537 
Q 2872 3491 3272 3391 
z
" transform="scale(0.015625)"/>
      <path id="DejaVuSans-Bold-3a" d="M 716 3500 
L 1844 3500 
L 1844 2291 
L 716 2291 
L 716 3500 
z
M 716 1209 
L 1844 1209 
L 1844 0 
L 716 0 
L 716 1209 
z
" transform="scale(0.015625)"/>
      <path id="DejaVuSans-Bold-67" d="M 2919 594 
Q 2688 288 2409 144 
Q 2131 0 1766 0 
Q 1125 0 706 504 
Q 288 1009 288 1791 
Q 288 2575 706 3076 
Q 1125 3578 1766 3578 
Q 2131 3578 2409 3434 
Q 2688 3291 2919 2981 
L 2919 3500 
L 4044 3500 
L 4044 353 
Q 4044 -491 3511 -936 
Q 2978 -1381 1966 -1381 
Q 1638 -1381 1331 -1331 
Q 1025 -1281 716 -1178 
L 716 -306 
Q 1009 -475 1290 -558 
Q 1572 -641 1856 -641 
Q 2406 -641 2662 -400 
Q 2919 -159 2919 353 
L 2919 594 
z
M 2181 2772 
Q 1834 2772 1640 2515 
Q 1447 2259 1447 1791 
Q 1447 1309 1634 1061 
Q 1822 813 2181 813 
Q 2531 813 2725 1069 
Q 2919 1325 2919 1791 
Q 2919 2259 2725 2515 
Q 2531 2772 2181 2772 
z
" transform="scale(0.015625)"/>
      <path id="DejaVuSans-Bold-62" d="M 2400 722 
Q 2759 722 2948 984 
Q 3138 1247 3138 1747 
Q 3138 2247 2948 2509 
Q 2759 2772 2400 2772 
Q 2041 2772 1848 2508 
Q 1656 2244 1656 1747 
Q 1656 1250 1848 986 
Q 2041 722 2400 722 
z
M 1656 2988 
Q 1888 3294 2169 3439 
Q 2450 3584 2816 3584 
Q 3463 3584 3878 3070 
Q 4294 2556 4294 1747 
Q 4294 938 3878 423 
Q 3463 -91 2816 -91 
Q 2450 -91 2169 54 
Q 1888 200 1656 506 
L 1656 0 
L 538 0 
L 538 4863 
L 1656 4863 
L 1656 2988 
z
" transform="scale(0.015625)"/>
      <path id="DejaVuSans-Bold-76" d="M 97 3500 
L 1216 3500 
L 2088 1081 
L 2956 3500 
L 4078 3500 
L 2700 0 
L 1472 0 
L 97 3500 
z
" transform="scale(0.015625)"/>
     </defs>
     <use xlink:href="#DejaVuSans-Bold-53"/>
     <use xlink:href="#DejaVuSans-Bold-75" transform="translate(72.021484 0)"/>
     <use xlink:href="#DejaVuSans-Bold-63" transform="translate(143.212891 0)"/>
     <use xlink:href="#DejaVuSans-Bold-65" transform="translate(202.490234 0)"/>
     <use xlink:href="#DejaVuSans-Bold-73" transform="translate(270.3125 0)"/>
     <use xlink:href="#DejaVuSans-Bold-6f" transform="translate(329.833984 0)"/>
     <use xlink:href="#DejaVuSans-Bold-73" transform="translate(398.535156 0)"/>
     <use xlink:href="#DejaVuSans-Bold-20" transform="translate(458.056641 0)"/>
     <use xlink:href="#DejaVuSans-Bold-64" transform="translate(492.871094 0)"/>
     <use xlink:href="#DejaVuSans-Bold-65" transform="translate(564.453125 0)"/>
     <use xlink:href="#DejaVuSans-Bold-63" transform="translate(632.275391 0)"/>
     <use xlink:href="#DejaVuSans-Bold-6c" transform="translate(691.552734 0)"/>
     <use xlink:href="#DejaVuSans-Bold-61" transform="translate(725.830078 0)"/>
     <use xlink:href="#DejaVuSans-Bold-72" transform="translate(793.310547 0)"/>
     <use xlink:href="#DejaVuSans-Bold-61" transform="translate(842.626953 0)"/>
     <use xlink:href="#DejaVuSans-Bold-64" transform="translate(910.107422 0)"/>
     <use xlink:href="#DejaVuSans-Bold-6f" transform="translate(981.689453 0)"/>
     <use xlink:href="#DejaVuSans-Bold-73" transform="translate(1050.390625 0)"/>
     <use xlink:href="#DejaVuSans-Bold-3a" transform="translate(1109.912109 0)"/>
     <use xlink:href="#DejaVuSans-Bold-20" transform="translate(1149.902344 0)"/>
     <use xlink:href="#DejaVuSans-Bold-67" transform="translate(1184.716797 0)"/>
     <use xlink:href="#DejaVuSans-Bold-6f" transform="translate(1256.298828 0)"/>
     <use xlink:href="#DejaVuSans-Bold-62" transform="translate(1325 0)"/>
     <use xlink:href="#DejaVuSans-Bold-69" transform="translate(1396.582031 0)"/>
     <use xlink:href="#DejaVuSans-Bold-65" transform="translate(1430.859375 0)"/>
     <use xlink:href="#DejaVuSans-Bold-72" transform="translate(1498.681641 0)"/>
     <use xlink:href="#DejaVuSans-Bold-6e" transform="translate(1547.998047 0)"/>
     <use xlink:href="#DejaVuSans-Bold-61" transform="translate(1619.189453 0)"/>
     <use xlink:href="#DejaVuSans-Bold-6e" transform="translate(1686.669922 0)"/>
     <use xlink:href="#DejaVuSans-Bold-20" transform="translate(1757.861328 0)"/>
     <use xlink:href="#DejaVuSans-Bold-6c" transform="translate(1792.675781 0)"/>
     <use xlink:href="#DejaVuSans-Bold-61" transform="translate(1826.953125 0)"/>
     <use xlink:href="#DejaVuSans-Bold-20" transform="translate(1894.433594 0)"/>
     <use xlink:href="#DejaVuSans-Bold-72" transform="translate(1929.248047 0)"/>
     <use xlink:href="#DejaVuSans-Bold-65" transform="translate(1978.564453 0)"/>
     <use xlink:href="#DejaVuSans-Bold-65" transform="translate(2046.386719 0)"/>
     <use xlink:href="#DejaVuSans-Bold-76" transform="translate(2114.208984 0)"/>
     <use xlink:href="#DejaVuSans-Bold-61" transform="translate(2179.394531 0)"/>
     <use xlink:href="#DejaVuSans-Bold-6c" transform="translate(2246.875 0)"/>
     <use xlink:href="#DejaVuSans-Bold-75" transform="translate(2281.152344 0)"/>
     <use xlink:href="#DejaVuSans-Bold-61" transform="translate(2352.34375 0)"/>
     <use xlink:href="#DejaVuSans-Bold-63" transform="translate(2419.824219 0)"/>
     <use xlink:href="#DejaVuSans-Bold-69" transform="translate(2479.101562 0)"/>
     <use xlink:href="#DejaVuSans-Bold-f3" transform="translate(2513.378906 0)"/>
     <use xlink:href="#DejaVuSans-Bold-6e" transform="translate(2582.080078 0)"/>
    </g>
   </g>
   <g id="text_6">
    <!-- El tiempo no es -->
    <g transform="translate(587.313562 196.481475) scale(0.18 -0.18)">
     <defs>
      <path id="DejaVuSans-Oblique-45" d="M 1081 4666 
L 4031 4666 
L 3928 4134 
L 1606 4134 
L 1338 2753 
L 3566 2753 
L 3463 2222 
L 1234 2222 
L 909 531 
L 3284 531 
L 3181 0 
L 172 0 
L 1081 4666 
z
" transform="scale(0.015625)"/>
      <path id="DejaVuSans-Oblique-6c" d="M 1172 4863 
L 1747 4863 
L 800 0 
L 225 0 
L 1172 4863 
z
" transform="scale(0.015625)"/>
      <path id="DejaVuSans-Oblique-20" transform="scale(0.015625)"/>
      <path id="DejaVuSans-Oblique-74" d="M 2706 3500 
L 2619 3053 
L 1472 3053 
L 1100 1153 
Q 1081 1047 1072 975 
Q 1063 903 1063 863 
Q 1063 663 1183 572 
Q 1303 481 1569 481 
L 2150 481 
L 2053 0 
L 1503 0 
Q 991 0 739 200 
Q 488 400 488 806 
Q 488 878 497 964 
Q 506 1050 525 1153 
L 897 3053 
L 409 3053 
L 500 3500 
L 978 3500 
L 1172 4494 
L 1747 4494 
L 1556 3500 
L 2706 3500 
z
" transform="scale(0.015625)"/>
      <path id="DejaVuSans-Oblique-69" d="M 1172 4863 
L 1747 4863 
L 1606 4134 
L 1031 4134 
L 1172 4863 
z
M 909 3500 
L 1484 3500 
L 800 0 
L 225 0 
L 909 3500 
z
" transform="scale(0.015625)"/>
      <path id="DejaVuSans-Oblique-65" d="M 3078 2063 
Q 3088 2113 3092 2166 
Q 3097 2219 3097 2272 
Q 3097 2653 2873 2875 
Q 2650 3097 2266 3097 
Q 1838 3097 1509 2826 
Q 1181 2556 1013 2059 
L 3078 2063 
z
M 3578 1613 
L 903 1613 
Q 884 1494 878 1425 
Q 872 1356 872 1306 
Q 872 872 1139 634 
Q 1406 397 1894 397 
Q 2269 397 2603 481 
Q 2938 566 3225 728 
L 3116 159 
Q 2806 34 2476 -28 
Q 2147 -91 1806 -91 
Q 1078 -91 686 257 
Q 294 606 294 1247 
Q 294 1794 489 2264 
Q 684 2734 1063 3103 
Q 1306 3334 1642 3459 
Q 1978 3584 2356 3584 
Q 2950 3584 3301 3228 
Q 3653 2872 3653 2272 
Q 3653 2128 3634 1964 
Q 3616 1800 3578 1613 
z
" transform="scale(0.015625)"/>
      <path id="DejaVuSans-Oblique-6d" d="M 5747 2113 
L 5338 0 
L 4763 0 
L 5166 2094 
Q 5191 2228 5203 2325 
Q 5216 2422 5216 2491 
Q 5216 2772 5059 2928 
Q 4903 3084 4622 3084 
Q 4203 3084 3875 2770 
Q 3547 2456 3450 1953 
L 3066 0 
L 2491 0 
L 2900 2094 
Q 2925 2209 2937 2307 
Q 2950 2406 2950 2484 
Q 2950 2769 2794 2926 
Q 2638 3084 2363 3084 
Q 1938 3084 1609 2770 
Q 1281 2456 1184 1953 
L 800 0 
L 225 0 
L 909 3500 
L 1484 3500 
L 1375 2956 
Q 1609 3263 1923 3423 
Q 2238 3584 2597 3584 
Q 2978 3584 3223 3384 
Q 3469 3184 3519 2828 
Q 3781 3197 4126 3390 
Q 4472 3584 4856 3584 
Q 5306 3584 5551 3325 
Q 5797 3066 5797 2591 
Q 5797 2488 5784 2364 
Q 5772 2241 5747 2113 
z
" transform="scale(0.015625)"/>
      <path id="DejaVuSans-Oblique-70" d="M 3175 2156 
Q 3175 2616 2975 2859 
Q 2775 3103 2400 3103 
Q 2144 3103 1911 2972 
Q 1678 2841 1497 2591 
Q 1319 2344 1212 1994 
Q 1106 1644 1106 1300 
Q 1106 863 1306 627 
Q 1506 391 1875 391 
Q 2147 391 2380 519 
Q 2613 647 2778 891 
Q 2956 1147 3065 1494 
Q 3175 1841 3175 2156 
z
M 1394 2969 
Q 1625 3272 1939 3428 
Q 2253 3584 2638 3584 
Q 3175 3584 3472 3232 
Q 3769 2881 3769 2247 
Q 3769 1728 3584 1258 
Q 3400 788 3053 416 
Q 2822 169 2531 39 
Q 2241 -91 1919 -91 
Q 1547 -91 1294 64 
Q 1041 219 916 525 
L 556 -1331 
L -19 -1331 
L 922 3500 
L 1497 3500 
L 1394 2969 
z
" transform="scale(0.015625)"/>
      <path id="DejaVuSans-Oblique-6f" d="M 1625 -91 
Q 1009 -91 651 289 
Q 294 669 294 1325 
Q 294 1706 417 2101 
Q 541 2497 738 2766 
Q 1047 3184 1428 3384 
Q 1809 3584 2291 3584 
Q 2888 3584 3255 3212 
Q 3622 2841 3622 2241 
Q 3622 1825 3500 1412 
Q 3378 1000 3181 728 
Q 2875 309 2494 109 
Q 2113 -91 1625 -91 
z
M 891 1344 
Q 891 869 1089 633 
Q 1288 397 1691 397 
Q 2269 397 2648 901 
Q 3028 1406 3028 2181 
Q 3028 2634 2825 2865 
Q 2622 3097 2228 3097 
Q 1903 3097 1650 2945 
Q 1397 2794 1197 2484 
Q 1050 2253 970 1956 
Q 891 1659 891 1344 
z
" transform="scale(0.015625)"/>
      <path id="DejaVuSans-Oblique-6e" d="M 3566 2113 
L 3156 0 
L 2578 0 
L 2988 2091 
Q 3016 2238 3031 2350 
Q 3047 2463 3047 2528 
Q 3047 2791 2881 2937 
Q 2716 3084 2419 3084 
Q 1956 3084 1622 2776 
Q 1288 2469 1184 1941 
L 800 0 
L 225 0 
L 903 3500 
L 1478 3500 
L 1363 2950 
Q 1603 3253 1940 3418 
Q 2278 3584 2650 3584 
Q 3113 3584 3367 3334 
Q 3622 3084 3622 2631 
Q 3622 2519 3608 2391 
Q 3594 2263 3566 2113 
z
" transform="scale(0.015625)"/>
      <path id="DejaVuSans-Oblique-73" d="M 3200 3397 
L 3091 2853 
Q 2863 2978 2609 3040 
Q 2356 3103 2088 3103 
Q 1634 3103 1373 2948 
Q 1113 2794 1113 2528 
Q 1113 2219 1719 2053 
Q 1766 2041 1788 2034 
L 1972 1978 
Q 2547 1819 2739 1644 
Q 2931 1469 2931 1166 
Q 2931 609 2489 259 
Q 2047 -91 1331 -91 
Q 1053 -91 747 -37 
Q 441 16 72 128 
L 184 722 
Q 500 559 806 475 
Q 1113 391 1394 391 
Q 1816 391 2080 572 
Q 2344 753 2344 1031 
Q 2344 1331 1650 1516 
L 1591 1531 
L 1394 1581 
Q 956 1697 753 1886 
Q 550 2075 550 2369 
Q 550 2928 970 3256 
Q 1391 3584 2113 3584 
Q 2397 3584 2667 3537 
Q 2938 3491 3200 3397 
z
" transform="scale(0.015625)"/>
     </defs>
     <use xlink:href="#DejaVuSans-Oblique-45"/>
     <use xlink:href="#DejaVuSans-Oblique-6c" transform="translate(63.183594 0)"/>
     <use xlink:href="#DejaVuSans-Oblique-20" transform="translate(90.966797 0)"/>
     <use xlink:href="#DejaVuSans-Oblique-74" transform="translate(122.753906 0)"/>
     <use xlink:href="#DejaVuSans-Oblique-69" transform="translate(161.962891 0)"/>
     <use xlink:href="#DejaVuSans-Oblique-65" transform="translate(189.746094 0)"/>
     <use xlink:href="#DejaVuSans-Oblique-6d" transform="translate(251.269531 0)"/>
     <use xlink:href="#DejaVuSans-Oblique-70" transform="translate(348.681641 0)"/>
     <use xlink:href="#DejaVuSans-Oblique-6f" transform="translate(412.158203 0)"/>
     <use xlink:href="#DejaVuSans-Oblique-20" transform="translate(473.339844 0)"/>
     <use xlink:href="#DejaVuSans-Oblique-6e" transform="translate(505.126953 0)"/>
     <use xlink:href="#DejaVuSans-Oblique-6f" transform="translate(568.505859 0)"/>
     <use xlink:href="#DejaVuSans-Oblique-20" transform="translate(629.6875 0)"/>
     <use xlink:href="#DejaVuSans-Oblique-65" transform="translate(661.474609 0)"/>
     <use xlink:href="#DejaVuSans-Oblique-73" transform="translate(722.998047 0)"/>
    </g>
    <!-- fundamento ontológico -->
    <g transform="translate(552.441375 217.501537) scale(0.18 -0.18)">
     <defs>
      <path id="DejaVuSans-Oblique-66" d="M 3059 4863 
L 2969 4384 
L 2419 4384 
Q 2106 4384 1964 4261 
Q 1822 4138 1753 3809 
L 1691 3500 
L 2638 3500 
L 2553 3053 
L 1606 3053 
L 1013 0 
L 434 0 
L 1031 3053 
L 481 3053 
L 563 3500 
L 1113 3500 
L 1159 3744 
Q 1278 4363 1576 4613 
Q 1875 4863 2516 4863 
L 3059 4863 
z
" transform="scale(0.015625)"/>
      <path id="DejaVuSans-Oblique-75" d="M 428 1388 
L 838 3500 
L 1416 3500 
L 1006 1409 
Q 975 1256 961 1147 
Q 947 1038 947 966 
Q 947 700 1109 554 
Q 1272 409 1569 409 
Q 2031 409 2368 721 
Q 2706 1034 2809 1563 
L 3194 3500 
L 3769 3500 
L 3091 0 
L 2516 0 
L 2631 550 
Q 2388 244 2052 76 
Q 1716 -91 1338 -91 
Q 878 -91 622 161 
Q 366 413 366 863 
Q 366 956 381 1097 
Q 397 1238 428 1388 
z
" transform="scale(0.015625)"/>
      <path id="DejaVuSans-Oblique-64" d="M 2675 525 
Q 2444 222 2128 65 
Q 1813 -91 1428 -91 
Q 903 -91 598 267 
Q 294 625 294 1247 
Q 294 1766 478 2236 
Q 663 2706 1013 3078 
Q 1244 3325 1534 3454 
Q 1825 3584 2144 3584 
Q 2481 3584 2739 3421 
Q 2997 3259 3138 2956 
L 3513 4863 
L 4091 4863 
L 3144 0 
L 2566 0 
L 2675 525 
z
M 891 1350 
Q 891 897 1095 644 
Q 1300 391 1663 391 
Q 1931 391 2161 520 
Q 2391 650 2566 903 
Q 2750 1166 2856 1509 
Q 2963 1853 2963 2188 
Q 2963 2622 2758 2865 
Q 2553 3109 2194 3109 
Q 1922 3109 1687 2981 
Q 1453 2853 1288 2613 
Q 1106 2353 998 2009 
Q 891 1666 891 1350 
z
" transform="scale(0.015625)"/>
      <path id="DejaVuSans-Oblique-61" d="M 3438 1997 
L 3047 0 
L 2472 0 
L 2578 531 
Q 2325 219 2001 64 
Q 1678 -91 1281 -91 
Q 834 -91 548 182 
Q 263 456 263 884 
Q 263 1497 752 1853 
Q 1241 2209 2100 2209 
L 2900 2209 
L 2931 2363 
Q 2938 2388 2941 2417 
Q 2944 2447 2944 2509 
Q 2944 2788 2717 2942 
Q 2491 3097 2081 3097 
Q 1800 3097 1504 3025 
Q 1209 2953 897 2809 
L 997 3341 
Q 1322 3463 1633 3523 
Q 1944 3584 2234 3584 
Q 2853 3584 3176 3315 
Q 3500 3047 3500 2534 
Q 3500 2431 3484 2292 
Q 3469 2153 3438 1997 
z
M 2816 1759 
L 2241 1759 
Q 1534 1759 1195 1570 
Q 856 1381 856 984 
Q 856 709 1029 553 
Q 1203 397 1509 397 
Q 1978 397 2328 733 
Q 2678 1069 2791 1631 
L 2816 1759 
z
" transform="scale(0.015625)"/>
      <path id="DejaVuSans-Oblique-f3" d="M 1625 -91 
Q 1009 -91 651 289 
Q 294 669 294 1325 
Q 294 1706 417 2101 
Q 541 2497 738 2766 
Q 1047 3184 1428 3384 
Q 1809 3584 2291 3584 
Q 2888 3584 3255 3212 
Q 3622 2841 3622 2241 
Q 3622 1825 3500 1412 
Q 3378 1000 3181 728 
Q 2875 309 2494 109 
Q 2113 -91 1625 -91 
z
M 891 1344 
Q 891 869 1089 633 
Q 1288 397 1691 397 
Q 2269 397 2648 901 
Q 3028 1406 3028 2181 
Q 3028 2634 2825 2865 
Q 2622 3097 2228 3097 
Q 1903 3097 1650 2945 
Q 1397 2794 1197 2484 
Q 1050 2253 970 1956 
Q 891 1659 891 1344 
z
M 3079 5119 
L 3701 5119 
L 2454 3944 
L 1973 3944 
L 3079 5119 
z
" transform="scale(0.015625)"/>
      <path id="DejaVuSans-Oblique-67" d="M 3816 3500 
L 3219 434 
Q 3047 -456 2561 -893 
Q 2075 -1331 1253 -1331 
Q 950 -1331 690 -1286 
Q 431 -1241 206 -1147 
L 313 -588 
Q 525 -725 762 -790 
Q 1000 -856 1269 -856 
Q 1816 -856 2167 -557 
Q 2519 -259 2631 300 
L 2681 563 
Q 2441 288 2122 144 
Q 1803 0 1434 0 
Q 903 0 598 351 
Q 294 703 294 1319 
Q 294 1803 478 2267 
Q 663 2731 997 3091 
Q 1219 3328 1514 3456 
Q 1809 3584 2131 3584 
Q 2484 3584 2746 3420 
Q 3009 3256 3138 2956 
L 3238 3500 
L 3816 3500 
z
M 2950 2216 
Q 2950 2641 2750 2872 
Q 2550 3103 2181 3103 
Q 1953 3103 1747 3012 
Q 1541 2922 1394 2759 
Q 1156 2491 1023 2127 
Q 891 1763 891 1375 
Q 891 944 1092 712 
Q 1294 481 1672 481 
Q 2219 481 2584 976 
Q 2950 1472 2950 2216 
z
" transform="scale(0.015625)"/>
      <path id="DejaVuSans-Oblique-63" d="M 3431 3366 
L 3316 2797 
Q 3109 2947 2876 3022 
Q 2644 3097 2394 3097 
Q 2119 3097 1870 3000 
Q 1622 2903 1453 2725 
Q 1184 2453 1037 2087 
Q 891 1722 891 1331 
Q 891 859 1127 628 
Q 1363 397 1844 397 
Q 2081 397 2348 469 
Q 2616 541 2906 684 
L 2797 116 
Q 2547 13 2283 -39 
Q 2019 -91 1741 -91 
Q 1044 -91 669 257 
Q 294 606 294 1253 
Q 294 1797 489 2255 
Q 684 2713 1069 3078 
Q 1331 3328 1684 3456 
Q 2038 3584 2456 3584 
Q 2700 3584 2940 3529 
Q 3181 3475 3431 3366 
z
" transform="scale(0.015625)"/>
     </defs>
     <use xlink:href="#DejaVuSans-Oblique-66"/>
     <use xlink:href="#DejaVuSans-Oblique-75" transform="translate(35.205078 0)"/>
     <use xlink:href="#DejaVuSans-Oblique-6e" transform="translate(98.583984 0)"/>
     <use xlink:href="#DejaVuSans-Oblique-64" transform="translate(161.962891 0)"/>
     <use xlink:href="#DejaVuSans-Oblique-61" transform="translate(225.439453 0)"/>
     <use xlink:href="#DejaVuSans-Oblique-6d" transform="translate(286.71875 0)"/>
     <use xlink:href="#DejaVuSans-Oblique-65" transform="translate(384.130859 0)"/>
     <use xlink:href="#DejaVuSans-Oblique-6e" transform="translate(445.654297 0)"/>
     <use xlink:href="#DejaVuSans-Oblique-74" transform="translate(509.033203 0)"/>
     <use xlink:href="#DejaVuSans-Oblique-6f" transform="translate(548.242188 0)"/>
     <use xlink:href="#DejaVuSans-Oblique-20" transform="translate(609.423828 0)"/>
     <use xlink:href="#DejaVuSans-Oblique-6f" transform="translate(641.210938 0)"/>
     <use xlink:href="#DejaVuSans-Oblique-6e" transform="translate(702.392578 0)"/>
     <use xlink:href="#DejaVuSans-Oblique-74" transform="translate(765.771484 0)"/>
     <use xlink:href="#DejaVuSans-Oblique-6f" transform="translate(804.980469 0)"/>
     <use xlink:href="#DejaVuSans-Oblique-6c" transform="translate(866.162109 0)"/>
     <use xlink:href="#DejaVuSans-Oblique-f3" transform="translate(893.945312 0)"/>
     <use xlink:href="#DejaVuSans-Oblique-67" transform="translate(955.126953 0)"/>
     <use xlink:href="#DejaVuSans-Oblique-69" transform="translate(1018.603516 0)"/>
     <use xlink:href="#DejaVuSans-Oblique-63" transform="translate(1046.386719 0)"/>
     <use xlink:href="#DejaVuSans-Oblique-6f" transform="translate(1101.367188 0)"/>
    </g>
    <!-- del cambio -->
    <g transform="translate(607.508719 237.6576) scale(0.18 -0.18)">
     <defs>
      <path id="DejaVuSans-Oblique-62" d="M 3169 2138 
Q 3169 2591 2961 2847 
Q 2753 3103 2388 3103 
Q 2122 3103 1889 2973 
Q 1656 2844 1484 2597 
Q 1303 2338 1198 1995 
Q 1094 1653 1094 1313 
Q 1094 881 1298 636 
Q 1503 391 1863 391 
Q 2134 391 2365 517 
Q 2597 644 2772 891 
Q 2950 1147 3059 1487 
Q 3169 1828 3169 2138 
z
M 1381 2969 
Q 1594 3256 1914 3420 
Q 2234 3584 2584 3584 
Q 3122 3584 3439 3221 
Q 3756 2859 3756 2241 
Q 3756 1734 3570 1259 
Q 3384 784 3041 416 
Q 2816 172 2522 40 
Q 2228 -91 1906 -91 
Q 1566 -91 1316 65 
Q 1066 222 909 531 
L 806 0 
L 231 0 
L 1178 4863 
L 1753 4863 
L 1381 2969 
z
" transform="scale(0.015625)"/>
     </defs>
     <use xlink:href="#DejaVuSans-Oblique-64"/>
     <use xlink:href="#DejaVuSans-Oblique-65" transform="translate(63.476562 0)"/>
     <use xlink:href="#DejaVuSans-Oblique-6c" transform="translate(125 0)"/>
     <use xlink:href="#DejaVuSans-Oblique-20" transform="translate(152.783203 0)"/>
     <use xlink:href="#DejaVuSans-Oblique-63" transform="translate(184.570312 0)"/>
     <use xlink:href="#DejaVuSans-Oblique-61" transform="translate(239.550781 0)"/>
     <use xlink:href="#DejaVuSans-Oblique-6d" transform="translate(300.830078 0)"/>
     <use xlink:href="#DejaVuSans-Oblique-62" transform="translate(398.242188 0)"/>
     <use xlink:href="#DejaVuSans-Oblique-69" transform="translate(461.71875 0)"/>
     <use xlink:href="#DejaVuSans-Oblique-6f" transform="translate(489.501953 0)"/>
    </g>
   </g>
  </g>
 </g>
 <defs>
  <clipPath id="pf2788cbcfe">
   <rect x="108" y="69.12" width="669.6" height="443.52"/>
  </clipPath>
 </defs>
</svg>
