<?xml version="1.0" encoding="utf-8" standalone="no"?>
<!DOCTYPE svg PUBLIC "-//W3C//DTD SVG 1.1//EN"
  "http://www.w3.org/Graphics/SVG/1.1/DTD/svg11.dtd">
<svg xmlns:xlink="http://www.w3.org/1999/xlink" width="864pt" height="576pt" viewBox="0 0 864 576" xmlns="http://www.w3.org/2000/svg" version="1.1">
 <metadata>
  <rdf:RDF xmlns:dc="http://purl.org/dc/elements/1.1/" xmlns:cc="http://creativecommons.org/ns#" xmlns:rdf="http://www.w3.org/1999/02/22-rdf-syntax-ns#">
   <cc:Work>
    <dc:type rdf:resource="http://purl.org/dc/dcmitype/StillImage"/>
    <dc:date>2026-03-20T21:25:26.226321</dc:date>
    <dc:format>image/svg+xml</dc:format>
    <dc:creator>
     <cc:Agent>
      <dc:title>Matplotlib v3.10.8, https://matplotlib.org/</dc:title>
     </cc:Agent>
    </dc:creator>
   </cc:Work>
  </rdf:RDF>
 </metadata>
 <defs>
  <style type="text/css">*{stroke-linejoin: round; stroke-linecap: butt}</style>
 </defs>
 <g id="figure_1">
  <g id="patch_1">
   <path d="M 0 576 
L 864 576 
L 864 0 
L 0 0 
z
" style="fill: #ffffff"/>
  </g>
  <g id="axes_1">
   <g id="patch_2">
    <path d="M 338.3424 329.02272 
L 547.2576 329.02272 
Q 560.6496 329.02272 560.6496 320.15232 
L 560.6496 252.73728 
Q 560.6496 243.86688 547.2576 243.86688 
L 338.3424 243.86688 
Q 324.9504 243.86688 324.9504 252.73728 
L 324.9504 320.15232 
Q 324.9504 329.02272 338.3424 329.02272 
z
" clip-path="url(#p7638149afb)" style="fill: #f7f7f7; stroke: #000000; stroke-width: 2.5; stroke-linejoin: miter"/>
   </g>
   <g id="patch_3">
    <path d="M 197.7264 195.96672 
L 272.7216 195.96672 
Q 286.1136 195.96672 286.1136 187.09632 
L 286.1136 155.16288 
Q 286.1136 146.29248 272.7216 146.29248 
L 197.7264 146.29248 
Q 184.3344 146.29248 184.3344 155.16288 
L 184.3344 187.09632 
Q 184.3344 195.96672 197.7264 195.96672 
z
" clip-path="url(#p7638149afb)" style="fill: #fff0f0; stroke: #000000; stroke-width: 2.5; stroke-linejoin: miter"/>
   </g>
   <g id="patch_4">
    <path d="M 626.2704 195.96672 
L 701.2656 195.96672 
Q 714.6576 195.96672 714.6576 187.09632 
L 714.6576 155.16288 
Q 714.6576 146.29248 701.2656 146.29248 
L 626.2704 146.29248 
Q 612.8784 146.29248 612.8784 155.16288 
L 612.8784 187.09632 
Q 612.8784 195.96672 626.2704 195.96672 
z
" clip-path="url(#p7638149afb)" style="fill: #fff0f0; stroke: #000000; stroke-width: 2.5; stroke-linejoin: miter"/>
   </g>
   <g id="patch_5">
    <path d="M 626.2704 444.33792 
L 701.2656 444.33792 
Q 714.6576 444.33792 714.6576 435.46752 
L 714.6576 403.53408 
Q 714.6576 394.66368 701.2656 394.66368 
L 626.2704 394.66368 
Q 612.8784 394.66368 612.8784 403.53408 
L 612.8784 435.46752 
Q 612.8784 444.33792 626.2704 444.33792 
z
" clip-path="url(#p7638149afb)" style="fill: #fff0f0; stroke: #000000; stroke-width: 2.5; stroke-linejoin: miter"/>
   </g>
   <g id="patch_6">
    <path d="M 184.3344 444.33792 
L 259.3296 444.33792 
Q 272.7216 444.33792 272.7216 435.46752 
L 272.7216 403.53408 
Q 272.7216 394.66368 259.3296 394.66368 
L 184.3344 394.66368 
Q 170.9424 394.66368 170.9424 403.53408 
L 170.9424 435.46752 
Q 170.9424 444.33792 184.3344 444.33792 
z
" clip-path="url(#p7638149afb)" style="fill: #fff0f0; stroke: #000000; stroke-width: 2.5; stroke-linejoin: miter"/>
   </g>
   <g id="patch_7">
    <path d="M 237.051566 194.125627 
Q 339.013766 239.875993 439.037862 284.756731 
" clip-path="url(#p7638149afb)" style="fill: none; stroke-dasharray: 7.03,3.04; stroke-dashoffset: 0; stroke: #000000; stroke-width: 1.9; stroke-linecap: round"/>
    <path d="M 433.942593 278.524699 
L 439.037862 284.756731 
L 430.995074 285.093727 
z
" clip-path="url(#p7638149afb)" style="fill: #1f77b4; stroke-dasharray: 7.03,3.04; stroke-dashoffset: 0; stroke: #000000; stroke-width: 1.9; stroke-linecap: round"/>
   </g>
   <g id="patch_8">
    <path d="M 661.923678 194.082992 
Q 553.28299 239.875626 446.599783 284.843171 
" clip-path="url(#p7638149afb)" style="fill: none; stroke-dasharray: 7.03,3.04; stroke-dashoffset: 0; stroke: #000000; stroke-width: 1.9; stroke-linecap: round"/>
    <path d="M 454.632764 285.363959 
L 446.599783 284.843171 
L 451.836202 278.729259 
z
" clip-path="url(#p7638149afb)" style="fill: #1f77b4; stroke-dasharray: 7.03,3.04; stroke-dashoffset: 0; stroke: #000000; stroke-width: 1.9; stroke-linecap: round"/>
   </g>
   <g id="patch_9">
    <path d="M 661.977625 396.426404 
Q 553.283436 341.884517 446.487883 288.295351 
" clip-path="url(#p7638149afb)" style="fill: none; stroke-dasharray: 7.03,3.04; stroke-dashoffset: 0; stroke: #000000; stroke-width: 1.9; stroke-linecap: round"/>
    <path d="M 451.308559 294.742139 
L 446.487883 288.295351 
L 454.53772 288.306883 
z
" clip-path="url(#p7638149afb)" style="fill: #1f77b4; stroke-dasharray: 7.03,3.04; stroke-dashoffset: 0; stroke: #000000; stroke-width: 1.9; stroke-linecap: round"/>
   </g>
   <g id="patch_10">
    <path d="M 223.622375 396.426404 
Q 332.316564 341.884517 439.112117 288.295351 
" clip-path="url(#p7638149afb)" style="fill: none; stroke-dasharray: 7.03,3.04; stroke-dashoffset: 0; stroke: #000000; stroke-width: 1.9; stroke-linecap: round"/>
    <path d="M 431.06228 288.306883 
L 439.112117 288.295351 
L 434.291441 294.742139 
z
" clip-path="url(#p7638149afb)" style="fill: #1f77b4; stroke-dasharray: 7.03,3.04; stroke-dashoffset: 0; stroke: #000000; stroke-width: 1.9; stroke-linecap: round"/>
   </g>
   <g id="text_1">
    <!-- Frente de corpus -->
    <g transform="translate(347.35 280.765738) scale(0.2 -0.2)">
     <defs>
      <path id="DejaVuSans-Bold-46" d="M 588 4666 
L 3834 4666 
L 3834 3756 
L 1791 3756 
L 1791 2888 
L 3713 2888 
L 3713 1978 
L 1791 1978 
L 1791 0 
L 588 0 
L 588 4666 
z
" transform="scale(0.015625)"/>
      <path id="DejaVuSans-Bold-72" d="M 3138 2547 
Q 2991 2616 2845 2648 
Q 2700 2681 2553 2681 
Q 2122 2681 1889 2404 
Q 1656 2128 1656 1613 
L 1656 0 
L 538 0 
L 538 3500 
L 1656 3500 
L 1656 2925 
Q 1872 3269 2151 3426 
Q 2431 3584 2822 3584 
Q 2878 3584 2943 3579 
Q 3009 3575 3134 3559 
L 3138 2547 
z
" transform="scale(0.015625)"/>
      <path id="DejaVuSans-Bold-65" d="M 4031 1759 
L 4031 1441 
L 1416 1441 
Q 1456 1047 1700 850 
Q 1944 653 2381 653 
Q 2734 653 3104 758 
Q 3475 863 3866 1075 
L 3866 213 
Q 3469 63 3072 -14 
Q 2675 -91 2278 -91 
Q 1328 -91 801 392 
Q 275 875 275 1747 
Q 275 2603 792 3093 
Q 1309 3584 2216 3584 
Q 3041 3584 3536 3087 
Q 4031 2591 4031 1759 
z
M 2881 2131 
Q 2881 2450 2695 2645 
Q 2509 2841 2209 2841 
Q 1884 2841 1681 2658 
Q 1478 2475 1428 2131 
L 2881 2131 
z
" transform="scale(0.015625)"/>
      <path id="DejaVuSans-Bold-6e" d="M 4056 2131 
L 4056 0 
L 2931 0 
L 2931 347 
L 2931 1631 
Q 2931 2084 2911 2256 
Q 2891 2428 2841 2509 
Q 2775 2619 2662 2680 
Q 2550 2741 2406 2741 
Q 2056 2741 1856 2470 
Q 1656 2200 1656 1722 
L 1656 0 
L 538 0 
L 538 3500 
L 1656 3500 
L 1656 2988 
Q 1909 3294 2193 3439 
Q 2478 3584 2822 3584 
Q 3428 3584 3742 3212 
Q 4056 2841 4056 2131 
z
" transform="scale(0.015625)"/>
      <path id="DejaVuSans-Bold-74" d="M 1759 4494 
L 1759 3500 
L 2913 3500 
L 2913 2700 
L 1759 2700 
L 1759 1216 
Q 1759 972 1856 886 
Q 1953 800 2241 800 
L 2816 800 
L 2816 0 
L 1856 0 
Q 1194 0 917 276 
Q 641 553 641 1216 
L 641 2700 
L 84 2700 
L 84 3500 
L 641 3500 
L 641 4494 
L 1759 4494 
z
" transform="scale(0.015625)"/>
      <path id="DejaVuSans-Bold-20" transform="scale(0.015625)"/>
      <path id="DejaVuSans-Bold-64" d="M 2919 2988 
L 2919 4863 
L 4044 4863 
L 4044 0 
L 2919 0 
L 2919 506 
Q 2688 197 2409 53 
Q 2131 -91 1766 -91 
Q 1119 -91 703 423 
Q 288 938 288 1747 
Q 288 2556 703 3070 
Q 1119 3584 1766 3584 
Q 2128 3584 2408 3439 
Q 2688 3294 2919 2988 
z
M 2181 722 
Q 2541 722 2730 984 
Q 2919 1247 2919 1747 
Q 2919 2247 2730 2509 
Q 2541 2772 2181 2772 
Q 1825 2772 1636 2509 
Q 1447 2247 1447 1747 
Q 1447 1247 1636 984 
Q 1825 722 2181 722 
z
" transform="scale(0.015625)"/>
      <path id="DejaVuSans-Bold-63" d="M 3366 3391 
L 3366 2478 
Q 3138 2634 2908 2709 
Q 2678 2784 2431 2784 
Q 1963 2784 1702 2511 
Q 1441 2238 1441 1747 
Q 1441 1256 1702 982 
Q 1963 709 2431 709 
Q 2694 709 2930 787 
Q 3166 866 3366 1019 
L 3366 103 
Q 3103 6 2833 -42 
Q 2563 -91 2291 -91 
Q 1344 -91 809 395 
Q 275 881 275 1747 
Q 275 2613 809 3098 
Q 1344 3584 2291 3584 
Q 2566 3584 2833 3536 
Q 3100 3488 3366 3391 
z
" transform="scale(0.015625)"/>
      <path id="DejaVuSans-Bold-6f" d="M 2203 2784 
Q 1831 2784 1636 2517 
Q 1441 2250 1441 1747 
Q 1441 1244 1636 976 
Q 1831 709 2203 709 
Q 2569 709 2762 976 
Q 2956 1244 2956 1747 
Q 2956 2250 2762 2517 
Q 2569 2784 2203 2784 
z
M 2203 3584 
Q 3106 3584 3614 3096 
Q 4122 2609 4122 1747 
Q 4122 884 3614 396 
Q 3106 -91 2203 -91 
Q 1297 -91 786 396 
Q 275 884 275 1747 
Q 275 2609 786 3096 
Q 1297 3584 2203 3584 
z
" transform="scale(0.015625)"/>
      <path id="DejaVuSans-Bold-70" d="M 1656 506 
L 1656 -1331 
L 538 -1331 
L 538 3500 
L 1656 3500 
L 1656 2988 
Q 1888 3294 2169 3439 
Q 2450 3584 2816 3584 
Q 3463 3584 3878 3070 
Q 4294 2556 4294 1747 
Q 4294 938 3878 423 
Q 3463 -91 2816 -91 
Q 2450 -91 2169 54 
Q 1888 200 1656 506 
z
M 2400 2772 
Q 2041 2772 1848 2508 
Q 1656 2244 1656 1747 
Q 1656 1250 1848 986 
Q 2041 722 2400 722 
Q 2759 722 2948 984 
Q 3138 1247 3138 1747 
Q 3138 2247 2948 2509 
Q 2759 2772 2400 2772 
z
" transform="scale(0.015625)"/>
      <path id="DejaVuSans-Bold-75" d="M 500 1363 
L 500 3500 
L 1625 3500 
L 1625 3150 
Q 1625 2866 1622 2436 
Q 1619 2006 1619 1863 
Q 1619 1441 1641 1255 
Q 1663 1069 1716 984 
Q 1784 875 1895 815 
Q 2006 756 2150 756 
Q 2500 756 2700 1025 
Q 2900 1294 2900 1772 
L 2900 3500 
L 4019 3500 
L 4019 0 
L 2900 0 
L 2900 506 
Q 2647 200 2364 54 
Q 2081 -91 1741 -91 
Q 1134 -91 817 281 
Q 500 653 500 1363 
z
" transform="scale(0.015625)"/>
      <path id="DejaVuSans-Bold-73" d="M 3272 3391 
L 3272 2541 
Q 2913 2691 2578 2766 
Q 2244 2841 1947 2841 
Q 1628 2841 1473 2761 
Q 1319 2681 1319 2516 
Q 1319 2381 1436 2309 
Q 1553 2238 1856 2203 
L 2053 2175 
Q 2913 2066 3209 1816 
Q 3506 1566 3506 1031 
Q 3506 472 3093 190 
Q 2681 -91 1863 -91 
Q 1516 -91 1145 -36 
Q 775 19 384 128 
L 384 978 
Q 719 816 1070 734 
Q 1422 653 1784 653 
Q 2113 653 2278 743 
Q 2444 834 2444 1013 
Q 2444 1163 2330 1236 
Q 2216 1309 1875 1350 
L 1678 1375 
Q 931 1469 631 1722 
Q 331 1975 331 2491 
Q 331 3047 712 3315 
Q 1094 3584 1881 3584 
Q 2191 3584 2531 3537 
Q 2872 3491 3272 3391 
z
" transform="scale(0.015625)"/>
     </defs>
     <use xlink:href="#DejaVuSans-Bold-46"/>
     <use xlink:href="#DejaVuSans-Bold-72" transform="translate(61.935547 0)"/>
     <use xlink:href="#DejaVuSans-Bold-65" transform="translate(111.251953 0)"/>
     <use xlink:href="#DejaVuSans-Bold-6e" transform="translate(179.074219 0)"/>
     <use xlink:href="#DejaVuSans-Bold-74" transform="translate(250.265625 0)"/>
     <use xlink:href="#DejaVuSans-Bold-65" transform="translate(298.068359 0)"/>
     <use xlink:href="#DejaVuSans-Bold-20" transform="translate(365.890625 0)"/>
     <use xlink:href="#DejaVuSans-Bold-64" transform="translate(400.705078 0)"/>
     <use xlink:href="#DejaVuSans-Bold-65" transform="translate(472.287109 0)"/>
     <use xlink:href="#DejaVuSans-Bold-20" transform="translate(540.109375 0)"/>
     <use xlink:href="#DejaVuSans-Bold-63" transform="translate(574.923828 0)"/>
     <use xlink:href="#DejaVuSans-Bold-6f" transform="translate(634.201172 0)"/>
     <use xlink:href="#DejaVuSans-Bold-72" transform="translate(702.902344 0)"/>
     <use xlink:href="#DejaVuSans-Bold-70" transform="translate(752.21875 0)"/>
     <use xlink:href="#DejaVuSans-Bold-75" transform="translate(823.800781 0)"/>
     <use xlink:href="#DejaVuSans-Bold-73" transform="translate(894.992188 0)"/>
    </g>
    <!-- observacional tipado -->
    <g transform="translate(324.69375 303.161362) scale(0.2 -0.2)">
     <defs>
      <path id="DejaVuSans-Bold-62" d="M 2400 722 
Q 2759 722 2948 984 
Q 3138 1247 3138 1747 
Q 3138 2247 2948 2509 
Q 2759 2772 2400 2772 
Q 2041 2772 1848 2508 
Q 1656 2244 1656 1747 
Q 1656 1250 1848 986 
Q 2041 722 2400 722 
z
M 1656 2988 
Q 1888 3294 2169 3439 
Q 2450 3584 2816 3584 
Q 3463 3584 3878 3070 
Q 4294 2556 4294 1747 
Q 4294 938 3878 423 
Q 3463 -91 2816 -91 
Q 2450 -91 2169 54 
Q 1888 200 1656 506 
L 1656 0 
L 538 0 
L 538 4863 
L 1656 4863 
L 1656 2988 
z
" transform="scale(0.015625)"/>
      <path id="DejaVuSans-Bold-76" d="M 97 3500 
L 1216 3500 
L 2088 1081 
L 2956 3500 
L 4078 3500 
L 2700 0 
L 1472 0 
L 97 3500 
z
" transform="scale(0.015625)"/>
      <path id="DejaVuSans-Bold-61" d="M 2106 1575 
Q 1756 1575 1579 1456 
Q 1403 1338 1403 1106 
Q 1403 894 1545 773 
Q 1688 653 1941 653 
Q 2256 653 2472 879 
Q 2688 1106 2688 1447 
L 2688 1575 
L 2106 1575 
z
M 3816 1997 
L 3816 0 
L 2688 0 
L 2688 519 
Q 2463 200 2181 54 
Q 1900 -91 1497 -91 
Q 953 -91 614 226 
Q 275 544 275 1050 
Q 275 1666 698 1953 
Q 1122 2241 2028 2241 
L 2688 2241 
L 2688 2328 
Q 2688 2594 2478 2717 
Q 2269 2841 1825 2841 
Q 1466 2841 1156 2769 
Q 847 2697 581 2553 
L 581 3406 
Q 941 3494 1303 3539 
Q 1666 3584 2028 3584 
Q 2975 3584 3395 3211 
Q 3816 2838 3816 1997 
z
" transform="scale(0.015625)"/>
      <path id="DejaVuSans-Bold-69" d="M 538 3500 
L 1656 3500 
L 1656 0 
L 538 0 
L 538 3500 
z
M 538 4863 
L 1656 4863 
L 1656 3950 
L 538 3950 
L 538 4863 
z
" transform="scale(0.015625)"/>
      <path id="DejaVuSans-Bold-6c" d="M 538 4863 
L 1656 4863 
L 1656 0 
L 538 0 
L 538 4863 
z
" transform="scale(0.015625)"/>
     </defs>
     <use xlink:href="#DejaVuSans-Bold-6f"/>
     <use xlink:href="#DejaVuSans-Bold-62" transform="translate(68.701172 0)"/>
     <use xlink:href="#DejaVuSans-Bold-73" transform="translate(140.283203 0)"/>
     <use xlink:href="#DejaVuSans-Bold-65" transform="translate(199.804688 0)"/>
     <use xlink:href="#DejaVuSans-Bold-72" transform="translate(267.626953 0)"/>
     <use xlink:href="#DejaVuSans-Bold-76" transform="translate(316.943359 0)"/>
     <use xlink:href="#DejaVuSans-Bold-61" transform="translate(382.128906 0)"/>
     <use xlink:href="#DejaVuSans-Bold-63" transform="translate(449.609375 0)"/>
     <use xlink:href="#DejaVuSans-Bold-69" transform="translate(508.886719 0)"/>
     <use xlink:href="#DejaVuSans-Bold-6f" transform="translate(543.164062 0)"/>
     <use xlink:href="#DejaVuSans-Bold-6e" transform="translate(611.865234 0)"/>
     <use xlink:href="#DejaVuSans-Bold-61" transform="translate(683.056641 0)"/>
     <use xlink:href="#DejaVuSans-Bold-6c" transform="translate(750.537109 0)"/>
     <use xlink:href="#DejaVuSans-Bold-20" transform="translate(784.814453 0)"/>
     <use xlink:href="#DejaVuSans-Bold-74" transform="translate(819.628906 0)"/>
     <use xlink:href="#DejaVuSans-Bold-69" transform="translate(867.431641 0)"/>
     <use xlink:href="#DejaVuSans-Bold-70" transform="translate(901.708984 0)"/>
     <use xlink:href="#DejaVuSans-Bold-61" transform="translate(973.291016 0)"/>
     <use xlink:href="#DejaVuSans-Bold-64" transform="translate(1040.771484 0)"/>
     <use xlink:href="#DejaVuSans-Bold-6f" transform="translate(1112.353516 0)"/>
    </g>
   </g>
   <g id="text_2">
    <!-- No API -->
    <g transform="translate(207.091969 175.268663) scale(0.15 -0.15)">
     <defs>
      <path id="DejaVuSans-Bold-4e" d="M 588 4666 
L 1931 4666 
L 3628 1466 
L 3628 4666 
L 4769 4666 
L 4769 0 
L 3425 0 
L 1728 3200 
L 1728 0 
L 588 0 
L 588 4666 
z
" transform="scale(0.015625)"/>
      <path id="DejaVuSans-Bold-41" d="M 3419 850 
L 1538 850 
L 1241 0 
L 31 0 
L 1759 4666 
L 3194 4666 
L 4922 0 
L 3713 0 
L 3419 850 
z
M 1838 1716 
L 3116 1716 
L 2478 3572 
L 1838 1716 
z
" transform="scale(0.015625)"/>
      <path id="DejaVuSans-Bold-50" d="M 588 4666 
L 2584 4666 
Q 3475 4666 3951 4270 
Q 4428 3875 4428 3144 
Q 4428 2409 3951 2014 
Q 3475 1619 2584 1619 
L 1791 1619 
L 1791 0 
L 588 0 
L 588 4666 
z
M 1791 3794 
L 1791 2491 
L 2456 2491 
Q 2806 2491 2997 2661 
Q 3188 2831 3188 3144 
Q 3188 3456 2997 3625 
Q 2806 3794 2456 3794 
L 1791 3794 
z
" transform="scale(0.015625)"/>
      <path id="DejaVuSans-Bold-49" d="M 588 4666 
L 1791 4666 
L 1791 0 
L 588 0 
L 588 4666 
z
" transform="scale(0.015625)"/>
     </defs>
     <use xlink:href="#DejaVuSans-Bold-4e"/>
     <use xlink:href="#DejaVuSans-Bold-6f" transform="translate(83.691406 0)"/>
     <use xlink:href="#DejaVuSans-Bold-20" transform="translate(152.392578 0)"/>
     <use xlink:href="#DejaVuSans-Bold-41" transform="translate(187.207031 0)"/>
     <use xlink:href="#DejaVuSans-Bold-50" transform="translate(264.599609 0)"/>
     <use xlink:href="#DejaVuSans-Bold-49" transform="translate(337.890625 0)"/>
    </g>
   </g>
   <g id="text_3">
    <!-- No módulo -->
    <g transform="translate(618.328547 175.268663) scale(0.15 -0.15)">
     <defs>
      <path id="DejaVuSans-Bold-6d" d="M 3781 2919 
Q 3994 3244 4286 3414 
Q 4578 3584 4928 3584 
Q 5531 3584 5847 3212 
Q 6163 2841 6163 2131 
L 6163 0 
L 5038 0 
L 5038 1825 
Q 5041 1866 5042 1909 
Q 5044 1953 5044 2034 
Q 5044 2406 4934 2573 
Q 4825 2741 4581 2741 
Q 4263 2741 4089 2478 
Q 3916 2216 3909 1719 
L 3909 0 
L 2784 0 
L 2784 1825 
Q 2784 2406 2684 2573 
Q 2584 2741 2328 2741 
Q 2006 2741 1831 2477 
Q 1656 2213 1656 1722 
L 1656 0 
L 531 0 
L 531 3500 
L 1656 3500 
L 1656 2988 
Q 1863 3284 2130 3434 
Q 2397 3584 2719 3584 
Q 3081 3584 3359 3409 
Q 3638 3234 3781 2919 
z
" transform="scale(0.015625)"/>
      <path id="DejaVuSans-Bold-f3" d="M 2203 2784 
Q 1831 2784 1636 2517 
Q 1441 2250 1441 1747 
Q 1441 1244 1636 976 
Q 1831 709 2203 709 
Q 2569 709 2762 976 
Q 2956 1244 2956 1747 
Q 2956 2250 2762 2517 
Q 2569 2784 2203 2784 
z
M 2203 3584 
Q 3106 3584 3614 3096 
Q 4122 2609 4122 1747 
Q 4122 884 3614 396 
Q 3106 -91 2203 -91 
Q 1297 -91 786 396 
Q 275 884 275 1747 
Q 275 2609 786 3096 
Q 1297 3584 2203 3584 
z
M 2694 5119 
L 3578 5119 
L 2425 3944 
L 1813 3944 
L 2694 5119 
z
" transform="scale(0.015625)"/>
     </defs>
     <use xlink:href="#DejaVuSans-Bold-4e"/>
     <use xlink:href="#DejaVuSans-Bold-6f" transform="translate(83.691406 0)"/>
     <use xlink:href="#DejaVuSans-Bold-20" transform="translate(152.392578 0)"/>
     <use xlink:href="#DejaVuSans-Bold-6d" transform="translate(187.207031 0)"/>
     <use xlink:href="#DejaVuSans-Bold-f3" transform="translate(291.40625 0)"/>
     <use xlink:href="#DejaVuSans-Bold-64" transform="translate(360.107422 0)"/>
     <use xlink:href="#DejaVuSans-Bold-75" transform="translate(431.689453 0)"/>
     <use xlink:href="#DejaVuSans-Bold-6c" transform="translate(502.880859 0)"/>
     <use xlink:href="#DejaVuSans-Bold-6f" transform="translate(537.158203 0)"/>
    </g>
   </g>
   <g id="text_4">
    <!-- No subderivado -->
    <g transform="translate(597.360188 423.639862) scale(0.15 -0.15)">
     <use xlink:href="#DejaVuSans-Bold-4e"/>
     <use xlink:href="#DejaVuSans-Bold-6f" transform="translate(83.691406 0)"/>
     <use xlink:href="#DejaVuSans-Bold-20" transform="translate(152.392578 0)"/>
     <use xlink:href="#DejaVuSans-Bold-73" transform="translate(187.207031 0)"/>
     <use xlink:href="#DejaVuSans-Bold-75" transform="translate(246.728516 0)"/>
     <use xlink:href="#DejaVuSans-Bold-62" transform="translate(317.919922 0)"/>
     <use xlink:href="#DejaVuSans-Bold-64" transform="translate(389.501953 0)"/>
     <use xlink:href="#DejaVuSans-Bold-65" transform="translate(461.083984 0)"/>
     <use xlink:href="#DejaVuSans-Bold-72" transform="translate(528.90625 0)"/>
     <use xlink:href="#DejaVuSans-Bold-69" transform="translate(578.222656 0)"/>
     <use xlink:href="#DejaVuSans-Bold-76" transform="translate(612.5 0)"/>
     <use xlink:href="#DejaVuSans-Bold-61" transform="translate(677.685547 0)"/>
     <use xlink:href="#DejaVuSans-Bold-64" transform="translate(745.166016 0)"/>
     <use xlink:href="#DejaVuSans-Bold-6f" transform="translate(816.748047 0)"/>
    </g>
   </g>
   <g id="text_5">
    <!-- No IA -->
    <g transform="translate(199.197234 415.241503) scale(0.15 -0.15)">
     <use xlink:href="#DejaVuSans-Bold-4e"/>
     <use xlink:href="#DejaVuSans-Bold-6f" transform="translate(83.691406 0)"/>
     <use xlink:href="#DejaVuSans-Bold-20" transform="translate(152.392578 0)"/>
     <use xlink:href="#DejaVuSans-Bold-49" transform="translate(187.207031 0)"/>
     <use xlink:href="#DejaVuSans-Bold-41" transform="translate(224.414062 0)"/>
    </g>
    <!-- estadística -->
    <g transform="translate(175.568719 432.038222) scale(0.15 -0.15)">
     <defs>
      <path id="DejaVuSans-Bold-ed" d="M 538 3500 
L 1656 3500 
L 1656 0 
L 538 0 
L 538 3500 
z
M 1590 5119 
L 2474 5119 
L 1321 3944 
L 709 3944 
L 1590 5119 
z
" transform="scale(0.015625)"/>
     </defs>
     <use xlink:href="#DejaVuSans-Bold-65"/>
     <use xlink:href="#DejaVuSans-Bold-73" transform="translate(67.822266 0)"/>
     <use xlink:href="#DejaVuSans-Bold-74" transform="translate(127.34375 0)"/>
     <use xlink:href="#DejaVuSans-Bold-61" transform="translate(175.146484 0)"/>
     <use xlink:href="#DejaVuSans-Bold-64" transform="translate(242.626953 0)"/>
     <use xlink:href="#DejaVuSans-Bold-ed" transform="translate(314.208984 0)"/>
     <use xlink:href="#DejaVuSans-Bold-73" transform="translate(348.486328 0)"/>
     <use xlink:href="#DejaVuSans-Bold-74" transform="translate(408.007812 0)"/>
     <use xlink:href="#DejaVuSans-Bold-69" transform="translate(455.810547 0)"/>
     <use xlink:href="#DejaVuSans-Bold-63" transform="translate(490.087891 0)"/>
     <use xlink:href="#DejaVuSans-Bold-61" transform="translate(549.365234 0)"/>
    </g>
   </g>
   <g id="text_6">
    <!-- Pieza científica de clarificación, delimitación y prueba de legitimidad -->
    <g transform="translate(167.52875 477.1584) scale(0.16 -0.16)">
     <defs>
      <path id="DejaVuSans-Oblique-50" d="M 1081 4666 
L 2541 4666 
Q 3178 4666 3512 4369 
Q 3847 4072 3847 3500 
Q 3847 2731 3353 2303 
Q 2859 1875 1966 1875 
L 1172 1875 
L 806 0 
L 172 0 
L 1081 4666 
z
M 1613 4147 
L 1275 2394 
L 2069 2394 
Q 2606 2394 2893 2669 
Q 3181 2944 3181 3456 
Q 3181 3784 2986 3965 
Q 2791 4147 2438 4147 
L 1613 4147 
z
" transform="scale(0.015625)"/>
      <path id="DejaVuSans-Oblique-69" d="M 1172 4863 
L 1747 4863 
L 1606 4134 
L 1031 4134 
L 1172 4863 
z
M 909 3500 
L 1484 3500 
L 800 0 
L 225 0 
L 909 3500 
z
" transform="scale(0.015625)"/>
      <path id="DejaVuSans-Oblique-65" d="M 3078 2063 
Q 3088 2113 3092 2166 
Q 3097 2219 3097 2272 
Q 3097 2653 2873 2875 
Q 2650 3097 2266 3097 
Q 1838 3097 1509 2826 
Q 1181 2556 1013 2059 
L 3078 2063 
z
M 3578 1613 
L 903 1613 
Q 884 1494 878 1425 
Q 872 1356 872 1306 
Q 872 872 1139 634 
Q 1406 397 1894 397 
Q 2269 397 2603 481 
Q 2938 566 3225 728 
L 3116 159 
Q 2806 34 2476 -28 
Q 2147 -91 1806 -91 
Q 1078 -91 686 257 
Q 294 606 294 1247 
Q 294 1794 489 2264 
Q 684 2734 1063 3103 
Q 1306 3334 1642 3459 
Q 1978 3584 2356 3584 
Q 2950 3584 3301 3228 
Q 3653 2872 3653 2272 
Q 3653 2128 3634 1964 
Q 3616 1800 3578 1613 
z
" transform="scale(0.015625)"/>
      <path id="DejaVuSans-Oblique-7a" d="M 744 3500 
L 3475 3500 
L 3372 2975 
L 738 459 
L 2913 459 
L 2822 0 
L -19 0 
L 84 525 
L 2719 3041 
L 653 3041 
L 744 3500 
z
" transform="scale(0.015625)"/>
      <path id="DejaVuSans-Oblique-61" d="M 3438 1997 
L 3047 0 
L 2472 0 
L 2578 531 
Q 2325 219 2001 64 
Q 1678 -91 1281 -91 
Q 834 -91 548 182 
Q 263 456 263 884 
Q 263 1497 752 1853 
Q 1241 2209 2100 2209 
L 2900 2209 
L 2931 2363 
Q 2938 2388 2941 2417 
Q 2944 2447 2944 2509 
Q 2944 2788 2717 2942 
Q 2491 3097 2081 3097 
Q 1800 3097 1504 3025 
Q 1209 2953 897 2809 
L 997 3341 
Q 1322 3463 1633 3523 
Q 1944 3584 2234 3584 
Q 2853 3584 3176 3315 
Q 3500 3047 3500 2534 
Q 3500 2431 3484 2292 
Q 3469 2153 3438 1997 
z
M 2816 1759 
L 2241 1759 
Q 1534 1759 1195 1570 
Q 856 1381 856 984 
Q 856 709 1029 553 
Q 1203 397 1509 397 
Q 1978 397 2328 733 
Q 2678 1069 2791 1631 
L 2816 1759 
z
" transform="scale(0.015625)"/>
      <path id="DejaVuSans-Oblique-20" transform="scale(0.015625)"/>
      <path id="DejaVuSans-Oblique-63" d="M 3431 3366 
L 3316 2797 
Q 3109 2947 2876 3022 
Q 2644 3097 2394 3097 
Q 2119 3097 1870 3000 
Q 1622 2903 1453 2725 
Q 1184 2453 1037 2087 
Q 891 1722 891 1331 
Q 891 859 1127 628 
Q 1363 397 1844 397 
Q 2081 397 2348 469 
Q 2616 541 2906 684 
L 2797 116 
Q 2547 13 2283 -39 
Q 2019 -91 1741 -91 
Q 1044 -91 669 257 
Q 294 606 294 1253 
Q 294 1797 489 2255 
Q 684 2713 1069 3078 
Q 1331 3328 1684 3456 
Q 2038 3584 2456 3584 
Q 2700 3584 2940 3529 
Q 3181 3475 3431 3366 
z
" transform="scale(0.015625)"/>
      <path id="DejaVuSans-Oblique-6e" d="M 3566 2113 
L 3156 0 
L 2578 0 
L 2988 2091 
Q 3016 2238 3031 2350 
Q 3047 2463 3047 2528 
Q 3047 2791 2881 2937 
Q 2716 3084 2419 3084 
Q 1956 3084 1622 2776 
Q 1288 2469 1184 1941 
L 800 0 
L 225 0 
L 903 3500 
L 1478 3500 
L 1363 2950 
Q 1603 3253 1940 3418 
Q 2278 3584 2650 3584 
Q 3113 3584 3367 3334 
Q 3622 3084 3622 2631 
Q 3622 2519 3608 2391 
Q 3594 2263 3566 2113 
z
" transform="scale(0.015625)"/>
      <path id="DejaVuSans-Oblique-74" d="M 2706 3500 
L 2619 3053 
L 1472 3053 
L 1100 1153 
Q 1081 1047 1072 975 
Q 1063 903 1063 863 
Q 1063 663 1183 572 
Q 1303 481 1569 481 
L 2150 481 
L 2053 0 
L 1503 0 
Q 991 0 739 200 
Q 488 400 488 806 
Q 488 878 497 964 
Q 506 1050 525 1153 
L 897 3053 
L 409 3053 
L 500 3500 
L 978 3500 
L 1172 4494 
L 1747 4494 
L 1556 3500 
L 2706 3500 
z
" transform="scale(0.015625)"/>
      <path id="DejaVuSans-Oblique-ed" d="M 909 3500 
L 1484 3500 
L 800 0 
L 225 0 
L 909 3500 
z
M 1911 5119 
L 2533 5119 
L 1286 3944 
L 805 3944 
L 1911 5119 
z
" transform="scale(0.015625)"/>
      <path id="DejaVuSans-Oblique-66" d="M 3059 4863 
L 2969 4384 
L 2419 4384 
Q 2106 4384 1964 4261 
Q 1822 4138 1753 3809 
L 1691 3500 
L 2638 3500 
L 2553 3053 
L 1606 3053 
L 1013 0 
L 434 0 
L 1031 3053 
L 481 3053 
L 563 3500 
L 1113 3500 
L 1159 3744 
Q 1278 4363 1576 4613 
Q 1875 4863 2516 4863 
L 3059 4863 
z
" transform="scale(0.015625)"/>
      <path id="DejaVuSans-Oblique-64" d="M 2675 525 
Q 2444 222 2128 65 
Q 1813 -91 1428 -91 
Q 903 -91 598 267 
Q 294 625 294 1247 
Q 294 1766 478 2236 
Q 663 2706 1013 3078 
Q 1244 3325 1534 3454 
Q 1825 3584 2144 3584 
Q 2481 3584 2739 3421 
Q 2997 3259 3138 2956 
L 3513 4863 
L 4091 4863 
L 3144 0 
L 2566 0 
L 2675 525 
z
M 891 1350 
Q 891 897 1095 644 
Q 1300 391 1663 391 
Q 1931 391 2161 520 
Q 2391 650 2566 903 
Q 2750 1166 2856 1509 
Q 2963 1853 2963 2188 
Q 2963 2622 2758 2865 
Q 2553 3109 2194 3109 
Q 1922 3109 1687 2981 
Q 1453 2853 1288 2613 
Q 1106 2353 998 2009 
Q 891 1666 891 1350 
z
" transform="scale(0.015625)"/>
      <path id="DejaVuSans-Oblique-6c" d="M 1172 4863 
L 1747 4863 
L 800 0 
L 225 0 
L 1172 4863 
z
" transform="scale(0.015625)"/>
      <path id="DejaVuSans-Oblique-72" d="M 2853 2969 
Q 2766 3016 2653 3041 
Q 2541 3066 2413 3066 
Q 1953 3066 1609 2717 
Q 1266 2369 1153 1784 
L 800 0 
L 225 0 
L 909 3500 
L 1484 3500 
L 1375 2956 
Q 1603 3259 1920 3421 
Q 2238 3584 2597 3584 
Q 2691 3584 2781 3573 
Q 2872 3563 2963 3538 
L 2853 2969 
z
" transform="scale(0.015625)"/>
      <path id="DejaVuSans-Oblique-f3" d="M 1625 -91 
Q 1009 -91 651 289 
Q 294 669 294 1325 
Q 294 1706 417 2101 
Q 541 2497 738 2766 
Q 1047 3184 1428 3384 
Q 1809 3584 2291 3584 
Q 2888 3584 3255 3212 
Q 3622 2841 3622 2241 
Q 3622 1825 3500 1412 
Q 3378 1000 3181 728 
Q 2875 309 2494 109 
Q 2113 -91 1625 -91 
z
M 891 1344 
Q 891 869 1089 633 
Q 1288 397 1691 397 
Q 2269 397 2648 901 
Q 3028 1406 3028 2181 
Q 3028 2634 2825 2865 
Q 2622 3097 2228 3097 
Q 1903 3097 1650 2945 
Q 1397 2794 1197 2484 
Q 1050 2253 970 1956 
Q 891 1659 891 1344 
z
M 3079 5119 
L 3701 5119 
L 2454 3944 
L 1973 3944 
L 3079 5119 
z
" transform="scale(0.015625)"/>
      <path id="DejaVuSans-Oblique-2c" d="M 575 794 
L 1234 794 
L 1131 256 
L 422 -744 
L 19 -744 
L 469 256 
L 575 794 
z
" transform="scale(0.015625)"/>
      <path id="DejaVuSans-Oblique-6d" d="M 5747 2113 
L 5338 0 
L 4763 0 
L 5166 2094 
Q 5191 2228 5203 2325 
Q 5216 2422 5216 2491 
Q 5216 2772 5059 2928 
Q 4903 3084 4622 3084 
Q 4203 3084 3875 2770 
Q 3547 2456 3450 1953 
L 3066 0 
L 2491 0 
L 2900 2094 
Q 2925 2209 2937 2307 
Q 2950 2406 2950 2484 
Q 2950 2769 2794 2926 
Q 2638 3084 2363 3084 
Q 1938 3084 1609 2770 
Q 1281 2456 1184 1953 
L 800 0 
L 225 0 
L 909 3500 
L 1484 3500 
L 1375 2956 
Q 1609 3263 1923 3423 
Q 2238 3584 2597 3584 
Q 2978 3584 3223 3384 
Q 3469 3184 3519 2828 
Q 3781 3197 4126 3390 
Q 4472 3584 4856 3584 
Q 5306 3584 5551 3325 
Q 5797 3066 5797 2591 
Q 5797 2488 5784 2364 
Q 5772 2241 5747 2113 
z
" transform="scale(0.015625)"/>
      <path id="DejaVuSans-Oblique-79" d="M 1588 -325 
Q 1188 -997 936 -1164 
Q 684 -1331 294 -1331 
L -159 -1331 
L -63 -850 
L 269 -850 
Q 509 -850 678 -719 
Q 847 -588 1056 -206 
L 1234 128 
L 459 3500 
L 1069 3500 
L 1650 819 
L 3256 3500 
L 3859 3500 
L 1588 -325 
z
" transform="scale(0.015625)"/>
      <path id="DejaVuSans-Oblique-70" d="M 3175 2156 
Q 3175 2616 2975 2859 
Q 2775 3103 2400 3103 
Q 2144 3103 1911 2972 
Q 1678 2841 1497 2591 
Q 1319 2344 1212 1994 
Q 1106 1644 1106 1300 
Q 1106 863 1306 627 
Q 1506 391 1875 391 
Q 2147 391 2380 519 
Q 2613 647 2778 891 
Q 2956 1147 3065 1494 
Q 3175 1841 3175 2156 
z
M 1394 2969 
Q 1625 3272 1939 3428 
Q 2253 3584 2638 3584 
Q 3175 3584 3472 3232 
Q 3769 2881 3769 2247 
Q 3769 1728 3584 1258 
Q 3400 788 3053 416 
Q 2822 169 2531 39 
Q 2241 -91 1919 -91 
Q 1547 -91 1294 64 
Q 1041 219 916 525 
L 556 -1331 
L -19 -1331 
L 922 3500 
L 1497 3500 
L 1394 2969 
z
" transform="scale(0.015625)"/>
      <path id="DejaVuSans-Oblique-75" d="M 428 1388 
L 838 3500 
L 1416 3500 
L 1006 1409 
Q 975 1256 961 1147 
Q 947 1038 947 966 
Q 947 700 1109 554 
Q 1272 409 1569 409 
Q 2031 409 2368 721 
Q 2706 1034 2809 1563 
L 3194 3500 
L 3769 3500 
L 3091 0 
L 2516 0 
L 2631 550 
Q 2388 244 2052 76 
Q 1716 -91 1338 -91 
Q 878 -91 622 161 
Q 366 413 366 863 
Q 366 956 381 1097 
Q 397 1238 428 1388 
z
" transform="scale(0.015625)"/>
      <path id="DejaVuSans-Oblique-62" d="M 3169 2138 
Q 3169 2591 2961 2847 
Q 2753 3103 2388 3103 
Q 2122 3103 1889 2973 
Q 1656 2844 1484 2597 
Q 1303 2338 1198 1995 
Q 1094 1653 1094 1313 
Q 1094 881 1298 636 
Q 1503 391 1863 391 
Q 2134 391 2365 517 
Q 2597 644 2772 891 
Q 2950 1147 3059 1487 
Q 3169 1828 3169 2138 
z
M 1381 2969 
Q 1594 3256 1914 3420 
Q 2234 3584 2584 3584 
Q 3122 3584 3439 3221 
Q 3756 2859 3756 2241 
Q 3756 1734 3570 1259 
Q 3384 784 3041 416 
Q 2816 172 2522 40 
Q 2228 -91 1906 -91 
Q 1566 -91 1316 65 
Q 1066 222 909 531 
L 806 0 
L 231 0 
L 1178 4863 
L 1753 4863 
L 1381 2969 
z
" transform="scale(0.015625)"/>
      <path id="DejaVuSans-Oblique-67" d="M 3816 3500 
L 3219 434 
Q 3047 -456 2561 -893 
Q 2075 -1331 1253 -1331 
Q 950 -1331 690 -1286 
Q 431 -1241 206 -1147 
L 313 -588 
Q 525 -725 762 -790 
Q 1000 -856 1269 -856 
Q 1816 -856 2167 -557 
Q 2519 -259 2631 300 
L 2681 563 
Q 2441 288 2122 144 
Q 1803 0 1434 0 
Q 903 0 598 351 
Q 294 703 294 1319 
Q 294 1803 478 2267 
Q 663 2731 997 3091 
Q 1219 3328 1514 3456 
Q 1809 3584 2131 3584 
Q 2484 3584 2746 3420 
Q 3009 3256 3138 2956 
L 3238 3500 
L 3816 3500 
z
M 2950 2216 
Q 2950 2641 2750 2872 
Q 2550 3103 2181 3103 
Q 1953 3103 1747 3012 
Q 1541 2922 1394 2759 
Q 1156 2491 1023 2127 
Q 891 1763 891 1375 
Q 891 944 1092 712 
Q 1294 481 1672 481 
Q 2219 481 2584 976 
Q 2950 1472 2950 2216 
z
" transform="scale(0.015625)"/>
     </defs>
     <use xlink:href="#DejaVuSans-Oblique-50"/>
     <use xlink:href="#DejaVuSans-Oblique-69" transform="translate(60.302734 0)"/>
     <use xlink:href="#DejaVuSans-Oblique-65" transform="translate(88.085938 0)"/>
     <use xlink:href="#DejaVuSans-Oblique-7a" transform="translate(149.609375 0)"/>
     <use xlink:href="#DejaVuSans-Oblique-61" transform="translate(202.099609 0)"/>
     <use xlink:href="#DejaVuSans-Oblique-20" transform="translate(263.378906 0)"/>
     <use xlink:href="#DejaVuSans-Oblique-63" transform="translate(295.166016 0)"/>
     <use xlink:href="#DejaVuSans-Oblique-69" transform="translate(350.146484 0)"/>
     <use xlink:href="#DejaVuSans-Oblique-65" transform="translate(377.929688 0)"/>
     <use xlink:href="#DejaVuSans-Oblique-6e" transform="translate(439.453125 0)"/>
     <use xlink:href="#DejaVuSans-Oblique-74" transform="translate(502.832031 0)"/>
     <use xlink:href="#DejaVuSans-Oblique-ed" transform="translate(542.041016 0)"/>
     <use xlink:href="#DejaVuSans-Oblique-66" transform="translate(569.824219 0)"/>
     <use xlink:href="#DejaVuSans-Oblique-69" transform="translate(605.029297 0)"/>
     <use xlink:href="#DejaVuSans-Oblique-63" transform="translate(632.8125 0)"/>
     <use xlink:href="#DejaVuSans-Oblique-61" transform="translate(687.792969 0)"/>
     <use xlink:href="#DejaVuSans-Oblique-20" transform="translate(749.072266 0)"/>
     <use xlink:href="#DejaVuSans-Oblique-64" transform="translate(780.859375 0)"/>
     <use xlink:href="#DejaVuSans-Oblique-65" transform="translate(844.335938 0)"/>
     <use xlink:href="#DejaVuSans-Oblique-20" transform="translate(905.859375 0)"/>
     <use xlink:href="#DejaVuSans-Oblique-63" transform="translate(937.646484 0)"/>
     <use xlink:href="#DejaVuSans-Oblique-6c" transform="translate(992.626953 0)"/>
     <use xlink:href="#DejaVuSans-Oblique-61" transform="translate(1020.410156 0)"/>
     <use xlink:href="#DejaVuSans-Oblique-72" transform="translate(1081.689453 0)"/>
     <use xlink:href="#DejaVuSans-Oblique-69" transform="translate(1122.802734 0)"/>
     <use xlink:href="#DejaVuSans-Oblique-66" transform="translate(1150.585938 0)"/>
     <use xlink:href="#DejaVuSans-Oblique-69" transform="translate(1185.791016 0)"/>
     <use xlink:href="#DejaVuSans-Oblique-63" transform="translate(1213.574219 0)"/>
     <use xlink:href="#DejaVuSans-Oblique-61" transform="translate(1268.554688 0)"/>
     <use xlink:href="#DejaVuSans-Oblique-63" transform="translate(1329.833984 0)"/>
     <use xlink:href="#DejaVuSans-Oblique-69" transform="translate(1384.814453 0)"/>
     <use xlink:href="#DejaVuSans-Oblique-f3" transform="translate(1412.597656 0)"/>
     <use xlink:href="#DejaVuSans-Oblique-6e" transform="translate(1473.779297 0)"/>
     <use xlink:href="#DejaVuSans-Oblique-2c" transform="translate(1537.158203 0)"/>
     <use xlink:href="#DejaVuSans-Oblique-20" transform="translate(1568.945312 0)"/>
     <use xlink:href="#DejaVuSans-Oblique-64" transform="translate(1600.732422 0)"/>
     <use xlink:href="#DejaVuSans-Oblique-65" transform="translate(1664.208984 0)"/>
     <use xlink:href="#DejaVuSans-Oblique-6c" transform="translate(1725.732422 0)"/>
     <use xlink:href="#DejaVuSans-Oblique-69" transform="translate(1753.515625 0)"/>
     <use xlink:href="#DejaVuSans-Oblique-6d" transform="translate(1781.298828 0)"/>
     <use xlink:href="#DejaVuSans-Oblique-69" transform="translate(1878.710938 0)"/>
     <use xlink:href="#DejaVuSans-Oblique-74" transform="translate(1906.494141 0)"/>
     <use xlink:href="#DejaVuSans-Oblique-61" transform="translate(1945.703125 0)"/>
     <use xlink:href="#DejaVuSans-Oblique-63" transform="translate(2006.982422 0)"/>
     <use xlink:href="#DejaVuSans-Oblique-69" transform="translate(2061.962891 0)"/>
     <use xlink:href="#DejaVuSans-Oblique-f3" transform="translate(2089.746094 0)"/>
     <use xlink:href="#DejaVuSans-Oblique-6e" transform="translate(2150.927734 0)"/>
     <use xlink:href="#DejaVuSans-Oblique-20" transform="translate(2214.306641 0)"/>
     <use xlink:href="#DejaVuSans-Oblique-79" transform="translate(2246.09375 0)"/>
     <use xlink:href="#DejaVuSans-Oblique-20" transform="translate(2305.273438 0)"/>
     <use xlink:href="#DejaVuSans-Oblique-70" transform="translate(2337.060547 0)"/>
     <use xlink:href="#DejaVuSans-Oblique-72" transform="translate(2400.537109 0)"/>
     <use xlink:href="#DejaVuSans-Oblique-75" transform="translate(2441.650391 0)"/>
     <use xlink:href="#DejaVuSans-Oblique-65" transform="translate(2505.029297 0)"/>
     <use xlink:href="#DejaVuSans-Oblique-62" transform="translate(2566.552734 0)"/>
     <use xlink:href="#DejaVuSans-Oblique-61" transform="translate(2630.029297 0)"/>
     <use xlink:href="#DejaVuSans-Oblique-20" transform="translate(2691.308594 0)"/>
     <use xlink:href="#DejaVuSans-Oblique-64" transform="translate(2723.095703 0)"/>
     <use xlink:href="#DejaVuSans-Oblique-65" transform="translate(2786.572266 0)"/>
     <use xlink:href="#DejaVuSans-Oblique-20" transform="translate(2848.095703 0)"/>
     <use xlink:href="#DejaVuSans-Oblique-6c" transform="translate(2879.882812 0)"/>
     <use xlink:href="#DejaVuSans-Oblique-65" transform="translate(2907.666016 0)"/>
     <use xlink:href="#DejaVuSans-Oblique-67" transform="translate(2969.189453 0)"/>
     <use xlink:href="#DejaVuSans-Oblique-69" transform="translate(3032.666016 0)"/>
     <use xlink:href="#DejaVuSans-Oblique-74" transform="translate(3060.449219 0)"/>
     <use xlink:href="#DejaVuSans-Oblique-69" transform="translate(3099.658203 0)"/>
     <use xlink:href="#DejaVuSans-Oblique-6d" transform="translate(3127.441406 0)"/>
     <use xlink:href="#DejaVuSans-Oblique-69" transform="translate(3224.853516 0)"/>
     <use xlink:href="#DejaVuSans-Oblique-64" transform="translate(3252.636719 0)"/>
     <use xlink:href="#DejaVuSans-Oblique-61" transform="translate(3316.113281 0)"/>
     <use xlink:href="#DejaVuSans-Oblique-64" transform="translate(3377.392578 0)"/>
    </g>
   </g>
  </g>
 </g>
 <defs>
  <clipPath id="p7638149afb">
   <rect x="108" y="69.12" width="669.6" height="443.52"/>
  </clipPath>
 </defs>
</svg>
