<?xml version="1.0" encoding="utf-8" standalone="no"?>
<!DOCTYPE svg PUBLIC "-//W3C//DTD SVG 1.1//EN"
  "http://www.w3.org/Graphics/SVG/1.1/DTD/svg11.dtd">
<svg xmlns:xlink="http://www.w3.org/1999/xlink" width="864pt" height="576pt" viewBox="0 0 864 576" xmlns="http://www.w3.org/2000/svg" version="1.1">
 <metadata>
  <rdf:RDF xmlns:dc="http://purl.org/dc/elements/1.1/" xmlns:cc="http://creativecommons.org/ns#" xmlns:rdf="http://www.w3.org/1999/02/22-rdf-syntax-ns#">
   <cc:Work>
    <dc:type rdf:resource="http://purl.org/dc/dcmitype/StillImage"/>
    <dc:date>2026-03-20T21:27:31.849210</dc:date>
    <dc:format>image/svg+xml</dc:format>
    <dc:creator>
     <cc:Agent>
      <dc:title>Matplotlib v3.10.8, https://matplotlib.org/</dc:title>
     </cc:Agent>
    </dc:creator>
   </cc:Work>
  </rdf:RDF>
 </metadata>
 <defs>
  <style type="text/css">*{stroke-linejoin: round; stroke-linecap: butt}</style>
 </defs>
 <g id="figure_1">
  <g id="patch_1">
   <path d="M 0 576 
L 864 576 
L 864 0 
L 0 0 
z
" style="fill: #ffffff"/>
  </g>
  <g id="axes_1">
   <g id="patch_2">
    <path d="M 144.1584 311.28192 
L 245.9376 311.28192 
Q 259.3296 311.28192 259.3296 302.41152 
L 259.3296 226.12608 
Q 259.3296 217.25568 245.9376 217.25568 
L 144.1584 217.25568 
Q 130.7664 217.25568 130.7664 226.12608 
L 130.7664 302.41152 
Q 130.7664 311.28192 144.1584 311.28192 
z
" clip-path="url(#pd0ba460234)" style="fill: #f7f7f7; stroke: #000000; stroke-width: 2.4; stroke-linejoin: miter"/>
   </g>
   <g id="patch_3">
    <path d="M 311.5584 311.28192 
L 413.3376 311.28192 
Q 426.7296 311.28192 426.7296 302.41152 
L 426.7296 226.12608 
Q 426.7296 217.25568 413.3376 217.25568 
L 311.5584 217.25568 
Q 298.1664 217.25568 298.1664 226.12608 
L 298.1664 302.41152 
Q 298.1664 311.28192 311.5584 311.28192 
z
" clip-path="url(#pd0ba460234)" style="fill: #edf2fa; stroke: #000000; stroke-width: 2.4; stroke-linejoin: miter"/>
   </g>
   <g id="patch_4">
    <path d="M 478.9584 311.28192 
L 580.7376 311.28192 
Q 594.1296 311.28192 594.1296 302.41152 
L 594.1296 226.12608 
Q 594.1296 217.25568 580.7376 217.25568 
L 478.9584 217.25568 
Q 465.5664 217.25568 465.5664 226.12608 
L 465.5664 302.41152 
Q 465.5664 311.28192 478.9584 311.28192 
z
" clip-path="url(#pd0ba460234)" style="fill: #faf3e8; stroke: #000000; stroke-width: 2.4; stroke-linejoin: miter"/>
   </g>
   <g id="patch_5">
    <path d="M 646.3584 311.28192 
L 748.1376 311.28192 
Q 761.5296 311.28192 761.5296 302.41152 
L 761.5296 226.12608 
Q 761.5296 217.25568 748.1376 217.25568 
L 646.3584 217.25568 
Q 632.9664 217.25568 632.9664 226.12608 
L 632.9664 302.41152 
Q 632.9664 311.28192 646.3584 311.28192 
z
" clip-path="url(#pd0ba460234)" style="fill: #edf4ed; stroke: #000000; stroke-width: 2.4; stroke-linejoin: miter"/>
   </g>
   <g id="patch_6">
    <path d="M 264.006501 264.2688 
Q 278.74616 264.2688 290.802538 264.2688 
" clip-path="url(#pd0ba460234)" style="fill: none; stroke: #000000; stroke-width: 2.4; stroke-linecap: round"/>
    <path d="M 280.402538 259.0688 
L 290.802538 264.2688 
L 280.402538 269.4688 
z
" clip-path="url(#pd0ba460234)" style="fill: #1f77b4; stroke: #000000; stroke-width: 2.4; stroke-linecap: round"/>
   </g>
   <g id="patch_7">
    <path d="M 431.406501 264.2688 
Q 446.14616 264.2688 458.202538 264.2688 
" clip-path="url(#pd0ba460234)" style="fill: none; stroke: #000000; stroke-width: 2.4; stroke-linecap: round"/>
    <path d="M 447.802538 259.0688 
L 458.202538 264.2688 
L 447.802538 269.4688 
z
" clip-path="url(#pd0ba460234)" style="fill: #1f77b4; stroke: #000000; stroke-width: 2.4; stroke-linecap: round"/>
   </g>
   <g id="patch_8">
    <path d="M 598.806501 264.2688 
Q 613.54616 264.2688 625.602538 264.2688 
" clip-path="url(#pd0ba460234)" style="fill: none; stroke: #000000; stroke-width: 2.4; stroke-linecap: round"/>
    <path d="M 615.202538 259.0688 
L 625.602538 264.2688 
L 615.202538 269.4688 
z
" clip-path="url(#pd0ba460234)" style="fill: #1f77b4; stroke: #000000; stroke-width: 2.4; stroke-linecap: round"/>
   </g>
   <g id="text_1">
    <!-- Artefacto -->
    <g transform="translate(142.138625 258.589738) scale(0.2 -0.2)">
     <defs>
      <path id="DejaVuSans-Bold-41" d="M 3419 850 
L 1538 850 
L 1241 0 
L 31 0 
L 1759 4666 
L 3194 4666 
L 4922 0 
L 3713 0 
L 3419 850 
z
M 1838 1716 
L 3116 1716 
L 2478 3572 
L 1838 1716 
z
" transform="scale(0.015625)"/>
      <path id="DejaVuSans-Bold-72" d="M 3138 2547 
Q 2991 2616 2845 2648 
Q 2700 2681 2553 2681 
Q 2122 2681 1889 2404 
Q 1656 2128 1656 1613 
L 1656 0 
L 538 0 
L 538 3500 
L 1656 3500 
L 1656 2925 
Q 1872 3269 2151 3426 
Q 2431 3584 2822 3584 
Q 2878 3584 2943 3579 
Q 3009 3575 3134 3559 
L 3138 2547 
z
" transform="scale(0.015625)"/>
      <path id="DejaVuSans-Bold-74" d="M 1759 4494 
L 1759 3500 
L 2913 3500 
L 2913 2700 
L 1759 2700 
L 1759 1216 
Q 1759 972 1856 886 
Q 1953 800 2241 800 
L 2816 800 
L 2816 0 
L 1856 0 
Q 1194 0 917 276 
Q 641 553 641 1216 
L 641 2700 
L 84 2700 
L 84 3500 
L 641 3500 
L 641 4494 
L 1759 4494 
z
" transform="scale(0.015625)"/>
      <path id="DejaVuSans-Bold-65" d="M 4031 1759 
L 4031 1441 
L 1416 1441 
Q 1456 1047 1700 850 
Q 1944 653 2381 653 
Q 2734 653 3104 758 
Q 3475 863 3866 1075 
L 3866 213 
Q 3469 63 3072 -14 
Q 2675 -91 2278 -91 
Q 1328 -91 801 392 
Q 275 875 275 1747 
Q 275 2603 792 3093 
Q 1309 3584 2216 3584 
Q 3041 3584 3536 3087 
Q 4031 2591 4031 1759 
z
M 2881 2131 
Q 2881 2450 2695 2645 
Q 2509 2841 2209 2841 
Q 1884 2841 1681 2658 
Q 1478 2475 1428 2131 
L 2881 2131 
z
" transform="scale(0.015625)"/>
      <path id="DejaVuSans-Bold-66" d="M 2841 4863 
L 2841 4128 
L 2222 4128 
Q 1984 4128 1890 4042 
Q 1797 3956 1797 3744 
L 1797 3500 
L 2753 3500 
L 2753 2700 
L 1797 2700 
L 1797 0 
L 678 0 
L 678 2700 
L 122 2700 
L 122 3500 
L 678 3500 
L 678 3744 
Q 678 4316 997 4589 
Q 1316 4863 1984 4863 
L 2841 4863 
z
" transform="scale(0.015625)"/>
      <path id="DejaVuSans-Bold-61" d="M 2106 1575 
Q 1756 1575 1579 1456 
Q 1403 1338 1403 1106 
Q 1403 894 1545 773 
Q 1688 653 1941 653 
Q 2256 653 2472 879 
Q 2688 1106 2688 1447 
L 2688 1575 
L 2106 1575 
z
M 3816 1997 
L 3816 0 
L 2688 0 
L 2688 519 
Q 2463 200 2181 54 
Q 1900 -91 1497 -91 
Q 953 -91 614 226 
Q 275 544 275 1050 
Q 275 1666 698 1953 
Q 1122 2241 2028 2241 
L 2688 2241 
L 2688 2328 
Q 2688 2594 2478 2717 
Q 2269 2841 1825 2841 
Q 1466 2841 1156 2769 
Q 847 2697 581 2553 
L 581 3406 
Q 941 3494 1303 3539 
Q 1666 3584 2028 3584 
Q 2975 3584 3395 3211 
Q 3816 2838 3816 1997 
z
" transform="scale(0.015625)"/>
      <path id="DejaVuSans-Bold-63" d="M 3366 3391 
L 3366 2478 
Q 3138 2634 2908 2709 
Q 2678 2784 2431 2784 
Q 1963 2784 1702 2511 
Q 1441 2238 1441 1747 
Q 1441 1256 1702 982 
Q 1963 709 2431 709 
Q 2694 709 2930 787 
Q 3166 866 3366 1019 
L 3366 103 
Q 3103 6 2833 -42 
Q 2563 -91 2291 -91 
Q 1344 -91 809 395 
Q 275 881 275 1747 
Q 275 2613 809 3098 
Q 1344 3584 2291 3584 
Q 2566 3584 2833 3536 
Q 3100 3488 3366 3391 
z
" transform="scale(0.015625)"/>
      <path id="DejaVuSans-Bold-6f" d="M 2203 2784 
Q 1831 2784 1636 2517 
Q 1441 2250 1441 1747 
Q 1441 1244 1636 976 
Q 1831 709 2203 709 
Q 2569 709 2762 976 
Q 2956 1244 2956 1747 
Q 2956 2250 2762 2517 
Q 2569 2784 2203 2784 
z
M 2203 3584 
Q 3106 3584 3614 3096 
Q 4122 2609 4122 1747 
Q 4122 884 3614 396 
Q 3106 -91 2203 -91 
Q 1297 -91 786 396 
Q 275 884 275 1747 
Q 275 2609 786 3096 
Q 1297 3584 2203 3584 
z
" transform="scale(0.015625)"/>
     </defs>
     <use xlink:href="#DejaVuSans-Bold-41"/>
     <use xlink:href="#DejaVuSans-Bold-72" transform="translate(77.392578 0)"/>
     <use xlink:href="#DejaVuSans-Bold-74" transform="translate(126.708984 0)"/>
     <use xlink:href="#DejaVuSans-Bold-65" transform="translate(174.511719 0)"/>
     <use xlink:href="#DejaVuSans-Bold-66" transform="translate(242.333984 0)"/>
     <use xlink:href="#DejaVuSans-Bold-61" transform="translate(285.839844 0)"/>
     <use xlink:href="#DejaVuSans-Bold-63" transform="translate(353.320312 0)"/>
     <use xlink:href="#DejaVuSans-Bold-74" transform="translate(412.597656 0)"/>
     <use xlink:href="#DejaVuSans-Bold-6f" transform="translate(460.400391 0)"/>
    </g>
    <!-- fuente -->
    <g transform="translate(158.115187 280.985363) scale(0.2 -0.2)">
     <defs>
      <path id="DejaVuSans-Bold-75" d="M 500 1363 
L 500 3500 
L 1625 3500 
L 1625 3150 
Q 1625 2866 1622 2436 
Q 1619 2006 1619 1863 
Q 1619 1441 1641 1255 
Q 1663 1069 1716 984 
Q 1784 875 1895 815 
Q 2006 756 2150 756 
Q 2500 756 2700 1025 
Q 2900 1294 2900 1772 
L 2900 3500 
L 4019 3500 
L 4019 0 
L 2900 0 
L 2900 506 
Q 2647 200 2364 54 
Q 2081 -91 1741 -91 
Q 1134 -91 817 281 
Q 500 653 500 1363 
z
" transform="scale(0.015625)"/>
      <path id="DejaVuSans-Bold-6e" d="M 4056 2131 
L 4056 0 
L 2931 0 
L 2931 347 
L 2931 1631 
Q 2931 2084 2911 2256 
Q 2891 2428 2841 2509 
Q 2775 2619 2662 2680 
Q 2550 2741 2406 2741 
Q 2056 2741 1856 2470 
Q 1656 2200 1656 1722 
L 1656 0 
L 538 0 
L 538 3500 
L 1656 3500 
L 1656 2988 
Q 1909 3294 2193 3439 
Q 2478 3584 2822 3584 
Q 3428 3584 3742 3212 
Q 4056 2841 4056 2131 
z
" transform="scale(0.015625)"/>
     </defs>
     <use xlink:href="#DejaVuSans-Bold-66"/>
     <use xlink:href="#DejaVuSans-Bold-75" transform="translate(43.505859 0)"/>
     <use xlink:href="#DejaVuSans-Bold-65" transform="translate(114.697266 0)"/>
     <use xlink:href="#DejaVuSans-Bold-6e" transform="translate(182.519531 0)"/>
     <use xlink:href="#DejaVuSans-Bold-74" transform="translate(253.710938 0)"/>
     <use xlink:href="#DejaVuSans-Bold-65" transform="translate(301.513672 0)"/>
    </g>
   </g>
   <g id="text_2">
    <!-- Estructura -->
    <g transform="translate(303.32925 258.589738) scale(0.2 -0.2)">
     <defs>
      <path id="DejaVuSans-Bold-45" d="M 588 4666 
L 3834 4666 
L 3834 3756 
L 1791 3756 
L 1791 2888 
L 3713 2888 
L 3713 1978 
L 1791 1978 
L 1791 909 
L 3903 909 
L 3903 0 
L 588 0 
L 588 4666 
z
" transform="scale(0.015625)"/>
      <path id="DejaVuSans-Bold-73" d="M 3272 3391 
L 3272 2541 
Q 2913 2691 2578 2766 
Q 2244 2841 1947 2841 
Q 1628 2841 1473 2761 
Q 1319 2681 1319 2516 
Q 1319 2381 1436 2309 
Q 1553 2238 1856 2203 
L 2053 2175 
Q 2913 2066 3209 1816 
Q 3506 1566 3506 1031 
Q 3506 472 3093 190 
Q 2681 -91 1863 -91 
Q 1516 -91 1145 -36 
Q 775 19 384 128 
L 384 978 
Q 719 816 1070 734 
Q 1422 653 1784 653 
Q 2113 653 2278 743 
Q 2444 834 2444 1013 
Q 2444 1163 2330 1236 
Q 2216 1309 1875 1350 
L 1678 1375 
Q 931 1469 631 1722 
Q 331 1975 331 2491 
Q 331 3047 712 3315 
Q 1094 3584 1881 3584 
Q 2191 3584 2531 3537 
Q 2872 3491 3272 3391 
z
" transform="scale(0.015625)"/>
     </defs>
     <use xlink:href="#DejaVuSans-Bold-45"/>
     <use xlink:href="#DejaVuSans-Bold-73" transform="translate(68.310547 0)"/>
     <use xlink:href="#DejaVuSans-Bold-74" transform="translate(127.832031 0)"/>
     <use xlink:href="#DejaVuSans-Bold-72" transform="translate(175.634766 0)"/>
     <use xlink:href="#DejaVuSans-Bold-75" transform="translate(224.951172 0)"/>
     <use xlink:href="#DejaVuSans-Bold-63" transform="translate(296.142578 0)"/>
     <use xlink:href="#DejaVuSans-Bold-74" transform="translate(355.419922 0)"/>
     <use xlink:href="#DejaVuSans-Bold-75" transform="translate(403.222656 0)"/>
     <use xlink:href="#DejaVuSans-Bold-72" transform="translate(474.414062 0)"/>
     <use xlink:href="#DejaVuSans-Bold-61" transform="translate(523.730469 0)"/>
    </g>
    <!-- observable -->
    <g transform="translate(300.118313 280.985363) scale(0.2 -0.2)">
     <defs>
      <path id="DejaVuSans-Bold-62" d="M 2400 722 
Q 2759 722 2948 984 
Q 3138 1247 3138 1747 
Q 3138 2247 2948 2509 
Q 2759 2772 2400 2772 
Q 2041 2772 1848 2508 
Q 1656 2244 1656 1747 
Q 1656 1250 1848 986 
Q 2041 722 2400 722 
z
M 1656 2988 
Q 1888 3294 2169 3439 
Q 2450 3584 2816 3584 
Q 3463 3584 3878 3070 
Q 4294 2556 4294 1747 
Q 4294 938 3878 423 
Q 3463 -91 2816 -91 
Q 2450 -91 2169 54 
Q 1888 200 1656 506 
L 1656 0 
L 538 0 
L 538 4863 
L 1656 4863 
L 1656 2988 
z
" transform="scale(0.015625)"/>
      <path id="DejaVuSans-Bold-76" d="M 97 3500 
L 1216 3500 
L 2088 1081 
L 2956 3500 
L 4078 3500 
L 2700 0 
L 1472 0 
L 97 3500 
z
" transform="scale(0.015625)"/>
      <path id="DejaVuSans-Bold-6c" d="M 538 4863 
L 1656 4863 
L 1656 0 
L 538 0 
L 538 4863 
z
" transform="scale(0.015625)"/>
     </defs>
     <use xlink:href="#DejaVuSans-Bold-6f"/>
     <use xlink:href="#DejaVuSans-Bold-62" transform="translate(68.701172 0)"/>
     <use xlink:href="#DejaVuSans-Bold-73" transform="translate(140.283203 0)"/>
     <use xlink:href="#DejaVuSans-Bold-65" transform="translate(199.804688 0)"/>
     <use xlink:href="#DejaVuSans-Bold-72" transform="translate(267.626953 0)"/>
     <use xlink:href="#DejaVuSans-Bold-76" transform="translate(316.943359 0)"/>
     <use xlink:href="#DejaVuSans-Bold-61" transform="translate(382.128906 0)"/>
     <use xlink:href="#DejaVuSans-Bold-62" transform="translate(449.609375 0)"/>
     <use xlink:href="#DejaVuSans-Bold-6c" transform="translate(521.191406 0)"/>
     <use xlink:href="#DejaVuSans-Bold-65" transform="translate(555.46875 0)"/>
    </g>
   </g>
   <g id="text_3">
    <!-- Derivados -->
    <g transform="translate(473.157375 258.589738) scale(0.2 -0.2)">
     <defs>
      <path id="DejaVuSans-Bold-44" d="M 1791 3756 
L 1791 909 
L 2222 909 
Q 2959 909 3348 1275 
Q 3738 1641 3738 2338 
Q 3738 3031 3350 3393 
Q 2963 3756 2222 3756 
L 1791 3756 
z
M 588 4666 
L 1856 4666 
Q 2919 4666 3439 4514 
Q 3959 4363 4331 4000 
Q 4659 3684 4818 3271 
Q 4978 2859 4978 2338 
Q 4978 1809 4818 1395 
Q 4659 981 4331 666 
Q 3956 303 3431 151 
Q 2906 0 1856 0 
L 588 0 
L 588 4666 
z
" transform="scale(0.015625)"/>
      <path id="DejaVuSans-Bold-69" d="M 538 3500 
L 1656 3500 
L 1656 0 
L 538 0 
L 538 3500 
z
M 538 4863 
L 1656 4863 
L 1656 3950 
L 538 3950 
L 538 4863 
z
" transform="scale(0.015625)"/>
      <path id="DejaVuSans-Bold-64" d="M 2919 2988 
L 2919 4863 
L 4044 4863 
L 4044 0 
L 2919 0 
L 2919 506 
Q 2688 197 2409 53 
Q 2131 -91 1766 -91 
Q 1119 -91 703 423 
Q 288 938 288 1747 
Q 288 2556 703 3070 
Q 1119 3584 1766 3584 
Q 2128 3584 2408 3439 
Q 2688 3294 2919 2988 
z
M 2181 722 
Q 2541 722 2730 984 
Q 2919 1247 2919 1747 
Q 2919 2247 2730 2509 
Q 2541 2772 2181 2772 
Q 1825 2772 1636 2509 
Q 1447 2247 1447 1747 
Q 1447 1247 1636 984 
Q 1825 722 2181 722 
z
" transform="scale(0.015625)"/>
     </defs>
     <use xlink:href="#DejaVuSans-Bold-44"/>
     <use xlink:href="#DejaVuSans-Bold-65" transform="translate(83.007812 0)"/>
     <use xlink:href="#DejaVuSans-Bold-72" transform="translate(150.830078 0)"/>
     <use xlink:href="#DejaVuSans-Bold-69" transform="translate(200.146484 0)"/>
     <use xlink:href="#DejaVuSans-Bold-76" transform="translate(234.423828 0)"/>
     <use xlink:href="#DejaVuSans-Bold-61" transform="translate(299.609375 0)"/>
     <use xlink:href="#DejaVuSans-Bold-64" transform="translate(367.089844 0)"/>
     <use xlink:href="#DejaVuSans-Bold-6f" transform="translate(438.671875 0)"/>
     <use xlink:href="#DejaVuSans-Bold-73" transform="translate(507.373047 0)"/>
    </g>
    <!-- verificables -->
    <g transform="translate(464.412062 280.985363) scale(0.2 -0.2)">
     <use xlink:href="#DejaVuSans-Bold-76"/>
     <use xlink:href="#DejaVuSans-Bold-65" transform="translate(65.185547 0)"/>
     <use xlink:href="#DejaVuSans-Bold-72" transform="translate(133.007812 0)"/>
     <use xlink:href="#DejaVuSans-Bold-69" transform="translate(182.324219 0)"/>
     <use xlink:href="#DejaVuSans-Bold-66" transform="translate(216.601562 0)"/>
     <use xlink:href="#DejaVuSans-Bold-69" transform="translate(260.107422 0)"/>
     <use xlink:href="#DejaVuSans-Bold-63" transform="translate(294.384766 0)"/>
     <use xlink:href="#DejaVuSans-Bold-61" transform="translate(353.662109 0)"/>
     <use xlink:href="#DejaVuSans-Bold-62" transform="translate(421.142578 0)"/>
     <use xlink:href="#DejaVuSans-Bold-6c" transform="translate(492.724609 0)"/>
     <use xlink:href="#DejaVuSans-Bold-65" transform="translate(527.001953 0)"/>
     <use xlink:href="#DejaVuSans-Bold-73" transform="translate(594.824219 0)"/>
    </g>
   </g>
   <g id="text_4">
    <!-- Objeto -->
    <g transform="translate(659.727688 247.3138) scale(0.2 -0.2)">
     <defs>
      <path id="DejaVuSans-Bold-4f" d="M 2719 3878 
Q 2169 3878 1866 3472 
Q 1563 3066 1563 2328 
Q 1563 1594 1866 1187 
Q 2169 781 2719 781 
Q 3272 781 3575 1187 
Q 3878 1594 3878 2328 
Q 3878 3066 3575 3472 
Q 3272 3878 2719 3878 
z
M 2719 4750 
Q 3844 4750 4481 4106 
Q 5119 3463 5119 2328 
Q 5119 1197 4481 553 
Q 3844 -91 2719 -91 
Q 1597 -91 958 553 
Q 319 1197 319 2328 
Q 319 3463 958 4106 
Q 1597 4750 2719 4750 
z
" transform="scale(0.015625)"/>
      <path id="DejaVuSans-Bold-6a" d="M 538 3500 
L 1656 3500 
L 1656 63 
Q 1656 -641 1318 -1011 
Q 981 -1381 341 -1381 
L -213 -1381 
L -213 -647 
L -19 -647 
Q 300 -647 419 -503 
Q 538 -359 538 63 
L 538 3500 
z
M 538 4863 
L 1656 4863 
L 1656 3950 
L 538 3950 
L 538 4863 
z
" transform="scale(0.015625)"/>
     </defs>
     <use xlink:href="#DejaVuSans-Bold-4f"/>
     <use xlink:href="#DejaVuSans-Bold-62" transform="translate(85.009766 0)"/>
     <use xlink:href="#DejaVuSans-Bold-6a" transform="translate(156.591797 0)"/>
     <use xlink:href="#DejaVuSans-Bold-65" transform="translate(190.869141 0)"/>
     <use xlink:href="#DejaVuSans-Bold-74" transform="translate(258.691406 0)"/>
     <use xlink:href="#DejaVuSans-Bold-6f" transform="translate(306.494141 0)"/>
    </g>
    <!-- semántico -->
    <g transform="translate(639.219875 269.865675) scale(0.2 -0.2)">
     <defs>
      <path id="DejaVuSans-Bold-6d" d="M 3781 2919 
Q 3994 3244 4286 3414 
Q 4578 3584 4928 3584 
Q 5531 3584 5847 3212 
Q 6163 2841 6163 2131 
L 6163 0 
L 5038 0 
L 5038 1825 
Q 5041 1866 5042 1909 
Q 5044 1953 5044 2034 
Q 5044 2406 4934 2573 
Q 4825 2741 4581 2741 
Q 4263 2741 4089 2478 
Q 3916 2216 3909 1719 
L 3909 0 
L 2784 0 
L 2784 1825 
Q 2784 2406 2684 2573 
Q 2584 2741 2328 2741 
Q 2006 2741 1831 2477 
Q 1656 2213 1656 1722 
L 1656 0 
L 531 0 
L 531 3500 
L 1656 3500 
L 1656 2988 
Q 1863 3284 2130 3434 
Q 2397 3584 2719 3584 
Q 3081 3584 3359 3409 
Q 3638 3234 3781 2919 
z
" transform="scale(0.015625)"/>
      <path id="DejaVuSans-Bold-e1" d="M 2106 1575 
Q 1756 1575 1579 1456 
Q 1403 1338 1403 1106 
Q 1403 894 1545 773 
Q 1688 653 1941 653 
Q 2256 653 2472 879 
Q 2688 1106 2688 1447 
L 2688 1575 
L 2106 1575 
z
M 3816 1997 
L 3816 0 
L 2688 0 
L 2688 519 
Q 2463 200 2181 54 
Q 1900 -91 1497 -91 
Q 953 -91 614 226 
Q 275 544 275 1050 
Q 275 1666 698 1953 
Q 1122 2241 2028 2241 
L 2688 2241 
L 2688 2328 
Q 2688 2594 2478 2717 
Q 2269 2841 1825 2841 
Q 1466 2841 1156 2769 
Q 847 2697 581 2553 
L 581 3406 
Q 941 3494 1303 3539 
Q 1666 3584 2028 3584 
Q 2975 3584 3395 3211 
Q 3816 2838 3816 1997 
z
M 2606 5119 
L 3490 5119 
L 2337 3944 
L 1725 3944 
L 2606 5119 
z
" transform="scale(0.015625)"/>
     </defs>
     <use xlink:href="#DejaVuSans-Bold-73"/>
     <use xlink:href="#DejaVuSans-Bold-65" transform="translate(59.521484 0)"/>
     <use xlink:href="#DejaVuSans-Bold-6d" transform="translate(127.34375 0)"/>
     <use xlink:href="#DejaVuSans-Bold-e1" transform="translate(231.542969 0)"/>
     <use xlink:href="#DejaVuSans-Bold-6e" transform="translate(299.023438 0)"/>
     <use xlink:href="#DejaVuSans-Bold-74" transform="translate(370.214844 0)"/>
     <use xlink:href="#DejaVuSans-Bold-69" transform="translate(418.017578 0)"/>
     <use xlink:href="#DejaVuSans-Bold-63" transform="translate(452.294922 0)"/>
     <use xlink:href="#DejaVuSans-Bold-6f" transform="translate(511.572266 0)"/>
    </g>
    <!-- consultable -->
    <g transform="translate(631.9355 292.2613) scale(0.2 -0.2)">
     <use xlink:href="#DejaVuSans-Bold-63"/>
     <use xlink:href="#DejaVuSans-Bold-6f" transform="translate(59.277344 0)"/>
     <use xlink:href="#DejaVuSans-Bold-6e" transform="translate(127.978516 0)"/>
     <use xlink:href="#DejaVuSans-Bold-73" transform="translate(199.169922 0)"/>
     <use xlink:href="#DejaVuSans-Bold-75" transform="translate(258.691406 0)"/>
     <use xlink:href="#DejaVuSans-Bold-6c" transform="translate(329.882812 0)"/>
     <use xlink:href="#DejaVuSans-Bold-74" transform="translate(364.160156 0)"/>
     <use xlink:href="#DejaVuSans-Bold-61" transform="translate(411.962891 0)"/>
     <use xlink:href="#DejaVuSans-Bold-62" transform="translate(479.443359 0)"/>
     <use xlink:href="#DejaVuSans-Bold-6c" transform="translate(551.025391 0)"/>
     <use xlink:href="#DejaVuSans-Bold-65" transform="translate(585.302734 0)"/>
    </g>
   </g>
   <g id="text_5">
    <!-- 1 → 2 -->
    <g transform="translate(167.756297 127.065544) scale(0.15 -0.15)">
     <defs>
      <path id="DejaVuSans-31" d="M 794 531 
L 1825 531 
L 1825 4091 
L 703 3866 
L 703 4441 
L 1819 4666 
L 2450 4666 
L 2450 531 
L 3481 531 
L 3481 0 
L 794 0 
L 794 531 
z
" transform="scale(0.015625)"/>
      <path id="DejaVuSans-20" transform="scale(0.015625)"/>
      <path id="DejaVuSans-2192" d="M 5050 2147 
L 5050 1866 
L 3822 638 
L 3447 1013 
L 4175 1741 
L 366 1741 
L 366 2272 
L 4175 2272 
L 3447 3000 
L 3822 3375 
L 5050 2147 
z
" transform="scale(0.015625)"/>
      <path id="DejaVuSans-32" d="M 1228 531 
L 3431 531 
L 3431 0 
L 469 0 
L 469 531 
Q 828 903 1448 1529 
Q 2069 2156 2228 2338 
Q 2531 2678 2651 2914 
Q 2772 3150 2772 3378 
Q 2772 3750 2511 3984 
Q 2250 4219 1831 4219 
Q 1534 4219 1204 4116 
Q 875 4013 500 3803 
L 500 4441 
Q 881 4594 1212 4672 
Q 1544 4750 1819 4750 
Q 2544 4750 2975 4387 
Q 3406 4025 3406 3419 
Q 3406 3131 3298 2873 
Q 3191 2616 2906 2266 
Q 2828 2175 2409 1742 
Q 1991 1309 1228 531 
z
" transform="scale(0.015625)"/>
     </defs>
     <use xlink:href="#DejaVuSans-31"/>
     <use xlink:href="#DejaVuSans-20" transform="translate(63.623047 0)"/>
     <use xlink:href="#DejaVuSans-2192" transform="translate(95.410156 0)"/>
     <use xlink:href="#DejaVuSans-20" transform="translate(179.199219 0)"/>
     <use xlink:href="#DejaVuSans-32" transform="translate(210.986328 0)"/>
    </g>
    <!-- Descripción -->
    <g transform="translate(144.453563 144.582262) scale(0.15 -0.15)">
     <defs>
      <path id="DejaVuSans-44" d="M 1259 4147 
L 1259 519 
L 2022 519 
Q 2988 519 3436 956 
Q 3884 1394 3884 2338 
Q 3884 3275 3436 3711 
Q 2988 4147 2022 4147 
L 1259 4147 
z
M 628 4666 
L 1925 4666 
Q 3281 4666 3915 4102 
Q 4550 3538 4550 2338 
Q 4550 1131 3912 565 
Q 3275 0 1925 0 
L 628 0 
L 628 4666 
z
" transform="scale(0.015625)"/>
      <path id="DejaVuSans-65" d="M 3597 1894 
L 3597 1613 
L 953 1613 
Q 991 1019 1311 708 
Q 1631 397 2203 397 
Q 2534 397 2845 478 
Q 3156 559 3463 722 
L 3463 178 
Q 3153 47 2828 -22 
Q 2503 -91 2169 -91 
Q 1331 -91 842 396 
Q 353 884 353 1716 
Q 353 2575 817 3079 
Q 1281 3584 2069 3584 
Q 2775 3584 3186 3129 
Q 3597 2675 3597 1894 
z
M 3022 2063 
Q 3016 2534 2758 2815 
Q 2500 3097 2075 3097 
Q 1594 3097 1305 2825 
Q 1016 2553 972 2059 
L 3022 2063 
z
" transform="scale(0.015625)"/>
      <path id="DejaVuSans-73" d="M 2834 3397 
L 2834 2853 
Q 2591 2978 2328 3040 
Q 2066 3103 1784 3103 
Q 1356 3103 1142 2972 
Q 928 2841 928 2578 
Q 928 2378 1081 2264 
Q 1234 2150 1697 2047 
L 1894 2003 
Q 2506 1872 2764 1633 
Q 3022 1394 3022 966 
Q 3022 478 2636 193 
Q 2250 -91 1575 -91 
Q 1294 -91 989 -36 
Q 684 19 347 128 
L 347 722 
Q 666 556 975 473 
Q 1284 391 1588 391 
Q 1994 391 2212 530 
Q 2431 669 2431 922 
Q 2431 1156 2273 1281 
Q 2116 1406 1581 1522 
L 1381 1569 
Q 847 1681 609 1914 
Q 372 2147 372 2553 
Q 372 3047 722 3315 
Q 1072 3584 1716 3584 
Q 2034 3584 2315 3537 
Q 2597 3491 2834 3397 
z
" transform="scale(0.015625)"/>
      <path id="DejaVuSans-63" d="M 3122 3366 
L 3122 2828 
Q 2878 2963 2633 3030 
Q 2388 3097 2138 3097 
Q 1578 3097 1268 2742 
Q 959 2388 959 1747 
Q 959 1106 1268 751 
Q 1578 397 2138 397 
Q 2388 397 2633 464 
Q 2878 531 3122 666 
L 3122 134 
Q 2881 22 2623 -34 
Q 2366 -91 2075 -91 
Q 1284 -91 818 406 
Q 353 903 353 1747 
Q 353 2603 823 3093 
Q 1294 3584 2113 3584 
Q 2378 3584 2631 3529 
Q 2884 3475 3122 3366 
z
" transform="scale(0.015625)"/>
      <path id="DejaVuSans-72" d="M 2631 2963 
Q 2534 3019 2420 3045 
Q 2306 3072 2169 3072 
Q 1681 3072 1420 2755 
Q 1159 2438 1159 1844 
L 1159 0 
L 581 0 
L 581 3500 
L 1159 3500 
L 1159 2956 
Q 1341 3275 1631 3429 
Q 1922 3584 2338 3584 
Q 2397 3584 2469 3576 
Q 2541 3569 2628 3553 
L 2631 2963 
z
" transform="scale(0.015625)"/>
      <path id="DejaVuSans-69" d="M 603 3500 
L 1178 3500 
L 1178 0 
L 603 0 
L 603 3500 
z
M 603 4863 
L 1178 4863 
L 1178 4134 
L 603 4134 
L 603 4863 
z
" transform="scale(0.015625)"/>
      <path id="DejaVuSans-70" d="M 1159 525 
L 1159 -1331 
L 581 -1331 
L 581 3500 
L 1159 3500 
L 1159 2969 
Q 1341 3281 1617 3432 
Q 1894 3584 2278 3584 
Q 2916 3584 3314 3078 
Q 3713 2572 3713 1747 
Q 3713 922 3314 415 
Q 2916 -91 2278 -91 
Q 1894 -91 1617 61 
Q 1341 213 1159 525 
z
M 3116 1747 
Q 3116 2381 2855 2742 
Q 2594 3103 2138 3103 
Q 1681 3103 1420 2742 
Q 1159 2381 1159 1747 
Q 1159 1113 1420 752 
Q 1681 391 2138 391 
Q 2594 391 2855 752 
Q 3116 1113 3116 1747 
z
" transform="scale(0.015625)"/>
      <path id="DejaVuSans-f3" d="M 1959 3097 
Q 1497 3097 1228 2736 
Q 959 2375 959 1747 
Q 959 1119 1226 758 
Q 1494 397 1959 397 
Q 2419 397 2687 759 
Q 2956 1122 2956 1747 
Q 2956 2369 2687 2733 
Q 2419 3097 1959 3097 
z
M 1959 3584 
Q 2709 3584 3137 3096 
Q 3566 2609 3566 1747 
Q 3566 888 3137 398 
Q 2709 -91 1959 -91 
Q 1206 -91 779 398 
Q 353 888 353 1747 
Q 353 2609 779 3096 
Q 1206 3584 1959 3584 
z
M 2394 5119 
L 3016 5119 
L 1998 3944 
L 1519 3944 
L 2394 5119 
z
" transform="scale(0.015625)"/>
      <path id="DejaVuSans-6e" d="M 3513 2113 
L 3513 0 
L 2938 0 
L 2938 2094 
Q 2938 2591 2744 2837 
Q 2550 3084 2163 3084 
Q 1697 3084 1428 2787 
Q 1159 2491 1159 1978 
L 1159 0 
L 581 0 
L 581 3500 
L 1159 3500 
L 1159 2956 
Q 1366 3272 1645 3428 
Q 1925 3584 2291 3584 
Q 2894 3584 3203 3211 
Q 3513 2838 3513 2113 
z
" transform="scale(0.015625)"/>
     </defs>
     <use xlink:href="#DejaVuSans-44"/>
     <use xlink:href="#DejaVuSans-65" transform="translate(77.001953 0)"/>
     <use xlink:href="#DejaVuSans-73" transform="translate(138.525391 0)"/>
     <use xlink:href="#DejaVuSans-63" transform="translate(190.625 0)"/>
     <use xlink:href="#DejaVuSans-72" transform="translate(245.605469 0)"/>
     <use xlink:href="#DejaVuSans-69" transform="translate(286.71875 0)"/>
     <use xlink:href="#DejaVuSans-70" transform="translate(314.501953 0)"/>
     <use xlink:href="#DejaVuSans-63" transform="translate(377.978516 0)"/>
     <use xlink:href="#DejaVuSans-69" transform="translate(432.958984 0)"/>
     <use xlink:href="#DejaVuSans-f3" transform="translate(460.742188 0)"/>
     <use xlink:href="#DejaVuSans-6e" transform="translate(521.923828 0)"/>
    </g>
    <!-- observable localizada -->
    <g transform="translate(107.068406 161.378981) scale(0.15 -0.15)">
     <defs>
      <path id="DejaVuSans-6f" d="M 1959 3097 
Q 1497 3097 1228 2736 
Q 959 2375 959 1747 
Q 959 1119 1226 758 
Q 1494 397 1959 397 
Q 2419 397 2687 759 
Q 2956 1122 2956 1747 
Q 2956 2369 2687 2733 
Q 2419 3097 1959 3097 
z
M 1959 3584 
Q 2709 3584 3137 3096 
Q 3566 2609 3566 1747 
Q 3566 888 3137 398 
Q 2709 -91 1959 -91 
Q 1206 -91 779 398 
Q 353 888 353 1747 
Q 353 2609 779 3096 
Q 1206 3584 1959 3584 
z
" transform="scale(0.015625)"/>
      <path id="DejaVuSans-62" d="M 3116 1747 
Q 3116 2381 2855 2742 
Q 2594 3103 2138 3103 
Q 1681 3103 1420 2742 
Q 1159 2381 1159 1747 
Q 1159 1113 1420 752 
Q 1681 391 2138 391 
Q 2594 391 2855 752 
Q 3116 1113 3116 1747 
z
M 1159 2969 
Q 1341 3281 1617 3432 
Q 1894 3584 2278 3584 
Q 2916 3584 3314 3078 
Q 3713 2572 3713 1747 
Q 3713 922 3314 415 
Q 2916 -91 2278 -91 
Q 1894 -91 1617 61 
Q 1341 213 1159 525 
L 1159 0 
L 581 0 
L 581 4863 
L 1159 4863 
L 1159 2969 
z
" transform="scale(0.015625)"/>
      <path id="DejaVuSans-76" d="M 191 3500 
L 800 3500 
L 1894 563 
L 2988 3500 
L 3597 3500 
L 2284 0 
L 1503 0 
L 191 3500 
z
" transform="scale(0.015625)"/>
      <path id="DejaVuSans-61" d="M 2194 1759 
Q 1497 1759 1228 1600 
Q 959 1441 959 1056 
Q 959 750 1161 570 
Q 1363 391 1709 391 
Q 2188 391 2477 730 
Q 2766 1069 2766 1631 
L 2766 1759 
L 2194 1759 
z
M 3341 1997 
L 3341 0 
L 2766 0 
L 2766 531 
Q 2569 213 2275 61 
Q 1981 -91 1556 -91 
Q 1019 -91 701 211 
Q 384 513 384 1019 
Q 384 1609 779 1909 
Q 1175 2209 1959 2209 
L 2766 2209 
L 2766 2266 
Q 2766 2663 2505 2880 
Q 2244 3097 1772 3097 
Q 1472 3097 1187 3025 
Q 903 2953 641 2809 
L 641 3341 
Q 956 3463 1253 3523 
Q 1550 3584 1831 3584 
Q 2591 3584 2966 3190 
Q 3341 2797 3341 1997 
z
" transform="scale(0.015625)"/>
      <path id="DejaVuSans-6c" d="M 603 4863 
L 1178 4863 
L 1178 0 
L 603 0 
L 603 4863 
z
" transform="scale(0.015625)"/>
      <path id="DejaVuSans-7a" d="M 353 3500 
L 3084 3500 
L 3084 2975 
L 922 459 
L 3084 459 
L 3084 0 
L 275 0 
L 275 525 
L 2438 3041 
L 353 3041 
L 353 3500 
z
" transform="scale(0.015625)"/>
      <path id="DejaVuSans-64" d="M 2906 2969 
L 2906 4863 
L 3481 4863 
L 3481 0 
L 2906 0 
L 2906 525 
Q 2725 213 2448 61 
Q 2172 -91 1784 -91 
Q 1150 -91 751 415 
Q 353 922 353 1747 
Q 353 2572 751 3078 
Q 1150 3584 1784 3584 
Q 2172 3584 2448 3432 
Q 2725 3281 2906 2969 
z
M 947 1747 
Q 947 1113 1208 752 
Q 1469 391 1925 391 
Q 2381 391 2643 752 
Q 2906 1113 2906 1747 
Q 2906 2381 2643 2742 
Q 2381 3103 1925 3103 
Q 1469 3103 1208 2742 
Q 947 2381 947 1747 
z
" transform="scale(0.015625)"/>
     </defs>
     <use xlink:href="#DejaVuSans-6f"/>
     <use xlink:href="#DejaVuSans-62" transform="translate(61.181641 0)"/>
     <use xlink:href="#DejaVuSans-73" transform="translate(124.658203 0)"/>
     <use xlink:href="#DejaVuSans-65" transform="translate(176.757812 0)"/>
     <use xlink:href="#DejaVuSans-72" transform="translate(238.28125 0)"/>
     <use xlink:href="#DejaVuSans-76" transform="translate(279.394531 0)"/>
     <use xlink:href="#DejaVuSans-61" transform="translate(338.574219 0)"/>
     <use xlink:href="#DejaVuSans-62" transform="translate(399.853516 0)"/>
     <use xlink:href="#DejaVuSans-6c" transform="translate(463.330078 0)"/>
     <use xlink:href="#DejaVuSans-65" transform="translate(491.113281 0)"/>
     <use xlink:href="#DejaVuSans-20" transform="translate(552.636719 0)"/>
     <use xlink:href="#DejaVuSans-6c" transform="translate(584.423828 0)"/>
     <use xlink:href="#DejaVuSans-6f" transform="translate(612.207031 0)"/>
     <use xlink:href="#DejaVuSans-63" transform="translate(673.388672 0)"/>
     <use xlink:href="#DejaVuSans-61" transform="translate(728.369141 0)"/>
     <use xlink:href="#DejaVuSans-6c" transform="translate(789.648438 0)"/>
     <use xlink:href="#DejaVuSans-69" transform="translate(817.431641 0)"/>
     <use xlink:href="#DejaVuSans-7a" transform="translate(845.214844 0)"/>
     <use xlink:href="#DejaVuSans-61" transform="translate(897.705078 0)"/>
     <use xlink:href="#DejaVuSans-64" transform="translate(958.984375 0)"/>
     <use xlink:href="#DejaVuSans-61" transform="translate(1022.460938 0)"/>
    </g>
   </g>
   <g id="text_6">
    <!-- 2 → 3 -->
    <g transform="translate(368.636297 127.425544) scale(0.15 -0.15)">
     <defs>
      <path id="DejaVuSans-33" d="M 2597 2516 
Q 3050 2419 3304 2112 
Q 3559 1806 3559 1356 
Q 3559 666 3084 287 
Q 2609 -91 1734 -91 
Q 1441 -91 1130 -33 
Q 819 25 488 141 
L 488 750 
Q 750 597 1062 519 
Q 1375 441 1716 441 
Q 2309 441 2620 675 
Q 2931 909 2931 1356 
Q 2931 1769 2642 2001 
Q 2353 2234 1838 2234 
L 1294 2234 
L 1294 2753 
L 1863 2753 
Q 2328 2753 2575 2939 
Q 2822 3125 2822 3475 
Q 2822 3834 2567 4026 
Q 2313 4219 1838 4219 
Q 1578 4219 1281 4162 
Q 984 4106 628 3988 
L 628 4550 
Q 988 4650 1302 4700 
Q 1616 4750 1894 4750 
Q 2613 4750 3031 4423 
Q 3450 4097 3450 3541 
Q 3450 3153 3228 2886 
Q 3006 2619 2597 2516 
z
" transform="scale(0.015625)"/>
     </defs>
     <use xlink:href="#DejaVuSans-32"/>
     <use xlink:href="#DejaVuSans-20" transform="translate(63.623047 0)"/>
     <use xlink:href="#DejaVuSans-2192" transform="translate(95.410156 0)"/>
     <use xlink:href="#DejaVuSans-20" transform="translate(179.199219 0)"/>
     <use xlink:href="#DejaVuSans-33" transform="translate(210.986328 0)"/>
    </g>
    <!-- Derivación -->
    <g transform="translate(349.090594 144.222262) scale(0.15 -0.15)">
     <use xlink:href="#DejaVuSans-44"/>
     <use xlink:href="#DejaVuSans-65" transform="translate(77.001953 0)"/>
     <use xlink:href="#DejaVuSans-72" transform="translate(138.525391 0)"/>
     <use xlink:href="#DejaVuSans-69" transform="translate(179.638672 0)"/>
     <use xlink:href="#DejaVuSans-76" transform="translate(207.421875 0)"/>
     <use xlink:href="#DejaVuSans-61" transform="translate(266.601562 0)"/>
     <use xlink:href="#DejaVuSans-63" transform="translate(327.880859 0)"/>
     <use xlink:href="#DejaVuSans-69" transform="translate(382.861328 0)"/>
     <use xlink:href="#DejaVuSans-f3" transform="translate(410.644531 0)"/>
     <use xlink:href="#DejaVuSans-6e" transform="translate(471.826172 0)"/>
    </g>
    <!-- reproducible y verificable -->
    <g transform="translate(293.92575 161.018981) scale(0.15 -0.15)">
     <defs>
      <path id="DejaVuSans-75" d="M 544 1381 
L 544 3500 
L 1119 3500 
L 1119 1403 
Q 1119 906 1312 657 
Q 1506 409 1894 409 
Q 2359 409 2629 706 
Q 2900 1003 2900 1516 
L 2900 3500 
L 3475 3500 
L 3475 0 
L 2900 0 
L 2900 538 
Q 2691 219 2414 64 
Q 2138 -91 1772 -91 
Q 1169 -91 856 284 
Q 544 659 544 1381 
z
M 1991 3584 
L 1991 3584 
z
" transform="scale(0.015625)"/>
      <path id="DejaVuSans-79" d="M 2059 -325 
Q 1816 -950 1584 -1140 
Q 1353 -1331 966 -1331 
L 506 -1331 
L 506 -850 
L 844 -850 
Q 1081 -850 1212 -737 
Q 1344 -625 1503 -206 
L 1606 56 
L 191 3500 
L 800 3500 
L 1894 763 
L 2988 3500 
L 3597 3500 
L 2059 -325 
z
" transform="scale(0.015625)"/>
      <path id="DejaVuSans-66" d="M 2375 4863 
L 2375 4384 
L 1825 4384 
Q 1516 4384 1395 4259 
Q 1275 4134 1275 3809 
L 1275 3500 
L 2222 3500 
L 2222 3053 
L 1275 3053 
L 1275 0 
L 697 0 
L 697 3053 
L 147 3053 
L 147 3500 
L 697 3500 
L 697 3744 
Q 697 4328 969 4595 
Q 1241 4863 1831 4863 
L 2375 4863 
z
" transform="scale(0.015625)"/>
     </defs>
     <use xlink:href="#DejaVuSans-72"/>
     <use xlink:href="#DejaVuSans-65" transform="translate(38.863281 0)"/>
     <use xlink:href="#DejaVuSans-70" transform="translate(100.386719 0)"/>
     <use xlink:href="#DejaVuSans-72" transform="translate(163.863281 0)"/>
     <use xlink:href="#DejaVuSans-6f" transform="translate(202.726562 0)"/>
     <use xlink:href="#DejaVuSans-64" transform="translate(263.908203 0)"/>
     <use xlink:href="#DejaVuSans-75" transform="translate(327.384766 0)"/>
     <use xlink:href="#DejaVuSans-63" transform="translate(390.763672 0)"/>
     <use xlink:href="#DejaVuSans-69" transform="translate(445.744141 0)"/>
     <use xlink:href="#DejaVuSans-62" transform="translate(473.527344 0)"/>
     <use xlink:href="#DejaVuSans-6c" transform="translate(537.003906 0)"/>
     <use xlink:href="#DejaVuSans-65" transform="translate(564.787109 0)"/>
     <use xlink:href="#DejaVuSans-20" transform="translate(626.310547 0)"/>
     <use xlink:href="#DejaVuSans-79" transform="translate(658.097656 0)"/>
     <use xlink:href="#DejaVuSans-20" transform="translate(717.277344 0)"/>
     <use xlink:href="#DejaVuSans-76" transform="translate(749.064453 0)"/>
     <use xlink:href="#DejaVuSans-65" transform="translate(808.244141 0)"/>
     <use xlink:href="#DejaVuSans-72" transform="translate(869.767578 0)"/>
     <use xlink:href="#DejaVuSans-69" transform="translate(910.880859 0)"/>
     <use xlink:href="#DejaVuSans-66" transform="translate(938.664062 0)"/>
     <use xlink:href="#DejaVuSans-69" transform="translate(973.869141 0)"/>
     <use xlink:href="#DejaVuSans-63" transform="translate(1001.652344 0)"/>
     <use xlink:href="#DejaVuSans-61" transform="translate(1056.632812 0)"/>
     <use xlink:href="#DejaVuSans-62" transform="translate(1117.912109 0)"/>
     <use xlink:href="#DejaVuSans-6c" transform="translate(1181.388672 0)"/>
     <use xlink:href="#DejaVuSans-65" transform="translate(1209.171875 0)"/>
    </g>
   </g>
   <g id="text_7">
    <!-- 3 → 4 -->
    <g transform="translate(562.820297 127.065544) scale(0.15 -0.15)">
     <defs>
      <path id="DejaVuSans-34" d="M 2419 4116 
L 825 1625 
L 2419 1625 
L 2419 4116 
z
M 2253 4666 
L 3047 4666 
L 3047 1625 
L 3713 1625 
L 3713 1100 
L 3047 1100 
L 3047 0 
L 2419 0 
L 2419 1100 
L 313 1100 
L 313 1709 
L 2253 4666 
z
" transform="scale(0.015625)"/>
     </defs>
     <use xlink:href="#DejaVuSans-33"/>
     <use xlink:href="#DejaVuSans-20" transform="translate(63.623047 0)"/>
     <use xlink:href="#DejaVuSans-2192" transform="translate(95.410156 0)"/>
     <use xlink:href="#DejaVuSans-20" transform="translate(179.199219 0)"/>
     <use xlink:href="#DejaVuSans-34" transform="translate(210.986328 0)"/>
    </g>
    <!-- Suficiencia + garantía -->
    <g transform="translate(500.337094 144.582262) scale(0.15 -0.15)">
     <defs>
      <path id="DejaVuSans-53" d="M 3425 4513 
L 3425 3897 
Q 3066 4069 2747 4153 
Q 2428 4238 2131 4238 
Q 1616 4238 1336 4038 
Q 1056 3838 1056 3469 
Q 1056 3159 1242 3001 
Q 1428 2844 1947 2747 
L 2328 2669 
Q 3034 2534 3370 2195 
Q 3706 1856 3706 1288 
Q 3706 609 3251 259 
Q 2797 -91 1919 -91 
Q 1588 -91 1214 -16 
Q 841 59 441 206 
L 441 856 
Q 825 641 1194 531 
Q 1563 422 1919 422 
Q 2459 422 2753 634 
Q 3047 847 3047 1241 
Q 3047 1584 2836 1778 
Q 2625 1972 2144 2069 
L 1759 2144 
Q 1053 2284 737 2584 
Q 422 2884 422 3419 
Q 422 4038 858 4394 
Q 1294 4750 2059 4750 
Q 2388 4750 2728 4690 
Q 3069 4631 3425 4513 
z
" transform="scale(0.015625)"/>
      <path id="DejaVuSans-2b" d="M 2944 4013 
L 2944 2272 
L 4684 2272 
L 4684 1741 
L 2944 1741 
L 2944 0 
L 2419 0 
L 2419 1741 
L 678 1741 
L 678 2272 
L 2419 2272 
L 2419 4013 
L 2944 4013 
z
" transform="scale(0.015625)"/>
      <path id="DejaVuSans-67" d="M 2906 1791 
Q 2906 2416 2648 2759 
Q 2391 3103 1925 3103 
Q 1463 3103 1205 2759 
Q 947 2416 947 1791 
Q 947 1169 1205 825 
Q 1463 481 1925 481 
Q 2391 481 2648 825 
Q 2906 1169 2906 1791 
z
M 3481 434 
Q 3481 -459 3084 -895 
Q 2688 -1331 1869 -1331 
Q 1566 -1331 1297 -1286 
Q 1028 -1241 775 -1147 
L 775 -588 
Q 1028 -725 1275 -790 
Q 1522 -856 1778 -856 
Q 2344 -856 2625 -561 
Q 2906 -266 2906 331 
L 2906 616 
Q 2728 306 2450 153 
Q 2172 0 1784 0 
Q 1141 0 747 490 
Q 353 981 353 1791 
Q 353 2603 747 3093 
Q 1141 3584 1784 3584 
Q 2172 3584 2450 3431 
Q 2728 3278 2906 2969 
L 2906 3500 
L 3481 3500 
L 3481 434 
z
" transform="scale(0.015625)"/>
      <path id="DejaVuSans-74" d="M 1172 4494 
L 1172 3500 
L 2356 3500 
L 2356 3053 
L 1172 3053 
L 1172 1153 
Q 1172 725 1289 603 
Q 1406 481 1766 481 
L 2356 481 
L 2356 0 
L 1766 0 
Q 1100 0 847 248 
Q 594 497 594 1153 
L 594 3053 
L 172 3053 
L 172 3500 
L 594 3500 
L 594 4494 
L 1172 4494 
z
" transform="scale(0.015625)"/>
      <path id="DejaVuSans-ed" d="M 1322 5119 
L 1944 5119 
L 926 3944 
L 447 3944 
L 1322 5119 
z
M 603 3500 
L 1178 3500 
L 1178 0 
L 603 0 
L 603 3500 
z
M 891 3584 
L 891 3584 
z
" transform="scale(0.015625)"/>
     </defs>
     <use xlink:href="#DejaVuSans-53"/>
     <use xlink:href="#DejaVuSans-75" transform="translate(63.476562 0)"/>
     <use xlink:href="#DejaVuSans-66" transform="translate(126.855469 0)"/>
     <use xlink:href="#DejaVuSans-69" transform="translate(162.060547 0)"/>
     <use xlink:href="#DejaVuSans-63" transform="translate(189.84375 0)"/>
     <use xlink:href="#DejaVuSans-69" transform="translate(244.824219 0)"/>
     <use xlink:href="#DejaVuSans-65" transform="translate(272.607422 0)"/>
     <use xlink:href="#DejaVuSans-6e" transform="translate(334.130859 0)"/>
     <use xlink:href="#DejaVuSans-63" transform="translate(397.509766 0)"/>
     <use xlink:href="#DejaVuSans-69" transform="translate(452.490234 0)"/>
     <use xlink:href="#DejaVuSans-61" transform="translate(480.273438 0)"/>
     <use xlink:href="#DejaVuSans-20" transform="translate(541.552734 0)"/>
     <use xlink:href="#DejaVuSans-2b" transform="translate(573.339844 0)"/>
     <use xlink:href="#DejaVuSans-20" transform="translate(657.128906 0)"/>
     <use xlink:href="#DejaVuSans-67" transform="translate(688.916016 0)"/>
     <use xlink:href="#DejaVuSans-61" transform="translate(752.392578 0)"/>
     <use xlink:href="#DejaVuSans-72" transform="translate(813.671875 0)"/>
     <use xlink:href="#DejaVuSans-61" transform="translate(854.785156 0)"/>
     <use xlink:href="#DejaVuSans-6e" transform="translate(916.064453 0)"/>
     <use xlink:href="#DejaVuSans-74" transform="translate(979.443359 0)"/>
     <use xlink:href="#DejaVuSans-ed" transform="translate(1018.652344 0)"/>
     <use xlink:href="#DejaVuSans-61" transform="translate(1046.435547 0)"/>
    </g>
    <!-- para entrega -->
    <g transform="translate(534.800766 161.378981) scale(0.15 -0.15)">
     <use xlink:href="#DejaVuSans-70"/>
     <use xlink:href="#DejaVuSans-61" transform="translate(63.476562 0)"/>
     <use xlink:href="#DejaVuSans-72" transform="translate(124.755859 0)"/>
     <use xlink:href="#DejaVuSans-61" transform="translate(165.869141 0)"/>
     <use xlink:href="#DejaVuSans-20" transform="translate(227.148438 0)"/>
     <use xlink:href="#DejaVuSans-65" transform="translate(258.935547 0)"/>
     <use xlink:href="#DejaVuSans-6e" transform="translate(320.458984 0)"/>
     <use xlink:href="#DejaVuSans-74" transform="translate(383.837891 0)"/>
     <use xlink:href="#DejaVuSans-72" transform="translate(423.046875 0)"/>
     <use xlink:href="#DejaVuSans-65" transform="translate(461.910156 0)"/>
     <use xlink:href="#DejaVuSans-67" transform="translate(523.433594 0)"/>
     <use xlink:href="#DejaVuSans-61" transform="translate(586.910156 0)"/>
    </g>
   </g>
   <g id="text_8">
    <!-- Relectura operativa subordinada -->
    <g transform="translate(303.244609 383.627197) scale(0.17 -0.17)">
     <defs>
      <path id="DejaVuSans-Oblique-52" d="M 1613 4147 
L 1294 2491 
L 2106 2491 
Q 2584 2491 2879 2755 
Q 3175 3019 3175 3444 
Q 3175 3784 2976 3965 
Q 2778 4147 2406 4147 
L 1613 4147 
z
M 2772 2241 
Q 2972 2194 3105 2009 
Q 3238 1825 3413 1275 
L 3809 0 
L 3144 0 
L 2778 1197 
Q 2638 1659 2453 1815 
Q 2269 1972 1888 1972 
L 1191 1972 
L 806 0 
L 172 0 
L 1081 4666 
L 2503 4666 
Q 3150 4666 3495 4373 
Q 3841 4081 3841 3531 
Q 3841 3044 3547 2687 
Q 3253 2331 2772 2241 
z
" transform="scale(0.015625)"/>
      <path id="DejaVuSans-Oblique-65" d="M 3078 2063 
Q 3088 2113 3092 2166 
Q 3097 2219 3097 2272 
Q 3097 2653 2873 2875 
Q 2650 3097 2266 3097 
Q 1838 3097 1509 2826 
Q 1181 2556 1013 2059 
L 3078 2063 
z
M 3578 1613 
L 903 1613 
Q 884 1494 878 1425 
Q 872 1356 872 1306 
Q 872 872 1139 634 
Q 1406 397 1894 397 
Q 2269 397 2603 481 
Q 2938 566 3225 728 
L 3116 159 
Q 2806 34 2476 -28 
Q 2147 -91 1806 -91 
Q 1078 -91 686 257 
Q 294 606 294 1247 
Q 294 1794 489 2264 
Q 684 2734 1063 3103 
Q 1306 3334 1642 3459 
Q 1978 3584 2356 3584 
Q 2950 3584 3301 3228 
Q 3653 2872 3653 2272 
Q 3653 2128 3634 1964 
Q 3616 1800 3578 1613 
z
" transform="scale(0.015625)"/>
      <path id="DejaVuSans-Oblique-6c" d="M 1172 4863 
L 1747 4863 
L 800 0 
L 225 0 
L 1172 4863 
z
" transform="scale(0.015625)"/>
      <path id="DejaVuSans-Oblique-63" d="M 3431 3366 
L 3316 2797 
Q 3109 2947 2876 3022 
Q 2644 3097 2394 3097 
Q 2119 3097 1870 3000 
Q 1622 2903 1453 2725 
Q 1184 2453 1037 2087 
Q 891 1722 891 1331 
Q 891 859 1127 628 
Q 1363 397 1844 397 
Q 2081 397 2348 469 
Q 2616 541 2906 684 
L 2797 116 
Q 2547 13 2283 -39 
Q 2019 -91 1741 -91 
Q 1044 -91 669 257 
Q 294 606 294 1253 
Q 294 1797 489 2255 
Q 684 2713 1069 3078 
Q 1331 3328 1684 3456 
Q 2038 3584 2456 3584 
Q 2700 3584 2940 3529 
Q 3181 3475 3431 3366 
z
" transform="scale(0.015625)"/>
      <path id="DejaVuSans-Oblique-74" d="M 2706 3500 
L 2619 3053 
L 1472 3053 
L 1100 1153 
Q 1081 1047 1072 975 
Q 1063 903 1063 863 
Q 1063 663 1183 572 
Q 1303 481 1569 481 
L 2150 481 
L 2053 0 
L 1503 0 
Q 991 0 739 200 
Q 488 400 488 806 
Q 488 878 497 964 
Q 506 1050 525 1153 
L 897 3053 
L 409 3053 
L 500 3500 
L 978 3500 
L 1172 4494 
L 1747 4494 
L 1556 3500 
L 2706 3500 
z
" transform="scale(0.015625)"/>
      <path id="DejaVuSans-Oblique-75" d="M 428 1388 
L 838 3500 
L 1416 3500 
L 1006 1409 
Q 975 1256 961 1147 
Q 947 1038 947 966 
Q 947 700 1109 554 
Q 1272 409 1569 409 
Q 2031 409 2368 721 
Q 2706 1034 2809 1563 
L 3194 3500 
L 3769 3500 
L 3091 0 
L 2516 0 
L 2631 550 
Q 2388 244 2052 76 
Q 1716 -91 1338 -91 
Q 878 -91 622 161 
Q 366 413 366 863 
Q 366 956 381 1097 
Q 397 1238 428 1388 
z
" transform="scale(0.015625)"/>
      <path id="DejaVuSans-Oblique-72" d="M 2853 2969 
Q 2766 3016 2653 3041 
Q 2541 3066 2413 3066 
Q 1953 3066 1609 2717 
Q 1266 2369 1153 1784 
L 800 0 
L 225 0 
L 909 3500 
L 1484 3500 
L 1375 2956 
Q 1603 3259 1920 3421 
Q 2238 3584 2597 3584 
Q 2691 3584 2781 3573 
Q 2872 3563 2963 3538 
L 2853 2969 
z
" transform="scale(0.015625)"/>
      <path id="DejaVuSans-Oblique-61" d="M 3438 1997 
L 3047 0 
L 2472 0 
L 2578 531 
Q 2325 219 2001 64 
Q 1678 -91 1281 -91 
Q 834 -91 548 182 
Q 263 456 263 884 
Q 263 1497 752 1853 
Q 1241 2209 2100 2209 
L 2900 2209 
L 2931 2363 
Q 2938 2388 2941 2417 
Q 2944 2447 2944 2509 
Q 2944 2788 2717 2942 
Q 2491 3097 2081 3097 
Q 1800 3097 1504 3025 
Q 1209 2953 897 2809 
L 997 3341 
Q 1322 3463 1633 3523 
Q 1944 3584 2234 3584 
Q 2853 3584 3176 3315 
Q 3500 3047 3500 2534 
Q 3500 2431 3484 2292 
Q 3469 2153 3438 1997 
z
M 2816 1759 
L 2241 1759 
Q 1534 1759 1195 1570 
Q 856 1381 856 984 
Q 856 709 1029 553 
Q 1203 397 1509 397 
Q 1978 397 2328 733 
Q 2678 1069 2791 1631 
L 2816 1759 
z
" transform="scale(0.015625)"/>
      <path id="DejaVuSans-Oblique-20" transform="scale(0.015625)"/>
      <path id="DejaVuSans-Oblique-6f" d="M 1625 -91 
Q 1009 -91 651 289 
Q 294 669 294 1325 
Q 294 1706 417 2101 
Q 541 2497 738 2766 
Q 1047 3184 1428 3384 
Q 1809 3584 2291 3584 
Q 2888 3584 3255 3212 
Q 3622 2841 3622 2241 
Q 3622 1825 3500 1412 
Q 3378 1000 3181 728 
Q 2875 309 2494 109 
Q 2113 -91 1625 -91 
z
M 891 1344 
Q 891 869 1089 633 
Q 1288 397 1691 397 
Q 2269 397 2648 901 
Q 3028 1406 3028 2181 
Q 3028 2634 2825 2865 
Q 2622 3097 2228 3097 
Q 1903 3097 1650 2945 
Q 1397 2794 1197 2484 
Q 1050 2253 970 1956 
Q 891 1659 891 1344 
z
" transform="scale(0.015625)"/>
      <path id="DejaVuSans-Oblique-70" d="M 3175 2156 
Q 3175 2616 2975 2859 
Q 2775 3103 2400 3103 
Q 2144 3103 1911 2972 
Q 1678 2841 1497 2591 
Q 1319 2344 1212 1994 
Q 1106 1644 1106 1300 
Q 1106 863 1306 627 
Q 1506 391 1875 391 
Q 2147 391 2380 519 
Q 2613 647 2778 891 
Q 2956 1147 3065 1494 
Q 3175 1841 3175 2156 
z
M 1394 2969 
Q 1625 3272 1939 3428 
Q 2253 3584 2638 3584 
Q 3175 3584 3472 3232 
Q 3769 2881 3769 2247 
Q 3769 1728 3584 1258 
Q 3400 788 3053 416 
Q 2822 169 2531 39 
Q 2241 -91 1919 -91 
Q 1547 -91 1294 64 
Q 1041 219 916 525 
L 556 -1331 
L -19 -1331 
L 922 3500 
L 1497 3500 
L 1394 2969 
z
" transform="scale(0.015625)"/>
      <path id="DejaVuSans-Oblique-69" d="M 1172 4863 
L 1747 4863 
L 1606 4134 
L 1031 4134 
L 1172 4863 
z
M 909 3500 
L 1484 3500 
L 800 0 
L 225 0 
L 909 3500 
z
" transform="scale(0.015625)"/>
      <path id="DejaVuSans-Oblique-76" d="M 459 3500 
L 1069 3500 
L 1581 525 
L 3256 3500 
L 3866 3500 
L 1875 0 
L 1100 0 
L 459 3500 
z
" transform="scale(0.015625)"/>
      <path id="DejaVuSans-Oblique-73" d="M 3200 3397 
L 3091 2853 
Q 2863 2978 2609 3040 
Q 2356 3103 2088 3103 
Q 1634 3103 1373 2948 
Q 1113 2794 1113 2528 
Q 1113 2219 1719 2053 
Q 1766 2041 1788 2034 
L 1972 1978 
Q 2547 1819 2739 1644 
Q 2931 1469 2931 1166 
Q 2931 609 2489 259 
Q 2047 -91 1331 -91 
Q 1053 -91 747 -37 
Q 441 16 72 128 
L 184 722 
Q 500 559 806 475 
Q 1113 391 1394 391 
Q 1816 391 2080 572 
Q 2344 753 2344 1031 
Q 2344 1331 1650 1516 
L 1591 1531 
L 1394 1581 
Q 956 1697 753 1886 
Q 550 2075 550 2369 
Q 550 2928 970 3256 
Q 1391 3584 2113 3584 
Q 2397 3584 2667 3537 
Q 2938 3491 3200 3397 
z
" transform="scale(0.015625)"/>
      <path id="DejaVuSans-Oblique-62" d="M 3169 2138 
Q 3169 2591 2961 2847 
Q 2753 3103 2388 3103 
Q 2122 3103 1889 2973 
Q 1656 2844 1484 2597 
Q 1303 2338 1198 1995 
Q 1094 1653 1094 1313 
Q 1094 881 1298 636 
Q 1503 391 1863 391 
Q 2134 391 2365 517 
Q 2597 644 2772 891 
Q 2950 1147 3059 1487 
Q 3169 1828 3169 2138 
z
M 1381 2969 
Q 1594 3256 1914 3420 
Q 2234 3584 2584 3584 
Q 3122 3584 3439 3221 
Q 3756 2859 3756 2241 
Q 3756 1734 3570 1259 
Q 3384 784 3041 416 
Q 2816 172 2522 40 
Q 2228 -91 1906 -91 
Q 1566 -91 1316 65 
Q 1066 222 909 531 
L 806 0 
L 231 0 
L 1178 4863 
L 1753 4863 
L 1381 2969 
z
" transform="scale(0.015625)"/>
      <path id="DejaVuSans-Oblique-64" d="M 2675 525 
Q 2444 222 2128 65 
Q 1813 -91 1428 -91 
Q 903 -91 598 267 
Q 294 625 294 1247 
Q 294 1766 478 2236 
Q 663 2706 1013 3078 
Q 1244 3325 1534 3454 
Q 1825 3584 2144 3584 
Q 2481 3584 2739 3421 
Q 2997 3259 3138 2956 
L 3513 4863 
L 4091 4863 
L 3144 0 
L 2566 0 
L 2675 525 
z
M 891 1350 
Q 891 897 1095 644 
Q 1300 391 1663 391 
Q 1931 391 2161 520 
Q 2391 650 2566 903 
Q 2750 1166 2856 1509 
Q 2963 1853 2963 2188 
Q 2963 2622 2758 2865 
Q 2553 3109 2194 3109 
Q 1922 3109 1687 2981 
Q 1453 2853 1288 2613 
Q 1106 2353 998 2009 
Q 891 1666 891 1350 
z
" transform="scale(0.015625)"/>
      <path id="DejaVuSans-Oblique-6e" d="M 3566 2113 
L 3156 0 
L 2578 0 
L 2988 2091 
Q 3016 2238 3031 2350 
Q 3047 2463 3047 2528 
Q 3047 2791 2881 2937 
Q 2716 3084 2419 3084 
Q 1956 3084 1622 2776 
Q 1288 2469 1184 1941 
L 800 0 
L 225 0 
L 903 3500 
L 1478 3500 
L 1363 2950 
Q 1603 3253 1940 3418 
Q 2278 3584 2650 3584 
Q 3113 3584 3367 3334 
Q 3622 3084 3622 2631 
Q 3622 2519 3608 2391 
Q 3594 2263 3566 2113 
z
" transform="scale(0.015625)"/>
     </defs>
     <use xlink:href="#DejaVuSans-Oblique-52"/>
     <use xlink:href="#DejaVuSans-Oblique-65" transform="translate(69.482422 0)"/>
     <use xlink:href="#DejaVuSans-Oblique-6c" transform="translate(131.005859 0)"/>
     <use xlink:href="#DejaVuSans-Oblique-65" transform="translate(158.789062 0)"/>
     <use xlink:href="#DejaVuSans-Oblique-63" transform="translate(220.3125 0)"/>
     <use xlink:href="#DejaVuSans-Oblique-74" transform="translate(275.292969 0)"/>
     <use xlink:href="#DejaVuSans-Oblique-75" transform="translate(314.501953 0)"/>
     <use xlink:href="#DejaVuSans-Oblique-72" transform="translate(377.880859 0)"/>
     <use xlink:href="#DejaVuSans-Oblique-61" transform="translate(418.994141 0)"/>
     <use xlink:href="#DejaVuSans-Oblique-20" transform="translate(480.273438 0)"/>
     <use xlink:href="#DejaVuSans-Oblique-6f" transform="translate(512.060547 0)"/>
     <use xlink:href="#DejaVuSans-Oblique-70" transform="translate(573.242188 0)"/>
     <use xlink:href="#DejaVuSans-Oblique-65" transform="translate(636.71875 0)"/>
     <use xlink:href="#DejaVuSans-Oblique-72" transform="translate(698.242188 0)"/>
     <use xlink:href="#DejaVuSans-Oblique-61" transform="translate(739.355469 0)"/>
     <use xlink:href="#DejaVuSans-Oblique-74" transform="translate(800.634766 0)"/>
     <use xlink:href="#DejaVuSans-Oblique-69" transform="translate(839.84375 0)"/>
     <use xlink:href="#DejaVuSans-Oblique-76" transform="translate(867.626953 0)"/>
     <use xlink:href="#DejaVuSans-Oblique-61" transform="translate(926.806641 0)"/>
     <use xlink:href="#DejaVuSans-Oblique-20" transform="translate(988.085938 0)"/>
     <use xlink:href="#DejaVuSans-Oblique-73" transform="translate(1019.873047 0)"/>
     <use xlink:href="#DejaVuSans-Oblique-75" transform="translate(1071.972656 0)"/>
     <use xlink:href="#DejaVuSans-Oblique-62" transform="translate(1135.351562 0)"/>
     <use xlink:href="#DejaVuSans-Oblique-6f" transform="translate(1198.828125 0)"/>
     <use xlink:href="#DejaVuSans-Oblique-72" transform="translate(1260.009766 0)"/>
     <use xlink:href="#DejaVuSans-Oblique-64" transform="translate(1301.123047 0)"/>
     <use xlink:href="#DejaVuSans-Oblique-69" transform="translate(1364.599609 0)"/>
     <use xlink:href="#DejaVuSans-Oblique-6e" transform="translate(1392.382812 0)"/>
     <use xlink:href="#DejaVuSans-Oblique-61" transform="translate(1455.761719 0)"/>
     <use xlink:href="#DejaVuSans-Oblique-64" transform="translate(1517.041016 0)"/>
     <use xlink:href="#DejaVuSans-Oblique-61" transform="translate(1580.517578 0)"/>
    </g>
    <!-- con criterios mínimos de transición -->
    <g transform="translate(293.397891 402.663478) scale(0.17 -0.17)">
     <defs>
      <path id="DejaVuSans-Oblique-6d" d="M 5747 2113 
L 5338 0 
L 4763 0 
L 5166 2094 
Q 5191 2228 5203 2325 
Q 5216 2422 5216 2491 
Q 5216 2772 5059 2928 
Q 4903 3084 4622 3084 
Q 4203 3084 3875 2770 
Q 3547 2456 3450 1953 
L 3066 0 
L 2491 0 
L 2900 2094 
Q 2925 2209 2937 2307 
Q 2950 2406 2950 2484 
Q 2950 2769 2794 2926 
Q 2638 3084 2363 3084 
Q 1938 3084 1609 2770 
Q 1281 2456 1184 1953 
L 800 0 
L 225 0 
L 909 3500 
L 1484 3500 
L 1375 2956 
Q 1609 3263 1923 3423 
Q 2238 3584 2597 3584 
Q 2978 3584 3223 3384 
Q 3469 3184 3519 2828 
Q 3781 3197 4126 3390 
Q 4472 3584 4856 3584 
Q 5306 3584 5551 3325 
Q 5797 3066 5797 2591 
Q 5797 2488 5784 2364 
Q 5772 2241 5747 2113 
z
" transform="scale(0.015625)"/>
      <path id="DejaVuSans-Oblique-ed" d="M 909 3500 
L 1484 3500 
L 800 0 
L 225 0 
L 909 3500 
z
M 1911 5119 
L 2533 5119 
L 1286 3944 
L 805 3944 
L 1911 5119 
z
" transform="scale(0.015625)"/>
      <path id="DejaVuSans-Oblique-f3" d="M 1625 -91 
Q 1009 -91 651 289 
Q 294 669 294 1325 
Q 294 1706 417 2101 
Q 541 2497 738 2766 
Q 1047 3184 1428 3384 
Q 1809 3584 2291 3584 
Q 2888 3584 3255 3212 
Q 3622 2841 3622 2241 
Q 3622 1825 3500 1412 
Q 3378 1000 3181 728 
Q 2875 309 2494 109 
Q 2113 -91 1625 -91 
z
M 891 1344 
Q 891 869 1089 633 
Q 1288 397 1691 397 
Q 2269 397 2648 901 
Q 3028 1406 3028 2181 
Q 3028 2634 2825 2865 
Q 2622 3097 2228 3097 
Q 1903 3097 1650 2945 
Q 1397 2794 1197 2484 
Q 1050 2253 970 1956 
Q 891 1659 891 1344 
z
M 3079 5119 
L 3701 5119 
L 2454 3944 
L 1973 3944 
L 3079 5119 
z
" transform="scale(0.015625)"/>
     </defs>
     <use xlink:href="#DejaVuSans-Oblique-63"/>
     <use xlink:href="#DejaVuSans-Oblique-6f" transform="translate(54.980469 0)"/>
     <use xlink:href="#DejaVuSans-Oblique-6e" transform="translate(116.162109 0)"/>
     <use xlink:href="#DejaVuSans-Oblique-20" transform="translate(179.541016 0)"/>
     <use xlink:href="#DejaVuSans-Oblique-63" transform="translate(211.328125 0)"/>
     <use xlink:href="#DejaVuSans-Oblique-72" transform="translate(266.308594 0)"/>
     <use xlink:href="#DejaVuSans-Oblique-69" transform="translate(307.421875 0)"/>
     <use xlink:href="#DejaVuSans-Oblique-74" transform="translate(335.205078 0)"/>
     <use xlink:href="#DejaVuSans-Oblique-65" transform="translate(374.414062 0)"/>
     <use xlink:href="#DejaVuSans-Oblique-72" transform="translate(435.9375 0)"/>
     <use xlink:href="#DejaVuSans-Oblique-69" transform="translate(477.050781 0)"/>
     <use xlink:href="#DejaVuSans-Oblique-6f" transform="translate(504.833984 0)"/>
     <use xlink:href="#DejaVuSans-Oblique-73" transform="translate(566.015625 0)"/>
     <use xlink:href="#DejaVuSans-Oblique-20" transform="translate(618.115234 0)"/>
     <use xlink:href="#DejaVuSans-Oblique-6d" transform="translate(649.902344 0)"/>
     <use xlink:href="#DejaVuSans-Oblique-ed" transform="translate(747.314453 0)"/>
     <use xlink:href="#DejaVuSans-Oblique-6e" transform="translate(775.097656 0)"/>
     <use xlink:href="#DejaVuSans-Oblique-69" transform="translate(838.476562 0)"/>
     <use xlink:href="#DejaVuSans-Oblique-6d" transform="translate(866.259766 0)"/>
     <use xlink:href="#DejaVuSans-Oblique-6f" transform="translate(963.671875 0)"/>
     <use xlink:href="#DejaVuSans-Oblique-73" transform="translate(1024.853516 0)"/>
     <use xlink:href="#DejaVuSans-Oblique-20" transform="translate(1076.953125 0)"/>
     <use xlink:href="#DejaVuSans-Oblique-64" transform="translate(1108.740234 0)"/>
     <use xlink:href="#DejaVuSans-Oblique-65" transform="translate(1172.216797 0)"/>
     <use xlink:href="#DejaVuSans-Oblique-20" transform="translate(1233.740234 0)"/>
     <use xlink:href="#DejaVuSans-Oblique-74" transform="translate(1265.527344 0)"/>
     <use xlink:href="#DejaVuSans-Oblique-72" transform="translate(1304.736328 0)"/>
     <use xlink:href="#DejaVuSans-Oblique-61" transform="translate(1345.849609 0)"/>
     <use xlink:href="#DejaVuSans-Oblique-6e" transform="translate(1407.128906 0)"/>
     <use xlink:href="#DejaVuSans-Oblique-73" transform="translate(1470.507812 0)"/>
     <use xlink:href="#DejaVuSans-Oblique-69" transform="translate(1522.607422 0)"/>
     <use xlink:href="#DejaVuSans-Oblique-63" transform="translate(1550.390625 0)"/>
     <use xlink:href="#DejaVuSans-Oblique-69" transform="translate(1605.371094 0)"/>
     <use xlink:href="#DejaVuSans-Oblique-f3" transform="translate(1633.154297 0)"/>
     <use xlink:href="#DejaVuSans-Oblique-6e" transform="translate(1694.335938 0)"/>
    </g>
   </g>
   <g id="text_9">
    <!-- El cierre legítimo solo comparece en el cuarto estrato; -->
    <g transform="translate(225.39375 463.68075) scale(0.16 -0.16)">
     <defs>
      <path id="DejaVuSans-45" d="M 628 4666 
L 3578 4666 
L 3578 4134 
L 1259 4134 
L 1259 2753 
L 3481 2753 
L 3481 2222 
L 1259 2222 
L 1259 531 
L 3634 531 
L 3634 0 
L 628 0 
L 628 4666 
z
" transform="scale(0.015625)"/>
      <path id="DejaVuSans-6d" d="M 3328 2828 
Q 3544 3216 3844 3400 
Q 4144 3584 4550 3584 
Q 5097 3584 5394 3201 
Q 5691 2819 5691 2113 
L 5691 0 
L 5113 0 
L 5113 2094 
Q 5113 2597 4934 2840 
Q 4756 3084 4391 3084 
Q 3944 3084 3684 2787 
Q 3425 2491 3425 1978 
L 3425 0 
L 2847 0 
L 2847 2094 
Q 2847 2600 2669 2842 
Q 2491 3084 2119 3084 
Q 1678 3084 1418 2786 
Q 1159 2488 1159 1978 
L 1159 0 
L 581 0 
L 581 3500 
L 1159 3500 
L 1159 2956 
Q 1356 3278 1631 3431 
Q 1906 3584 2284 3584 
Q 2666 3584 2933 3390 
Q 3200 3197 3328 2828 
z
" transform="scale(0.015625)"/>
      <path id="DejaVuSans-3b" d="M 750 3309 
L 1409 3309 
L 1409 2516 
L 750 2516 
L 750 3309 
z
M 750 794 
L 1409 794 
L 1409 256 
L 897 -744 
L 494 -744 
L 750 256 
L 750 794 
z
" transform="scale(0.015625)"/>
     </defs>
     <use xlink:href="#DejaVuSans-45"/>
     <use xlink:href="#DejaVuSans-6c" transform="translate(63.183594 0)"/>
     <use xlink:href="#DejaVuSans-20" transform="translate(90.966797 0)"/>
     <use xlink:href="#DejaVuSans-63" transform="translate(122.753906 0)"/>
     <use xlink:href="#DejaVuSans-69" transform="translate(177.734375 0)"/>
     <use xlink:href="#DejaVuSans-65" transform="translate(205.517578 0)"/>
     <use xlink:href="#DejaVuSans-72" transform="translate(267.041016 0)"/>
     <use xlink:href="#DejaVuSans-72" transform="translate(306.404297 0)"/>
     <use xlink:href="#DejaVuSans-65" transform="translate(345.267578 0)"/>
     <use xlink:href="#DejaVuSans-20" transform="translate(406.791016 0)"/>
     <use xlink:href="#DejaVuSans-6c" transform="translate(438.578125 0)"/>
     <use xlink:href="#DejaVuSans-65" transform="translate(466.361328 0)"/>
     <use xlink:href="#DejaVuSans-67" transform="translate(527.884766 0)"/>
     <use xlink:href="#DejaVuSans-ed" transform="translate(591.361328 0)"/>
     <use xlink:href="#DejaVuSans-74" transform="translate(619.144531 0)"/>
     <use xlink:href="#DejaVuSans-69" transform="translate(658.353516 0)"/>
     <use xlink:href="#DejaVuSans-6d" transform="translate(686.136719 0)"/>
     <use xlink:href="#DejaVuSans-6f" transform="translate(783.548828 0)"/>
     <use xlink:href="#DejaVuSans-20" transform="translate(844.730469 0)"/>
     <use xlink:href="#DejaVuSans-73" transform="translate(876.517578 0)"/>
     <use xlink:href="#DejaVuSans-6f" transform="translate(928.617188 0)"/>
     <use xlink:href="#DejaVuSans-6c" transform="translate(989.798828 0)"/>
     <use xlink:href="#DejaVuSans-6f" transform="translate(1017.582031 0)"/>
     <use xlink:href="#DejaVuSans-20" transform="translate(1078.763672 0)"/>
     <use xlink:href="#DejaVuSans-63" transform="translate(1110.550781 0)"/>
     <use xlink:href="#DejaVuSans-6f" transform="translate(1165.53125 0)"/>
     <use xlink:href="#DejaVuSans-6d" transform="translate(1226.712891 0)"/>
     <use xlink:href="#DejaVuSans-70" transform="translate(1324.125 0)"/>
     <use xlink:href="#DejaVuSans-61" transform="translate(1387.601562 0)"/>
     <use xlink:href="#DejaVuSans-72" transform="translate(1448.880859 0)"/>
     <use xlink:href="#DejaVuSans-65" transform="translate(1487.744141 0)"/>
     <use xlink:href="#DejaVuSans-63" transform="translate(1549.267578 0)"/>
     <use xlink:href="#DejaVuSans-65" transform="translate(1604.248047 0)"/>
     <use xlink:href="#DejaVuSans-20" transform="translate(1665.771484 0)"/>
     <use xlink:href="#DejaVuSans-65" transform="translate(1697.558594 0)"/>
     <use xlink:href="#DejaVuSans-6e" transform="translate(1759.082031 0)"/>
     <use xlink:href="#DejaVuSans-20" transform="translate(1822.460938 0)"/>
     <use xlink:href="#DejaVuSans-65" transform="translate(1854.248047 0)"/>
     <use xlink:href="#DejaVuSans-6c" transform="translate(1915.771484 0)"/>
     <use xlink:href="#DejaVuSans-20" transform="translate(1943.554688 0)"/>
     <use xlink:href="#DejaVuSans-63" transform="translate(1975.341797 0)"/>
     <use xlink:href="#DejaVuSans-75" transform="translate(2030.322266 0)"/>
     <use xlink:href="#DejaVuSans-61" transform="translate(2093.701172 0)"/>
     <use xlink:href="#DejaVuSans-72" transform="translate(2154.980469 0)"/>
     <use xlink:href="#DejaVuSans-74" transform="translate(2196.09375 0)"/>
     <use xlink:href="#DejaVuSans-6f" transform="translate(2235.302734 0)"/>
     <use xlink:href="#DejaVuSans-20" transform="translate(2296.484375 0)"/>
     <use xlink:href="#DejaVuSans-65" transform="translate(2328.271484 0)"/>
     <use xlink:href="#DejaVuSans-73" transform="translate(2389.794922 0)"/>
     <use xlink:href="#DejaVuSans-74" transform="translate(2441.894531 0)"/>
     <use xlink:href="#DejaVuSans-72" transform="translate(2481.103516 0)"/>
     <use xlink:href="#DejaVuSans-61" transform="translate(2522.216797 0)"/>
     <use xlink:href="#DejaVuSans-74" transform="translate(2583.496094 0)"/>
     <use xlink:href="#DejaVuSans-6f" transform="translate(2622.705078 0)"/>
     <use xlink:href="#DejaVuSans-3b" transform="translate(2683.886719 0)"/>
    </g>
    <!-- los tres primeros pertenecen a la preparación observacional subordinada. -->
    <g transform="translate(146.87625 482.36525) scale(0.16 -0.16)">
     <defs>
      <path id="DejaVuSans-2e" d="M 684 794 
L 1344 794 
L 1344 0 
L 684 0 
L 684 794 
z
" transform="scale(0.015625)"/>
     </defs>
     <use xlink:href="#DejaVuSans-6c"/>
     <use xlink:href="#DejaVuSans-6f" transform="translate(27.783203 0)"/>
     <use xlink:href="#DejaVuSans-73" transform="translate(88.964844 0)"/>
     <use xlink:href="#DejaVuSans-20" transform="translate(141.064453 0)"/>
     <use xlink:href="#DejaVuSans-74" transform="translate(172.851562 0)"/>
     <use xlink:href="#DejaVuSans-72" transform="translate(212.060547 0)"/>
     <use xlink:href="#DejaVuSans-65" transform="translate(250.923828 0)"/>
     <use xlink:href="#DejaVuSans-73" transform="translate(312.447266 0)"/>
     <use xlink:href="#DejaVuSans-20" transform="translate(364.546875 0)"/>
     <use xlink:href="#DejaVuSans-70" transform="translate(396.333984 0)"/>
     <use xlink:href="#DejaVuSans-72" transform="translate(459.810547 0)"/>
     <use xlink:href="#DejaVuSans-69" transform="translate(500.923828 0)"/>
     <use xlink:href="#DejaVuSans-6d" transform="translate(528.707031 0)"/>
     <use xlink:href="#DejaVuSans-65" transform="translate(626.119141 0)"/>
     <use xlink:href="#DejaVuSans-72" transform="translate(687.642578 0)"/>
     <use xlink:href="#DejaVuSans-6f" transform="translate(726.505859 0)"/>
     <use xlink:href="#DejaVuSans-73" transform="translate(787.6875 0)"/>
     <use xlink:href="#DejaVuSans-20" transform="translate(839.787109 0)"/>
     <use xlink:href="#DejaVuSans-70" transform="translate(871.574219 0)"/>
     <use xlink:href="#DejaVuSans-65" transform="translate(935.050781 0)"/>
     <use xlink:href="#DejaVuSans-72" transform="translate(996.574219 0)"/>
     <use xlink:href="#DejaVuSans-74" transform="translate(1037.6875 0)"/>
     <use xlink:href="#DejaVuSans-65" transform="translate(1076.896484 0)"/>
     <use xlink:href="#DejaVuSans-6e" transform="translate(1138.419922 0)"/>
     <use xlink:href="#DejaVuSans-65" transform="translate(1201.798828 0)"/>
     <use xlink:href="#DejaVuSans-63" transform="translate(1263.322266 0)"/>
     <use xlink:href="#DejaVuSans-65" transform="translate(1318.302734 0)"/>
     <use xlink:href="#DejaVuSans-6e" transform="translate(1379.826172 0)"/>
     <use xlink:href="#DejaVuSans-20" transform="translate(1443.205078 0)"/>
     <use xlink:href="#DejaVuSans-61" transform="translate(1474.992188 0)"/>
     <use xlink:href="#DejaVuSans-20" transform="translate(1536.271484 0)"/>
     <use xlink:href="#DejaVuSans-6c" transform="translate(1568.058594 0)"/>
     <use xlink:href="#DejaVuSans-61" transform="translate(1595.841797 0)"/>
     <use xlink:href="#DejaVuSans-20" transform="translate(1657.121094 0)"/>
     <use xlink:href="#DejaVuSans-70" transform="translate(1688.908203 0)"/>
     <use xlink:href="#DejaVuSans-72" transform="translate(1752.384766 0)"/>
     <use xlink:href="#DejaVuSans-65" transform="translate(1791.248047 0)"/>
     <use xlink:href="#DejaVuSans-70" transform="translate(1852.771484 0)"/>
     <use xlink:href="#DejaVuSans-61" transform="translate(1916.248047 0)"/>
     <use xlink:href="#DejaVuSans-72" transform="translate(1977.527344 0)"/>
     <use xlink:href="#DejaVuSans-61" transform="translate(2018.640625 0)"/>
     <use xlink:href="#DejaVuSans-63" transform="translate(2079.919922 0)"/>
     <use xlink:href="#DejaVuSans-69" transform="translate(2134.900391 0)"/>
     <use xlink:href="#DejaVuSans-f3" transform="translate(2162.683594 0)"/>
     <use xlink:href="#DejaVuSans-6e" transform="translate(2223.865234 0)"/>
     <use xlink:href="#DejaVuSans-20" transform="translate(2287.244141 0)"/>
     <use xlink:href="#DejaVuSans-6f" transform="translate(2319.03125 0)"/>
     <use xlink:href="#DejaVuSans-62" transform="translate(2380.212891 0)"/>
     <use xlink:href="#DejaVuSans-73" transform="translate(2443.689453 0)"/>
     <use xlink:href="#DejaVuSans-65" transform="translate(2495.789062 0)"/>
     <use xlink:href="#DejaVuSans-72" transform="translate(2557.3125 0)"/>
     <use xlink:href="#DejaVuSans-76" transform="translate(2598.425781 0)"/>
     <use xlink:href="#DejaVuSans-61" transform="translate(2657.605469 0)"/>
     <use xlink:href="#DejaVuSans-63" transform="translate(2718.884766 0)"/>
     <use xlink:href="#DejaVuSans-69" transform="translate(2773.865234 0)"/>
     <use xlink:href="#DejaVuSans-6f" transform="translate(2801.648438 0)"/>
     <use xlink:href="#DejaVuSans-6e" transform="translate(2862.830078 0)"/>
     <use xlink:href="#DejaVuSans-61" transform="translate(2926.208984 0)"/>
     <use xlink:href="#DejaVuSans-6c" transform="translate(2987.488281 0)"/>
     <use xlink:href="#DejaVuSans-20" transform="translate(3015.271484 0)"/>
     <use xlink:href="#DejaVuSans-73" transform="translate(3047.058594 0)"/>
     <use xlink:href="#DejaVuSans-75" transform="translate(3099.158203 0)"/>
     <use xlink:href="#DejaVuSans-62" transform="translate(3162.537109 0)"/>
     <use xlink:href="#DejaVuSans-6f" transform="translate(3226.013672 0)"/>
     <use xlink:href="#DejaVuSans-72" transform="translate(3287.195312 0)"/>
     <use xlink:href="#DejaVuSans-64" transform="translate(3326.558594 0)"/>
     <use xlink:href="#DejaVuSans-69" transform="translate(3390.035156 0)"/>
     <use xlink:href="#DejaVuSans-6e" transform="translate(3417.818359 0)"/>
     <use xlink:href="#DejaVuSans-61" transform="translate(3481.197266 0)"/>
     <use xlink:href="#DejaVuSans-64" transform="translate(3542.476562 0)"/>
     <use xlink:href="#DejaVuSans-61" transform="translate(3605.953125 0)"/>
     <use xlink:href="#DejaVuSans-2e" transform="translate(3667.232422 0)"/>
    </g>
   </g>
  </g>
 </g>
 <defs>
  <clipPath id="pd0ba460234">
   <rect x="108" y="69.12" width="669.6" height="443.52"/>
  </clipPath>
 </defs>
</svg>
